<!DOCTYPE svg PUBLIC "-//W3C//DTD SVG 1.1//EN" "http://www.w3.org/Graphics/SVG/1.1/DTD/svg11.dtd">
<svg xmlns="http://www.w3.org/2000/svg" xmlns:xlink="http://www.w3.org/1999/xlink" width="500" height="359">
<defs></defs>
<rect x="0" y="0" width="500" height="359" style="fill: rgb(255,255,255);fill-opacity: 1.0" transform="matrix(1,0,0,1,0,0)" /><g style="fill: rgb(222,222,222);fill-opacity: 1.0; stroke: none" transform="matrix(1,0,0,1,244,167.5)" ><path d="M -166.51 101.88 L -152.15 36.89 L 140.66 36.33 L 167.95 100.11 M -166.51 101.88"/></g><g style="fill: rgb(163,163,163);fill-opacity: 1.0; stroke: none" transform="matrix(1,0,0,1,244,167.5)" ><path d="M -152.15 36.89 L -157.64 -93.96 L 151.1 -92.45 L 140.66 36.33 M -152.15 36.89"/></g><line x1="140.66" y1="36.33" x2="-152.15" y2="36.89" style="stroke-width: 0.5;stroke: rgb(255,255,255);stroke-opacity: 1.0;stroke-dasharray: 3.0, 3.0;" transform="matrix(1,0,0,1,244,167.5)" /><line x1="142.49" y1="13.74" x2="-153.12" y2="13.96" style="stroke-width: 0.5;stroke: rgb(255,255,255);stroke-opacity: 1.0;stroke-dasharray: 3.0, 3.0;" transform="matrix(1,0,0,1,244,167.5)" /><line x1="144.36" y1="-9.28" x2="-154.1" y2="-9.43" style="stroke-width: 0.5;stroke: rgb(255,255,255);stroke-opacity: 1.0;stroke-dasharray: 3.0, 3.0;" transform="matrix(1,0,0,1,244,167.5)" /><line x1="146.26" y1="-32.75" x2="-155.09" y2="-33.27" style="stroke-width: 0.5;stroke: rgb(255,255,255);stroke-opacity: 1.0;stroke-dasharray: 3.0, 3.0;" transform="matrix(1,0,0,1,244,167.5)" /><line x1="148.2" y1="-56.67" x2="-156.11" y2="-57.58" style="stroke-width: 0.5;stroke: rgb(255,255,255);stroke-opacity: 1.0;stroke-dasharray: 3.0, 3.0;" transform="matrix(1,0,0,1,244,167.5)" /><line x1="150.18" y1="-81.07" x2="-157.15" y2="-82.38" style="stroke-width: 0.5;stroke: rgb(255,255,255);stroke-opacity: 1.0;stroke-dasharray: 3.0, 3.0;" transform="matrix(1,0,0,1,244,167.5)" /><g style="fill: rgb(50,50,50);fill-opacity: 1.0; stroke: none" transform="matrix(1,0,0,1,244,167.5)" ><path d="M -166.51 101.88 L -173.74 -44.87 L -157.64 -93.96 L -152.15 36.89 M -166.51 101.88"/></g><line x1="-166.51" y1="101.88" x2="-152.15" y2="36.89" style="stroke-width: 0.5;stroke: rgb(255,255,255);stroke-opacity: 1.0;stroke-dasharray: 3.0, 3.0;" transform="matrix(1,0,0,1,244,167.5)" /><line x1="-167.77" y1="76.32" x2="-153.12" y2="13.96" style="stroke-width: 0.5;stroke: rgb(255,255,255);stroke-opacity: 1.0;stroke-dasharray: 3.0, 3.0;" transform="matrix(1,0,0,1,244,167.5)" /><line x1="-169.05" y1="50.2" x2="-154.1" y2="-9.43" style="stroke-width: 0.5;stroke: rgb(255,255,255);stroke-opacity: 1.0;stroke-dasharray: 3.0, 3.0;" transform="matrix(1,0,0,1,244,167.5)" /><line x1="-170.37" y1="23.48" x2="-155.09" y2="-33.27" style="stroke-width: 0.5;stroke: rgb(255,255,255);stroke-opacity: 1.0;stroke-dasharray: 3.0, 3.0;" transform="matrix(1,0,0,1,244,167.5)" /><line x1="-171.72" y1="-3.84" x2="-156.11" y2="-57.58" style="stroke-width: 0.5;stroke: rgb(255,255,255);stroke-opacity: 1.0;stroke-dasharray: 3.0, 3.0;" transform="matrix(1,0,0,1,244,167.5)" /><line x1="-173.09" y1="-31.8" x2="-157.15" y2="-82.38" style="stroke-width: 0.5;stroke: rgb(255,255,255);stroke-opacity: 1.0;stroke-dasharray: 3.0, 3.0;" transform="matrix(1,0,0,1,244,167.5)" /><g style="fill: rgb(204,204,204);fill-opacity: 1.0; stroke: none" transform="matrix(1,0,0,1,244,167.5)" ><path d="M 140.66 36.33 L 151.1 -92.45 L 181.66 -44.05 L 167.95 100.11 M 140.66 36.33"/></g><line x1="167.95" y1="100.11" x2="140.66" y2="36.33" style="stroke-width: 0.5;stroke: rgb(255,255,255);stroke-opacity: 1.0;stroke-dasharray: 3.0, 3.0;" transform="matrix(1,0,0,1,244,167.5)" /><line x1="170.34" y1="74.98" x2="142.49" y2="13.74" style="stroke-width: 0.5;stroke: rgb(255,255,255);stroke-opacity: 1.0;stroke-dasharray: 3.0, 3.0;" transform="matrix(1,0,0,1,244,167.5)" /><line x1="172.78" y1="49.31" x2="144.36" y2="-9.28" style="stroke-width: 0.5;stroke: rgb(255,255,255);stroke-opacity: 1.0;stroke-dasharray: 3.0, 3.0;" transform="matrix(1,0,0,1,244,167.5)" /><line x1="175.28" y1="23.06" x2="146.26" y2="-32.75" style="stroke-width: 0.5;stroke: rgb(255,255,255);stroke-opacity: 1.0;stroke-dasharray: 3.0, 3.0;" transform="matrix(1,0,0,1,244,167.5)" /><line x1="177.83" y1="-3.77" x2="148.2" y2="-56.67" style="stroke-width: 0.5;stroke: rgb(255,255,255);stroke-opacity: 1.0;stroke-dasharray: 3.0, 3.0;" transform="matrix(1,0,0,1,244,167.5)" /><line x1="180.44" y1="-31.21" x2="150.18" y2="-81.07" style="stroke-width: 0.5;stroke: rgb(255,255,255);stroke-opacity: 1.0;stroke-dasharray: 3.0, 3.0;" transform="matrix(1,0,0,1,244,167.5)" /><g style="fill: rgb(211,148,105);fill-opacity: 1.0; stroke: none" transform="matrix(1,0,0,1,244,167.5)" ><path d="M 108.61 41.78 L 126.17 41.74 L 128.21 46.95 L 110.45 47 M 108.61 41.78"/></g><g style="fill: rgb(211,148,105);fill-opacity: 1.0; stroke: none" transform="matrix(1,0,0,1,244,167.5)" ><path d="M 86.63 41.83 L 104.22 41.79 L 106.01 47.01 L 88.22 47.05 M 86.63 41.83"/></g><g style="fill: rgb(211,148,105);fill-opacity: 1.0; stroke: none" transform="matrix(1,0,0,1,244,167.5)" ><path d="M 64.59 41.87 L 82.22 41.84 L 83.76 47.06 L 65.93 47.11 M 64.59 41.87"/></g><g style="fill: rgb(211,148,105);fill-opacity: 1.0; stroke: none" transform="matrix(1,0,0,1,244,167.5)" ><path d="M 42.5 41.92 L 60.18 41.88 L 61.47 47.12 L 43.59 47.16 M 42.5 41.92"/></g><g style="fill: rgb(211,148,105);fill-opacity: 1.0; stroke: none" transform="matrix(1,0,0,1,244,167.5)" ><path d="M 20.36 41.97 L 38.08 41.93 L 39.12 47.17 L 21.2 47.22 M 20.36 41.97"/></g><g style="fill: rgb(211,148,105);fill-opacity: 1.0; stroke: none" transform="matrix(1,0,0,1,244,167.5)" ><path d="M -1.83 42.02 L 15.93 41.98 L 16.71 47.23 L -1.25 47.27 M -1.83 42.02"/></g><g style="fill: rgb(211,148,105);fill-opacity: 1.0; stroke: none" transform="matrix(1,0,0,1,244,167.5)" ><path d="M -24.07 42.07 L -6.27 42.03 L -5.74 47.28 L -23.75 47.33 M -24.07 42.07"/></g><g style="fill: rgb(211,148,105);fill-opacity: 1.0; stroke: none" transform="matrix(1,0,0,1,244,167.5)" ><path d="M -46.37 42.12 L -28.53 42.08 L -28.25 47.34 L -46.3 47.38 M -46.37 42.12"/></g><g style="fill: rgb(211,148,105);fill-opacity: 1.0; stroke: none" transform="matrix(1,0,0,1,244,167.5)" ><path d="M -68.72 42.17 L -50.83 42.13 L -50.82 47.4 L -68.9 47.44 M -68.72 42.17"/></g><g style="fill: rgb(155,109,77);fill-opacity: 1.0; stroke: none" transform="matrix(1,0,0,1,244,167.5)" ><path d="M 60.18 41.88 L 42.5 41.92 L 44.92 -18.63 L 63.04 -18.61 M 60.18 41.88"/></g><g style="fill: rgb(155,109,77);fill-opacity: 1.0; stroke: none" transform="matrix(1,0,0,1,244,167.5)" ><path d="M 38.08 41.93 L 20.36 41.97 L 22.07 -13.88 L 40.2 -13.86 M 38.08 41.93"/></g><g style="fill: rgb(211,148,105);fill-opacity: 1.0; stroke: none" transform="matrix(1,0,0,1,244,167.5)" ><path d="M -91.12 42.22 L -73.19 42.18 L -73.43 47.45 L -91.56 47.5 M -91.12 42.22"/></g><g style="fill: rgb(155,109,77);fill-opacity: 1.0; stroke: none" transform="matrix(1,0,0,1,244,167.5)" ><path d="M 15.93 41.98 L -1.83 42.02 L -0.74 -9.13 L 17.4 -9.12 M 15.93 41.98"/></g><g style="fill: rgb(155,109,77);fill-opacity: 1.0; stroke: none" transform="matrix(1,0,0,1,244,167.5)" ><path d="M 82.22 41.84 L 64.59 41.87 L 68.04 -28.18 L 86.19 -28.16 M 82.22 41.84"/></g><g style="fill: rgb(211,148,105);fill-opacity: 1.0; stroke: none" transform="matrix(1,0,0,1,244,167.5)" ><path d="M -113.57 42.27 L -95.6 42.23 L -96.1 47.51 L -114.27 47.55 M -113.57 42.27"/></g><g style="fill: rgb(155,109,77);fill-opacity: 1.0; stroke: none" transform="matrix(1,0,0,1,244,167.5)" ><path d="M 104.22 41.79 L 86.63 41.83 L 91.29 -37.79 L 109.46 -37.76 M 104.22 41.79"/></g><g style="fill: rgb(155,109,77);fill-opacity: 1.0; stroke: none" transform="matrix(1,0,0,1,244,167.5)" ><path d="M 126.17 41.74 L 108.61 41.78 L 114.66 -47.45 L 132.87 -47.41 M 126.17 41.74"/></g><g style="fill: rgb(155,109,77);fill-opacity: 1.0; stroke: none" transform="matrix(1,0,0,1,244,167.5)" ><path d="M -6.27 42.03 L -24.07 42.07 L -23.41 -13.91 L -5.19 -13.9 M -6.27 42.03"/></g><g style="fill: rgb(211,148,105);fill-opacity: 1.0; stroke: none" transform="matrix(1,0,0,1,244,167.5)" ><path d="M -136.07 42.32 L -118.06 42.28 L -118.82 47.56 L -137.04 47.61 M -136.07 42.32"/></g><g style="fill: rgb(195,136,97);fill-opacity: 1.0; stroke: none" transform="matrix(1,0,0,1,244,167.5)" ><path d="M 61.47 47.12 L 60.18 41.88 L 63.04 -18.61 L 64.4 -13.95 M 61.47 47.12"/></g><g style="fill: rgb(195,136,97);fill-opacity: 1.0; stroke: none" transform="matrix(1,0,0,1,244,167.5)" ><path d="M 39.12 47.17 L 38.08 41.93 L 40.2 -13.86 L 41.29 -9.15 M 39.12 47.17"/></g><g style="fill: rgb(155,109,77);fill-opacity: 1.0; stroke: none" transform="matrix(1,0,0,1,244,167.5)" ><path d="M -28.53 42.08 L -46.37 42.12 L -46.2 -23.52 L -27.87 -23.5 M -28.53 42.08"/></g><g style="fill: rgb(195,136,97);fill-opacity: 1.0; stroke: none" transform="matrix(1,0,0,1,244,167.5)" ><path d="M 16.71 47.23 L 15.93 41.98 L 17.4 -9.12 L 18.22 -4.36 M 16.71 47.23"/></g><g style="fill: rgb(195,136,97);fill-opacity: 1.0; stroke: none" transform="matrix(1,0,0,1,244,167.5)" ><path d="M 83.76 47.06 L 82.22 41.84 L 86.19 -28.16 L 87.82 -23.6 M 83.76 47.06"/></g><g style="fill: rgb(195,136,97);fill-opacity: 1.0; stroke: none" transform="matrix(1,0,0,1,244,167.5)" ><path d="M 42.5 41.92 L 44.92 -18.63 L 46.07 -13.97 L 43.59 47.16 M 42.5 41.92"/></g><g style="fill: rgb(195,136,97);fill-opacity: 1.0; stroke: none" transform="matrix(1,0,0,1,244,167.5)" ><path d="M 20.36 41.97 L 22.07 -13.88 L 22.95 -9.16 L 21.2 47.22 M 20.36 41.97"/></g><g style="fill: rgb(195,136,97);fill-opacity: 1.0; stroke: none" transform="matrix(1,0,0,1,244,167.5)" ><path d="M -1.83 42.02 L -0.74 -9.13 L -0.13 -4.37 L -1.25 47.27 M -1.83 42.02"/></g><g style="fill: rgb(195,136,97);fill-opacity: 1.0; stroke: none" transform="matrix(1,0,0,1,244,167.5)" ><path d="M 106.01 47.01 L 104.22 41.79 L 109.46 -37.76 L 111.38 -33.3 M 106.01 47.01"/></g><g style="fill: rgb(195,136,97);fill-opacity: 1.0; stroke: none" transform="matrix(1,0,0,1,244,167.5)" ><path d="M 64.59 41.87 L 68.04 -28.18 L 69.46 -23.62 L 65.93 47.11 M 64.59 41.87"/></g><g style="fill: rgb(195,136,97);fill-opacity: 1.0; stroke: none" transform="matrix(1,0,0,1,244,167.5)" ><path d="M 128.21 46.95 L 126.17 41.74 L 132.87 -47.41 L 135.06 -43.05 M 128.21 46.95"/></g><g style="fill: rgb(195,136,97);fill-opacity: 1.0; stroke: none" transform="matrix(1,0,0,1,244,167.5)" ><path d="M 86.63 41.83 L 91.29 -37.79 L 92.99 -33.33 L 88.22 47.05 M 86.63 41.83"/></g><g style="fill: rgb(195,136,97);fill-opacity: 1.0; stroke: none" transform="matrix(1,0,0,1,244,167.5)" ><path d="M -5.74 47.28 L -6.27 42.03 L -5.19 -13.9 L -4.63 -9.18 M -5.74 47.28"/></g><g style="fill: rgb(195,136,97);fill-opacity: 1.0; stroke: none" transform="matrix(1,0,0,1,244,167.5)" ><path d="M 108.61 41.78 L 114.66 -47.45 L 116.64 -43.1 L 110.45 47 M 108.61 41.78"/></g><g style="fill: rgb(195,136,97);fill-opacity: 1.0; stroke: none" transform="matrix(1,0,0,1,244,167.5)" ><path d="M -24.07 42.07 L -23.41 -13.91 L -23.06 -9.18 L -23.75 47.33 M -24.07 42.07"/></g><g style="fill: rgb(155,109,77);fill-opacity: 1.0; stroke: none" transform="matrix(1,0,0,1,244,167.5)" ><path d="M -50.83 42.13 L -68.72 42.17 L -69.27 -38.11 L -50.78 -38.07 M -50.83 42.13"/></g><g style="fill: rgb(195,136,97);fill-opacity: 1.0; stroke: none" transform="matrix(1,0,0,1,244,167.5)" ><path d="M -28.25 47.34 L -28.53 42.08 L -27.87 -23.5 L -27.58 -18.87 M -28.25 47.34"/></g><g style="fill: rgb(155,109,77);fill-opacity: 1.0; stroke: none" transform="matrix(1,0,0,1,244,167.5)" ><path d="M 46.07 -13.97 L 64.4 -13.95 L 61.47 47.12 L 43.59 47.16 M 46.07 -13.97"/></g><g style="fill: rgb(155,109,77);fill-opacity: 1.0; stroke: none" transform="matrix(1,0,0,1,244,167.5)" ><path d="M 22.95 -9.16 L 41.29 -9.15 L 39.12 47.17 L 21.2 47.22 M 22.95 -9.16"/></g><g style="fill: rgb(195,136,97);fill-opacity: 1.0; stroke: none" transform="matrix(1,0,0,1,244,167.5)" ><path d="M -46.37 42.12 L -46.2 -23.52 L -46.13 -18.89 L -46.3 47.38 M -46.37 42.12"/></g><g style="fill: rgb(155,109,77);fill-opacity: 1.0; stroke: none" transform="matrix(1,0,0,1,244,167.5)" ><path d="M -0.13 -4.37 L 18.22 -4.36 L 16.71 47.23 L -1.25 47.27 M -0.13 -4.37"/></g><g style="fill: rgb(155,109,77);fill-opacity: 1.0; stroke: none" transform="matrix(1,0,0,1,244,167.5)" ><path d="M 69.46 -23.62 L 87.82 -23.6 L 83.76 47.06 L 65.93 47.11 M 69.46 -23.62"/></g><g style="fill: rgb(165,142,106);fill-opacity: 1.0; stroke: none" transform="matrix(1,0,0,1,244,167.5)" ><path d="M 112.34 52.34 L 130.29 52.29 L 132.43 57.74 L 114.26 57.8 M 112.34 52.34"/></g><g style="fill: rgb(155,109,77);fill-opacity: 1.0; stroke: none" transform="matrix(1,0,0,1,244,167.5)" ><path d="M -73.19 42.18 L -91.12 42.22 L -92.58 -47.97 L -73.98 -47.93 M -73.19 42.18"/></g><g style="fill: rgb(155,109,77);fill-opacity: 1.0; stroke: none" transform="matrix(1,0,0,1,244,167.5)" ><path d="M 92.99 -33.33 L 111.38 -33.3 L 106.01 47.01 L 88.22 47.05 M 92.99 -33.33"/></g><g style="fill: rgb(155,109,77);fill-opacity: 1.0; stroke: none" transform="matrix(1,0,0,1,244,167.5)" ><path d="M 116.64 -43.1 L 135.06 -43.05 L 128.21 46.95 L 110.45 47 M 116.64 -43.1"/></g><g style="fill: rgb(165,142,106);fill-opacity: 1.0; stroke: none" transform="matrix(1,0,0,1,244,167.5)" ><path d="M 89.85 52.4 L 107.84 52.35 L 109.72 57.81 L 91.51 57.87 M 89.85 52.4"/></g><g style="fill: rgb(155,109,77);fill-opacity: 1.0; stroke: none" transform="matrix(1,0,0,1,244,167.5)" ><path d="M -23.06 -9.18 L -4.63 -9.18 L -5.74 47.28 L -23.75 47.33 M -23.06 -9.18"/></g><g style="fill: rgb(165,142,106);fill-opacity: 1.0; stroke: none" transform="matrix(1,0,0,1,244,167.5)" ><path d="M 67.3 52.46 L 85.34 52.41 L 86.96 57.88 L 68.71 57.94 M 67.3 52.46"/></g><g style="fill: rgb(155,109,77);fill-opacity: 1.0; stroke: none" transform="matrix(1,0,0,1,244,167.5)" ><path d="M -95.6 42.23 L -113.57 42.27 L -116.02 -52.97 L -97.33 -52.92 M -95.6 42.23"/></g><g style="fill: rgb(195,136,97);fill-opacity: 1.0; stroke: none" transform="matrix(1,0,0,1,244,167.5)" ><path d="M -50.82 47.4 L -50.83 42.13 L -50.78 -38.07 L -50.76 -33.58 M -50.82 47.4"/></g><g style="fill: rgb(47,33,23);fill-opacity: 1.0; stroke: none" transform="matrix(1,0,0,1,244,167.5)" ><path d="M -68.9 47.44 L -69.47 -33.62 L -69.27 -38.11 L -68.72 42.17 M -68.9 47.44"/></g><g style="fill: rgb(165,142,106);fill-opacity: 1.0; stroke: none" transform="matrix(1,0,0,1,244,167.5)" ><path d="M 44.7 52.52 L 62.79 52.47 L 64.14 57.95 L 45.84 58.01 M 44.7 52.52"/></g><g style="fill: rgb(155,109,77);fill-opacity: 1.0; stroke: none" transform="matrix(1,0,0,1,244,167.5)" ><path d="M -118.06 42.28 L -136.07 42.32 L -139.43 -53.04 L -120.7 -52.99 M -118.06 42.28"/></g><g style="fill: rgb(211,148,105);fill-opacity: 1.0; stroke: none" transform="matrix(1,0,0,1,244,167.5)" ><path d="M -0.74 -9.13 L 17.4 -9.12 L 18.22 -4.36 L -0.13 -4.37 M -0.74 -9.13"/></g><g style="fill: rgb(155,109,77);fill-opacity: 1.0; stroke: none" transform="matrix(1,0,0,1,244,167.5)" ><path d="M -46.13 -18.89 L -27.58 -18.87 L -28.25 47.34 L -46.3 47.38 M -46.13 -18.89"/></g><g style="fill: rgb(165,142,106);fill-opacity: 1.0; stroke: none" transform="matrix(1,0,0,1,244,167.5)" ><path d="M 22.05 52.58 L 40.18 52.53 L 41.27 58.02 L 22.93 58.08 M 22.05 52.58"/></g><g style="fill: rgb(211,148,105);fill-opacity: 1.0; stroke: none" transform="matrix(1,0,0,1,244,167.5)" ><path d="M 22.07 -13.88 L 40.2 -13.86 L 41.29 -9.15 L 22.95 -9.16 M 22.07 -13.88"/></g><g style="fill: rgb(47,33,23);fill-opacity: 1.0; stroke: none" transform="matrix(1,0,0,1,244,167.5)" ><path d="M -74.24 -43.53 L -73.98 -47.93 L -73.19 42.18 L -73.43 47.45 M -74.24 -43.53"/></g><g style="fill: rgb(211,148,105);fill-opacity: 1.0; stroke: none" transform="matrix(1,0,0,1,244,167.5)" ><path d="M 44.92 -18.63 L 63.04 -18.61 L 64.4 -13.95 L 46.07 -13.97 M 44.92 -18.63"/></g><g style="fill: rgb(165,142,106);fill-opacity: 1.0; stroke: none" transform="matrix(1,0,0,1,244,167.5)" ><path d="M -0.65 52.65 L 17.52 52.6 L 18.34 58.09 L -0.04 58.15 M -0.65 52.65"/></g><g style="fill: rgb(47,33,23);fill-opacity: 1.0; stroke: none" transform="matrix(1,0,0,1,244,167.5)" ><path d="M -91.56 47.5 L -93.07 -43.57 L -92.58 -47.97 L -91.12 42.22 M -91.56 47.5"/></g><g style="fill: rgb(165,142,106);fill-opacity: 1.0; stroke: none" transform="matrix(1,0,0,1,244,167.5)" ><path d="M -23.41 52.71 L -5.2 52.66 L -4.65 58.16 L -23.07 58.22 M -23.41 52.71"/></g><g style="fill: rgb(211,148,105);fill-opacity: 1.0; stroke: none" transform="matrix(1,0,0,1,244,167.5)" ><path d="M -23.41 -13.91 L -5.19 -13.9 L -4.63 -9.18 L -23.06 -9.18 M -23.41 -13.91"/></g><g style="fill: rgb(47,33,23);fill-opacity: 1.0; stroke: none" transform="matrix(1,0,0,1,244,167.5)" ><path d="M -97.87 -48.57 L -97.33 -52.92 L -95.6 42.23 L -96.1 47.51 M -97.87 -48.57"/></g><g style="fill: rgb(165,142,106);fill-opacity: 1.0; stroke: none" transform="matrix(1,0,0,1,244,167.5)" ><path d="M -46.23 52.77 L -27.97 52.72 L -27.68 58.23 L -46.15 58.29 M -46.23 52.77"/></g><g style="fill: rgb(211,148,105);fill-opacity: 1.0; stroke: none" transform="matrix(1,0,0,1,244,167.5)" ><path d="M 68.04 -28.18 L 86.19 -28.16 L 87.82 -23.6 L 69.46 -23.62 M 68.04 -28.18"/></g><g style="fill: rgb(47,33,23);fill-opacity: 1.0; stroke: none" transform="matrix(1,0,0,1,244,167.5)" ><path d="M -114.27 47.55 L -116.79 -48.62 L -116.02 -52.97 L -113.57 42.27 M -114.27 47.55"/></g><g style="fill: rgb(155,109,77);fill-opacity: 1.0; stroke: none" transform="matrix(1,0,0,1,244,167.5)" ><path d="M -69.47 -33.62 L -50.76 -33.58 L -50.82 47.4 L -68.9 47.44 M -69.47 -33.62"/></g><g style="fill: rgb(47,33,23);fill-opacity: 1.0; stroke: none" transform="matrix(1,0,0,1,244,167.5)" ><path d="M -121.52 -48.63 L -120.7 -52.99 L -118.06 42.28 L -118.82 47.56 M -121.52 -48.63"/></g><g style="fill: rgb(165,142,106);fill-opacity: 1.0; stroke: none" transform="matrix(1,0,0,1,244,167.5)" ><path d="M -69.1 52.84 L -50.8 52.79 L -50.78 58.3 L -69.29 58.36 M -69.1 52.84"/></g><g style="fill: rgb(47,33,23);fill-opacity: 1.0; stroke: none" transform="matrix(1,0,0,1,244,167.5)" ><path d="M -137.04 47.61 L -140.48 -48.68 L -139.43 -53.04 L -136.07 42.32 M -137.04 47.61"/></g><g style="fill: rgb(121,104,78);fill-opacity: 1.0; stroke: none" transform="matrix(1,0,0,1,244,167.5)" ><path d="M 40.18 52.53 L 22.05 52.58 L 23.84 -4.34 L 42.4 -4.33 M 40.18 52.53"/></g><g style="fill: rgb(165,142,106);fill-opacity: 1.0; stroke: none" transform="matrix(1,0,0,1,244,167.5)" ><path d="M -92.02 52.9 L -73.68 52.85 L -73.93 58.37 L -92.49 58.43 M -92.02 52.9"/></g><g style="fill: rgb(121,104,78);fill-opacity: 1.0; stroke: none" transform="matrix(1,0,0,1,244,167.5)" ><path d="M 17.52 52.6 L -0.65 52.65 L 0.49 0.51 L 19.06 0.51 M 17.52 52.6"/></g><g style="fill: rgb(211,148,105);fill-opacity: 1.0; stroke: none" transform="matrix(1,0,0,1,244,167.5)" ><path d="M 91.29 -37.79 L 109.46 -37.76 L 111.38 -33.3 L 92.99 -33.33 M 91.29 -37.79"/></g><g style="fill: rgb(121,104,78);fill-opacity: 1.0; stroke: none" transform="matrix(1,0,0,1,244,167.5)" ><path d="M 62.79 52.47 L 44.7 52.52 L 47.44 -14.07 L 66.03 -14.06 M 62.79 52.47"/></g><g style="fill: rgb(155,109,77);fill-opacity: 1.0; stroke: none" transform="matrix(1,0,0,1,244,167.5)" ><path d="M -93.07 -43.57 L -74.24 -43.53 L -73.43 47.45 L -91.56 47.5 M -93.07 -43.57"/></g><g style="fill: rgb(165,142,106);fill-opacity: 1.0; stroke: none" transform="matrix(1,0,0,1,244,167.5)" ><path d="M -115 52.96 L -96.61 52.91 L -97.13 58.44 L -115.74 58.5 M -115 52.96"/></g><g style="fill: rgb(121,104,78);fill-opacity: 1.0; stroke: none" transform="matrix(1,0,0,1,244,167.5)" ><path d="M -5.2 52.66 L -23.41 52.71 L -22.77 0.51 L -4.16 0.51 M -5.2 52.66"/></g><g style="fill: rgb(211,148,105);fill-opacity: 1.0; stroke: none" transform="matrix(1,0,0,1,244,167.5)" ><path d="M -46.2 -23.52 L -27.87 -23.5 L -27.58 -18.87 L -46.13 -18.89 M -46.2 -23.52"/></g><g style="fill: rgb(165,142,106);fill-opacity: 1.0; stroke: none" transform="matrix(1,0,0,1,244,167.5)" ><path d="M -138.03 53.03 L -119.6 52.98 L -120.4 58.52 L -139.05 58.57 M -138.03 53.03"/></g><g style="fill: rgb(121,104,78);fill-opacity: 1.0; stroke: none" transform="matrix(1,0,0,1,244,167.5)" ><path d="M 85.34 52.41 L 67.3 52.46 L 71.41 -28.8 L 90.07 -28.77 M 85.34 52.41"/></g><g style="fill: rgb(211,148,105);fill-opacity: 1.0; stroke: none" transform="matrix(1,0,0,1,244,167.5)" ><path d="M 114.66 -47.45 L 132.87 -47.41 L 135.06 -43.05 L 116.64 -43.1 M 114.66 -47.45"/></g><g style="fill: rgb(121,104,78);fill-opacity: 1.0; stroke: none" transform="matrix(1,0,0,1,244,167.5)" ><path d="M 107.84 52.35 L 89.85 52.4 L 95.32 -38.68 L 114.01 -38.64 M 107.84 52.35"/></g><g style="fill: rgb(155,109,77);fill-opacity: 1.0; stroke: none" transform="matrix(1,0,0,1,244,167.5)" ><path d="M -116.79 -48.62 L -97.87 -48.57 L -96.1 47.51 L -114.27 47.55 M -116.79 -48.62"/></g><g style="fill: rgb(121,104,78);fill-opacity: 1.0; stroke: none" transform="matrix(1,0,0,1,244,167.5)" ><path d="M 130.29 52.29 L 112.34 52.34 L 119.37 -48.62 L 138.08 -48.57 M 130.29 52.29"/></g><g style="fill: rgb(155,109,77);fill-opacity: 1.0; stroke: none" transform="matrix(1,0,0,1,244,167.5)" ><path d="M -140.48 -48.68 L -121.52 -48.63 L -118.82 47.56 L -137.04 47.61 M -140.48 -48.68"/></g><g style="fill: rgb(152,130,98);fill-opacity: 1.0; stroke: none" transform="matrix(1,0,0,1,244,167.5)" ><path d="M 41.27 58.02 L 40.18 52.53 L 42.4 -4.33 L 43.54 0.61 M 41.27 58.02"/></g><g style="fill: rgb(121,104,78);fill-opacity: 1.0; stroke: none" transform="matrix(1,0,0,1,244,167.5)" ><path d="M -27.97 52.72 L -46.23 52.77 L -46.05 -14.14 L -27.28 -14.13 M -27.97 52.72"/></g><g style="fill: rgb(152,130,98);fill-opacity: 1.0; stroke: none" transform="matrix(1,0,0,1,244,167.5)" ><path d="M 18.34 58.09 L 17.52 52.6 L 19.06 0.51 L 19.91 5.5 M 18.34 58.09"/></g><g style="fill: rgb(152,130,98);fill-opacity: 1.0; stroke: none" transform="matrix(1,0,0,1,244,167.5)" ><path d="M 64.14 57.95 L 62.79 52.47 L 66.03 -14.06 L 67.46 -9.23 M 64.14 57.95"/></g><g style="fill: rgb(152,130,98);fill-opacity: 1.0; stroke: none" transform="matrix(1,0,0,1,244,167.5)" ><path d="M 22.05 52.58 L 23.84 -4.34 L 24.76 0.61 L 22.93 58.08 M 22.05 52.58"/></g><g style="fill: rgb(152,130,98);fill-opacity: 1.0; stroke: none" transform="matrix(1,0,0,1,244,167.5)" ><path d="M -0.65 52.65 L 0.49 0.51 L 1.12 5.51 L -0.04 58.15 M -0.65 52.65"/></g><g style="fill: rgb(152,130,98);fill-opacity: 1.0; stroke: none" transform="matrix(1,0,0,1,244,167.5)" ><path d="M -4.65 58.16 L -5.2 52.66 L -4.16 0.51 L -3.58 5.51 M -4.65 58.16"/></g><g style="fill: rgb(152,130,98);fill-opacity: 1.0; stroke: none" transform="matrix(1,0,0,1,244,167.5)" ><path d="M 44.7 52.52 L 47.44 -14.07 L 48.64 -9.24 L 45.84 58.01 M 44.7 52.52"/></g><g style="fill: rgb(152,130,98);fill-opacity: 1.0; stroke: none" transform="matrix(1,0,0,1,244,167.5)" ><path d="M -23.41 52.71 L -22.77 0.51 L -22.42 5.52 L -23.07 58.22 M -23.41 52.71"/></g><g style="fill: rgb(152,130,98);fill-opacity: 1.0; stroke: none" transform="matrix(1,0,0,1,244,167.5)" ><path d="M 86.96 57.88 L 85.34 52.41 L 90.07 -28.77 L 91.8 -24.09 M 86.96 57.88"/></g><g style="fill: rgb(152,130,98);fill-opacity: 1.0; stroke: none" transform="matrix(1,0,0,1,244,167.5)" ><path d="M 109.72 57.81 L 107.84 52.35 L 114.01 -38.64 L 116.03 -34.07 M 109.72 57.81"/></g><g style="fill: rgb(152,130,98);fill-opacity: 1.0; stroke: none" transform="matrix(1,0,0,1,244,167.5)" ><path d="M 67.3 52.46 L 71.41 -28.8 L 72.92 -24.12 L 68.71 57.94 M 67.3 52.46"/></g><g style="fill: rgb(211,148,105);fill-opacity: 1.0; stroke: none" transform="matrix(1,0,0,1,244,167.5)" ><path d="M -69.27 -38.11 L -50.78 -38.07 L -50.76 -33.58 L -69.47 -33.62 M -69.27 -38.11"/></g><g style="fill: rgb(152,130,98);fill-opacity: 1.0; stroke: none" transform="matrix(1,0,0,1,244,167.5)" ><path d="M 132.43 57.74 L 130.29 52.29 L 138.08 -48.57 L 140.4 -44.1 M 132.43 57.74"/></g><g style="fill: rgb(152,130,98);fill-opacity: 1.0; stroke: none" transform="matrix(1,0,0,1,244,167.5)" ><path d="M 89.85 52.4 L 95.32 -38.68 L 97.12 -34.1 L 91.51 57.87 M 89.85 52.4"/></g><g style="fill: rgb(121,104,78);fill-opacity: 1.0; stroke: none" transform="matrix(1,0,0,1,244,167.5)" ><path d="M -50.8 52.79 L -69.1 52.84 L -69.67 -29.01 L -50.74 -28.98 M -50.8 52.79"/></g><g style="fill: rgb(152,130,98);fill-opacity: 1.0; stroke: none" transform="matrix(1,0,0,1,244,167.5)" ><path d="M 112.34 52.34 L 119.37 -48.62 L 121.47 -44.15 L 114.26 57.8 M 112.34 52.34"/></g><g style="fill: rgb(152,130,98);fill-opacity: 1.0; stroke: none" transform="matrix(1,0,0,1,244,167.5)" ><path d="M -27.68 58.23 L -27.97 52.72 L -27.28 -14.13 L -26.98 -9.27 M -27.68 58.23"/></g><g style="fill: rgb(121,104,78);fill-opacity: 1.0; stroke: none" transform="matrix(1,0,0,1,244,167.5)" ><path d="M 24.76 0.61 L 43.54 0.61 L 41.27 58.02 L 22.93 58.08 M 24.76 0.61"/></g><g style="fill: rgb(152,130,98);fill-opacity: 1.0; stroke: none" transform="matrix(1,0,0,1,244,167.5)" ><path d="M -46.23 52.77 L -46.05 -14.14 L -45.98 -9.28 L -46.15 58.29 M -46.23 52.77"/></g><g style="fill: rgb(121,104,78);fill-opacity: 1.0; stroke: none" transform="matrix(1,0,0,1,244,167.5)" ><path d="M 1.12 5.51 L 19.91 5.5 L 18.34 58.09 L -0.04 58.15 M 1.12 5.51"/></g><g style="fill: rgb(121,104,78);fill-opacity: 1.0; stroke: none" transform="matrix(1,0,0,1,244,167.5)" ><path d="M 48.64 -9.24 L 67.46 -9.23 L 64.14 57.95 L 45.84 58.01 M 48.64 -9.24"/></g><g style="fill: rgb(155,174,189);fill-opacity: 1.0; stroke: none" transform="matrix(1,0,0,1,244,167.5)" ><path d="M 116.24 63.39 L 134.61 63.33 L 136.85 69.05 L 118.26 69.12 M 116.24 63.39"/></g><g style="fill: rgb(121,104,78);fill-opacity: 1.0; stroke: none" transform="matrix(1,0,0,1,244,167.5)" ><path d="M -22.42 5.52 L -3.58 5.51 L -4.65 58.16 L -23.07 58.22 M -22.42 5.52"/></g><g style="fill: rgb(155,174,189);fill-opacity: 1.0; stroke: none" transform="matrix(1,0,0,1,244,167.5)" ><path d="M 93.22 63.47 L 111.64 63.41 L 113.6 69.14 L 94.96 69.21 M 93.22 63.47"/></g><g style="fill: rgb(121,104,78);fill-opacity: 1.0; stroke: none" transform="matrix(1,0,0,1,244,167.5)" ><path d="M -73.68 52.85 L -92.02 52.9 L -93.65 -44.1 L -74.55 -44.06 M -73.68 52.85"/></g><g style="fill: rgb(211,148,105);fill-opacity: 1.0; stroke: none" transform="matrix(1,0,0,1,244,167.5)" ><path d="M -92.58 -47.97 L -73.98 -47.93 L -74.24 -43.53 L -93.07 -43.57 M -92.58 -47.97"/></g><g style="fill: rgb(121,104,78);fill-opacity: 1.0; stroke: none" transform="matrix(1,0,0,1,244,167.5)" ><path d="M 72.92 -24.12 L 91.8 -24.09 L 86.96 57.88 L 68.71 57.94 M 72.92 -24.12"/></g><g style="fill: rgb(121,104,78);fill-opacity: 1.0; stroke: none" transform="matrix(1,0,0,1,244,167.5)" ><path d="M 97.12 -34.1 L 116.03 -34.07 L 109.72 57.81 L 91.51 57.87 M 97.12 -34.1"/></g><g style="fill: rgb(155,174,189);fill-opacity: 1.0; stroke: none" transform="matrix(1,0,0,1,244,167.5)" ><path d="M 70.14 63.55 L 88.61 63.49 L 90.3 69.22 L 71.61 69.29 M 70.14 63.55"/></g><g style="fill: rgb(152,130,98);fill-opacity: 1.0; stroke: none" transform="matrix(1,0,0,1,244,167.5)" ><path d="M -50.78 58.3 L -50.8 52.79 L -50.74 -28.98 L -50.72 -24.27 M -50.78 58.3"/></g><g style="fill: rgb(114,128,139);fill-opacity: 1.0; stroke: none" transform="matrix(1,0,0,1,244,167.5)" ><path d="M 134.61 63.33 L 116.24 63.39 L 119.32 20.34 L 138.03 20.32 M 134.61 63.33"/></g><g style="fill: rgb(121,104,78);fill-opacity: 1.0; stroke: none" transform="matrix(1,0,0,1,244,167.5)" ><path d="M 121.47 -44.15 L 140.4 -44.1 L 132.43 57.74 L 114.26 57.8 M 121.47 -44.15"/></g><g style="fill: rgb(37,32,23);fill-opacity: 1.0; stroke: none" transform="matrix(1,0,0,1,244,167.5)" ><path d="M -69.29 58.36 L -69.89 -24.3 L -69.67 -29.01 L -69.1 52.84 M -69.29 58.36"/></g><g style="fill: rgb(155,174,189);fill-opacity: 1.0; stroke: none" transform="matrix(1,0,0,1,244,167.5)" ><path d="M 47.01 63.63 L 65.52 63.56 L 66.94 69.31 L 48.21 69.38 M 47.01 63.63"/></g><g style="fill: rgb(165,142,106);fill-opacity: 1.0; stroke: none" transform="matrix(1,0,0,1,244,167.5)" ><path d="M 0.49 0.51 L 19.06 0.51 L 19.91 5.5 L 1.12 5.51 M 0.49 0.51"/></g><g style="fill: rgb(121,104,78);fill-opacity: 1.0; stroke: none" transform="matrix(1,0,0,1,244,167.5)" ><path d="M -96.61 52.91 L -115 52.96 L -117.84 -54.31 L -98.61 -54.26 M -96.61 52.91"/></g><g style="fill: rgb(211,148,105);fill-opacity: 1.0; stroke: none" transform="matrix(1,0,0,1,244,167.5)" ><path d="M -116.02 -52.97 L -97.33 -52.92 L -97.87 -48.57 L -116.79 -48.62 M -116.02 -52.97"/></g><g style="fill: rgb(121,104,78);fill-opacity: 1.0; stroke: none" transform="matrix(1,0,0,1,244,167.5)" ><path d="M -45.98 -9.28 L -26.98 -9.27 L -27.68 58.23 L -46.15 58.29 M -45.98 -9.28"/></g><g style="fill: rgb(155,174,189);fill-opacity: 1.0; stroke: none" transform="matrix(1,0,0,1,244,167.5)" ><path d="M 23.82 63.7 L 42.38 63.64 L 43.52 69.39 L 24.74 69.46 M 23.82 63.7"/></g><g style="fill: rgb(165,142,106);fill-opacity: 1.0; stroke: none" transform="matrix(1,0,0,1,244,167.5)" ><path d="M 23.84 -4.34 L 42.4 -4.33 L 43.54 0.61 L 24.76 0.61 M 23.84 -4.34"/></g><g style="fill: rgb(165,142,106);fill-opacity: 1.0; stroke: none" transform="matrix(1,0,0,1,244,167.5)" ><path d="M -22.77 0.51 L -4.16 0.51 L -3.58 5.51 L -22.42 5.52 M -22.77 0.51"/></g><g style="fill: rgb(121,104,78);fill-opacity: 1.0; stroke: none" transform="matrix(1,0,0,1,244,167.5)" ><path d="M -119.6 52.98 L -138.03 53.03 L -141.92 -54.38 L -122.65 -54.33 M -119.6 52.98"/></g><g style="fill: rgb(211,148,105);fill-opacity: 1.0; stroke: none" transform="matrix(1,0,0,1,244,167.5)" ><path d="M -139.43 -53.04 L -120.7 -52.99 L -121.52 -48.63 L -140.48 -48.68 M -139.43 -53.04"/></g><g style="fill: rgb(155,174,189);fill-opacity: 1.0; stroke: none" transform="matrix(1,0,0,1,244,167.5)" ><path d="M 0.58 63.78 L 19.18 63.72 L 20.04 69.48 L 1.22 69.55 M 0.58 63.78"/></g><g style="fill: rgb(37,32,23);fill-opacity: 1.0; stroke: none" transform="matrix(1,0,0,1,244,167.5)" ><path d="M -74.82 -39.5 L -74.55 -44.06 L -73.68 52.85 L -73.93 58.37 M -74.82 -39.5"/></g><g style="fill: rgb(155,174,189);fill-opacity: 1.0; stroke: none" transform="matrix(1,0,0,1,244,167.5)" ><path d="M -22.72 63.86 L -4.08 63.8 L -3.49 69.57 L -22.36 69.63 M -22.72 63.86"/></g><g style="fill: rgb(37,32,23);fill-opacity: 1.0; stroke: none" transform="matrix(1,0,0,1,244,167.5)" ><path d="M -92.49 58.43 L -94.15 -39.54 L -93.65 -44.1 L -92.02 52.9 M -92.49 58.43"/></g><g style="fill: rgb(165,142,106);fill-opacity: 1.0; stroke: none" transform="matrix(1,0,0,1,244,167.5)" ><path d="M 47.44 -14.07 L 66.03 -14.06 L 67.46 -9.23 L 48.64 -9.24 M 47.44 -14.07"/></g><g style="fill: rgb(114,128,139);fill-opacity: 1.0; stroke: none" transform="matrix(1,0,0,1,244,167.5)" ><path d="M 111.64 63.41 L 93.22 63.47 L 97.1 0.7 L 116.01 0.7 M 111.64 63.41"/></g><g style="fill: rgb(155,174,189);fill-opacity: 1.0; stroke: none" transform="matrix(1,0,0,1,244,167.5)" ><path d="M -46.08 63.94 L -27.39 63.87 L -27.09 69.65 L -46 69.72 M -46.08 63.94"/></g><g style="fill: rgb(143,160,174);fill-opacity: 1.0; stroke: none" transform="matrix(1,0,0,1,244,167.5)" ><path d="M 136.85 69.05 L 134.61 63.33 L 138.03 20.32 L 140.35 25.63 M 136.85 69.05"/></g><g style="fill: rgb(121,104,78);fill-opacity: 1.0; stroke: none" transform="matrix(1,0,0,1,244,167.5)" ><path d="M -69.89 -24.3 L -50.72 -24.27 L -50.78 58.3 L -69.29 58.36 M -69.89 -24.3"/></g><g style="fill: rgb(143,160,174);fill-opacity: 1.0; stroke: none" transform="matrix(1,0,0,1,244,167.5)" ><path d="M 116.24 63.39 L 119.32 20.34 L 121.42 25.65 L 118.26 69.12 M 116.24 63.39"/></g><g style="fill: rgb(155,174,189);fill-opacity: 1.0; stroke: none" transform="matrix(1,0,0,1,244,167.5)" ><path d="M -69.5 64.01 L -50.76 63.95 L -50.74 69.74 L -69.7 69.81 M -69.5 64.01"/></g><g style="fill: rgb(37,32,23);fill-opacity: 1.0; stroke: none" transform="matrix(1,0,0,1,244,167.5)" ><path d="M -99.19 -49.8 L -98.61 -54.26 L -96.61 52.91 L -97.13 58.44 M -99.19 -49.8"/></g><g style="fill: rgb(37,32,23);fill-opacity: 1.0; stroke: none" transform="matrix(1,0,0,1,244,167.5)" ><path d="M -115.74 58.5 L -118.65 -49.85 L -117.84 -54.31 L -115 52.96 M -115.74 58.5"/></g><g style="fill: rgb(155,174,189);fill-opacity: 1.0; stroke: none" transform="matrix(1,0,0,1,244,167.5)" ><path d="M -92.97 64.09 L -74.19 64.03 L -74.45 69.82 L -93.46 69.89 M -92.97 64.09"/></g><g style="fill: rgb(37,32,23);fill-opacity: 1.0; stroke: none" transform="matrix(1,0,0,1,244,167.5)" ><path d="M -123.52 -49.86 L -122.65 -54.33 L -119.6 52.98 L -120.4 58.52 M -123.52 -49.86"/></g><g style="fill: rgb(37,32,23);fill-opacity: 1.0; stroke: none" transform="matrix(1,0,0,1,244,167.5)" ><path d="M -139.05 58.57 L -143.03 -49.91 L -141.92 -54.38 L -138.03 53.03 M -139.05 58.57"/></g><g style="fill: rgb(155,174,189);fill-opacity: 1.0; stroke: none" transform="matrix(1,0,0,1,244,167.5)" ><path d="M -116.5 64.17 L -97.67 64.11 L -98.22 69.91 L -117.28 69.98 M -116.5 64.17"/></g><g style="fill: rgb(165,142,106);fill-opacity: 1.0; stroke: none" transform="matrix(1,0,0,1,244,167.5)" ><path d="M 71.41 -28.8 L 90.07 -28.77 L 91.8 -24.09 L 72.92 -24.12 M 71.41 -28.8"/></g><g style="fill: rgb(165,142,106);fill-opacity: 1.0; stroke: none" transform="matrix(1,0,0,1,244,167.5)" ><path d="M -46.05 -14.14 L -27.28 -14.13 L -26.98 -9.27 L -45.98 -9.28 M -46.05 -14.14"/></g><g style="fill: rgb(121,104,78);fill-opacity: 1.0; stroke: none" transform="matrix(1,0,0,1,244,167.5)" ><path d="M -94.15 -39.54 L -74.82 -39.5 L -73.93 58.37 L -92.49 58.43 M -94.15 -39.54"/></g><g style="fill: rgb(155,174,189);fill-opacity: 1.0; stroke: none" transform="matrix(1,0,0,1,244,167.5)" ><path d="M -140.09 64.25 L -121.21 64.19 L -122.05 70 L -141.15 70.07 M -140.09 64.25"/></g><g style="fill: rgb(143,160,174);fill-opacity: 1.0; stroke: none" transform="matrix(1,0,0,1,244,167.5)" ><path d="M 113.6 69.14 L 111.64 63.41 L 116.01 0.7 L 118.08 5.81 M 113.6 69.14"/></g><g style="fill: rgb(143,160,174);fill-opacity: 1.0; stroke: none" transform="matrix(1,0,0,1,244,167.5)" ><path d="M 93.22 63.47 L 97.1 0.7 L 98.94 5.82 L 94.96 69.21 M 93.22 63.47"/></g><g style="fill: rgb(114,128,139);fill-opacity: 1.0; stroke: none" transform="matrix(1,0,0,1,244,167.5)" ><path d="M 121.42 25.65 L 140.35 25.63 L 136.85 69.05 L 118.26 69.12 M 121.42 25.65"/></g><g style="fill: rgb(165,142,106);fill-opacity: 1.0; stroke: none" transform="matrix(1,0,0,1,244,167.5)" ><path d="M 95.32 -38.68 L 114.01 -38.64 L 116.03 -34.07 L 97.12 -34.1 M 95.32 -38.68"/></g><g style="fill: rgb(114,128,139);fill-opacity: 1.0; stroke: none" transform="matrix(1,0,0,1,244,167.5)" ><path d="M 88.61 63.49 L 70.14 63.55 L 74.98 -29.45 L 94.17 -29.42 M 88.61 63.49"/></g><g style="fill: rgb(121,104,78);fill-opacity: 1.0; stroke: none" transform="matrix(1,0,0,1,244,167.5)" ><path d="M -118.65 -49.85 L -99.19 -49.8 L -97.13 58.44 L -115.74 58.5 M -118.65 -49.85"/></g><g style="fill: rgb(114,128,139);fill-opacity: 1.0; stroke: none" transform="matrix(1,0,0,1,244,167.5)" ><path d="M -121.21 64.19 L -140.09 64.25 L -141.71 20.62 L -122.49 20.6 M -121.21 64.19"/></g><g style="fill: rgb(114,128,139);fill-opacity: 1.0; stroke: none" transform="matrix(1,0,0,1,244,167.5)" ><path d="M -97.67 64.11 L -116.5 64.17 L -117.95 10.69 L -98.7 10.68 M -97.67 64.11"/></g><g style="fill: rgb(121,104,78);fill-opacity: 1.0; stroke: none" transform="matrix(1,0,0,1,244,167.5)" ><path d="M -143.03 -49.91 L -123.52 -49.86 L -120.4 58.52 L -139.05 58.57 M -143.03 -49.91"/></g><g style="fill: rgb(155,174,189);fill-opacity: 1.0; stroke: none" transform="matrix(1,0,0,1,244,167.5)" ><path d="M 119.32 20.34 L 138.03 20.32 L 140.35 25.63 L 121.42 25.65 M 119.32 20.34"/></g><g style="fill: rgb(114,128,139);fill-opacity: 1.0; stroke: none" transform="matrix(1,0,0,1,244,167.5)" ><path d="M -74.19 64.03 L -92.97 64.09 L -94.06 0.71 L -74.77 0.71 M -74.19 64.03"/></g><g style="fill: rgb(165,142,106);fill-opacity: 1.0; stroke: none" transform="matrix(1,0,0,1,244,167.5)" ><path d="M 119.37 -48.62 L 138.08 -48.57 L 140.4 -44.1 L 121.47 -44.15 M 119.37 -48.62"/></g><g style="fill: rgb(114,128,139);fill-opacity: 1.0; stroke: none" transform="matrix(1,0,0,1,244,167.5)" ><path d="M -50.76 63.95 L -69.5 64.01 L -70.06 -14.39 L -50.7 -14.38 M -50.76 63.95"/></g><g style="fill: rgb(165,142,106);fill-opacity: 1.0; stroke: none" transform="matrix(1,0,0,1,244,167.5)" ><path d="M -69.67 -29.01 L -50.74 -28.98 L -50.72 -24.27 L -69.89 -24.3 M -69.67 -29.01"/></g><g style="fill: rgb(114,128,139);fill-opacity: 1.0; stroke: none" transform="matrix(1,0,0,1,244,167.5)" ><path d="M 98.94 5.82 L 118.08 5.81 L 113.6 69.14 L 94.96 69.21 M 98.94 5.82"/></g><g style="fill: rgb(143,160,174);fill-opacity: 1.0; stroke: none" transform="matrix(1,0,0,1,244,167.5)" ><path d="M 90.3 69.22 L 88.61 63.49 L 94.17 -29.42 L 96 -24.61 M 90.3 69.22"/></g><g style="fill: rgb(114,128,139);fill-opacity: 1.0; stroke: none" transform="matrix(1,0,0,1,244,167.5)" ><path d="M 65.52 63.56 L 47.01 63.63 L 52.03 -55.23 L 71.47 -55.17 M 65.52 63.56"/></g><g style="fill: rgb(108,130,91);fill-opacity: 1.0; stroke: none" transform="matrix(1,0,0,1,244,167.5)" ><path d="M 139.14 74.91 L 120.33 74.99 L 121.75 55.68 L 140.72 55.62 M 139.14 74.91"/></g><g style="fill: rgb(34,39,42);fill-opacity: 1.0; stroke: none" transform="matrix(1,0,0,1,244,167.5)" ><path d="M -123.35 25.98 L -122.49 20.6 L -121.21 64.19 L -122.05 70 M -123.35 25.98"/></g><g style="fill: rgb(143,160,174);fill-opacity: 1.0; stroke: none" transform="matrix(1,0,0,1,244,167.5)" ><path d="M 70.14 63.55 L 74.98 -29.45 L 76.58 -24.64 L 71.61 69.29 M 70.14 63.55"/></g><g style="fill: rgb(114,128,139);fill-opacity: 1.0; stroke: none" transform="matrix(1,0,0,1,244,167.5)" ><path d="M -27.39 63.87 L -46.08 63.94 L -45.81 -34.77 L -26.34 -34.74 M -27.39 63.87"/></g><g style="fill: rgb(34,39,42);fill-opacity: 1.0; stroke: none" transform="matrix(1,0,0,1,244,167.5)" ><path d="M -99.27 15.96 L -98.7 10.68 L -97.67 64.11 L -98.22 69.91 M -99.27 15.96"/></g><g style="fill: rgb(34,39,42);fill-opacity: 1.0; stroke: none" transform="matrix(1,0,0,1,244,167.5)" ><path d="M -141.15 70.07 L -142.82 26.01 L -141.71 20.62 L -140.09 64.25 M -141.15 70.07"/></g><g style="fill: rgb(34,39,42);fill-opacity: 1.0; stroke: none" transform="matrix(1,0,0,1,244,167.5)" ><path d="M -75.05 5.87 L -74.77 0.71 L -74.19 64.03 L -74.45 69.82 M -75.05 5.87"/></g><g style="fill: rgb(34,39,42);fill-opacity: 1.0; stroke: none" transform="matrix(1,0,0,1,244,167.5)" ><path d="M -117.28 69.98 L -118.77 15.97 L -117.95 10.69 L -116.5 64.17 M -117.28 69.98"/></g><g style="fill: rgb(147,177,124);fill-opacity: 1.0; stroke: none" transform="matrix(1,0,0,1,244,167.5)" ><path d="M 120.33 74.99 L 139.14 74.91 L 141.49 80.92 L 122.45 81 M 120.33 74.99"/></g><g style="fill: rgb(114,128,139);fill-opacity: 1.0; stroke: none" transform="matrix(1,0,0,1,244,167.5)" ><path d="M -4.08 63.8 L -22.72 63.86 L -21.28 -50.23 L -1.74 -50.18 M -4.08 63.8"/></g><g style="fill: rgb(34,39,42);fill-opacity: 1.0; stroke: none" transform="matrix(1,0,0,1,244,167.5)" ><path d="M -93.46 69.89 L -94.58 5.88 L -94.06 0.71 L -92.97 64.09 M -93.46 69.89"/></g><g style="fill: rgb(114,128,139);fill-opacity: 1.0; stroke: none" transform="matrix(1,0,0,1,244,167.5)" ><path d="M 42.38 63.64 L 23.82 63.7 L 28.02 -65.76 L 47.59 -65.7 M 42.38 63.64"/></g><g style="fill: rgb(147,177,124);fill-opacity: 1.0; stroke: none" transform="matrix(1,0,0,1,244,167.5)" ><path d="M 96.75 75.08 L 115.62 75.01 L 117.68 81.02 L 98.59 81.1 M 96.75 75.08"/></g><g style="fill: rgb(143,160,174);fill-opacity: 1.0; stroke: none" transform="matrix(1,0,0,1,244,167.5)" ><path d="M -50.74 69.74 L -50.76 63.95 L -50.7 -14.38 L -50.68 -9.37 M -50.74 69.74"/></g><g style="fill: rgb(114,128,139);fill-opacity: 1.0; stroke: none" transform="matrix(1,0,0,1,244,167.5)" ><path d="M 19.18 63.72 L 0.58 63.78 L 3.5 -65.85 L 23.12 -65.78 M 19.18 63.72"/></g><g style="fill: rgb(147,177,124);fill-opacity: 1.0; stroke: none" transform="matrix(1,0,0,1,244,167.5)" ><path d="M 73.12 75.17 L 92.03 75.1 L 93.81 81.12 L 74.67 81.2 M 73.12 75.17"/></g><g style="fill: rgb(34,39,42);fill-opacity: 1.0; stroke: none" transform="matrix(1,0,0,1,244,167.5)" ><path d="M -69.7 69.81 L -70.29 -9.38 L -70.06 -14.39 L -69.5 64.01 M -69.7 69.81"/></g><g style="fill: rgb(108,130,91);fill-opacity: 1.0; stroke: none" transform="matrix(1,0,0,1,244,167.5)" ><path d="M 115.62 75.01 L 96.75 75.08 L 99.24 36.09 L 118.41 36.06 M 115.62 75.01"/></g><g style="fill: rgb(143,160,174);fill-opacity: 1.0; stroke: none" transform="matrix(1,0,0,1,244,167.5)" ><path d="M 66.94 69.31 L 65.52 63.56 L 71.47 -55.17 L 73.03 -50.63 M 66.94 69.31"/></g><g style="fill: rgb(165,142,106);fill-opacity: 1.0; stroke: none" transform="matrix(1,0,0,1,244,167.5)" ><path d="M -93.65 -44.1 L -74.55 -44.06 L -74.82 -39.5 L -94.15 -39.54 M -93.65 -44.1"/></g><g style="fill: rgb(155,174,189);fill-opacity: 1.0; stroke: none" transform="matrix(1,0,0,1,244,167.5)" ><path d="M 97.1 0.7 L 116.01 0.7 L 118.08 5.81 L 98.94 5.82 M 97.1 0.7"/></g><g style="fill: rgb(135,163,114);fill-opacity: 1.0; stroke: none" transform="matrix(1,0,0,1,244,167.5)" ><path d="M 141.49 80.92 L 139.14 74.91 L 140.72 55.62 L 143.11 61.44 M 141.49 80.92"/></g><g style="fill: rgb(114,128,139);fill-opacity: 1.0; stroke: none" transform="matrix(1,0,0,1,244,167.5)" ><path d="M 76.58 -24.64 L 96 -24.61 L 90.3 69.22 L 71.61 69.29 M 76.58 -24.64"/></g><g style="fill: rgb(147,177,124);fill-opacity: 1.0; stroke: none" transform="matrix(1,0,0,1,244,167.5)" ><path d="M 49.43 75.27 L 68.39 75.19 L 69.87 81.22 L 50.69 81.31 M 49.43 75.27"/></g><g style="fill: rgb(143,160,174);fill-opacity: 1.0; stroke: none" transform="matrix(1,0,0,1,244,167.5)" ><path d="M -27.09 69.65 L -27.39 63.87 L -26.34 -34.74 L -26.01 -29.95 M -27.09 69.65"/></g><g style="fill: rgb(143,160,174);fill-opacity: 1.0; stroke: none" transform="matrix(1,0,0,1,244,167.5)" ><path d="M 47.01 63.63 L 52.03 -55.23 L 53.35 -50.69 L 48.21 69.38 M 47.01 63.63"/></g><g style="fill: rgb(135,163,114);fill-opacity: 1.0; stroke: none" transform="matrix(1,0,0,1,244,167.5)" ><path d="M 120.33 74.99 L 121.75 55.68 L 123.91 61.5 L 122.45 81 M 120.33 74.99"/></g><g style="fill: rgb(114,128,139);fill-opacity: 1.0; stroke: none" transform="matrix(1,0,0,1,244,167.5)" ><path d="M -142.82 26.01 L -123.35 25.98 L -122.05 70 L -141.15 70.07 M -142.82 26.01"/></g><g style="fill: rgb(147,177,124);fill-opacity: 1.0; stroke: none" transform="matrix(1,0,0,1,244,167.5)" ><path d="M 25.68 75.36 L 44.69 75.29 L 45.88 81.33 L 26.64 81.41 M 25.68 75.36"/></g><g style="fill: rgb(143,160,174);fill-opacity: 1.0; stroke: none" transform="matrix(1,0,0,1,244,167.5)" ><path d="M -46.08 63.94 L -45.81 -34.77 L -45.73 -29.98 L -46 69.72 M -46.08 63.94"/></g><g style="fill: rgb(114,128,139);fill-opacity: 1.0; stroke: none" transform="matrix(1,0,0,1,244,167.5)" ><path d="M -118.77 15.97 L -99.27 15.96 L -98.22 69.91 L -117.28 69.98 M -118.77 15.97"/></g><g style="fill: rgb(147,177,124);fill-opacity: 1.0; stroke: none" transform="matrix(1,0,0,1,244,167.5)" ><path d="M 1.87 75.46 L 20.92 75.38 L 21.83 81.43 L 2.54 81.51 M 1.87 75.46"/></g><g style="fill: rgb(143,160,174);fill-opacity: 1.0; stroke: none" transform="matrix(1,0,0,1,244,167.5)" ><path d="M -3.49 69.57 L -4.08 63.8 L -1.74 -50.18 L -1.1 -45.57 M -3.49 69.57"/></g><g style="fill: rgb(114,128,139);fill-opacity: 1.0; stroke: none" transform="matrix(1,0,0,1,244,167.5)" ><path d="M -94.58 5.88 L -75.05 5.87 L -74.45 69.82 L -93.46 69.89 M -94.58 5.88"/></g><g style="fill: rgb(143,160,174);fill-opacity: 1.0; stroke: none" transform="matrix(1,0,0,1,244,167.5)" ><path d="M 43.52 69.39 L 42.38 63.64 L 47.59 -65.7 L 48.86 -61.26 M 43.52 69.39"/></g><g style="fill: rgb(143,160,174);fill-opacity: 1.0; stroke: none" transform="matrix(1,0,0,1,244,167.5)" ><path d="M -22.72 63.86 L -21.28 -50.23 L -20.89 -45.62 L -22.36 69.63 M -22.72 63.86"/></g><g style="fill: rgb(147,177,124);fill-opacity: 1.0; stroke: none" transform="matrix(1,0,0,1,244,167.5)" ><path d="M -22 75.55 L -2.9 75.48 L -2.29 81.53 L -21.62 81.61 M -22 75.55"/></g><g style="fill: rgb(143,160,174);fill-opacity: 1.0; stroke: none" transform="matrix(1,0,0,1,244,167.5)" ><path d="M 23.82 63.7 L 28.02 -65.76 L 29.04 -61.33 L 24.74 69.46 M 23.82 63.7"/></g><g style="fill: rgb(155,174,189);fill-opacity: 1.0; stroke: none" transform="matrix(1,0,0,1,244,167.5)" ><path d="M -141.71 20.62 L -122.49 20.6 L -123.35 25.98 L -142.82 26.01 M -141.71 20.62"/></g><g style="fill: rgb(143,160,174);fill-opacity: 1.0; stroke: none" transform="matrix(1,0,0,1,244,167.5)" ><path d="M 20.04 69.48 L 19.18 63.72 L 23.12 -65.78 L 24.08 -61.34 M 20.04 69.48"/></g><g style="fill: rgb(114,128,139);fill-opacity: 1.0; stroke: none" transform="matrix(1,0,0,1,244,167.5)" ><path d="M -70.29 -9.38 L -50.68 -9.37 L -50.74 69.74 L -69.7 69.81 M -70.29 -9.38"/></g><g style="fill: rgb(147,177,124);fill-opacity: 1.0; stroke: none" transform="matrix(1,0,0,1,244,167.5)" ><path d="M 121.75 55.68 L 140.72 55.62 L 143.11 61.44 L 123.91 61.5 M 121.75 55.68"/></g><g style="fill: rgb(147,177,124);fill-opacity: 1.0; stroke: none" transform="matrix(1,0,0,1,244,167.5)" ><path d="M -45.93 75.65 L -26.78 75.57 L -26.46 81.64 L -45.85 81.72 M -45.93 75.65"/></g><g style="fill: rgb(165,142,106);fill-opacity: 1.0; stroke: none" transform="matrix(1,0,0,1,244,167.5)" ><path d="M -117.84 -54.31 L -98.61 -54.26 L -99.19 -49.8 L -118.65 -49.85 M -117.84 -54.31"/></g><g style="fill: rgb(135,163,114);fill-opacity: 1.0; stroke: none" transform="matrix(1,0,0,1,244,167.5)" ><path d="M 117.68 81.02 L 115.62 75.01 L 118.41 36.06 L 120.54 41.69 M 117.68 81.02"/></g><g style="fill: rgb(143,160,174);fill-opacity: 1.0; stroke: none" transform="matrix(1,0,0,1,244,167.5)" ><path d="M 0.58 63.78 L 3.5 -65.85 L 4.21 -61.41 L 1.22 69.55 M 0.58 63.78"/></g><g style="fill: rgb(135,163,114);fill-opacity: 1.0; stroke: none" transform="matrix(1,0,0,1,244,167.5)" ><path d="M 96.75 75.08 L 99.24 36.09 L 101.13 41.73 L 98.59 81.1 M 96.75 75.08"/></g><g style="fill: rgb(147,177,124);fill-opacity: 1.0; stroke: none" transform="matrix(1,0,0,1,244,167.5)" ><path d="M -69.91 75.74 L -50.72 75.66 L -50.7 81.74 L -70.13 81.82 M -69.91 75.74"/></g><g style="fill: rgb(114,128,139);fill-opacity: 1.0; stroke: none" transform="matrix(1,0,0,1,244,167.5)" ><path d="M 53.35 -50.69 L 73.03 -50.63 L 66.94 69.31 L 48.21 69.38 M 53.35 -50.69"/></g><g style="fill: rgb(165,142,106);fill-opacity: 1.0; stroke: none" transform="matrix(1,0,0,1,244,167.5)" ><path d="M -141.92 -54.38 L -122.65 -54.33 L -123.52 -49.86 L -143.03 -49.91 M -141.92 -54.38"/></g><g style="fill: rgb(108,130,91);fill-opacity: 1.0; stroke: none" transform="matrix(1,0,0,1,244,167.5)" ><path d="M 123.91 61.5 L 143.11 61.44 L 141.49 80.92 L 122.45 81 M 123.91 61.5"/></g><g style="fill: rgb(155,174,189);fill-opacity: 1.0; stroke: none" transform="matrix(1,0,0,1,244,167.5)" ><path d="M -117.95 10.69 L -98.7 10.68 L -99.27 15.96 L -118.77 15.97 M -117.95 10.69"/></g><g style="fill: rgb(108,130,91);fill-opacity: 1.0; stroke: none" transform="matrix(1,0,0,1,244,167.5)" ><path d="M -122.9 75.95 L -142.24 76.03 L -142.8 61.38 L -123.34 61.32 M -122.9 75.95"/></g><g style="fill: rgb(108,130,91);fill-opacity: 1.0; stroke: none" transform="matrix(1,0,0,1,244,167.5)" ><path d="M 92.03 75.1 L 73.12 75.17 L 76.83 6 L 96.29 5.99 M 92.03 75.1"/></g><g style="fill: rgb(114,128,139);fill-opacity: 1.0; stroke: none" transform="matrix(1,0,0,1,244,167.5)" ><path d="M -45.73 -29.98 L -26.01 -29.95 L -27.09 69.65 L -46 69.72 M -45.73 -29.98"/></g><g style="fill: rgb(147,177,124);fill-opacity: 1.0; stroke: none" transform="matrix(1,0,0,1,244,167.5)" ><path d="M -93.96 75.84 L -74.72 75.76 L -75 81.84 L -94.48 81.93 M -93.96 75.84"/></g><g style="fill: rgb(108,130,91);fill-opacity: 1.0; stroke: none" transform="matrix(1,0,0,1,244,167.5)" ><path d="M -98.78 75.85 L -118.07 75.93 L -118.76 51.45 L -99.26 51.4 M -98.78 75.85"/></g><g style="fill: rgb(147,177,124);fill-opacity: 1.0; stroke: none" transform="matrix(1,0,0,1,244,167.5)" ><path d="M -118.07 75.93 L -98.78 75.85 L -99.36 81.95 L -118.89 82.03 M -118.07 75.93"/></g><g style="fill: rgb(114,128,139);fill-opacity: 1.0; stroke: none" transform="matrix(1,0,0,1,244,167.5)" ><path d="M -20.89 -45.62 L -1.1 -45.57 L -3.49 69.57 L -22.36 69.63 M -20.89 -45.62"/></g><g style="fill: rgb(114,128,139);fill-opacity: 1.0; stroke: none" transform="matrix(1,0,0,1,244,167.5)" ><path d="M 29.04 -61.33 L 48.86 -61.26 L 43.52 69.39 L 24.74 69.46 M 29.04 -61.33"/></g><g style="fill: rgb(155,174,189);fill-opacity: 1.0; stroke: none" transform="matrix(1,0,0,1,244,167.5)" ><path d="M -94.06 0.71 L -74.77 0.71 L -75.05 5.87 L -94.58 5.88 M -94.06 0.71"/></g><g style="fill: rgb(147,177,124);fill-opacity: 1.0; stroke: none" transform="matrix(1,0,0,1,244,167.5)" ><path d="M -142.24 76.03 L -122.9 75.95 L -123.78 82.05 L -143.36 82.13 M -142.24 76.03"/></g><g style="fill: rgb(108,130,91);fill-opacity: 1.0; stroke: none" transform="matrix(1,0,0,1,244,167.5)" ><path d="M -74.72 75.76 L -93.96 75.84 L -94.75 31.45 L -75.14 31.42 M -74.72 75.76"/></g><g style="fill: rgb(114,128,139);fill-opacity: 1.0; stroke: none" transform="matrix(1,0,0,1,244,167.5)" ><path d="M 4.21 -61.41 L 24.08 -61.34 L 20.04 69.48 L 1.22 69.55 M 4.21 -61.41"/></g><g style="fill: rgb(108,130,91);fill-opacity: 1.0; stroke: none" transform="matrix(1,0,0,1,244,167.5)" ><path d="M 101.13 41.73 L 120.54 41.69 L 117.68 81.02 L 98.59 81.1 M 101.13 41.73"/></g><g style="fill: rgb(33,40,28);fill-opacity: 1.0; stroke: none" transform="matrix(1,0,0,1,244,167.5)" ><path d="M -124.23 67.27 L -123.34 61.32 L -122.9 75.95 L -123.78 82.05 M -124.23 67.27"/></g><g style="fill: rgb(135,163,114);fill-opacity: 1.0; stroke: none" transform="matrix(1,0,0,1,244,167.5)" ><path d="M 93.81 81.12 L 92.03 75.1 L 96.29 5.99 L 98.18 11.32 M 93.81 81.12"/></g><g style="fill: rgb(33,40,28);fill-opacity: 1.0; stroke: none" transform="matrix(1,0,0,1,244,167.5)" ><path d="M -99.85 57.24 L -99.26 51.4 L -98.78 75.85 L -99.36 81.95 M -99.85 57.24"/></g><g style="fill: rgb(155,174,189);fill-opacity: 1.0; stroke: none" transform="matrix(1,0,0,1,244,167.5)" ><path d="M 74.98 -29.45 L 94.17 -29.42 L 96 -24.61 L 76.58 -24.64 M 74.98 -29.45"/></g><g style="fill: rgb(33,40,28);fill-opacity: 1.0; stroke: none" transform="matrix(1,0,0,1,244,167.5)" ><path d="M -143.36 82.13 L -143.94 67.34 L -142.8 61.38 L -142.24 76.03 M -143.36 82.13"/></g><g style="fill: rgb(135,163,114);fill-opacity: 1.0; stroke: none" transform="matrix(1,0,0,1,244,167.5)" ><path d="M 73.12 75.17 L 76.83 6 L 78.47 11.33 L 74.67 81.2 M 73.12 75.17"/></g><g style="fill: rgb(147,177,124);fill-opacity: 1.0; stroke: none" transform="matrix(1,0,0,1,244,167.5)" ><path d="M 99.24 36.09 L 118.41 36.06 L 120.54 41.69 L 101.13 41.73 M 99.24 36.09"/></g><g style="fill: rgb(33,40,28);fill-opacity: 1.0; stroke: none" transform="matrix(1,0,0,1,244,167.5)" ><path d="M -118.89 82.03 L -119.59 57.3 L -118.76 51.45 L -118.07 75.93 M -118.89 82.03"/></g><g style="fill: rgb(108,130,91);fill-opacity: 1.0; stroke: none" transform="matrix(1,0,0,1,244,167.5)" ><path d="M 68.39 75.19 L 49.43 75.27 L 53.79 -24.95 L 73.55 -24.92 M 68.39 75.19"/></g><g style="fill: rgb(108,130,91);fill-opacity: 1.0; stroke: none" transform="matrix(1,0,0,1,244,167.5)" ><path d="M -50.72 75.66 L -69.91 75.74 L -70.43 6.05 L -50.67 6.04 M -50.72 75.66"/></g><g style="fill: rgb(155,174,189);fill-opacity: 1.0; stroke: none" transform="matrix(1,0,0,1,244,167.5)" ><path d="M -70.06 -14.39 L -50.7 -14.38 L -50.68 -9.37 L -70.29 -9.38 M -70.06 -14.39"/></g><g style="fill: rgb(147,177,124);fill-opacity: 1.0; stroke: none" transform="matrix(1,0,0,1,244,167.5)" ><path d="M -142.8 61.38 L -123.34 61.32 L -124.23 67.27 L -143.94 67.34 M -142.8 61.38"/></g><g style="fill: rgb(33,40,28);fill-opacity: 1.0; stroke: none" transform="matrix(1,0,0,1,244,167.5)" ><path d="M -75.43 37.06 L -75.14 31.42 L -74.72 75.76 L -75 81.84 M -75.43 37.06"/></g><g style="fill: rgb(33,40,28);fill-opacity: 1.0; stroke: none" transform="matrix(1,0,0,1,244,167.5)" ><path d="M -94.48 81.93 L -95.29 37.09 L -94.75 31.45 L -93.96 75.84 M -94.48 81.93"/></g><g style="fill: rgb(108,130,91);fill-opacity: 1.0; stroke: none" transform="matrix(1,0,0,1,244,167.5)" ><path d="M -26.78 75.57 L -45.93 75.65 L -45.68 -14.62 L -25.79 -14.6 M -26.78 75.57"/></g><g style="fill: rgb(147,177,124);fill-opacity: 1.0; stroke: none" transform="matrix(1,0,0,1,244,167.5)" ><path d="M -118.76 51.45 L -99.26 51.4 L -99.85 57.24 L -119.59 57.3 M -118.76 51.45"/></g><g style="fill: rgb(108,130,91);fill-opacity: 1.0; stroke: none" transform="matrix(1,0,0,1,244,167.5)" ><path d="M -143.94 67.34 L -124.23 67.27 L -123.78 82.05 L -143.36 82.13 M -143.94 67.34"/></g><g style="fill: rgb(108,130,91);fill-opacity: 1.0; stroke: none" transform="matrix(1,0,0,1,244,167.5)" ><path d="M 78.47 11.33 L 98.18 11.32 L 93.81 81.12 L 74.67 81.2 M 78.47 11.33"/></g><g style="fill: rgb(108,130,91);fill-opacity: 1.0; stroke: none" transform="matrix(1,0,0,1,244,167.5)" ><path d="M 44.69 75.29 L 25.68 75.36 L 29.73 -46.09 L 49.71 -46.04 M 44.69 75.29"/></g><g style="fill: rgb(108,130,91);fill-opacity: 1.0; stroke: none" transform="matrix(1,0,0,1,244,167.5)" ><path d="M -119.59 57.3 L -99.85 57.24 L -99.36 81.95 L -118.89 82.03 M -119.59 57.3"/></g><g style="fill: rgb(135,163,114);fill-opacity: 1.0; stroke: none" transform="matrix(1,0,0,1,244,167.5)" ><path d="M 69.87 81.22 L 68.39 75.19 L 73.55 -24.92 L 75.17 -19.91 M 69.87 81.22"/></g><g style="fill: rgb(135,163,114);fill-opacity: 1.0; stroke: none" transform="matrix(1,0,0,1,244,167.5)" ><path d="M -50.7 81.74 L -50.72 75.66 L -50.67 6.04 L -50.65 11.41 M -50.7 81.74"/></g><g style="fill: rgb(108,130,91);fill-opacity: 1.0; stroke: none" transform="matrix(1,0,0,1,244,167.5)" ><path d="M -2.9 75.48 L -22 75.55 L -20.55 -35.58 L -0.55 -35.54 M -2.9 75.48"/></g><g style="fill: rgb(222,216,142);fill-opacity: 1.0; stroke: none" transform="matrix(1,0,0,1,244,167.5)" ><path d="M 124.62 87.16 L 143.9 87.07 L 146.37 93.38 L 126.85 93.47 M 124.62 87.16"/></g><g style="fill: rgb(135,163,114);fill-opacity: 1.0; stroke: none" transform="matrix(1,0,0,1,244,167.5)" ><path d="M 49.43 75.27 L 53.79 -24.95 L 55.15 -19.93 L 50.69 81.31 M 49.43 75.27"/></g><g style="fill: rgb(33,40,28);fill-opacity: 1.0; stroke: none" transform="matrix(1,0,0,1,244,167.5)" ><path d="M -70.13 81.82 L -70.67 11.42 L -70.43 6.05 L -69.91 75.74 M -70.13 81.82"/></g><g style="fill: rgb(155,174,189);fill-opacity: 1.0; stroke: none" transform="matrix(1,0,0,1,244,167.5)" ><path d="M -45.81 -34.77 L -26.34 -34.74 L -26.01 -29.95 L -45.73 -29.98 M -45.81 -34.77"/></g><g style="fill: rgb(222,216,142);fill-opacity: 1.0; stroke: none" transform="matrix(1,0,0,1,244,167.5)" ><path d="M 100.46 87.27 L 119.79 87.18 L 121.96 93.5 L 102.39 93.59 M 100.46 87.27"/></g><g style="fill: rgb(108,130,91);fill-opacity: 1.0; stroke: none" transform="matrix(1,0,0,1,244,167.5)" ><path d="M 20.92 75.38 L 1.87 75.46 L 4.81 -51.49 L 24.89 -51.43 M 20.92 75.38"/></g><g style="fill: rgb(163,159,104);fill-opacity: 1.0; stroke: none" transform="matrix(1,0,0,1,244,167.5)" ><path d="M 143.9 87.07 L 124.62 87.16 L 127.64 47.44 L 147.24 47.39 M 143.9 87.07"/></g><g style="fill: rgb(108,130,91);fill-opacity: 1.0; stroke: none" transform="matrix(1,0,0,1,244,167.5)" ><path d="M -95.29 37.09 L -75.43 37.06 L -75 81.84 L -94.48 81.93 M -95.29 37.09"/></g><g style="fill: rgb(135,163,114);fill-opacity: 1.0; stroke: none" transform="matrix(1,0,0,1,244,167.5)" ><path d="M -26.46 81.64 L -26.78 75.57 L -25.79 -14.6 L -25.45 -9.46 M -26.46 81.64"/></g><g style="fill: rgb(222,216,142);fill-opacity: 1.0; stroke: none" transform="matrix(1,0,0,1,244,167.5)" ><path d="M 76.25 87.38 L 95.63 87.29 L 97.49 93.62 L 77.87 93.72 M 76.25 87.38"/></g><g style="fill: rgb(135,163,114);fill-opacity: 1.0; stroke: none" transform="matrix(1,0,0,1,244,167.5)" ><path d="M -45.93 75.65 L -45.68 -14.62 L -45.59 -9.47 L -45.85 81.72 M -45.93 75.65"/></g><g style="fill: rgb(222,216,142);fill-opacity: 1.0; stroke: none" transform="matrix(1,0,0,1,244,167.5)" ><path d="M 51.97 87.49 L 71.4 87.4 L 72.96 93.74 L 53.29 93.84 M 51.97 87.49"/></g><g style="fill: rgb(155,174,189);fill-opacity: 1.0; stroke: none" transform="matrix(1,0,0,1,244,167.5)" ><path d="M 52.03 -55.23 L 71.47 -55.17 L 73.03 -50.63 L 53.35 -50.69 M 52.03 -55.23"/></g><g style="fill: rgb(135,163,114);fill-opacity: 1.0; stroke: none" transform="matrix(1,0,0,1,244,167.5)" ><path d="M 45.88 81.33 L 44.69 75.29 L 49.71 -46.04 L 51.04 -41.26 M 45.88 81.33"/></g><g style="fill: rgb(222,216,142);fill-opacity: 1.0; stroke: none" transform="matrix(1,0,0,1,244,167.5)" ><path d="M 27.63 87.6 L 47.11 87.52 L 48.37 93.86 L 28.64 93.96 M 27.63 87.6"/></g><g style="fill: rgb(135,163,114);fill-opacity: 1.0; stroke: none" transform="matrix(1,0,0,1,244,167.5)" ><path d="M -2.29 81.53 L -2.9 75.48 L -0.55 -35.54 L 0.12 -30.63 M -2.29 81.53"/></g><g style="fill: rgb(147,177,124);fill-opacity: 1.0; stroke: none" transform="matrix(1,0,0,1,244,167.5)" ><path d="M -94.75 31.45 L -75.14 31.42 L -75.43 37.06 L -95.29 37.09 M -94.75 31.45"/></g><g style="fill: rgb(163,159,104);fill-opacity: 1.0; stroke: none" transform="matrix(1,0,0,1,244,167.5)" ><path d="M 119.79 87.18 L 100.46 87.27 L 103.74 37.35 L 123.48 37.31 M 119.79 87.18"/></g><g style="fill: rgb(135,163,114);fill-opacity: 1.0; stroke: none" transform="matrix(1,0,0,1,244,167.5)" ><path d="M 25.68 75.36 L 29.73 -46.09 L 30.8 -41.3 L 26.64 81.41 M 25.68 75.36"/></g><g style="fill: rgb(155,174,189);fill-opacity: 1.0; stroke: none" transform="matrix(1,0,0,1,244,167.5)" ><path d="M -21.28 -50.23 L -1.74 -50.18 L -1.1 -45.57 L -20.89 -45.62 M -21.28 -50.23"/></g><g style="fill: rgb(108,130,91);fill-opacity: 1.0; stroke: none" transform="matrix(1,0,0,1,244,167.5)" ><path d="M 55.15 -19.93 L 75.17 -19.91 L 69.87 81.22 L 50.69 81.31 M 55.15 -19.93"/></g><g style="fill: rgb(108,130,91);fill-opacity: 1.0; stroke: none" transform="matrix(1,0,0,1,244,167.5)" ><path d="M -70.67 11.42 L -50.65 11.41 L -50.7 81.74 L -70.13 81.82 M -70.67 11.42"/></g><g style="fill: rgb(135,163,114);fill-opacity: 1.0; stroke: none" transform="matrix(1,0,0,1,244,167.5)" ><path d="M -22 75.55 L -20.55 -35.58 L -20.14 -30.67 L -21.62 81.61 M -22 75.55"/></g><g style="fill: rgb(222,216,142);fill-opacity: 1.0; stroke: none" transform="matrix(1,0,0,1,244,167.5)" ><path d="M 3.23 87.72 L 22.76 87.63 L 23.71 93.98 L 3.93 94.08 M 3.23 87.72"/></g><g style="fill: rgb(147,177,124);fill-opacity: 1.0; stroke: none" transform="matrix(1,0,0,1,244,167.5)" ><path d="M 76.83 6 L 96.29 5.99 L 98.18 11.32 L 78.47 11.33 M 76.83 6"/></g><g style="fill: rgb(135,163,114);fill-opacity: 1.0; stroke: none" transform="matrix(1,0,0,1,244,167.5)" ><path d="M 21.83 81.43 L 20.92 75.38 L 24.89 -51.43 L 25.9 -46.71 M 21.83 81.43"/></g><g style="fill: rgb(222,216,142);fill-opacity: 1.0; stroke: none" transform="matrix(1,0,0,1,244,167.5)" ><path d="M -21.24 87.83 L -1.66 87.74 L -1.02 94.1 L -20.84 94.2 M -21.24 87.83"/></g><g style="fill: rgb(204,199,130);fill-opacity: 1.0; stroke: none" transform="matrix(1,0,0,1,244,167.5)" ><path d="M 146.37 93.38 L 143.9 87.07 L 147.24 47.39 L 149.79 53.3 M 146.37 93.38"/></g><g style="fill: rgb(135,163,114);fill-opacity: 1.0; stroke: none" transform="matrix(1,0,0,1,244,167.5)" ><path d="M 1.87 75.46 L 4.81 -51.49 L 5.56 -46.76 L 2.54 81.51 M 1.87 75.46"/></g><g style="fill: rgb(204,199,130);fill-opacity: 1.0; stroke: none" transform="matrix(1,0,0,1,244,167.5)" ><path d="M 124.62 87.16 L 127.64 47.44 L 129.94 53.36 L 126.85 93.47 M 124.62 87.16"/></g><g style="fill: rgb(222,216,142);fill-opacity: 1.0; stroke: none" transform="matrix(1,0,0,1,244,167.5)" ><path d="M -45.76 87.94 L -26.14 87.85 L -25.8 94.23 L -45.68 94.32 M -45.76 87.94"/></g><g style="fill: rgb(108,130,91);fill-opacity: 1.0; stroke: none" transform="matrix(1,0,0,1,244,167.5)" ><path d="M -45.59 -9.47 L -25.45 -9.46 L -26.46 81.64 L -45.85 81.72 M -45.59 -9.47"/></g><g style="fill: rgb(155,174,189);fill-opacity: 1.0; stroke: none" transform="matrix(1,0,0,1,244,167.5)" ><path d="M 28.02 -65.76 L 47.59 -65.7 L 48.86 -61.26 L 29.04 -61.33 M 28.02 -65.76"/></g><g style="fill: rgb(222,216,142);fill-opacity: 1.0; stroke: none" transform="matrix(1,0,0,1,244,167.5)" ><path d="M -70.35 88.06 L -50.68 87.96 L -50.65 94.35 L -70.58 94.45 M -70.35 88.06"/></g><g style="fill: rgb(155,174,189);fill-opacity: 1.0; stroke: none" transform="matrix(1,0,0,1,244,167.5)" ><path d="M 3.5 -65.85 L 23.12 -65.78 L 24.08 -61.34 L 4.21 -61.41 M 3.5 -65.85"/></g><g style="fill: rgb(204,199,130);fill-opacity: 1.0; stroke: none" transform="matrix(1,0,0,1,244,167.5)" ><path d="M 121.96 93.5 L 119.79 87.18 L 123.48 37.31 L 125.74 43.12 M 121.96 93.5"/></g><g style="fill: rgb(222,216,142);fill-opacity: 1.0; stroke: none" transform="matrix(1,0,0,1,244,167.5)" ><path d="M -95.01 88.17 L -75.28 88.08 L -75.57 94.47 L -95.55 94.57 M -95.01 88.17"/></g><g style="fill: rgb(108,130,91);fill-opacity: 1.0; stroke: none" transform="matrix(1,0,0,1,244,167.5)" ><path d="M 30.8 -41.3 L 51.04 -41.26 L 45.88 81.33 L 26.64 81.41 M 30.8 -41.3"/></g><g style="fill: rgb(108,130,91);fill-opacity: 1.0; stroke: none" transform="matrix(1,0,0,1,244,167.5)" ><path d="M -20.14 -30.67 L 0.12 -30.63 L -2.29 81.53 L -21.62 81.61 M -20.14 -30.67"/></g><g style="fill: rgb(163,159,104);fill-opacity: 1.0; stroke: none" transform="matrix(1,0,0,1,244,167.5)" ><path d="M 95.63 87.29 L 76.25 87.38 L 80.43 11.6 L 100.44 11.58 M 95.63 87.29"/></g><g style="fill: rgb(204,199,130);fill-opacity: 1.0; stroke: none" transform="matrix(1,0,0,1,244,167.5)" ><path d="M 100.46 87.27 L 103.74 37.35 L 105.75 43.17 L 102.39 93.59 M 100.46 87.27"/></g><g style="fill: rgb(222,216,142);fill-opacity: 1.0; stroke: none" transform="matrix(1,0,0,1,244,167.5)" ><path d="M -119.72 88.28 L -99.95 88.19 L -100.55 94.6 L -120.58 94.69 M -119.72 88.28"/></g><g style="fill: rgb(163,159,104);fill-opacity: 1.0; stroke: none" transform="matrix(1,0,0,1,244,167.5)" ><path d="M -99.95 88.19 L -119.72 88.28 L -120.74 53.17 L -100.66 53.11 M -99.95 88.19"/></g><g style="fill: rgb(108,130,91);fill-opacity: 1.0; stroke: none" transform="matrix(1,0,0,1,244,167.5)" ><path d="M 5.56 -46.76 L 25.9 -46.71 L 21.83 81.43 L 2.54 81.51 M 5.56 -46.76"/></g><g style="fill: rgb(222,216,142);fill-opacity: 1.0; stroke: none" transform="matrix(1,0,0,1,244,167.5)" ><path d="M -144.51 88.4 L -124.68 88.31 L -125.6 94.72 L -145.68 94.82 M -144.51 88.4"/></g><g style="fill: rgb(163,159,104);fill-opacity: 1.0; stroke: none" transform="matrix(1,0,0,1,244,167.5)" ><path d="M 129.94 53.36 L 149.79 53.3 L 146.37 93.38 L 126.85 93.47 M 129.94 53.36"/></g><g style="fill: rgb(147,177,124);fill-opacity: 1.0; stroke: none" transform="matrix(1,0,0,1,244,167.5)" ><path d="M -70.43 6.05 L -50.67 6.04 L -50.65 11.41 L -70.67 11.42 M -70.43 6.05"/></g><g style="fill: rgb(163,159,104);fill-opacity: 1.0; stroke: none" transform="matrix(1,0,0,1,244,167.5)" ><path d="M -124.68 88.31 L -144.51 88.4 L -145.9 53.24 L -125.77 53.18 M -124.68 88.31"/></g><g style="fill: rgb(163,159,104);fill-opacity: 1.0; stroke: none" transform="matrix(1,0,0,1,244,167.5)" ><path d="M -75.28 88.08 L -95.01 88.17 L -95.93 37.74 L -75.77 37.7 M -75.28 88.08"/></g><g style="fill: rgb(222,216,142);fill-opacity: 1.0; stroke: none" transform="matrix(1,0,0,1,244,167.5)" ><path d="M 127.64 47.44 L 147.24 47.39 L 149.79 53.3 L 129.94 53.36 M 127.64 47.44"/></g><g style="fill: rgb(163,159,104);fill-opacity: 1.0; stroke: none" transform="matrix(1,0,0,1,244,167.5)" ><path d="M 71.4 87.4 L 51.97 87.49 L 56.31 -9.47 L 76.54 -9.46 M 71.4 87.4"/></g><g style="fill: rgb(163,159,104);fill-opacity: 1.0; stroke: none" transform="matrix(1,0,0,1,244,167.5)" ><path d="M -50.68 87.96 L -70.35 88.06 L -70.86 22.16 L -50.63 22.13 M -50.68 87.96"/></g><g style="fill: rgb(204,199,130);fill-opacity: 1.0; stroke: none" transform="matrix(1,0,0,1,244,167.5)" ><path d="M 97.49 93.62 L 95.63 87.29 L 100.44 11.58 L 102.43 17.13 M 97.49 93.62"/></g><g style="fill: rgb(163,159,104);fill-opacity: 1.0; stroke: none" transform="matrix(1,0,0,1,244,167.5)" ><path d="M 105.75 43.17 L 125.74 43.12 L 121.96 93.5 L 102.39 93.59 M 105.75 43.17"/></g><g style="fill: rgb(204,199,130);fill-opacity: 1.0; stroke: none" transform="matrix(1,0,0,1,244,167.5)" ><path d="M 76.25 87.38 L 80.43 11.6 L 82.16 17.15 L 77.87 93.72 M 76.25 87.38"/></g><g style="fill: rgb(50,48,32);fill-opacity: 1.0; stroke: none" transform="matrix(1,0,0,1,244,167.5)" ><path d="M -101.29 59.16 L -100.66 53.11 L -99.95 88.19 L -100.55 94.6 M -101.29 59.16"/></g><g style="fill: rgb(163,159,104);fill-opacity: 1.0; stroke: none" transform="matrix(1,0,0,1,244,167.5)" ><path d="M -26.14 87.85 L -45.76 87.94 L -45.52 1.12 L -25.16 1.12 M -26.14 87.85"/></g><g style="fill: rgb(50,48,32);fill-opacity: 1.0; stroke: none" transform="matrix(1,0,0,1,244,167.5)" ><path d="M -120.58 94.69 L -121.62 59.22 L -120.74 53.17 L -119.72 88.28 M -120.58 94.69"/></g><g style="fill: rgb(50,48,32);fill-opacity: 1.0; stroke: none" transform="matrix(1,0,0,1,244,167.5)" ><path d="M -126.72 59.24 L -125.77 53.18 L -124.68 88.31 L -125.6 94.72 M -126.72 59.24"/></g><g style="fill: rgb(147,177,124);fill-opacity: 1.0; stroke: none" transform="matrix(1,0,0,1,244,167.5)" ><path d="M 53.79 -24.95 L 73.55 -24.92 L 75.17 -19.91 L 55.15 -19.93 M 53.79 -24.95"/></g><g style="fill: rgb(163,159,104);fill-opacity: 1.0; stroke: none" transform="matrix(1,0,0,1,244,167.5)" ><path d="M 47.11 87.52 L 27.63 87.6 L 31.33 -20.17 L 51.71 -20.15 M 47.11 87.52"/></g><g style="fill: rgb(50,48,32);fill-opacity: 1.0; stroke: none" transform="matrix(1,0,0,1,244,167.5)" ><path d="M -76.08 43.58 L -75.77 37.7 L -75.28 88.08 L -75.57 94.47 M -76.08 43.58"/></g><g style="fill: rgb(147,177,124);fill-opacity: 1.0; stroke: none" transform="matrix(1,0,0,1,244,167.5)" ><path d="M -45.68 -14.62 L -25.79 -14.6 L -25.45 -9.46 L -45.59 -9.47 M -45.68 -14.62"/></g><g style="fill: rgb(50,48,32);fill-opacity: 1.0; stroke: none" transform="matrix(1,0,0,1,244,167.5)" ><path d="M -145.68 94.82 L -147.11 59.3 L -145.9 53.24 L -144.51 88.4 M -145.68 94.82"/></g><g style="fill: rgb(222,216,142);fill-opacity: 1.0; stroke: none" transform="matrix(1,0,0,1,244,167.5)" ><path d="M 103.74 37.35 L 123.48 37.31 L 125.74 43.12 L 105.75 43.17 M 103.74 37.35"/></g><g style="fill: rgb(163,159,104);fill-opacity: 1.0; stroke: none" transform="matrix(1,0,0,1,244,167.5)" ><path d="M -1.66 87.74 L -21.24 87.83 L -19.86 -14.85 L 0.58 -14.84 M -1.66 87.74"/></g><g style="fill: rgb(50,48,32);fill-opacity: 1.0; stroke: none" transform="matrix(1,0,0,1,244,167.5)" ><path d="M -95.55 94.57 L -96.5 43.63 L -95.93 37.74 L -95.01 88.17 M -95.55 94.57"/></g><g style="fill: rgb(163,159,104);fill-opacity: 1.0; stroke: none" transform="matrix(1,0,0,1,244,167.5)" ><path d="M 22.76 87.63 L 3.23 87.72 L 5.94 -25.59 L 26.41 -25.56 M 22.76 87.63"/></g><g style="fill: rgb(204,199,130);fill-opacity: 1.0; stroke: none" transform="matrix(1,0,0,1,244,167.5)" ><path d="M 72.96 93.74 L 71.4 87.4 L 76.54 -9.46 L 78.24 -4.13 M 72.96 93.74"/></g><g style="fill: rgb(204,199,130);fill-opacity: 1.0; stroke: none" transform="matrix(1,0,0,1,244,167.5)" ><path d="M -50.65 94.35 L -50.68 87.96 L -50.63 22.13 L -50.6 27.84 M -50.65 94.35"/></g><g style="fill: rgb(204,199,130);fill-opacity: 1.0; stroke: none" transform="matrix(1,0,0,1,244,167.5)" ><path d="M 51.97 87.49 L 56.31 -9.47 L 57.75 -4.13 L 53.29 93.84 M 51.97 87.49"/></g><g style="fill: rgb(50,48,32);fill-opacity: 1.0; stroke: none" transform="matrix(1,0,0,1,244,167.5)" ><path d="M -70.58 94.45 L -71.1 27.87 L -70.86 22.16 L -70.35 88.06 M -70.58 94.45"/></g><g style="fill: rgb(163,159,104);fill-opacity: 1.0; stroke: none" transform="matrix(1,0,0,1,244,167.5)" ><path d="M 82.16 17.15 L 102.43 17.13 L 97.49 93.62 L 77.87 93.72 M 82.16 17.15"/></g><g style="fill: rgb(204,199,130);fill-opacity: 1.0; stroke: none" transform="matrix(1,0,0,1,244,167.5)" ><path d="M -25.8 94.23 L -26.14 87.85 L -25.16 1.12 L -24.8 6.6 M -25.8 94.23"/></g><g style="fill: rgb(163,159,104);fill-opacity: 1.0; stroke: none" transform="matrix(1,0,0,1,244,167.5)" ><path d="M -121.62 59.22 L -101.29 59.16 L -100.55 94.6 L -120.58 94.69 M -121.62 59.22"/></g><g style="fill: rgb(204,199,130);fill-opacity: 1.0; stroke: none" transform="matrix(1,0,0,1,244,167.5)" ><path d="M 48.37 93.86 L 47.11 87.52 L 51.71 -20.15 L 53.08 -14.93 M 48.37 93.86"/></g><g style="fill: rgb(204,199,130);fill-opacity: 1.0; stroke: none" transform="matrix(1,0,0,1,244,167.5)" ><path d="M -45.76 87.94 L -45.52 1.12 L -45.42 6.6 L -45.68 94.32 M -45.76 87.94"/></g><g style="fill: rgb(222,216,142);fill-opacity: 1.0; stroke: none" transform="matrix(1,0,0,1,244,167.5)" ><path d="M -120.74 53.17 L -100.66 53.11 L -101.29 59.16 L -121.62 59.22 M -120.74 53.17"/></g><g style="fill: rgb(163,159,104);fill-opacity: 1.0; stroke: none" transform="matrix(1,0,0,1,244,167.5)" ><path d="M -147.11 59.3 L -126.72 59.24 L -125.6 94.72 L -145.68 94.82 M -147.11 59.3"/></g><g style="fill: rgb(204,199,130);fill-opacity: 1.0; stroke: none" transform="matrix(1,0,0,1,244,167.5)" ><path d="M 27.63 87.6 L 31.33 -20.17 L 32.44 -14.95 L 28.64 93.96 M 27.63 87.6"/></g><g style="fill: rgb(204,199,130);fill-opacity: 1.0; stroke: none" transform="matrix(1,0,0,1,244,167.5)" ><path d="M -1.02 94.1 L -1.66 87.74 L 0.58 -14.84 L 1.28 -9.55 M -1.02 94.1"/></g><g style="fill: rgb(163,159,104);fill-opacity: 1.0; stroke: none" transform="matrix(1,0,0,1,244,167.5)" ><path d="M -96.5 43.63 L -76.08 43.58 L -75.57 94.47 L -95.55 94.57 M -96.5 43.63"/></g><g style="fill: rgb(222,216,142);fill-opacity: 1.0; stroke: none" transform="matrix(1,0,0,1,244,167.5)" ><path d="M -145.9 53.24 L -125.77 53.18 L -126.72 59.24 L -147.11 59.3 M -145.9 53.24"/></g><g style="fill: rgb(147,177,124);fill-opacity: 1.0; stroke: none" transform="matrix(1,0,0,1,244,167.5)" ><path d="M -20.55 -35.58 L -0.55 -35.54 L 0.12 -30.63 L -20.14 -30.67 M -20.55 -35.58"/></g><g style="fill: rgb(204,199,130);fill-opacity: 1.0; stroke: none" transform="matrix(1,0,0,1,244,167.5)" ><path d="M 23.71 93.98 L 22.76 87.63 L 26.41 -25.56 L 27.45 -20.39 M 23.71 93.98"/></g><g style="fill: rgb(204,199,130);fill-opacity: 1.0; stroke: none" transform="matrix(1,0,0,1,244,167.5)" ><path d="M -21.24 87.83 L -19.86 -14.85 L -19.43 -9.56 L -20.84 94.2 M -21.24 87.83"/></g><g style="fill: rgb(204,199,130);fill-opacity: 1.0; stroke: none" transform="matrix(1,0,0,1,244,167.5)" ><path d="M 3.23 87.72 L 5.94 -25.59 L 6.71 -20.42 L 3.93 94.08 M 3.23 87.72"/></g><g style="fill: rgb(163,159,104);fill-opacity: 1.0; stroke: none" transform="matrix(1,0,0,1,244,167.5)" ><path d="M 57.75 -4.13 L 78.24 -4.13 L 72.96 93.74 L 53.29 93.84 M 57.75 -4.13"/></g><g style="fill: rgb(163,159,104);fill-opacity: 1.0; stroke: none" transform="matrix(1,0,0,1,244,167.5)" ><path d="M -71.1 27.87 L -50.6 27.84 L -50.65 94.35 L -70.58 94.45 M -71.1 27.87"/></g><g style="fill: rgb(147,177,124);fill-opacity: 1.0; stroke: none" transform="matrix(1,0,0,1,244,167.5)" ><path d="M 29.73 -46.09 L 49.71 -46.04 L 51.04 -41.26 L 30.8 -41.3 M 29.73 -46.09"/></g><g style="fill: rgb(222,216,142);fill-opacity: 1.0; stroke: none" transform="matrix(1,0,0,1,244,167.5)" ><path d="M -95.93 37.74 L -75.77 37.7 L -76.08 43.58 L -96.5 43.63 M -95.93 37.74"/></g><g style="fill: rgb(163,159,104);fill-opacity: 1.0; stroke: none" transform="matrix(1,0,0,1,244,167.5)" ><path d="M -45.42 6.6 L -24.8 6.6 L -25.8 94.23 L -45.68 94.32 M -45.42 6.6"/></g><g style="fill: rgb(163,159,104);fill-opacity: 1.0; stroke: none" transform="matrix(1,0,0,1,244,167.5)" ><path d="M 32.44 -14.95 L 53.08 -14.93 L 48.37 93.86 L 28.64 93.96 M 32.44 -14.95"/></g><g style="fill: rgb(147,177,124);fill-opacity: 1.0; stroke: none" transform="matrix(1,0,0,1,244,167.5)" ><path d="M 4.81 -51.49 L 24.89 -51.43 L 25.9 -46.71 L 5.56 -46.76 M 4.81 -51.49"/></g><g style="fill: rgb(222,216,142);fill-opacity: 1.0; stroke: none" transform="matrix(1,0,0,1,244,167.5)" ><path d="M 80.43 11.6 L 100.44 11.58 L 102.43 17.13 L 82.16 17.15 M 80.43 11.6"/></g><g style="fill: rgb(163,159,104);fill-opacity: 1.0; stroke: none" transform="matrix(1,0,0,1,244,167.5)" ><path d="M -19.43 -9.56 L 1.28 -9.55 L -1.02 94.1 L -20.84 94.2 M -19.43 -9.56"/></g><g style="fill: rgb(163,159,104);fill-opacity: 1.0; stroke: none" transform="matrix(1,0,0,1,244,167.5)" ><path d="M 6.71 -20.42 L 27.45 -20.39 L 23.71 93.98 L 3.93 94.08 M 6.71 -20.42"/></g><g style="fill: rgb(222,216,142);fill-opacity: 1.0; stroke: none" transform="matrix(1,0,0,1,244,167.5)" ><path d="M -70.86 22.16 L -50.63 22.13 L -50.6 27.84 L -71.1 27.87 M -70.86 22.16"/></g><g style="fill: rgb(222,216,142);fill-opacity: 1.0; stroke: none" transform="matrix(1,0,0,1,244,167.5)" ><path d="M 56.31 -9.47 L 76.54 -9.46 L 78.24 -4.13 L 57.75 -4.13 M 56.31 -9.47"/></g><g style="fill: rgb(222,216,142);fill-opacity: 1.0; stroke: none" transform="matrix(1,0,0,1,244,167.5)" ><path d="M -45.52 1.12 L -25.16 1.12 L -24.8 6.6 L -45.42 6.6 M -45.52 1.12"/></g><g style="fill: rgb(222,216,142);fill-opacity: 1.0; stroke: none" transform="matrix(1,0,0,1,244,167.5)" ><path d="M 31.33 -20.17 L 51.71 -20.15 L 53.08 -14.93 L 32.44 -14.95 M 31.33 -20.17"/></g><g style="fill: rgb(222,216,142);fill-opacity: 1.0; stroke: none" transform="matrix(1,0,0,1,244,167.5)" ><path d="M -19.86 -14.85 L 0.58 -14.84 L 1.28 -9.55 L -19.43 -9.56 M -19.86 -14.85"/></g><g style="fill: rgb(222,216,142);fill-opacity: 1.0; stroke: none" transform="matrix(1,0,0,1,244,167.5)" ><path d="M 5.94 -25.59 L 26.41 -25.56 L 27.45 -20.39 L 6.71 -20.42 M 5.94 -25.59"/></g><line x1="-166.51" y1="101.88" x2="167.95" y2="100.11" style="stroke-width: 1.0;stroke: rgb(128,128,128);stroke-opacity: 1.0;" transform="matrix(1,0,0,1,244,167.5)" /><line x1="-136.77" y1="101.72" x2="-136.75" y2="104.72" style="stroke-width: 0.5;stroke: rgb(128,128,128);stroke-opacity: 1.0;" transform="matrix(1,0,0,1,244,167.5)" /><g transform="matrix(0.005293,0.999986,-0.999986,0.005293,217.716962,413.367044)"><text x="-136.73" y="114.69" style="fill: rgb(0,0,0); font-family: SansSerif; font-size: 12px; " text-rendering="auto" >Jan</text></g><line x1="-111.35" y1="101.59" x2="-111.34" y2="104.59" style="stroke-width: 0.5;stroke: rgb(128,128,128);stroke-opacity: 1.0;" transform="matrix(1,0,0,1,244,167.5)" /><g transform="matrix(0.005293,0.999986,-0.999986,0.005293,242.863551,387.817941)"><text x="-111.31" y="114.56" style="fill: rgb(0,0,0); font-family: SansSerif; font-size: 12px; " text-rendering="auto" >Feb</text></g><line x1="-86.01" y1="101.45" x2="-85.99" y2="104.45" style="stroke-width: 0.5;stroke: rgb(128,128,128);stroke-opacity: 1.0;" transform="matrix(1,0,0,1,244,167.5)" /><g transform="matrix(0.005293,0.999986,-0.999986,0.005293,267.943715,362.336333)"><text x="-85.96" y="114.42" style="fill: rgb(0,0,0); font-family: SansSerif; font-size: 12px; " text-rendering="auto" >Mar</text></g><line x1="-60.72" y1="101.32" x2="-60.71" y2="104.32" style="stroke-width: 0.5;stroke: rgb(128,128,128);stroke-opacity: 1.0;" transform="matrix(1,0,0,1,244,167.5)" /><g transform="matrix(0.005293,0.999986,-0.999986,0.005293,292.957709,336.921948)"><text x="-60.68" y="114.29" style="fill: rgb(0,0,0); font-family: SansSerif; font-size: 12px; " text-rendering="auto" >Apr</text></g><line x1="-35.51" y1="101.19" x2="-35.49" y2="104.19" style="stroke-width: 0.5;stroke: rgb(128,128,128);stroke-opacity: 1.0;" transform="matrix(1,0,0,1,244,167.5)" /><g transform="matrix(0.005293,0.999986,-0.999986,0.005293,317.905805,311.574512)"><text x="-35.47" y="114.16" style="fill: rgb(0,0,0); font-family: SansSerif; font-size: 12px; " text-rendering="auto" >May</text></g><line x1="-10.36" y1="101.05" x2="-10.34" y2="104.05" style="stroke-width: 0.5;stroke: rgb(128,128,128);stroke-opacity: 1.0;" transform="matrix(1,0,0,1,244,167.5)" /><g transform="matrix(0.005293,0.999986,-0.999986,0.005293,342.788266,286.293777)"><text x="-10.32" y="114.02" style="fill: rgb(0,0,0); font-family: SansSerif; font-size: 12px; " text-rendering="auto" >Jun</text></g><line x1="14.72" y1="100.92" x2="14.74" y2="103.92" style="stroke-width: 0.5;stroke: rgb(128,128,128);stroke-opacity: 1.0;" transform="matrix(1,0,0,1,244,167.5)" /><g transform="matrix(0.005293,0.999986,-0.999986,0.005293,367.60534,261.079462)"><text x="14.76" y="113.89" style="fill: rgb(0,0,0); font-family: SansSerif; font-size: 12px; " text-rendering="auto" >Jul</text></g><line x1="39.74" y1="100.79" x2="39.75" y2="103.79" style="stroke-width: 0.5;stroke: rgb(128,128,128);stroke-opacity: 1.0;" transform="matrix(1,0,0,1,244,167.5)" /><g transform="matrix(0.005293,0.999986,-0.999986,0.005293,392.35729,235.93132)"><text x="39.78" y="113.76" style="fill: rgb(0,0,0); font-family: SansSerif; font-size: 12px; " text-rendering="auto" >Aug</text></g><line x1="64.69" y1="100.66" x2="64.71" y2="103.66" style="stroke-width: 0.5;stroke: rgb(128,128,128);stroke-opacity: 1.0;" transform="matrix(1,0,0,1,244,167.5)" /><g transform="matrix(0.005293,0.999986,-0.999986,0.005293,417.044373,210.849074)"><text x="64.73" y="113.62" style="fill: rgb(0,0,0); font-family: SansSerif; font-size: 12px; " text-rendering="auto" >Sep</text></g><line x1="89.58" y1="100.52" x2="89.59" y2="103.52" style="stroke-width: 0.5;stroke: rgb(128,128,128);stroke-opacity: 1.0;" transform="matrix(1,0,0,1,244,167.5)" /><g transform="matrix(0.005293,0.999986,-0.999986,0.005293,441.666842,185.832489)"><text x="89.62" y="113.49" style="fill: rgb(0,0,0); font-family: SansSerif; font-size: 12px; " text-rendering="auto" >Oct</text></g><line x1="114.4" y1="100.39" x2="114.41" y2="103.39" style="stroke-width: 0.5;stroke: rgb(128,128,128);stroke-opacity: 1.0;" transform="matrix(1,0,0,1,244,167.5)" /><g transform="matrix(0.005293,0.999986,-0.999986,0.005293,466.22495,160.881292)"><text x="114.44" y="113.36" style="fill: rgb(0,0,0); font-family: SansSerif; font-size: 12px; " text-rendering="auto" >Nov</text></g><line x1="139.15" y1="100.26" x2="139.17" y2="103.26" style="stroke-width: 0.5;stroke: rgb(128,128,128);stroke-opacity: 1.0;" transform="matrix(1,0,0,1,244,167.5)" /><g transform="matrix(0.005293,0.999986,-0.999986,0.005293,490.718955,135.995224)"><text x="139.2" y="113.23" style="fill: rgb(0,0,0); font-family: SansSerif; font-size: 12px; " text-rendering="auto" >Dec</text></g><line x1="-166.51" y1="101.88" x2="-173.74" y2="-44.87" style="stroke-width: 1.0;stroke: rgb(128,128,128);stroke-opacity: 1.0;" transform="matrix(1,0,0,1,244,167.5)" /><line x1="-166.51" y1="101.88" x2="-169.5" y2="102.03" style="stroke-width: 0.5;stroke: rgb(128,128,128);stroke-opacity: 1.0;" transform="matrix(1,0,0,1,244,167.5)" /><g transform="matrix(0.998788,-0.049213,0.049213,0.998788,238.755357,159.036376)"><text x="-182.5" y="107.24" style="fill: rgb(0,0,0); font-family: SansSerif; font-size: 12px; " text-rendering="auto" >0</text></g><line x1="-167.77" y1="76.32" x2="-170.76" y2="76.47" style="stroke-width: 0.5;stroke: rgb(128,128,128);stroke-opacity: 1.0;" transform="matrix(1,0,0,1,244,167.5)" /><g transform="matrix(0.998788,-0.049213,0.049213,0.998788,240.011481,158.943443)"><text x="-183.76" y="81.69" style="fill: rgb(0,0,0); font-family: SansSerif; font-size: 12px; " text-rendering="auto" >5</text></g><line x1="-169.05" y1="50.2" x2="-172.05" y2="50.35" style="stroke-width: 0.5;stroke: rgb(128,128,128);stroke-opacity: 1.0;" transform="matrix(1,0,0,1,244,167.5)" /><g transform="matrix(0.998788,-0.049213,0.049213,0.998788,241.295638,158.848435)"><text x="-193.04" y="55.56" style="fill: rgb(0,0,0); font-family: SansSerif; font-size: 12px; " text-rendering="auto" >10</text></g><line x1="-170.37" y1="23.48" x2="-173.37" y2="23.63" style="stroke-width: 0.5;stroke: rgb(128,128,128);stroke-opacity: 1.0;" transform="matrix(1,0,0,1,244,167.5)" /><g transform="matrix(0.998788,-0.049213,0.049213,0.998788,242.608779,158.751284)"><text x="-194.36" y="28.85" style="fill: rgb(0,0,0); font-family: SansSerif; font-size: 12px; " text-rendering="auto" >15</text></g><line x1="-171.72" y1="-3.84" x2="-174.71" y2="-3.69" style="stroke-width: 0.5;stroke: rgb(128,128,128);stroke-opacity: 1.0;" transform="matrix(1,0,0,1,244,167.5)" /><g transform="matrix(0.998788,-0.049213,0.049213,0.998788,243.951895,158.651914)"><text x="-195.71" y="1.52" style="fill: rgb(0,0,0); font-family: SansSerif; font-size: 12px; " text-rendering="auto" >20</text></g><line x1="-173.09" y1="-31.8" x2="-176.09" y2="-31.65" style="stroke-width: 0.5;stroke: rgb(128,128,128);stroke-opacity: 1.0;" transform="matrix(1,0,0,1,244,167.5)" /><g transform="matrix(0.998788,-0.049213,0.049213,0.998788,245.326025,158.550251)"><text x="-197.08" y="-26.43" style="fill: rgb(0,0,0); font-family: SansSerif; font-size: 12px; " text-rendering="auto" >25</text></g><g transform="matrix(0.049213,0.998788,-0.998788,0.049213,80.10194,400.024496)"><text x="-230.58" y="35.14" style="fill: rgb(0,0,0); font-family: SansSerif; font-size: 12px; font-weight: bold; " text-rendering="auto" >Temp C</text></g><line x1="181.66" y1="-44.05" x2="151.1" y2="-92.45" style="stroke-width: 1.0;stroke: rgb(128,128,128);stroke-opacity: 1.0;" transform="matrix(1,0,0,1,244,167.5)" /><line x1="176.84" y1="-51.68" x2="179.38" y2="-53.28" style="stroke-width: 0.5;stroke: rgb(128,128,128);stroke-opacity: 1.0;" transform="matrix(1,0,0,1,244,167.5)" /><g transform="matrix(0.845571,-0.533863,0.533863,0.845571,302.224288,256.879904)"><text x="183.61" y="-50.98" style="fill: rgb(0,0,0); font-family: SansSerif; font-size: 12px; " text-rendering="auto" >London</text></g><line x1="170.93" y1="-61.05" x2="173.47" y2="-62.65" style="stroke-width: 0.5;stroke: rgb(128,128,128);stroke-opacity: 1.0;" transform="matrix(1,0,0,1,244,167.5)" /><g transform="matrix(0.845571,-0.533863,0.533863,0.845571,306.310926,252.276978)"><text x="177.69" y="-60.35" style="fill: rgb(0,0,0); font-family: SansSerif; font-size: 12px; " text-rendering="auto" >Geneva</text></g><line x1="165.31" y1="-69.94" x2="167.85" y2="-71.54" style="stroke-width: 0.5;stroke: rgb(128,128,128);stroke-opacity: 1.0;" transform="matrix(1,0,0,1,244,167.5)" /><g transform="matrix(0.845571,-0.533863,0.533863,0.845571,310.192055,247.905524)"><text x="172.08" y="-69.24" style="fill: rgb(0,0,0); font-family: SansSerif; font-size: 12px; " text-rendering="auto" >Bergerac</text></g><line x1="159.97" y1="-78.4" x2="162.51" y2="-80" style="stroke-width: 0.5;stroke: rgb(128,128,128);stroke-opacity: 1.0;" transform="matrix(1,0,0,1,244,167.5)" /><g transform="matrix(0.845571,-0.533863,0.533863,0.845571,313.882799,243.74851)"><text x="166.74" y="-77.7" style="fill: rgb(0,0,0); font-family: SansSerif; font-size: 12px; " text-rendering="auto" >Christchurch</text></g><line x1="154.89" y1="-86.45" x2="157.43" y2="-88.05" style="stroke-width: 0.5;stroke: rgb(128,128,128);stroke-opacity: 1.0;" transform="matrix(1,0,0,1,244,167.5)" /><g transform="matrix(0.845571,-0.533863,0.533863,0.845571,317.396829,239.790531)"><text x="161.65" y="-85.75" style="fill: rgb(0,0,0); font-family: SansSerif; font-size: 12px; " text-rendering="auto" >Wellington</text></g><rect x="101" y="313" width="16" height="19" style="fill: rgb(255,255,255);fill-opacity: 1.0" transform="matrix(1,0,0,1,0,0)" /><rect x="-6" y="-4" width="12" height="8" style="fill: rgb(255,248,163);fill-opacity: 1.0" transform="matrix(1,0,0,1,109,322.5)" /><rect x="117" y="313" width="46" height="19" style="fill: rgb(255,255,255);fill-opacity: 1.0" transform="matrix(1,0,0,1,0,0)" /><g transform="matrix(1,0,0,1,0,0)"><text x="119" y="327.47" style="fill: rgb(0,0,0); font-family: Dialog; font-size: 12px; " text-rendering="auto" >London</text></g><rect x="167" y="313" width="16" height="19" style="fill: rgb(255,255,255);fill-opacity: 1.0" transform="matrix(1,0,0,1,0,0)" /><rect x="-6" y="-4" width="12" height="8" style="fill: rgb(169,204,143);fill-opacity: 1.0" transform="matrix(1,0,0,1,175,322.5)" /><rect x="183" y="313" width="47" height="19" style="fill: rgb(255,255,255);fill-opacity: 1.0" transform="matrix(1,0,0,1,0,0)" /><g transform="matrix(1,0,0,1,0,0)"><text x="185" y="327.47" style="fill: rgb(0,0,0); font-family: Dialog; font-size: 12px; " text-rendering="auto" >Geneva</text></g><rect x="236" y="313" width="16" height="19" style="fill: rgb(255,255,255);fill-opacity: 1.0" transform="matrix(1,0,0,1,0,0)" /><rect x="-6" y="-4" width="12" height="8" style="fill: rgb(178,200,217);fill-opacity: 1.0" transform="matrix(1,0,0,1,244,322.5)" /><rect x="252" y="313" width="55" height="19" style="fill: rgb(255,255,255);fill-opacity: 1.0" transform="matrix(1,0,0,1,0,0)" /><g transform="matrix(1,0,0,1,0,0)"><text x="254" y="327.47" style="fill: rgb(0,0,0); font-family: Dialog; font-size: 12px; " text-rendering="auto" >Bergerac</text></g><rect x="313" y="313" width="16" height="19" style="fill: rgb(255,255,255);fill-opacity: 1.0" transform="matrix(1,0,0,1,0,0)" /><rect x="-6" y="-4" width="12" height="8" style="fill: rgb(190,163,122);fill-opacity: 1.0" transform="matrix(1,0,0,1,321,322.5)" /><rect x="329" y="313" width="75" height="19" style="fill: rgb(255,255,255);fill-opacity: 1.0" transform="matrix(1,0,0,1,0,0)" /><g transform="matrix(1,0,0,1,0,0)"><text x="331" y="327.47" style="fill: rgb(0,0,0); font-family: Dialog; font-size: 12px; " text-rendering="auto" >Christchurch</text></g><rect x="410" y="313" width="16" height="19" style="fill: rgb(255,255,255);fill-opacity: 1.0" transform="matrix(1,0,0,1,0,0)" /><rect x="-6" y="-4" width="12" height="8" style="fill: rgb(243,170,121);fill-opacity: 1.0" transform="matrix(1,0,0,1,418,322.5)" /><rect x="426" y="313" width="62" height="19" style="fill: rgb(255,255,255);fill-opacity: 1.0" transform="matrix(1,0,0,1,0,0)" /><g transform="matrix(1,0,0,1,0,0)"><text x="428" y="327.47" style="fill: rgb(0,0,0); font-family: Dialog; font-size: 12px; " text-rendering="auto" >Wellington</text></g><rect x="251" y="336" width="243" height="17" style="fill: rgb(255,255,255);fill-opacity: 1.0" transform="matrix(1,0,0,1,0,0)" /><g transform="matrix(1,0,0,1,0,0)"><text x="253" y="348.89" style="fill: rgb(0,0,0); font-family: Dialog; font-size: 10px; " text-rendering="auto" >Orson Charts (c) 2013, by Object Refinery Limited</text></g><rect x="6" y="6" width="336" height="29" style="fill: rgb(255,255,255);fill-opacity: 1.0" transform="matrix(1,0,0,1,0,0)" /><g transform="matrix(1,0,0,1,0,0)"><text x="8" y="28.78" style="fill: rgb(0,0,0); font-family: Dialog; font-size: 20px; font-weight: bold; " text-rendering="auto" >Average Maximum Temperature</text></g><rect x="6" y="35" width="305" height="19" style="fill: rgb(255,255,255);fill-opacity: 1.0" transform="matrix(1,0,0,1,0,0)" /><g transform="matrix(1,0,0,1,0,0)"><text x="8" y="49.47" style="fill: rgb(0,0,0); font-family: Dialog; font-size: 12px; " text-rendering="auto" >http://www.worldclimateguide.co.uk/climateguides/</text></g></svg>
