<!DOCTYPE svg PUBLIC "-//W3C//DTD SVG 1.1//EN" "http://www.w3.org/Graphics/SVG/1.1/DTD/svg11.dtd">
<svg xmlns="http://www.w3.org/2000/svg" xmlns:xlink="http://www.w3.org/1999/xlink" width="500" height="359">
<defs></defs>
<rect x="0" y="0" width="500" height="359" style="fill: rgb(255,255,255);fill-opacity: 1.0" transform="matrix(1,0,0,1,0,0)" /><g style="fill: rgb(209,203,133);fill-opacity: 1.0; stroke: none" transform="matrix(1,0,0,1,268,162.5)" ><path d="M 2.43 -10.71 L 5.91 -82.34 L 18.66 -79.62 L 2.43 -10.71 M 2.43 -10.71"/></g><g style="stroke-width: 1.2;stroke: rgb(209,203,133);stroke-opacity: 1.0;; fill: none" transform="matrix(1,0,0,1,268,162.5)" ><path d="M 2.43 -10.71 L 5.91 -82.34 L 18.66 -79.62 L 2.43 -10.71 M 2.43 -10.71"/></g><g style="fill: rgb(209,203,133);fill-opacity: 1.0; stroke: none" transform="matrix(1,0,0,1,268,162.5)" ><path d="M 2.43 -10.71 L 18.66 -79.62 L 31.33 -76.54 L 2.43 -10.71 M 2.43 -10.71"/></g><g style="stroke-width: 1.2;stroke: rgb(209,203,133);stroke-opacity: 1.0;; fill: none" transform="matrix(1,0,0,1,268,162.5)" ><path d="M 2.43 -10.71 L 18.66 -79.62 L 31.33 -76.54 L 2.43 -10.71 M 2.43 -10.71"/></g><g style="fill: rgb(209,203,133);fill-opacity: 1.0; stroke: none" transform="matrix(1,0,0,1,268,162.5)" ><path d="M 2.43 -10.71 L -6.88 -84.69 L 5.91 -82.34 L 2.43 -10.71 M 2.43 -10.71"/></g><g style="stroke-width: 1.2;stroke: rgb(209,203,133);stroke-opacity: 1.0;; fill: none" transform="matrix(1,0,0,1,268,162.5)" ><path d="M 2.43 -10.71 L -6.88 -84.69 L 5.91 -82.34 L 2.43 -10.71 M 2.43 -10.71"/></g><g style="fill: rgb(209,203,133);fill-opacity: 1.0; stroke: none" transform="matrix(1,0,0,1,268,162.5)" ><path d="M 2.43 -10.71 L 31.33 -76.54 L 43.87 -73.1 L 2.43 -10.71 M 2.43 -10.71"/></g><g style="stroke-width: 1.2;stroke: rgb(209,203,133);stroke-opacity: 1.0;; fill: none" transform="matrix(1,0,0,1,268,162.5)" ><path d="M 2.43 -10.71 L 31.33 -76.54 L 43.87 -73.1 L 2.43 -10.71 M 2.43 -10.71"/></g><g style="fill: rgb(209,203,133);fill-opacity: 1.0; stroke: none" transform="matrix(1,0,0,1,268,162.5)" ><path d="M 2.43 -10.71 L -19.66 -86.66 L -6.88 -84.69 L 2.43 -10.71 M 2.43 -10.71"/></g><g style="stroke-width: 1.2;stroke: rgb(209,203,133);stroke-opacity: 1.0;; fill: none" transform="matrix(1,0,0,1,268,162.5)" ><path d="M 2.43 -10.71 L -19.66 -86.66 L -6.88 -84.69 L 2.43 -10.71 M 2.43 -10.71"/></g><g style="fill: rgb(209,203,133);fill-opacity: 1.0; stroke: none" transform="matrix(1,0,0,1,268,162.5)" ><path d="M 2.43 -10.71 L 43.87 -73.1 L 56.23 -69.33 L 2.43 -10.71 M 2.43 -10.71"/></g><g style="stroke-width: 1.2;stroke: rgb(209,203,133);stroke-opacity: 1.0;; fill: none" transform="matrix(1,0,0,1,268,162.5)" ><path d="M 2.43 -10.71 L 43.87 -73.1 L 56.23 -69.33 L 2.43 -10.71 M 2.43 -10.71"/></g><g style="fill: rgb(209,203,133);fill-opacity: 1.0; stroke: none" transform="matrix(1,0,0,1,268,162.5)" ><path d="M 2.43 -10.71 L -32.4 -88.24 L -19.66 -86.66 L 2.43 -10.71 M 2.43 -10.71"/></g><g style="stroke-width: 1.2;stroke: rgb(209,203,133);stroke-opacity: 1.0;; fill: none" transform="matrix(1,0,0,1,268,162.5)" ><path d="M 2.43 -10.71 L -32.4 -88.24 L -19.66 -86.66 L 2.43 -10.71 M 2.43 -10.71"/></g><g style="fill: rgb(209,203,133);fill-opacity: 1.0; stroke: none" transform="matrix(1,0,0,1,268,162.5)" ><path d="M 2.43 -10.71 L 56.23 -69.33 L 68.38 -65.22 L 2.43 -10.71 M 2.43 -10.71"/></g><g style="stroke-width: 1.2;stroke: rgb(209,203,133);stroke-opacity: 1.0;; fill: none" transform="matrix(1,0,0,1,268,162.5)" ><path d="M 2.43 -10.71 L 56.23 -69.33 L 68.38 -65.22 L 2.43 -10.71 M 2.43 -10.71"/></g><g style="fill: rgb(225,218,143);fill-opacity: 1.0; stroke: none" transform="matrix(1,0,0,1,268,162.5)" ><path d="M 2.43 -10.71 L -2.41 10.59 L -60.21 -70.98 L -56.56 -90.14 M 2.43 -10.71"/></g><g style="fill: rgb(209,203,133);fill-opacity: 1.0; stroke: none" transform="matrix(1,0,0,1,268,162.5)" ><path d="M 2.43 -10.71 L -45.05 -89.42 L -32.4 -88.24 L 2.43 -10.71 M 2.43 -10.71"/></g><g style="stroke-width: 1.2;stroke: rgb(209,203,133);stroke-opacity: 1.0;; fill: none" transform="matrix(1,0,0,1,268,162.5)" ><path d="M 2.43 -10.71 L -45.05 -89.42 L -32.4 -88.24 L 2.43 -10.71 M 2.43 -10.71"/></g><g style="fill: rgb(209,203,133);fill-opacity: 1.0; stroke: none" transform="matrix(1,0,0,1,268,162.5)" ><path d="M 2.43 -10.71 L 68.38 -65.22 L 80.28 -60.79 L 2.43 -10.71 M 2.43 -10.71"/></g><g style="stroke-width: 1.2;stroke: rgb(209,203,133);stroke-opacity: 1.0;; fill: none" transform="matrix(1,0,0,1,268,162.5)" ><path d="M 2.43 -10.71 L 68.38 -65.22 L 80.28 -60.79 L 2.43 -10.71 M 2.43 -10.71"/></g><g style="fill: rgb(209,203,133);fill-opacity: 1.0; stroke: none" transform="matrix(1,0,0,1,268,162.5)" ><path d="M 2.43 -10.71 L -56.56 -90.14 L -45.05 -89.42 L 2.43 -10.71 M 2.43 -10.71"/></g><g style="stroke-width: 1.2;stroke: rgb(209,203,133);stroke-opacity: 1.0;; fill: none" transform="matrix(1,0,0,1,268,162.5)" ><path d="M 2.43 -10.71 L -56.56 -90.14 L -45.05 -89.42 L 2.43 -10.71 M 2.43 -10.71"/></g><g style="fill: rgb(209,203,133);fill-opacity: 1.0; stroke: none" transform="matrix(1,0,0,1,268,162.5)" ><path d="M 2.43 -10.71 L 80.28 -60.79 L 91.86 -56.06 L 2.43 -10.71 M 2.43 -10.71"/></g><g style="stroke-width: 1.2;stroke: rgb(209,203,133);stroke-opacity: 1.0;; fill: none" transform="matrix(1,0,0,1,268,162.5)" ><path d="M 2.43 -10.71 L 80.28 -60.79 L 91.86 -56.06 L 2.43 -10.71 M 2.43 -10.71"/></g><g style="fill: rgb(138,167,117);fill-opacity: 1.0; stroke: none" transform="matrix(1,0,0,1,268,162.5)" ><path d="M 2.43 -10.71 L -68.9 -90.53 L -56.56 -90.14 L 2.43 -10.71 M 2.43 -10.71"/></g><g style="stroke-width: 1.2;stroke: rgb(138,167,117);stroke-opacity: 1.0;; fill: none" transform="matrix(1,0,0,1,268,162.5)" ><path d="M 2.43 -10.71 L -68.9 -90.53 L -56.56 -90.14 L 2.43 -10.71 M 2.43 -10.71"/></g><g style="fill: rgb(209,203,133);fill-opacity: 1.0; stroke: none" transform="matrix(1,0,0,1,268,162.5)" ><path d="M 2.43 -10.71 L 91.86 -56.06 L 103.1 -51.03 L 2.43 -10.71 M 2.43 -10.71"/></g><g style="stroke-width: 1.2;stroke: rgb(209,203,133);stroke-opacity: 1.0;; fill: none" transform="matrix(1,0,0,1,268,162.5)" ><path d="M 2.43 -10.71 L 91.86 -56.06 L 103.1 -51.03 L 2.43 -10.71 M 2.43 -10.71"/></g><g style="fill: rgb(138,167,117);fill-opacity: 1.0; stroke: none" transform="matrix(1,0,0,1,268,162.5)" ><path d="M 2.43 -10.71 L -81.01 -90.49 L -68.9 -90.53 L 2.43 -10.71 M 2.43 -10.71"/></g><g style="stroke-width: 1.2;stroke: rgb(138,167,117);stroke-opacity: 1.0;; fill: none" transform="matrix(1,0,0,1,268,162.5)" ><path d="M 2.43 -10.71 L -81.01 -90.49 L -68.9 -90.53 L 2.43 -10.71 M 2.43 -10.71"/></g><g style="fill: rgb(209,203,133);fill-opacity: 1.0; stroke: none" transform="matrix(1,0,0,1,268,162.5)" ><path d="M 2.43 -10.71 L 103.1 -51.03 L 113.93 -45.72 L 2.43 -10.71 M 2.43 -10.71"/></g><g style="stroke-width: 1.2;stroke: rgb(209,203,133);stroke-opacity: 1.0;; fill: none" transform="matrix(1,0,0,1,268,162.5)" ><path d="M 2.43 -10.71 L 103.1 -51.03 L 113.93 -45.72 L 2.43 -10.71 M 2.43 -10.71"/></g><g style="fill: rgb(138,167,117);fill-opacity: 1.0; stroke: none" transform="matrix(1,0,0,1,268,162.5)" ><path d="M 2.43 -10.71 L -92.83 -90.01 L -81.01 -90.49 L 2.43 -10.71 M 2.43 -10.71"/></g><g style="stroke-width: 1.2;stroke: rgb(138,167,117);stroke-opacity: 1.0;; fill: none" transform="matrix(1,0,0,1,268,162.5)" ><path d="M 2.43 -10.71 L -92.83 -90.01 L -81.01 -90.49 L 2.43 -10.71 M 2.43 -10.71"/></g><g style="fill: rgb(209,203,133);fill-opacity: 1.0; stroke: none" transform="matrix(1,0,0,1,268,162.5)" ><path d="M 2.43 -10.71 L 113.93 -45.72 L 124.31 -40.14 L 2.43 -10.71 M 2.43 -10.71"/></g><g style="stroke-width: 1.2;stroke: rgb(209,203,133);stroke-opacity: 1.0;; fill: none" transform="matrix(1,0,0,1,268,162.5)" ><path d="M 2.43 -10.71 L 113.93 -45.72 L 124.31 -40.14 L 2.43 -10.71 M 2.43 -10.71"/></g><g style="fill: rgb(138,167,117);fill-opacity: 1.0; stroke: none" transform="matrix(1,0,0,1,268,162.5)" ><path d="M 2.43 -10.71 L -104.32 -89.1 L -92.83 -90.01 L 2.43 -10.71 M 2.43 -10.71"/></g><g style="stroke-width: 1.2;stroke: rgb(138,167,117);stroke-opacity: 1.0;; fill: none" transform="matrix(1,0,0,1,268,162.5)" ><path d="M 2.43 -10.71 L -104.32 -89.1 L -92.83 -90.01 L 2.43 -10.71 M 2.43 -10.71"/></g><g style="fill: rgb(209,203,133);fill-opacity: 1.0; stroke: none" transform="matrix(1,0,0,1,268,162.5)" ><path d="M 2.43 -10.71 L 124.31 -40.14 L 134.19 -34.31 L 2.43 -10.71 M 2.43 -10.71"/></g><g style="stroke-width: 1.2;stroke: rgb(209,203,133);stroke-opacity: 1.0;; fill: none" transform="matrix(1,0,0,1,268,162.5)" ><path d="M 2.43 -10.71 L 124.31 -40.14 L 134.19 -34.31 L 2.43 -10.71 M 2.43 -10.71"/></g><g style="fill: rgb(138,167,117);fill-opacity: 1.0; stroke: none" transform="matrix(1,0,0,1,268,162.5)" ><path d="M 2.43 -10.71 L -115.42 -87.73 L -104.32 -89.1 L 2.43 -10.71 M 2.43 -10.71"/></g><g style="stroke-width: 1.2;stroke: rgb(138,167,117);stroke-opacity: 1.0;; fill: none" transform="matrix(1,0,0,1,268,162.5)" ><path d="M 2.43 -10.71 L -115.42 -87.73 L -104.32 -89.1 L 2.43 -10.71 M 2.43 -10.71"/></g><g style="fill: rgb(209,203,133);fill-opacity: 1.0; stroke: none" transform="matrix(1,0,0,1,268,162.5)" ><path d="M 2.43 -10.71 L 134.19 -34.31 L 143.51 -28.25 L 2.43 -10.71 M 2.43 -10.71"/></g><g style="stroke-width: 1.2;stroke: rgb(209,203,133);stroke-opacity: 1.0;; fill: none" transform="matrix(1,0,0,1,268,162.5)" ><path d="M 2.43 -10.71 L 134.19 -34.31 L 143.51 -28.25 L 2.43 -10.71 M 2.43 -10.71"/></g><g style="fill: rgb(138,167,117);fill-opacity: 1.0; stroke: none" transform="matrix(1,0,0,1,268,162.5)" ><path d="M 2.43 -10.71 L -126.07 -85.91 L -115.42 -87.73 L 2.43 -10.71 M 2.43 -10.71"/></g><g style="stroke-width: 1.2;stroke: rgb(138,167,117);stroke-opacity: 1.0;; fill: none" transform="matrix(1,0,0,1,268,162.5)" ><path d="M 2.43 -10.71 L -126.07 -85.91 L -115.42 -87.73 L 2.43 -10.71 M 2.43 -10.71"/></g><g style="fill: rgb(209,203,133);fill-opacity: 1.0; stroke: none" transform="matrix(1,0,0,1,268,162.5)" ><path d="M 2.43 -10.71 L 143.51 -28.25 L 152.22 -21.97 L 2.43 -10.71 M 2.43 -10.71"/></g><g style="stroke-width: 1.2;stroke: rgb(209,203,133);stroke-opacity: 1.0;; fill: none" transform="matrix(1,0,0,1,268,162.5)" ><path d="M 2.43 -10.71 L 143.51 -28.25 L 152.22 -21.97 L 2.43 -10.71 M 2.43 -10.71"/></g><g style="fill: rgb(138,167,117);fill-opacity: 1.0; stroke: none" transform="matrix(1,0,0,1,268,162.5)" ><path d="M 2.43 -10.71 L -136.21 -83.63 L -126.07 -85.91 L 2.43 -10.71 M 2.43 -10.71"/></g><g style="stroke-width: 1.2;stroke: rgb(138,167,117);stroke-opacity: 1.0;; fill: none" transform="matrix(1,0,0,1,268,162.5)" ><path d="M 2.43 -10.71 L -136.21 -83.63 L -126.07 -85.91 L 2.43 -10.71 M 2.43 -10.71"/></g><g style="fill: rgb(209,203,133);fill-opacity: 1.0; stroke: none" transform="matrix(1,0,0,1,268,162.5)" ><path d="M 2.43 -10.71 L 152.22 -21.97 L 160.27 -15.5 L 2.43 -10.71 M 2.43 -10.71"/></g><g style="stroke-width: 1.2;stroke: rgb(209,203,133);stroke-opacity: 1.0;; fill: none" transform="matrix(1,0,0,1,268,162.5)" ><path d="M 2.43 -10.71 L 152.22 -21.97 L 160.27 -15.5 L 2.43 -10.71 M 2.43 -10.71"/></g><g style="fill: rgb(125,121,80);fill-opacity: 1.0; stroke: none" transform="matrix(1,0,0,1,268,162.5)" ><path d="M 2.43 -10.71 L 167.58 -8.87 L 161.49 10.87 L -2.41 10.59 M 2.43 -10.71"/></g><g style="fill: rgb(138,167,117);fill-opacity: 1.0; stroke: none" transform="matrix(1,0,0,1,268,162.5)" ><path d="M 2.43 -10.71 L -145.78 -80.88 L -136.21 -83.63 L 2.43 -10.71 M 2.43 -10.71"/></g><g style="stroke-width: 1.2;stroke: rgb(138,167,117);stroke-opacity: 1.0;; fill: none" transform="matrix(1,0,0,1,268,162.5)" ><path d="M 2.43 -10.71 L -145.78 -80.88 L -136.21 -83.63 L 2.43 -10.71 M 2.43 -10.71"/></g><g style="fill: rgb(209,203,133);fill-opacity: 1.0; stroke: none" transform="matrix(1,0,0,1,268,162.5)" ><path d="M 2.43 -10.71 L 160.27 -15.5 L 167.58 -8.87 L 2.43 -10.71 M 2.43 -10.71"/></g><g style="stroke-width: 1.2;stroke: rgb(209,203,133);stroke-opacity: 1.0;; fill: none" transform="matrix(1,0,0,1,268,162.5)" ><path d="M 2.43 -10.71 L 160.27 -15.5 L 167.58 -8.87 L 2.43 -10.71 M 2.43 -10.71"/></g><g style="fill: rgb(133,161,113);fill-opacity: 1.0; stroke: none" transform="matrix(1,0,0,1,268,162.5)" ><path d="M 2.43 -10.71 L -2.41 10.59 L -155.64 -57.92 L -152.65 -78.47 M 2.43 -10.71"/></g><g style="fill: rgb(75,124,57);fill-opacity: 1.0; stroke: none" transform="matrix(1,0,0,1,268,162.5)" ><path d="M 2.43 -10.71 L 167.58 -8.87 L 169.86 -6.62 L 2.43 -10.71 M 2.43 -10.71"/></g><g style="stroke-width: 1.2;stroke: rgb(75,124,57);stroke-opacity: 1.0;; fill: none" transform="matrix(1,0,0,1,268,162.5)" ><path d="M 2.43 -10.71 L 167.58 -8.87 L 169.86 -6.62 L 2.43 -10.71 M 2.43 -10.71"/></g><g style="fill: rgb(138,167,117);fill-opacity: 1.0; stroke: none" transform="matrix(1,0,0,1,268,162.5)" ><path d="M 2.43 -10.71 L -152.65 -78.47 L -145.78 -80.88 L 2.43 -10.71 M 2.43 -10.71"/></g><g style="stroke-width: 1.2;stroke: rgb(138,167,117);stroke-opacity: 1.0;; fill: none" transform="matrix(1,0,0,1,268,162.5)" ><path d="M 2.43 -10.71 L -152.65 -78.47 L -145.78 -80.88 L 2.43 -10.71 M 2.43 -10.71"/></g><g style="fill: rgb(75,124,57);fill-opacity: 1.0; stroke: none" transform="matrix(1,0,0,1,268,162.5)" ><path d="M 2.43 -10.71 L 169.86 -6.62 L 176.11 0.2 L 2.43 -10.71 M 2.43 -10.71"/></g><g style="stroke-width: 1.2;stroke: rgb(75,124,57);stroke-opacity: 1.0;; fill: none" transform="matrix(1,0,0,1,268,162.5)" ><path d="M 2.43 -10.71 L 169.86 -6.62 L 176.11 0.2 L 2.43 -10.71 M 2.43 -10.71"/></g><g style="fill: rgb(146,164,178);fill-opacity: 1.0; stroke: none" transform="matrix(1,0,0,1,268,162.5)" ><path d="M 2.43 -10.71 L -161.05 -74.9 L -152.65 -78.47 L 2.43 -10.71 M 2.43 -10.71"/></g><g style="stroke-width: 1.2;stroke: rgb(146,164,178);stroke-opacity: 1.0;; fill: none" transform="matrix(1,0,0,1,268,162.5)" ><path d="M 2.43 -10.71 L -161.05 -74.9 L -152.65 -78.47 L 2.43 -10.71 M 2.43 -10.71"/></g><g style="fill: rgb(75,124,57);fill-opacity: 1.0; stroke: none" transform="matrix(1,0,0,1,268,162.5)" ><path d="M 2.43 -10.71 L 176.11 0.2 L 181.5 7.12 L 2.43 -10.71 M 2.43 -10.71"/></g><g style="stroke-width: 1.2;stroke: rgb(75,124,57);stroke-opacity: 1.0;; fill: none" transform="matrix(1,0,0,1,268,162.5)" ><path d="M 2.43 -10.71 L 176.11 0.2 L 181.5 7.12 L 2.43 -10.71 M 2.43 -10.71"/></g><g style="fill: rgb(146,164,178);fill-opacity: 1.0; stroke: none" transform="matrix(1,0,0,1,268,162.5)" ><path d="M 2.43 -10.71 L -168.7 -70.86 L -161.05 -74.9 L 2.43 -10.71 M 2.43 -10.71"/></g><g style="stroke-width: 1.2;stroke: rgb(146,164,178);stroke-opacity: 1.0;; fill: none" transform="matrix(1,0,0,1,268,162.5)" ><path d="M 2.43 -10.71 L -168.7 -70.86 L -161.05 -74.9 L 2.43 -10.71 M 2.43 -10.71"/></g><g style="fill: rgb(75,124,57);fill-opacity: 1.0; stroke: none" transform="matrix(1,0,0,1,268,162.5)" ><path d="M 2.43 -10.71 L 181.5 7.12 L 185.96 14.12 L 2.43 -10.71 M 2.43 -10.71"/></g><g style="stroke-width: 1.2;stroke: rgb(75,124,57);stroke-opacity: 1.0;; fill: none" transform="matrix(1,0,0,1,268,162.5)" ><path d="M 2.43 -10.71 L 181.5 7.12 L 185.96 14.12 L 2.43 -10.71 M 2.43 -10.71"/></g><g style="fill: rgb(146,164,178);fill-opacity: 1.0; stroke: none" transform="matrix(1,0,0,1,268,162.5)" ><path d="M 2.43 -10.71 L -175.52 -66.36 L -168.7 -70.86 L 2.43 -10.71 M 2.43 -10.71"/></g><g style="stroke-width: 1.2;stroke: rgb(146,164,178);stroke-opacity: 1.0;; fill: none" transform="matrix(1,0,0,1,268,162.5)" ><path d="M 2.43 -10.71 L -175.52 -66.36 L -168.7 -70.86 L 2.43 -10.71 M 2.43 -10.71"/></g><g style="fill: rgb(75,124,57);fill-opacity: 1.0; stroke: none" transform="matrix(1,0,0,1,268,162.5)" ><path d="M 2.43 -10.71 L 185.96 14.12 L 189.44 21.15 L 2.43 -10.71 M 2.43 -10.71"/></g><g style="stroke-width: 1.2;stroke: rgb(75,124,57);stroke-opacity: 1.0;; fill: none" transform="matrix(1,0,0,1,268,162.5)" ><path d="M 2.43 -10.71 L 185.96 14.12 L 189.44 21.15 L 2.43 -10.71 M 2.43 -10.71"/></g><g style="fill: rgb(146,164,178);fill-opacity: 1.0; stroke: none" transform="matrix(1,0,0,1,268,162.5)" ><path d="M 2.43 -10.71 L -181.45 -61.4 L -175.52 -66.36 L 2.43 -10.71 M 2.43 -10.71"/></g><g style="stroke-width: 1.2;stroke: rgb(146,164,178);stroke-opacity: 1.0;; fill: none" transform="matrix(1,0,0,1,268,162.5)" ><path d="M 2.43 -10.71 L -181.45 -61.4 L -175.52 -66.36 L 2.43 -10.71 M 2.43 -10.71"/></g><g style="fill: rgb(75,124,57);fill-opacity: 1.0; stroke: none" transform="matrix(1,0,0,1,268,162.5)" ><path d="M 2.43 -10.71 L 189.44 21.15 L 191.86 28.17 L 2.43 -10.71 M 2.43 -10.71"/></g><g style="stroke-width: 1.2;stroke: rgb(75,124,57);stroke-opacity: 1.0;; fill: none" transform="matrix(1,0,0,1,268,162.5)" ><path d="M 2.43 -10.71 L 189.44 21.15 L 191.86 28.17 L 2.43 -10.71 M 2.43 -10.71"/></g><g style="fill: rgb(118,133,144);fill-opacity: 1.0; stroke: none" transform="matrix(1,0,0,1,268,162.5)" ><path d="M 2.43 -10.71 L -2.41 10.59 L -190.29 -32.89 L -187.46 -54.62 M 2.43 -10.71"/></g><g style="fill: rgb(146,164,178);fill-opacity: 1.0; stroke: none" transform="matrix(1,0,0,1,268,162.5)" ><path d="M 2.43 -10.71 L -186.41 -56 L -181.45 -61.4 L 2.43 -10.71 M 2.43 -10.71"/></g><g style="stroke-width: 1.2;stroke: rgb(146,164,178);stroke-opacity: 1.0;; fill: none" transform="matrix(1,0,0,1,268,162.5)" ><path d="M 2.43 -10.71 L -186.41 -56 L -181.45 -61.4 L 2.43 -10.71 M 2.43 -10.71"/></g><g style="fill: rgb(146,164,178);fill-opacity: 1.0; stroke: none" transform="matrix(1,0,0,1,268,162.5)" ><path d="M 2.43 -10.71 L -187.46 -54.62 L -186.41 -56 L 2.43 -10.71 M 2.43 -10.71"/></g><g style="stroke-width: 1.2;stroke: rgb(146,164,178);stroke-opacity: 1.0;; fill: none" transform="matrix(1,0,0,1,268,162.5)" ><path d="M 2.43 -10.71 L -187.46 -54.62 L -186.41 -56 L 2.43 -10.71 M 2.43 -10.71"/></g><g style="fill: rgb(75,124,57);fill-opacity: 1.0; stroke: none" transform="matrix(1,0,0,1,268,162.5)" ><path d="M 2.43 -10.71 L 191.86 28.17 L 193.17 35.15 L 2.43 -10.71 M 2.43 -10.71"/></g><g style="stroke-width: 1.2;stroke: rgb(75,124,57);stroke-opacity: 1.0;; fill: none" transform="matrix(1,0,0,1,268,162.5)" ><path d="M 2.43 -10.71 L 191.86 28.17 L 193.17 35.15 L 2.43 -10.71 M 2.43 -10.71"/></g><g style="fill: rgb(156,133,100);fill-opacity: 1.0; stroke: none" transform="matrix(1,0,0,1,268,162.5)" ><path d="M 2.43 -10.71 L -191.12 -48.68 L -187.46 -54.62 L 2.43 -10.71 M 2.43 -10.71"/></g><g style="stroke-width: 1.2;stroke: rgb(156,133,100);stroke-opacity: 1.0;; fill: none" transform="matrix(1,0,0,1,268,162.5)" ><path d="M 2.43 -10.71 L -191.12 -48.68 L -187.46 -54.62 L 2.43 -10.71 M 2.43 -10.71"/></g><g style="fill: rgb(75,124,57);fill-opacity: 1.0; stroke: none" transform="matrix(1,0,0,1,268,162.5)" ><path d="M 2.43 -10.71 L 193.17 35.15 L 193.33 42.04 L 2.43 -10.71 M 2.43 -10.71"/></g><g style="stroke-width: 1.2;stroke: rgb(75,124,57);stroke-opacity: 1.0;; fill: none" transform="matrix(1,0,0,1,268,162.5)" ><path d="M 2.43 -10.71 L 193.17 35.15 L 193.33 42.04 L 2.43 -10.71 M 2.43 -10.71"/></g><g style="fill: rgb(156,133,100);fill-opacity: 1.0; stroke: none" transform="matrix(1,0,0,1,268,162.5)" ><path d="M 2.43 -10.71 L -193.66 -42.33 L -191.12 -48.68 L 2.43 -10.71 M 2.43 -10.71"/></g><g style="stroke-width: 1.2;stroke: rgb(156,133,100);stroke-opacity: 1.0;; fill: none" transform="matrix(1,0,0,1,268,162.5)" ><path d="M 2.43 -10.71 L -193.66 -42.33 L -191.12 -48.68 L 2.43 -10.71 M 2.43 -10.71"/></g><g style="fill: rgb(75,124,57);fill-opacity: 1.0; stroke: none" transform="matrix(1,0,0,1,268,162.5)" ><path d="M 2.43 -10.71 L 193.33 42.04 L 192.27 48.78 L 2.43 -10.71 M 2.43 -10.71"/></g><g style="stroke-width: 1.2;stroke: rgb(75,124,57);stroke-opacity: 1.0;; fill: none" transform="matrix(1,0,0,1,268,162.5)" ><path d="M 2.43 -10.71 L 193.33 42.04 L 192.27 48.78 L 2.43 -10.71 M 2.43 -10.71"/></g><g style="fill: rgb(156,133,100);fill-opacity: 1.0; stroke: none" transform="matrix(1,0,0,1,268,162.5)" ><path d="M 2.43 -10.71 L -195.01 -35.6 L -193.66 -42.33 L 2.43 -10.71 M 2.43 -10.71"/></g><g style="stroke-width: 1.2;stroke: rgb(156,133,100);stroke-opacity: 1.0;; fill: none" transform="matrix(1,0,0,1,268,162.5)" ><path d="M 2.43 -10.71 L -195.01 -35.6 L -193.66 -42.33 L 2.43 -10.71 M 2.43 -10.71"/></g><g style="fill: rgb(108,92,69);fill-opacity: 1.0; stroke: none" transform="matrix(1,0,0,1,268,162.5)" ><path d="M 2.43 -10.71 L -2.41 10.59 L -198.11 -9.79 L -195.22 -32.34 M 2.43 -10.71"/></g><g style="fill: rgb(75,124,57);fill-opacity: 1.0; stroke: none" transform="matrix(1,0,0,1,268,162.5)" ><path d="M 2.43 -10.71 L 192.27 48.78 L 189.96 55.33 L 2.43 -10.71 M 2.43 -10.71"/></g><g style="stroke-width: 1.2;stroke: rgb(75,124,57);stroke-opacity: 1.0;; fill: none" transform="matrix(1,0,0,1,268,162.5)" ><path d="M 2.43 -10.71 L 192.27 48.78 L 189.96 55.33 L 2.43 -10.71 M 2.43 -10.71"/></g><g style="fill: rgb(156,133,100);fill-opacity: 1.0; stroke: none" transform="matrix(1,0,0,1,268,162.5)" ><path d="M 2.43 -10.71 L -195.22 -32.34 L -195.01 -35.6 L 2.43 -10.71 M 2.43 -10.71"/></g><g style="stroke-width: 1.2;stroke: rgb(156,133,100);stroke-opacity: 1.0;; fill: none" transform="matrix(1,0,0,1,268,162.5)" ><path d="M 2.43 -10.71 L -195.22 -32.34 L -195.01 -35.6 L 2.43 -10.71 M 2.43 -10.71"/></g><g style="fill: rgb(199,139,99);fill-opacity: 1.0; stroke: none" transform="matrix(1,0,0,1,268,162.5)" ><path d="M 2.43 -10.71 L -194.73 -25.1 L -195.22 -32.34 L 2.43 -10.71 M 2.43 -10.71"/></g><g style="stroke-width: 1.2;stroke: rgb(199,139,99);stroke-opacity: 1.0;; fill: none" transform="matrix(1,0,0,1,268,162.5)" ><path d="M 2.43 -10.71 L -194.73 -25.1 L -195.22 -32.34 L 2.43 -10.71 M 2.43 -10.71"/></g><g style="fill: rgb(75,124,57);fill-opacity: 1.0; stroke: none" transform="matrix(1,0,0,1,268,162.5)" ><path d="M 2.43 -10.71 L 189.96 55.33 L 186.35 61.64 L 2.43 -10.71 M 2.43 -10.71"/></g><g style="stroke-width: 1.2;stroke: rgb(75,124,57);stroke-opacity: 1.0;; fill: none" transform="matrix(1,0,0,1,268,162.5)" ><path d="M 2.43 -10.71 L 189.96 55.33 L 186.35 61.64 L 2.43 -10.71 M 2.43 -10.71"/></g><g style="fill: rgb(199,139,99);fill-opacity: 1.0; stroke: none" transform="matrix(1,0,0,1,268,162.5)" ><path d="M 2.43 -10.71 L -192.91 -17.57 L -194.73 -25.1 L 2.43 -10.71 M 2.43 -10.71"/></g><g style="stroke-width: 1.2;stroke: rgb(199,139,99);stroke-opacity: 1.0;; fill: none" transform="matrix(1,0,0,1,268,162.5)" ><path d="M 2.43 -10.71 L -192.91 -17.57 L -194.73 -25.1 L 2.43 -10.71 M 2.43 -10.71"/></g><g style="fill: rgb(75,124,57);fill-opacity: 1.0; stroke: none" transform="matrix(1,0,0,1,268,162.5)" ><path d="M 2.43 -10.71 L 186.35 61.64 L 181.42 67.64 L 2.43 -10.71 M 2.43 -10.71"/></g><g style="stroke-width: 1.2;stroke: rgb(75,124,57);stroke-opacity: 1.0;; fill: none" transform="matrix(1,0,0,1,268,162.5)" ><path d="M 2.43 -10.71 L 186.35 61.64 L 181.42 67.64 L 2.43 -10.71 M 2.43 -10.71"/></g><g style="fill: rgb(18,30,14);fill-opacity: 1.0; stroke: none" transform="matrix(1,0,0,1,268,162.5)" ><path d="M 185.21 70.15 L 182.82 76.92 L 189.96 55.33 L 192.27 48.78 M 185.21 70.15"/></g><g style="stroke-width: 1.2;stroke: rgb(18,30,14);stroke-opacity: 1.0;; fill: none" transform="matrix(1,0,0,1,268,162.5)" ><path d="M 185.21 70.15 L 182.82 76.92 L 189.96 55.33 L 192.27 48.78 M 185.21 70.15"/></g><g style="fill: rgb(166,142,106);fill-opacity: 1.0; stroke: none" transform="matrix(1,0,0,1,268,162.5)" ><path d="M -198.11 -9.79 L -197.88 -13.16 L -195.01 -35.6 L -195.22 -32.34 M -198.11 -9.79"/></g><g style="stroke-width: 1.2;stroke: rgb(166,142,106);stroke-opacity: 1.0;; fill: none" transform="matrix(1,0,0,1,268,162.5)" ><path d="M -198.11 -9.79 L -197.88 -13.16 L -195.01 -35.6 L -195.22 -32.34 M -198.11 -9.79"/></g><g style="fill: rgb(115,80,57);fill-opacity: 1.0; stroke: none" transform="matrix(1,0,0,1,268,162.5)" ><path d="M 2.43 -10.71 L -2.41 10.59 L -192.03 15.03 L -188.94 -8.23 M 2.43 -10.71"/></g><g style="fill: rgb(199,139,99);fill-opacity: 1.0; stroke: none" transform="matrix(1,0,0,1,268,162.5)" ><path d="M 2.43 -10.71 L -189.73 -9.78 L -192.91 -17.57 L 2.43 -10.71 M 2.43 -10.71"/></g><g style="stroke-width: 1.2;stroke: rgb(199,139,99);stroke-opacity: 1.0;; fill: none" transform="matrix(1,0,0,1,268,162.5)" ><path d="M 2.43 -10.71 L -189.73 -9.78 L -192.91 -17.57 L 2.43 -10.71 M 2.43 -10.71"/></g><g style="fill: rgb(75,124,57);fill-opacity: 1.0; stroke: none" transform="matrix(1,0,0,1,268,162.5)" ><path d="M 2.43 -10.71 L 181.42 67.64 L 175.14 73.28 L 2.43 -10.71 M 2.43 -10.71"/></g><g style="stroke-width: 1.2;stroke: rgb(75,124,57);stroke-opacity: 1.0;; fill: none" transform="matrix(1,0,0,1,268,162.5)" ><path d="M 2.43 -10.71 L 181.42 67.64 L 175.14 73.28 L 2.43 -10.71 M 2.43 -10.71"/></g><g style="fill: rgb(199,139,99);fill-opacity: 1.0; stroke: none" transform="matrix(1,0,0,1,268,162.5)" ><path d="M 2.43 -10.71 L -188.94 -8.23 L -189.73 -9.78 L 2.43 -10.71 M 2.43 -10.71"/></g><g style="stroke-width: 1.2;stroke: rgb(199,139,99);stroke-opacity: 1.0;; fill: none" transform="matrix(1,0,0,1,268,162.5)" ><path d="M 2.43 -10.71 L -188.94 -8.23 L -189.73 -9.78 L 2.43 -10.71 M 2.43 -10.71"/></g><g style="fill: rgb(75,124,57);fill-opacity: 1.0; stroke: none" transform="matrix(1,0,0,1,268,162.5)" ><path d="M 2.43 -10.71 L 175.14 73.28 L 167.53 78.49 L 2.43 -10.71 M 2.43 -10.71"/></g><g style="stroke-width: 1.2;stroke: rgb(75,124,57);stroke-opacity: 1.0;; fill: none" transform="matrix(1,0,0,1,268,162.5)" ><path d="M 2.43 -10.71 L 175.14 73.28 L 167.53 78.49 L 2.43 -10.71 M 2.43 -10.71"/></g><g style="fill: rgb(148,148,138);fill-opacity: 1.0; stroke: none" transform="matrix(1,0,0,1,268,162.5)" ><path d="M 2.43 -10.71 L -184.09 -0.21 L -188.94 -8.23 L 2.43 -10.71 M 2.43 -10.71"/></g><g style="stroke-width: 1.2;stroke: rgb(148,148,138);stroke-opacity: 1.0;; fill: none" transform="matrix(1,0,0,1,268,162.5)" ><path d="M 2.43 -10.71 L -184.09 -0.21 L -188.94 -8.23 L 2.43 -10.71 M 2.43 -10.71"/></g><g style="fill: rgb(213,149,106);fill-opacity: 1.0; stroke: none" transform="matrix(1,0,0,1,268,162.5)" ><path d="M -197.66 -2.32 L -198.11 -9.79 L -195.22 -32.34 L -194.73 -25.1 M -197.66 -2.32"/></g><g style="stroke-width: 1.2;stroke: rgb(213,149,106);stroke-opacity: 1.0;; fill: none" transform="matrix(1,0,0,1,268,162.5)" ><path d="M -197.66 -2.32 L -198.11 -9.79 L -195.22 -32.34 L -194.73 -25.1 M -197.66 -2.32"/></g><g style="fill: rgb(20,33,15);fill-opacity: 1.0; stroke: none" transform="matrix(1,0,0,1,268,162.5)" ><path d="M 182.82 76.92 L 179.15 83.46 L 186.35 61.64 L 189.96 55.33 M 182.82 76.92"/></g><g style="stroke-width: 1.2;stroke: rgb(20,33,15);stroke-opacity: 1.0;; fill: none" transform="matrix(1,0,0,1,268,162.5)" ><path d="M 182.82 76.92 L 179.15 83.46 L 186.35 61.64 L 189.96 55.33 M 182.82 76.92"/></g><g style="fill: rgb(75,124,57);fill-opacity: 1.0; stroke: none" transform="matrix(1,0,0,1,268,162.5)" ><path d="M 2.43 -10.71 L 167.53 78.49 L 158.57 83.23 L 2.43 -10.71 M 2.43 -10.71"/></g><g style="stroke-width: 1.2;stroke: rgb(75,124,57);stroke-opacity: 1.0;; fill: none" transform="matrix(1,0,0,1,268,162.5)" ><path d="M 2.43 -10.71 L 167.53 78.49 L 158.57 83.23 L 2.43 -10.71 M 2.43 -10.71"/></g><g style="fill: rgb(148,148,138);fill-opacity: 1.0; stroke: none" transform="matrix(1,0,0,1,268,162.5)" ><path d="M 2.43 -10.71 L -177.82 7.94 L -184.09 -0.21 L 2.43 -10.71 M 2.43 -10.71"/></g><g style="stroke-width: 1.2;stroke: rgb(148,148,138);stroke-opacity: 1.0;; fill: none" transform="matrix(1,0,0,1,268,162.5)" ><path d="M 2.43 -10.71 L -177.82 7.94 L -184.09 -0.21 L 2.43 -10.71 M 2.43 -10.71"/></g><g style="fill: rgb(71,71,66);fill-opacity: 1.0; stroke: none" transform="matrix(1,0,0,1,268,162.5)" ><path d="M 2.43 -10.71 L -2.41 10.59 L -175.82 37.65 L -172.43 13.86 M 2.43 -10.71"/></g><g style="fill: rgb(75,124,57);fill-opacity: 1.0; stroke: none" transform="matrix(1,0,0,1,268,162.5)" ><path d="M 2.43 -10.71 L 158.57 83.23 L 148.3 87.42 L 2.43 -10.71 M 2.43 -10.71"/></g><g style="stroke-width: 1.2;stroke: rgb(75,124,57);stroke-opacity: 1.0;; fill: none" transform="matrix(1,0,0,1,268,162.5)" ><path d="M 2.43 -10.71 L 158.57 83.23 L 148.3 87.42 L 2.43 -10.71 M 2.43 -10.71"/></g><g style="fill: rgb(148,148,138);fill-opacity: 1.0; stroke: none" transform="matrix(1,0,0,1,268,162.5)" ><path d="M 2.43 -10.71 L -172.43 13.86 L -177.82 7.94 L 2.43 -10.71 M 2.43 -10.71"/></g><g style="stroke-width: 1.2;stroke: rgb(148,148,138);stroke-opacity: 1.0;; fill: none" transform="matrix(1,0,0,1,268,162.5)" ><path d="M 2.43 -10.71 L -172.43 13.86 L -177.82 7.94 L 2.43 -10.71 M 2.43 -10.71"/></g><g style="fill: rgb(214,149,106);fill-opacity: 1.0; stroke: none" transform="matrix(1,0,0,1,268,162.5)" ><path d="M -195.9 5.43 L -197.66 -2.32 L -194.73 -25.1 L -192.91 -17.57 M -195.9 5.43"/></g><g style="stroke-width: 1.2;stroke: rgb(214,149,106);stroke-opacity: 1.0;; fill: none" transform="matrix(1,0,0,1,268,162.5)" ><path d="M -195.9 5.43 L -197.66 -2.32 L -194.73 -25.1 L -192.91 -17.57 M -195.9 5.43"/></g><g style="fill: rgb(22,36,16);fill-opacity: 1.0; stroke: none" transform="matrix(1,0,0,1,268,162.5)" ><path d="M 179.15 83.46 L 174.18 89.68 L 181.42 67.64 L 186.35 61.64 M 179.15 83.46"/></g><g style="stroke-width: 1.2;stroke: rgb(22,36,16);stroke-opacity: 1.0;; fill: none" transform="matrix(1,0,0,1,268,162.5)" ><path d="M 179.15 83.46 L 174.18 89.68 L 181.42 67.64 L 186.35 61.64 M 179.15 83.46"/></g><g style="fill: rgb(188,135,134);fill-opacity: 1.0; stroke: none" transform="matrix(1,0,0,1,268,162.5)" ><path d="M 2.43 -10.71 L -163.74 22.09 L -172.43 13.86 L 2.43 -10.71 M 2.43 -10.71"/></g><g style="stroke-width: 1.2;stroke: rgb(188,135,134);stroke-opacity: 1.0;; fill: none" transform="matrix(1,0,0,1,268,162.5)" ><path d="M 2.43 -10.71 L -163.74 22.09 L -172.43 13.86 L 2.43 -10.71 M 2.43 -10.71"/></g><g style="fill: rgb(75,124,57);fill-opacity: 1.0; stroke: none" transform="matrix(1,0,0,1,268,162.5)" ><path d="M 2.43 -10.71 L 148.3 87.42 L 136.76 91.02 L 2.43 -10.71 M 2.43 -10.71"/></g><g style="stroke-width: 1.2;stroke: rgb(75,124,57);stroke-opacity: 1.0;; fill: none" transform="matrix(1,0,0,1,268,162.5)" ><path d="M 2.43 -10.71 L 148.3 87.42 L 136.76 91.02 L 2.43 -10.71 M 2.43 -10.71"/></g><g style="fill: rgb(75,54,53);fill-opacity: 1.0; stroke: none" transform="matrix(1,0,0,1,268,162.5)" ><path d="M 2.43 -10.71 L -2.41 10.59 L -153.65 57.21 L -149.91 33.05 M 2.43 -10.71"/></g><g style="fill: rgb(188,135,134);fill-opacity: 1.0; stroke: none" transform="matrix(1,0,0,1,268,162.5)" ><path d="M 2.43 -10.71 L -153.66 30.27 L -163.74 22.09 L 2.43 -10.71 M 2.43 -10.71"/></g><g style="stroke-width: 1.2;stroke: rgb(188,135,134);stroke-opacity: 1.0;; fill: none" transform="matrix(1,0,0,1,268,162.5)" ><path d="M 2.43 -10.71 L -153.66 30.27 L -163.74 22.09 L 2.43 -10.71 M 2.43 -10.71"/></g><g style="fill: rgb(75,124,57);fill-opacity: 1.0; stroke: none" transform="matrix(1,0,0,1,268,162.5)" ><path d="M 2.43 -10.71 L 136.76 91.02 L 124.01 93.97 L 2.43 -10.71 M 2.43 -10.71"/></g><g style="stroke-width: 1.2;stroke: rgb(75,124,57);stroke-opacity: 1.0;; fill: none" transform="matrix(1,0,0,1,268,162.5)" ><path d="M 2.43 -10.71 L 136.76 91.02 L 124.01 93.97 L 2.43 -10.71 M 2.43 -10.71"/></g><g style="fill: rgb(188,135,134);fill-opacity: 1.0; stroke: none" transform="matrix(1,0,0,1,268,162.5)" ><path d="M 2.43 -10.71 L -149.91 33.05 L -153.66 30.27 L 2.43 -10.71 M 2.43 -10.71"/></g><g style="stroke-width: 1.2;stroke: rgb(188,135,134);stroke-opacity: 1.0;; fill: none" transform="matrix(1,0,0,1,268,162.5)" ><path d="M 2.43 -10.71 L -149.91 33.05 L -153.66 30.27 L 2.43 -10.71 M 2.43 -10.71"/></g><g style="fill: rgb(75,124,57);fill-opacity: 1.0; stroke: none" transform="matrix(1,0,0,1,268,162.5)" ><path d="M 2.43 -10.71 L 124.01 93.97 L 110.12 96.23 L 2.43 -10.71 M 2.43 -10.71"/></g><g style="stroke-width: 1.2;stroke: rgb(75,124,57);stroke-opacity: 1.0;; fill: none" transform="matrix(1,0,0,1,268,162.5)" ><path d="M 2.43 -10.71 L 124.01 93.97 L 110.12 96.23 L 2.43 -10.71 M 2.43 -10.71"/></g><g style="fill: rgb(203,176,68);fill-opacity: 1.0; stroke: none" transform="matrix(1,0,0,1,268,162.5)" ><path d="M 2.43 -10.71 L -138.06 41.04 L -149.91 33.05 L 2.43 -10.71 M 2.43 -10.71"/></g><g style="stroke-width: 1.2;stroke: rgb(203,176,68);stroke-opacity: 1.0;; fill: none" transform="matrix(1,0,0,1,268,162.5)" ><path d="M 2.43 -10.71 L -138.06 41.04 L -149.91 33.05 L 2.43 -10.71 M 2.43 -10.71"/></g><g style="fill: rgb(68,59,22);fill-opacity: 1.0; stroke: none" transform="matrix(1,0,0,1,268,162.5)" ><path d="M 2.43 -10.71 L -2.41 10.59 L -128.88 73.31 L -124.75 48.92 M 2.43 -10.71"/></g><g style="fill: rgb(214,150,106);fill-opacity: 1.0; stroke: none" transform="matrix(1,0,0,1,268,162.5)" ><path d="M -192.79 13.44 L -195.9 5.43 L -192.91 -17.57 L -189.73 -9.78 M -192.79 13.44"/></g><g style="stroke-width: 1.2;stroke: rgb(214,150,106);stroke-opacity: 1.0;; fill: none" transform="matrix(1,0,0,1,268,162.5)" ><path d="M -192.79 13.44 L -195.9 5.43 L -192.91 -17.57 L -189.73 -9.78 M -192.79 13.44"/></g><g style="fill: rgb(24,39,18);fill-opacity: 1.0; stroke: none" transform="matrix(1,0,0,1,268,162.5)" ><path d="M 174.18 89.68 L 167.88 95.55 L 175.14 73.28 L 181.42 67.64 M 174.18 89.68"/></g><g style="stroke-width: 1.2;stroke: rgb(24,39,18);stroke-opacity: 1.0;; fill: none" transform="matrix(1,0,0,1,268,162.5)" ><path d="M 174.18 89.68 L 167.88 95.55 L 175.14 73.28 L 181.42 67.64 M 174.18 89.68"/></g><g style="fill: rgb(75,124,57);fill-opacity: 1.0; stroke: none" transform="matrix(1,0,0,1,268,162.5)" ><path d="M 2.43 -10.71 L 110.12 96.23 L 95.2 97.75 L 2.43 -10.71 M 2.43 -10.71"/></g><g style="stroke-width: 1.2;stroke: rgb(75,124,57);stroke-opacity: 1.0;; fill: none" transform="matrix(1,0,0,1,268,162.5)" ><path d="M 2.43 -10.71 L 110.12 96.23 L 95.2 97.75 L 2.43 -10.71 M 2.43 -10.71"/></g><g style="fill: rgb(203,176,68);fill-opacity: 1.0; stroke: none" transform="matrix(1,0,0,1,268,162.5)" ><path d="M 2.43 -10.71 L -124.98 48.79 L -138.06 41.04 L 2.43 -10.71 M 2.43 -10.71"/></g><g style="stroke-width: 1.2;stroke: rgb(203,176,68);stroke-opacity: 1.0;; fill: none" transform="matrix(1,0,0,1,268,162.5)" ><path d="M 2.43 -10.71 L -124.98 48.79 L -138.06 41.04 L 2.43 -10.71 M 2.43 -10.71"/></g><g style="fill: rgb(203,176,68);fill-opacity: 1.0; stroke: none" transform="matrix(1,0,0,1,268,162.5)" ><path d="M 2.43 -10.71 L -124.75 48.92 L -124.98 48.79 L 2.43 -10.71 M 2.43 -10.71"/></g><g style="stroke-width: 1.2;stroke: rgb(203,176,68);stroke-opacity: 1.0;; fill: none" transform="matrix(1,0,0,1,268,162.5)" ><path d="M 2.43 -10.71 L -124.75 48.92 L -124.98 48.79 L 2.43 -10.71 M 2.43 -10.71"/></g><g style="fill: rgb(75,124,57);fill-opacity: 1.0; stroke: none" transform="matrix(1,0,0,1,268,162.5)" ><path d="M 2.43 -10.71 L 95.2 97.75 L 79.35 98.5 L 2.43 -10.71 M 2.43 -10.71"/></g><g style="stroke-width: 1.2;stroke: rgb(75,124,57);stroke-opacity: 1.0;; fill: none" transform="matrix(1,0,0,1,268,162.5)" ><path d="M 2.43 -10.71 L 95.2 97.75 L 79.35 98.5 L 2.43 -10.71 M 2.43 -10.71"/></g><g style="fill: rgb(75,124,57);fill-opacity: 1.0; stroke: none" transform="matrix(1,0,0,1,268,162.5)" ><path d="M 2.43 -10.71 L -110.51 56.35 L -124.75 48.92 L 2.43 -10.71 M 2.43 -10.71"/></g><g style="stroke-width: 1.2;stroke: rgb(75,124,57);stroke-opacity: 1.0;; fill: none" transform="matrix(1,0,0,1,268,162.5)" ><path d="M 2.43 -10.71 L -110.51 56.35 L -124.75 48.92 L 2.43 -10.71 M 2.43 -10.71"/></g><g style="fill: rgb(214,149,106);fill-opacity: 1.0; stroke: none" transform="matrix(1,0,0,1,268,162.5)" ><path d="M -192.03 15.03 L -192.79 13.44 L -189.73 -9.78 L -188.94 -8.23 M -192.03 15.03"/></g><g style="stroke-width: 1.2;stroke: rgb(214,149,106);stroke-opacity: 1.0;; fill: none" transform="matrix(1,0,0,1,268,162.5)" ><path d="M -192.03 15.03 L -192.79 13.44 L -189.73 -9.78 L -188.94 -8.23 M -192.03 15.03"/></g><g style="fill: rgb(75,124,57);fill-opacity: 1.0; stroke: none" transform="matrix(1,0,0,1,268,162.5)" ><path d="M 2.43 -10.71 L 79.35 98.5 L 62.71 98.45 L 2.43 -10.71 M 2.43 -10.71"/></g><g style="stroke-width: 1.2;stroke: rgb(75,124,57);stroke-opacity: 1.0;; fill: none" transform="matrix(1,0,0,1,268,162.5)" ><path d="M 2.43 -10.71 L 79.35 98.5 L 62.71 98.45 L 2.43 -10.71 M 2.43 -10.71"/></g><g style="fill: rgb(75,124,57);fill-opacity: 1.0; stroke: none" transform="matrix(1,0,0,1,268,162.5)" ><path d="M 2.43 -10.71 L -95.25 63.4 L -110.51 56.35 L 2.43 -10.71 M 2.43 -10.71"/></g><g style="stroke-width: 1.2;stroke: rgb(75,124,57);stroke-opacity: 1.0;; fill: none" transform="matrix(1,0,0,1,268,162.5)" ><path d="M 2.43 -10.71 L -95.25 63.4 L -110.51 56.35 L 2.43 -10.71 M 2.43 -10.71"/></g><g style="fill: rgb(75,124,57);fill-opacity: 1.0; stroke: none" transform="matrix(1,0,0,1,268,162.5)" ><path d="M 2.43 -10.71 L 62.71 98.45 L 45.43 97.59 L 2.43 -10.71 M 2.43 -10.71"/></g><g style="stroke-width: 1.2;stroke: rgb(75,124,57);stroke-opacity: 1.0;; fill: none" transform="matrix(1,0,0,1,268,162.5)" ><path d="M 2.43 -10.71 L 62.71 98.45 L 45.43 97.59 L 2.43 -10.71 M 2.43 -10.71"/></g><g style="fill: rgb(75,124,57);fill-opacity: 1.0; stroke: none" transform="matrix(1,0,0,1,268,162.5)" ><path d="M 2.43 -10.71 L -79.08 69.97 L -95.25 63.4 L 2.43 -10.71 M 2.43 -10.71"/></g><g style="stroke-width: 1.2;stroke: rgb(75,124,57);stroke-opacity: 1.0;; fill: none" transform="matrix(1,0,0,1,268,162.5)" ><path d="M 2.43 -10.71 L -79.08 69.97 L -95.25 63.4 L 2.43 -10.71 M 2.43 -10.71"/></g><g style="fill: rgb(26,43,20);fill-opacity: 1.0; stroke: none" transform="matrix(1,0,0,1,268,162.5)" ><path d="M 167.88 95.55 L 160.26 100.99 L 167.53 78.49 L 175.14 73.28 M 167.88 95.55"/></g><g style="stroke-width: 1.2;stroke: rgb(26,43,20);stroke-opacity: 1.0;; fill: none" transform="matrix(1,0,0,1,268,162.5)" ><path d="M 167.88 95.55 L 160.26 100.99 L 167.53 78.49 L 175.14 73.28 M 167.88 95.55"/></g><g style="fill: rgb(75,124,57);fill-opacity: 1.0; stroke: none" transform="matrix(1,0,0,1,268,162.5)" ><path d="M 2.43 -10.71 L 45.43 97.59 L 27.67 95.92 L 2.43 -10.71 M 2.43 -10.71"/></g><g style="stroke-width: 1.2;stroke: rgb(75,124,57);stroke-opacity: 1.0;; fill: none" transform="matrix(1,0,0,1,268,162.5)" ><path d="M 2.43 -10.71 L 45.43 97.59 L 27.67 95.92 L 2.43 -10.71 M 2.43 -10.71"/></g><g style="fill: rgb(75,124,57);fill-opacity: 1.0; stroke: none" transform="matrix(1,0,0,1,268,162.5)" ><path d="M 2.43 -10.71 L -62.17 75.99 L -79.08 69.97 L 2.43 -10.71 M 2.43 -10.71"/></g><g style="stroke-width: 1.2;stroke: rgb(75,124,57);stroke-opacity: 1.0;; fill: none" transform="matrix(1,0,0,1,268,162.5)" ><path d="M 2.43 -10.71 L -62.17 75.99 L -79.08 69.97 L 2.43 -10.71 M 2.43 -10.71"/></g><g style="fill: rgb(75,124,57);fill-opacity: 1.0; stroke: none" transform="matrix(1,0,0,1,268,162.5)" ><path d="M 2.43 -10.71 L 27.67 95.92 L 9.59 93.45 L 2.43 -10.71 M 2.43 -10.71"/></g><g style="stroke-width: 1.2;stroke: rgb(75,124,57);stroke-opacity: 1.0;; fill: none" transform="matrix(1,0,0,1,268,162.5)" ><path d="M 2.43 -10.71 L 27.67 95.92 L 9.59 93.45 L 2.43 -10.71 M 2.43 -10.71"/></g><g style="fill: rgb(75,124,57);fill-opacity: 1.0; stroke: none" transform="matrix(1,0,0,1,268,162.5)" ><path d="M 2.43 -10.71 L -44.67 81.41 L -62.17 75.99 L 2.43 -10.71 M 2.43 -10.71"/></g><g style="stroke-width: 1.2;stroke: rgb(75,124,57);stroke-opacity: 1.0;; fill: none" transform="matrix(1,0,0,1,268,162.5)" ><path d="M 2.43 -10.71 L -44.67 81.41 L -62.17 75.99 L 2.43 -10.71 M 2.43 -10.71"/></g><g style="fill: rgb(159,159,148);fill-opacity: 1.0; stroke: none" transform="matrix(1,0,0,1,268,162.5)" ><path d="M -187.27 23.26 L -192.03 15.03 L -188.94 -8.23 L -184.09 -0.21 M -187.27 23.26"/></g><g style="stroke-width: 1.2;stroke: rgb(159,159,148);stroke-opacity: 1.0;; fill: none" transform="matrix(1,0,0,1,268,162.5)" ><path d="M -187.27 23.26 L -192.03 15.03 L -188.94 -8.23 L -184.09 -0.21 M -187.27 23.26"/></g><g style="fill: rgb(75,124,57);fill-opacity: 1.0; stroke: none" transform="matrix(1,0,0,1,268,162.5)" ><path d="M 2.43 -10.71 L 9.59 93.45 L -8.61 90.18 L 2.43 -10.71 M 2.43 -10.71"/></g><g style="stroke-width: 1.2;stroke: rgb(75,124,57);stroke-opacity: 1.0;; fill: none" transform="matrix(1,0,0,1,268,162.5)" ><path d="M 2.43 -10.71 L 9.59 93.45 L -8.61 90.18 L 2.43 -10.71 M 2.43 -10.71"/></g><g style="fill: rgb(75,124,57);fill-opacity: 1.0; stroke: none" transform="matrix(1,0,0,1,268,162.5)" ><path d="M 2.43 -10.71 L -26.76 86.15 L -44.67 81.41 L 2.43 -10.71 M 2.43 -10.71"/></g><g style="stroke-width: 1.2;stroke: rgb(75,124,57);stroke-opacity: 1.0;; fill: none" transform="matrix(1,0,0,1,268,162.5)" ><path d="M 2.43 -10.71 L -26.76 86.15 L -44.67 81.41 L 2.43 -10.71 M 2.43 -10.71"/></g><g style="fill: rgb(75,124,57);fill-opacity: 1.0; stroke: none" transform="matrix(1,0,0,1,268,162.5)" ><path d="M 2.43 -10.71 L -8.61 90.18 L -26.76 86.15 L 2.43 -10.71 M 2.43 -10.71"/></g><g style="stroke-width: 1.2;stroke: rgb(75,124,57);stroke-opacity: 1.0;; fill: none" transform="matrix(1,0,0,1,268,162.5)" ><path d="M 2.43 -10.71 L -8.61 90.18 L -26.76 86.15 L 2.43 -10.71 M 2.43 -10.71"/></g><g style="fill: rgb(28,47,21);fill-opacity: 1.0; stroke: none" transform="matrix(1,0,0,1,268,162.5)" ><path d="M 160.26 100.99 L 151.32 105.95 L 158.57 83.23 L 167.53 78.49 M 160.26 100.99"/></g><g style="stroke-width: 1.2;stroke: rgb(28,47,21);stroke-opacity: 1.0;; fill: none" transform="matrix(1,0,0,1,268,162.5)" ><path d="M 160.26 100.99 L 151.32 105.95 L 158.57 83.23 L 167.53 78.49 M 160.26 100.99"/></g><g style="fill: rgb(158,158,148);fill-opacity: 1.0; stroke: none" transform="matrix(1,0,0,1,268,162.5)" ><path d="M -181.11 31.61 L -187.27 23.26 L -184.09 -0.21 L -177.82 7.94 M -181.11 31.61"/></g><g style="stroke-width: 1.2;stroke: rgb(158,158,148);stroke-opacity: 1.0;; fill: none" transform="matrix(1,0,0,1,268,162.5)" ><path d="M -181.11 31.61 L -187.27 23.26 L -184.09 -0.21 L -177.82 7.94 M -181.11 31.61"/></g><g style="fill: rgb(31,51,23);fill-opacity: 1.0; stroke: none" transform="matrix(1,0,0,1,268,162.5)" ><path d="M 151.32 105.95 L 141.09 110.37 L 148.3 87.42 L 158.57 83.23 M 151.32 105.95"/></g><g style="stroke-width: 1.2;stroke: rgb(31,51,23);stroke-opacity: 1.0;; fill: none" transform="matrix(1,0,0,1,268,162.5)" ><path d="M 151.32 105.95 L 141.09 110.37 L 148.3 87.42 L 158.57 83.23 M 151.32 105.95"/></g><g style="fill: rgb(157,157,147);fill-opacity: 1.0; stroke: none" transform="matrix(1,0,0,1,268,162.5)" ><path d="M -175.82 37.65 L -181.11 31.61 L -177.82 7.94 L -172.43 13.86 M -175.82 37.65"/></g><g style="stroke-width: 1.2;stroke: rgb(157,157,147);stroke-opacity: 1.0;; fill: none" transform="matrix(1,0,0,1,268,162.5)" ><path d="M -175.82 37.65 L -181.11 31.61 L -177.82 7.94 L -172.43 13.86 M -175.82 37.65"/></g><g style="fill: rgb(198,142,141);fill-opacity: 1.0; stroke: none" transform="matrix(1,0,0,1,268,162.5)" ><path d="M -167.27 46.05 L -175.82 37.65 L -172.43 13.86 L -163.74 22.09 M -167.27 46.05"/></g><g style="stroke-width: 1.2;stroke: rgb(198,142,141);stroke-opacity: 1.0;; fill: none" transform="matrix(1,0,0,1,268,162.5)" ><path d="M -167.27 46.05 L -175.82 37.65 L -172.43 13.86 L -163.74 22.09 M -167.27 46.05"/></g><g style="fill: rgb(33,55,25);fill-opacity: 1.0; stroke: none" transform="matrix(1,0,0,1,268,162.5)" ><path d="M 141.09 110.37 L 129.6 114.18 L 136.76 91.02 L 148.3 87.42 M 141.09 110.37"/></g><g style="stroke-width: 1.2;stroke: rgb(33,55,25);stroke-opacity: 1.0;; fill: none" transform="matrix(1,0,0,1,268,162.5)" ><path d="M 141.09 110.37 L 129.6 114.18 L 136.76 91.02 L 148.3 87.42 M 141.09 110.37"/></g><g style="fill: rgb(196,140,139);fill-opacity: 1.0; stroke: none" transform="matrix(1,0,0,1,268,162.5)" ><path d="M -157.35 54.38 L -167.27 46.05 L -163.74 22.09 L -153.66 30.27 M -157.35 54.38"/></g><g style="stroke-width: 1.2;stroke: rgb(196,140,139);stroke-opacity: 1.0;; fill: none" transform="matrix(1,0,0,1,268,162.5)" ><path d="M -157.35 54.38 L -167.27 46.05 L -163.74 22.09 L -153.66 30.27 M -157.35 54.38"/></g><g style="fill: rgb(36,60,27);fill-opacity: 1.0; stroke: none" transform="matrix(1,0,0,1,268,162.5)" ><path d="M 129.6 114.18 L 116.93 117.33 L 124.01 93.97 L 136.76 91.02 M 129.6 114.18"/></g><g style="stroke-width: 1.2;stroke: rgb(36,60,27);stroke-opacity: 1.0;; fill: none" transform="matrix(1,0,0,1,268,162.5)" ><path d="M 129.6 114.18 L 116.93 117.33 L 124.01 93.97 L 136.76 91.02 M 129.6 114.18"/></g><g style="fill: rgb(194,139,138);fill-opacity: 1.0; stroke: none" transform="matrix(1,0,0,1,268,162.5)" ><path d="M -153.65 57.21 L -157.35 54.38 L -153.66 30.27 L -149.91 33.05 M -153.65 57.21"/></g><g style="stroke-width: 1.2;stroke: rgb(194,139,138);stroke-opacity: 1.0;; fill: none" transform="matrix(1,0,0,1,268,162.5)" ><path d="M -153.65 57.21 L -157.35 54.38 L -153.66 30.27 L -149.91 33.05 M -153.65 57.21"/></g><g style="fill: rgb(39,64,29);fill-opacity: 1.0; stroke: none" transform="matrix(1,0,0,1,268,162.5)" ><path d="M 116.93 117.33 L 103.15 119.78 L 110.12 96.23 L 124.01 93.97 M 116.93 117.33"/></g><g style="stroke-width: 1.2;stroke: rgb(39,64,29);stroke-opacity: 1.0;; fill: none" transform="matrix(1,0,0,1,268,162.5)" ><path d="M 116.93 117.33 L 103.15 119.78 L 110.12 96.23 L 124.01 93.97 M 116.93 117.33"/></g><g style="fill: rgb(207,179,69);fill-opacity: 1.0; stroke: none" transform="matrix(1,0,0,1,268,162.5)" ><path d="M -141.99 65.32 L -153.65 57.21 L -149.91 33.05 L -138.06 41.04 M -141.99 65.32"/></g><g style="stroke-width: 1.2;stroke: rgb(207,179,69);stroke-opacity: 1.0;; fill: none" transform="matrix(1,0,0,1,268,162.5)" ><path d="M -141.99 65.32 L -153.65 57.21 L -149.91 33.05 L -138.06 41.04 M -141.99 65.32"/></g><g style="fill: rgb(41,68,31);fill-opacity: 1.0; stroke: none" transform="matrix(1,0,0,1,268,162.5)" ><path d="M 103.15 119.78 L 88.35 121.49 L 95.2 97.75 L 110.12 96.23 M 103.15 119.78"/></g><g style="stroke-width: 1.2;stroke: rgb(41,68,31);stroke-opacity: 1.0;; fill: none" transform="matrix(1,0,0,1,268,162.5)" ><path d="M 103.15 119.78 L 88.35 121.49 L 95.2 97.75 L 110.12 96.23 M 103.15 119.78"/></g><g style="fill: rgb(203,176,68);fill-opacity: 1.0; stroke: none" transform="matrix(1,0,0,1,268,162.5)" ><path d="M -129.11 73.18 L -141.99 65.32 L -138.06 41.04 L -124.98 48.79 M -129.11 73.18"/></g><g style="stroke-width: 1.2;stroke: rgb(203,176,68);stroke-opacity: 1.0;; fill: none" transform="matrix(1,0,0,1,268,162.5)" ><path d="M -129.11 73.18 L -141.99 65.32 L -138.06 41.04 L -124.98 48.79 M -129.11 73.18"/></g><g style="fill: rgb(201,174,67);fill-opacity: 1.0; stroke: none" transform="matrix(1,0,0,1,268,162.5)" ><path d="M -128.88 73.31 L -129.11 73.18 L -124.98 48.79 L -124.75 48.92 M -128.88 73.31"/></g><g style="stroke-width: 1.2;stroke: rgb(201,174,67);stroke-opacity: 1.0;; fill: none" transform="matrix(1,0,0,1,268,162.5)" ><path d="M -128.88 73.31 L -129.11 73.18 L -124.98 48.79 L -124.75 48.92 M -128.88 73.31"/></g><g style="fill: rgb(44,73,34);fill-opacity: 1.0; stroke: none" transform="matrix(1,0,0,1,268,162.5)" ><path d="M 88.35 121.49 L 72.65 122.4 L 79.35 98.5 L 95.2 97.75 M 88.35 121.49"/></g><g style="stroke-width: 1.2;stroke: rgb(44,73,34);stroke-opacity: 1.0;; fill: none" transform="matrix(1,0,0,1,268,162.5)" ><path d="M 88.35 121.49 L 72.65 122.4 L 79.35 98.5 L 95.2 97.75 M 88.35 121.49"/></g><g style="fill: rgb(73,121,56);fill-opacity: 1.0; stroke: none" transform="matrix(1,0,0,1,268,162.5)" ><path d="M -114.85 80.83 L -128.88 73.31 L -124.75 48.92 L -110.51 56.35 M -114.85 80.83"/></g><g style="stroke-width: 1.2;stroke: rgb(73,121,56);stroke-opacity: 1.0;; fill: none" transform="matrix(1,0,0,1,268,162.5)" ><path d="M -114.85 80.83 L -128.88 73.31 L -124.75 48.92 L -110.51 56.35 M -114.85 80.83"/></g><g style="fill: rgb(47,77,36);fill-opacity: 1.0; stroke: none" transform="matrix(1,0,0,1,268,162.5)" ><path d="M 72.65 122.4 L 56.18 122.51 L 62.71 98.45 L 79.35 98.5 M 72.65 122.4"/></g><g style="stroke-width: 1.2;stroke: rgb(47,77,36);stroke-opacity: 1.0;; fill: none" transform="matrix(1,0,0,1,268,162.5)" ><path d="M 72.65 122.4 L 56.18 122.51 L 62.71 98.45 L 79.35 98.5 M 72.65 122.4"/></g><g style="fill: rgb(71,118,54);fill-opacity: 1.0; stroke: none" transform="matrix(1,0,0,1,268,162.5)" ><path d="M -99.8 87.93 L -114.85 80.83 L -110.51 56.35 L -95.25 63.4 M -99.8 87.93"/></g><g style="stroke-width: 1.2;stroke: rgb(71,118,54);stroke-opacity: 1.0;; fill: none" transform="matrix(1,0,0,1,268,162.5)" ><path d="M -99.8 87.93 L -114.85 80.83 L -110.51 56.35 L -95.25 63.4 M -99.8 87.93"/></g><g style="fill: rgb(50,82,38);fill-opacity: 1.0; stroke: none" transform="matrix(1,0,0,1,268,162.5)" ><path d="M 56.18 122.51 L 39.08 121.79 L 45.43 97.59 L 62.71 98.45 M 56.18 122.51"/></g><g style="stroke-width: 1.2;stroke: rgb(50,82,38);stroke-opacity: 1.0;; fill: none" transform="matrix(1,0,0,1,268,162.5)" ><path d="M 56.18 122.51 L 39.08 121.79 L 45.43 97.59 L 62.71 98.45 M 56.18 122.51"/></g><g style="fill: rgb(69,114,53);fill-opacity: 1.0; stroke: none" transform="matrix(1,0,0,1,268,162.5)" ><path d="M -83.86 94.54 L -99.8 87.93 L -95.25 63.4 L -79.08 69.97 M -83.86 94.54"/></g><g style="stroke-width: 1.2;stroke: rgb(69,114,53);stroke-opacity: 1.0;; fill: none" transform="matrix(1,0,0,1,268,162.5)" ><path d="M -83.86 94.54 L -99.8 87.93 L -95.25 63.4 L -79.08 69.97 M -83.86 94.54"/></g><g style="fill: rgb(52,86,40);fill-opacity: 1.0; stroke: none" transform="matrix(1,0,0,1,268,162.5)" ><path d="M 39.08 121.79 L 21.52 120.24 L 27.67 95.92 L 45.43 97.59 M 39.08 121.79"/></g><g style="stroke-width: 1.2;stroke: rgb(52,86,40);stroke-opacity: 1.0;; fill: none" transform="matrix(1,0,0,1,268,162.5)" ><path d="M 39.08 121.79 L 21.52 120.24 L 27.67 95.92 L 45.43 97.59 M 39.08 121.79"/></g><g style="fill: rgb(67,111,51);fill-opacity: 1.0; stroke: none" transform="matrix(1,0,0,1,268,162.5)" ><path d="M -67.19 100.58 L -83.86 94.54 L -79.08 69.97 L -62.17 75.99 M -67.19 100.58"/></g><g style="stroke-width: 1.2;stroke: rgb(67,111,51);stroke-opacity: 1.0;; fill: none" transform="matrix(1,0,0,1,268,162.5)" ><path d="M -67.19 100.58 L -83.86 94.54 L -79.08 69.97 L -62.17 75.99 M -67.19 100.58"/></g><g style="fill: rgb(55,91,42);fill-opacity: 1.0; stroke: none" transform="matrix(1,0,0,1,268,162.5)" ><path d="M 21.52 120.24 L 3.66 117.86 L 9.59 93.45 L 27.67 95.92 M 21.52 120.24"/></g><g style="stroke-width: 1.2;stroke: rgb(55,91,42);stroke-opacity: 1.0;; fill: none" transform="matrix(1,0,0,1,268,162.5)" ><path d="M 21.52 120.24 L 3.66 117.86 L 9.59 93.45 L 27.67 95.92 M 21.52 120.24"/></g><g style="fill: rgb(65,107,49);fill-opacity: 1.0; stroke: none" transform="matrix(1,0,0,1,268,162.5)" ><path d="M -49.92 105.98 L -67.19 100.58 L -62.17 75.99 L -44.67 81.41 M -49.92 105.98"/></g><g style="stroke-width: 1.2;stroke: rgb(65,107,49);stroke-opacity: 1.0;; fill: none" transform="matrix(1,0,0,1,268,162.5)" ><path d="M -49.92 105.98 L -67.19 100.58 L -62.17 75.99 L -44.67 81.41 M -49.92 105.98"/></g><g style="fill: rgb(58,95,44);fill-opacity: 1.0; stroke: none" transform="matrix(1,0,0,1,268,162.5)" ><path d="M 3.66 117.86 L -14.32 114.67 L -8.61 90.18 L 9.59 93.45 M 3.66 117.86"/></g><g style="stroke-width: 1.2;stroke: rgb(58,95,44);stroke-opacity: 1.0;; fill: none" transform="matrix(1,0,0,1,268,162.5)" ><path d="M 3.66 117.86 L -14.32 114.67 L -8.61 90.18 L 9.59 93.45 M 3.66 117.86"/></g><g style="fill: rgb(63,103,48);fill-opacity: 1.0; stroke: none" transform="matrix(1,0,0,1,268,162.5)" ><path d="M -32.24 110.7 L -49.92 105.98 L -44.67 81.41 L -26.76 86.15 M -32.24 110.7"/></g><g style="stroke-width: 1.2;stroke: rgb(63,103,48);stroke-opacity: 1.0;; fill: none" transform="matrix(1,0,0,1,268,162.5)" ><path d="M -32.24 110.7 L -49.92 105.98 L -44.67 81.41 L -26.76 86.15 M -32.24 110.7"/></g><g style="fill: rgb(60,99,46);fill-opacity: 1.0; stroke: none" transform="matrix(1,0,0,1,268,162.5)" ><path d="M -14.32 114.67 L -32.24 110.7 L -26.76 86.15 L -8.61 90.18 M -14.32 114.67"/></g><g style="stroke-width: 1.2;stroke: rgb(60,99,46);stroke-opacity: 1.0;; fill: none" transform="matrix(1,0,0,1,268,162.5)" ><path d="M -14.32 114.67 L -32.24 110.7 L -26.76 86.15 L -8.61 90.18 M -14.32 114.67"/></g><g transform="matrix(1,0,0,1,268,162.5)"><text x="27.56" y="-63.56" style="fill: rgb(0,0,0); font-family: Dialog; font-size: 14px; " text-rendering="auto" >Milk Products</text></g><g transform="matrix(1,0,0,1,268,162.5)"><text x="-133.13" y="-89.01" style="fill: rgb(0,0,0); font-family: Dialog; font-size: 14px; " text-rendering="auto" >Meat</text></g><g transform="matrix(1,0,0,1,268,162.5)"><text x="-225.92" y="-67.34" style="fill: rgb(0,0,0); font-family: Dialog; font-size: 14px; " text-rendering="auto" >Wood/Logs</text></g><g transform="matrix(1,0,0,1,268,162.5)"><text x="-242.13" y="-41.51" style="fill: rgb(0,0,0); font-family: Dialog; font-size: 14px; " text-rendering="auto" >Crude Oil</text></g><g transform="matrix(1,0,0,1,268,162.5)"><text x="-246.29" y="-16.1" style="fill: rgb(0,0,0); font-family: Dialog; font-size: 14px; " text-rendering="auto" >Machinery</text></g><g transform="matrix(1,0,0,1,268,162.5)"><text x="-215.18" y="9.43" style="fill: rgb(0,0,0); font-family: Dialog; font-size: 14px; " text-rendering="auto" >Fruit</text></g><g transform="matrix(1,0,0,1,268,162.5)"><text x="-191.97" y="32.29" style="fill: rgb(0,0,0); font-family: Dialog; font-size: 14px; " text-rendering="auto" >Fish</text></g><g transform="matrix(1,0,0,1,268,162.5)"><text x="-168.33" y="51.75" style="fill: rgb(0,0,0); font-family: Dialog; font-size: 14px; " text-rendering="auto" >Wine</text></g><g transform="matrix(1,0,0,1,268,162.5)"><text x="132.39" y="105.69" style="fill: rgb(0,0,0); font-family: Dialog; font-size: 14px; " text-rendering="auto" >Other</text></g><rect x="34" y="290" width="16" height="19" style="fill: rgb(255,255,255);fill-opacity: 1.0" transform="matrix(1,0,0,1,0,0)" /><rect x="-6" y="-4" width="12" height="8" style="fill: rgb(255,248,163);fill-opacity: 1.0" transform="matrix(1,0,0,1,42,299.5)" /><rect x="50" y="290" width="81" height="19" style="fill: rgb(255,255,255);fill-opacity: 1.0" transform="matrix(1,0,0,1,0,0)" /><g transform="matrix(1,0,0,1,0,0)"><text x="52" y="304.47" style="fill: rgb(0,0,0); font-family: Dialog; font-size: 12px; " text-rendering="auto" >Milk Products</text></g><rect x="135" y="290" width="16" height="19" style="fill: rgb(255,255,255);fill-opacity: 1.0" transform="matrix(1,0,0,1,0,0)" /><rect x="-6" y="-4" width="12" height="8" style="fill: rgb(169,204,143);fill-opacity: 1.0" transform="matrix(1,0,0,1,143,299.5)" /><rect x="151" y="290" width="32" height="19" style="fill: rgb(255,255,255);fill-opacity: 1.0" transform="matrix(1,0,0,1,0,0)" /><g transform="matrix(1,0,0,1,0,0)"><text x="153" y="304.47" style="fill: rgb(0,0,0); font-family: Dialog; font-size: 12px; " text-rendering="auto" >Meat</text></g><rect x="189" y="290" width="16" height="19" style="fill: rgb(255,255,255);fill-opacity: 1.0" transform="matrix(1,0,0,1,0,0)" /><rect x="-6" y="-4" width="12" height="8" style="fill: rgb(178,200,217);fill-opacity: 1.0" transform="matrix(1,0,0,1,197,299.5)" /><rect x="205" y="290" width="68" height="19" style="fill: rgb(255,255,255);fill-opacity: 1.0" transform="matrix(1,0,0,1,0,0)" /><g transform="matrix(1,0,0,1,0,0)"><text x="207" y="304.47" style="fill: rgb(0,0,0); font-family: Dialog; font-size: 12px; " text-rendering="auto" >Wood/Logs</text></g><rect x="279" y="290" width="16" height="19" style="fill: rgb(255,255,255);fill-opacity: 1.0" transform="matrix(1,0,0,1,0,0)" /><rect x="-6" y="-4" width="12" height="8" style="fill: rgb(190,163,122);fill-opacity: 1.0" transform="matrix(1,0,0,1,287,299.5)" /><rect x="295" y="290" width="58" height="19" style="fill: rgb(255,255,255);fill-opacity: 1.0" transform="matrix(1,0,0,1,0,0)" /><g transform="matrix(1,0,0,1,0,0)"><text x="297" y="304.47" style="fill: rgb(0,0,0); font-family: Dialog; font-size: 12px; " text-rendering="auto" >Crude Oil</text></g><rect x="359" y="290" width="16" height="19" style="fill: rgb(255,255,255);fill-opacity: 1.0" transform="matrix(1,0,0,1,0,0)" /><rect x="-6" y="-4" width="12" height="8" style="fill: rgb(243,170,121);fill-opacity: 1.0" transform="matrix(1,0,0,1,367,299.5)" /><rect x="375" y="290" width="62" height="19" style="fill: rgb(255,255,255);fill-opacity: 1.0" transform="matrix(1,0,0,1,0,0)" /><g transform="matrix(1,0,0,1,0,0)"><text x="377" y="304.47" style="fill: rgb(0,0,0); font-family: Dialog; font-size: 12px; " text-rendering="auto" >Machinery</text></g><rect x="443" y="290" width="16" height="19" style="fill: rgb(255,255,255);fill-opacity: 1.0" transform="matrix(1,0,0,1,0,0)" /><rect x="-6" y="-4" width="12" height="8" style="fill: rgb(181,181,169);fill-opacity: 1.0" transform="matrix(1,0,0,1,451,299.5)" /><rect x="459" y="290" width="29" height="19" style="fill: rgb(255,255,255);fill-opacity: 1.0" transform="matrix(1,0,0,1,0,0)" /><g transform="matrix(1,0,0,1,0,0)"><text x="461" y="304.47" style="fill: rgb(0,0,0); font-family: Dialog; font-size: 12px; " text-rendering="auto" >Fruit</text></g><rect x="34" y="313" width="16" height="19" style="fill: rgb(255,255,255);fill-opacity: 1.0" transform="matrix(1,0,0,1,0,0)" /><rect x="-6" y="-4" width="12" height="8" style="fill: rgb(230,165,164);fill-opacity: 1.0" transform="matrix(1,0,0,1,42,322.5)" /><rect x="50" y="313" width="26" height="19" style="fill: rgb(255,255,255);fill-opacity: 1.0" transform="matrix(1,0,0,1,0,0)" /><g transform="matrix(1,0,0,1,0,0)"><text x="52" y="327.47" style="fill: rgb(0,0,0); font-family: Dialog; font-size: 12px; " text-rendering="auto" >Fish</text></g><rect x="80" y="313" width="16" height="19" style="fill: rgb(255,255,255);fill-opacity: 1.0" transform="matrix(1,0,0,1,0,0)" /><rect x="-6" y="-4" width="12" height="8" style="fill: rgb(248,215,83);fill-opacity: 1.0" transform="matrix(1,0,0,1,88,322.5)" /><rect x="96" y="313" width="31" height="19" style="fill: rgb(255,255,255);fill-opacity: 1.0" transform="matrix(1,0,0,1,0,0)" /><g transform="matrix(1,0,0,1,0,0)"><text x="98" y="327.47" style="fill: rgb(0,0,0); font-family: Dialog; font-size: 12px; " text-rendering="auto" >Wine</text></g><rect x="133" y="313" width="16" height="19" style="fill: rgb(255,255,255);fill-opacity: 1.0" transform="matrix(1,0,0,1,0,0)" /><rect x="-6" y="-4" width="12" height="8" style="fill: rgb(92,151,70);fill-opacity: 1.0" transform="matrix(1,0,0,1,141,322.5)" /><rect x="149" y="313" width="36" height="19" style="fill: rgb(255,255,255);fill-opacity: 1.0" transform="matrix(1,0,0,1,0,0)" /><g transform="matrix(1,0,0,1,0,0)"><text x="151" y="327.47" style="fill: rgb(0,0,0); font-family: Dialog; font-size: 12px; " text-rendering="auto" >Other</text></g><rect x="251" y="336" width="243" height="17" style="fill: rgb(255,255,255);fill-opacity: 1.0" transform="matrix(1,0,0,1,0,0)" /><g transform="matrix(1,0,0,1,0,0)"><text x="253" y="348.89" style="fill: rgb(0,0,0); font-family: Dialog; font-size: 10px; " text-rendering="auto" >Orson Charts (c) 2013, by Object Refinery Limited</text></g><rect x="6" y="6" width="281" height="29" style="fill: rgb(255,255,255);fill-opacity: 1.0" transform="matrix(1,0,0,1,0,0)" /><g transform="matrix(1,0,0,1,0,0)"><text x="8" y="28.78" style="fill: rgb(0,0,0); font-family: Dialog; font-size: 20px; font-weight: bold; " text-rendering="auto" >New Zealand Exports 2012</text></g><rect x="6" y="35" width="500" height="19" style="fill: rgb(255,255,255);fill-opacity: 1.0" transform="matrix(1,0,0,1,0,0)" /><g transform="matrix(1,0,0,1,0,0)"><text x="8" y="49.47" style="fill: rgb(0,0,0); font-family: Dialog; font-size: 12px; " text-rendering="auto" >http://www.stats.govt.nz/browse_for_stats/snapshots-of-nz/nz-in-profile-2013.aspx</text></g></svg>
