<!DOCTYPE svg PUBLIC "-//W3C//DTD SVG 1.1//EN" "http://www.w3.org/Graphics/SVG/1.1/DTD/svg11.dtd">
<svg xmlns="http://www.w3.org/2000/svg" xmlns:xlink="http://www.w3.org/1999/xlink" width="500" height="359">
<defs></defs>
<rect x="0" y="0" width="500" height="359" style="fill: rgb(255,255,255);fill-opacity: 1.0" transform="matrix(1,0,0,1,0,0)" /><g style="fill: rgb(227,227,227);fill-opacity: 1.0; stroke: none" transform="matrix(1,0,0,1,243,163.5)" ><path d="M -147.06 131.94 L -136.43 54.45 L 134.29 31.05 L 168.95 103.68 M -147.06 131.94"/></g><g style="fill: rgb(163,163,163);fill-opacity: 1.0; stroke: none" transform="matrix(1,0,0,1,243,163.5)" ><path d="M -136.43 54.45 L -155.53 -95.45 L 132.21 -118.62 L 134.29 31.05 M -136.43 54.45"/></g><line x1="134.29" y1="31.05" x2="-136.43" y2="54.45" style="stroke-width: 0.5;stroke: rgb(255,255,255);stroke-opacity: 1.0;stroke-dasharray: 3.0, 3.0;" transform="matrix(1,0,0,1,243,163.5)" /><line x1="133.77" y1="-6.82" x2="-141.26" y2="16.54" style="stroke-width: 0.5;stroke: rgb(255,255,255);stroke-opacity: 1.0;stroke-dasharray: 3.0, 3.0;" transform="matrix(1,0,0,1,243,163.5)" /><line x1="133.22" y1="-45.89" x2="-146.25" y2="-22.59" style="stroke-width: 0.5;stroke: rgb(255,255,255);stroke-opacity: 1.0;stroke-dasharray: 3.0, 3.0;" transform="matrix(1,0,0,1,243,163.5)" /><line x1="132.66" y1="-86.23" x2="-151.4" y2="-63" style="stroke-width: 0.5;stroke: rgb(255,255,255);stroke-opacity: 1.0;stroke-dasharray: 3.0, 3.0;" transform="matrix(1,0,0,1,243,163.5)" /><g style="fill: rgb(57,57,57);fill-opacity: 1.0; stroke: none" transform="matrix(1,0,0,1,243,163.5)" ><path d="M -147.06 131.94 L -170.41 -39.4 L -155.53 -95.45 L -136.43 54.45 M -147.06 131.94"/></g><line x1="-147.06" y1="131.94" x2="-136.43" y2="54.45" style="stroke-width: 0.5;stroke: rgb(255,255,255);stroke-opacity: 1.0;stroke-dasharray: 3.0, 3.0;" transform="matrix(1,0,0,1,243,163.5)" /><line x1="-152.92" y1="88.95" x2="-141.26" y2="16.54" style="stroke-width: 0.5;stroke: rgb(255,255,255);stroke-opacity: 1.0;stroke-dasharray: 3.0, 3.0;" transform="matrix(1,0,0,1,243,163.5)" /><line x1="-159" y1="44.34" x2="-146.25" y2="-22.59" style="stroke-width: 0.5;stroke: rgb(255,255,255);stroke-opacity: 1.0;stroke-dasharray: 3.0, 3.0;" transform="matrix(1,0,0,1,243,163.5)" /><line x1="-165.31" y1="-1.99" x2="-151.4" y2="-63" style="stroke-width: 0.5;stroke: rgb(255,255,255);stroke-opacity: 1.0;stroke-dasharray: 3.0, 3.0;" transform="matrix(1,0,0,1,243,163.5)" /><g style="fill: rgb(197,197,197);fill-opacity: 1.0; stroke: none" transform="matrix(1,0,0,1,243,163.5)" ><path d="M 134.29 31.05 L 132.21 -118.62 L 169.03 -67.46 L 168.95 103.68 M 134.29 31.05"/></g><line x1="168.95" y1="103.68" x2="134.29" y2="31.05" style="stroke-width: 0.5;stroke: rgb(255,255,255);stroke-opacity: 1.0;stroke-dasharray: 3.0, 3.0;" transform="matrix(1,0,0,1,243,163.5)" /><line x1="168.97" y1="60.72" x2="133.77" y2="-6.82" style="stroke-width: 0.5;stroke: rgb(255,255,255);stroke-opacity: 1.0;stroke-dasharray: 3.0, 3.0;" transform="matrix(1,0,0,1,243,163.5)" /><line x1="168.99" y1="16.15" x2="133.22" y2="-45.89" style="stroke-width: 0.5;stroke: rgb(255,255,255);stroke-opacity: 1.0;stroke-dasharray: 3.0, 3.0;" transform="matrix(1,0,0,1,243,163.5)" /><line x1="169.01" y1="-30.12" x2="132.66" y2="-86.23" style="stroke-width: 0.5;stroke: rgb(255,255,255);stroke-opacity: 1.0;stroke-dasharray: 3.0, 3.0;" transform="matrix(1,0,0,1,243,163.5)" /><g style="fill: rgb(121,104,78);fill-opacity: 1.0; stroke: none" transform="matrix(1,0,0,1,243,163.5)" ><path d="M 79.31 44.07 L 46.39 46.92 L 44.83 16.26 L 78.18 13.41 M 79.31 44.07"/></g><g style="fill: rgb(121,104,78);fill-opacity: 1.0; stroke: none" transform="matrix(1,0,0,1,243,163.5)" ><path d="M 38.14 47.64 L 5.12 50.5 L 3.56 27.58 L 36.9 24.72 M 38.14 47.64"/></g><g style="fill: rgb(121,104,78);fill-opacity: 1.0; stroke: none" transform="matrix(1,0,0,1,243,163.5)" ><path d="M 120.33 40.51 L 87.52 43.36 L 85.97 -2.93 L 119.42 -5.77 M 120.33 40.51"/></g><g style="fill: rgb(169,145,109);fill-opacity: 1.0; stroke: none" transform="matrix(1,0,0,1,243,163.5)" ><path d="M 87.52 43.36 L 120.33 40.51 L 124.66 50.45 L 91.12 53.37 M 87.52 43.36"/></g><g style="fill: rgb(169,145,109);fill-opacity: 1.0; stroke: none" transform="matrix(1,0,0,1,243,163.5)" ><path d="M 46.39 46.92 L 79.31 44.07 L 82.72 54.1 L 49.07 57.04 M 46.39 46.92"/></g><g style="fill: rgb(169,145,109);fill-opacity: 1.0; stroke: none" transform="matrix(1,0,0,1,243,163.5)" ><path d="M 5.12 50.5 L 38.14 47.64 L 40.65 57.77 L 6.88 60.71 M 5.12 50.5"/></g><g style="fill: rgb(169,145,109);fill-opacity: 1.0; stroke: none" transform="matrix(1,0,0,1,243,163.5)" ><path d="M -36.28 54.1 L -3.15 51.22 L -1.57 61.45 L -35.45 64.4 M -36.28 54.1"/></g><g style="fill: rgb(121,104,78);fill-opacity: 1.0; stroke: none" transform="matrix(1,0,0,1,243,163.5)" ><path d="M -3.15 51.22 L -36.28 54.1 L -40.91 -0.1 L -7.02 -2.97 M -3.15 51.22"/></g><g style="fill: rgb(169,145,109);fill-opacity: 1.0; stroke: none" transform="matrix(1,0,0,1,243,163.5)" ><path d="M -77.82 57.7 L -44.58 54.82 L -43.93 65.14 L -77.92 68.1 M -77.82 57.7"/></g><g style="fill: rgb(147,126,94);fill-opacity: 1.0; stroke: none" transform="matrix(1,0,0,1,243,163.5)" ><path d="M 82.72 54.1 L 79.31 44.07 L 78.18 13.41 L 81.61 22.88 M 82.72 54.1"/></g><g style="fill: rgb(147,126,94);fill-opacity: 1.0; stroke: none" transform="matrix(1,0,0,1,243,163.5)" ><path d="M 40.65 57.77 L 38.14 47.64 L 36.9 24.72 L 39.4 34.43 M 40.65 57.77"/></g><g style="fill: rgb(169,145,109);fill-opacity: 1.0; stroke: none" transform="matrix(1,0,0,1,243,163.5)" ><path d="M -119.49 61.31 L -86.14 58.42 L -86.43 68.85 L -120.53 71.82 M -119.49 61.31"/></g><g style="fill: rgb(121,104,78);fill-opacity: 1.0; stroke: none" transform="matrix(1,0,0,1,243,163.5)" ><path d="M -44.58 54.82 L -77.82 57.7 L -84.22 -4.45 L -50.11 -7.33 M -44.58 54.82"/></g><g style="fill: rgb(147,126,94);fill-opacity: 1.0; stroke: none" transform="matrix(1,0,0,1,243,163.5)" ><path d="M 46.39 46.92 L 44.83 16.26 L 47.52 25.81 L 49.07 57.04 M 46.39 46.92"/></g><g style="fill: rgb(147,126,94);fill-opacity: 1.0; stroke: none" transform="matrix(1,0,0,1,243,163.5)" ><path d="M 5.12 50.5 L 3.56 27.58 L 5.31 37.37 L 6.88 60.71 M 5.12 50.5"/></g><g style="fill: rgb(147,126,94);fill-opacity: 1.0; stroke: none" transform="matrix(1,0,0,1,243,163.5)" ><path d="M 124.66 50.45 L 120.33 40.51 L 119.42 -5.77 L 123.81 3.31 M 124.66 50.45"/></g><g style="fill: rgb(147,126,94);fill-opacity: 1.0; stroke: none" transform="matrix(1,0,0,1,243,163.5)" ><path d="M 87.52 43.36 L 85.97 -2.93 L 89.61 6.23 L 91.12 53.37 M 87.52 43.36"/></g><g style="fill: rgb(155,108,77);fill-opacity: 1.0; stroke: none" transform="matrix(1,0,0,1,243,163.5)" ><path d="M 36.9 24.72 L 3.56 27.58 L 0.35 -19.62 L 34.35 -22.48 M 36.9 24.72"/></g><g style="fill: rgb(121,104,78);fill-opacity: 1.0; stroke: none" transform="matrix(1,0,0,1,243,163.5)" ><path d="M -86.14 58.42 L -119.49 61.31 L -127.96 -8.85 L -93.61 -11.73 M -86.14 58.42"/></g><g style="fill: rgb(169,145,109);fill-opacity: 1.0; stroke: none" transform="matrix(1,0,0,1,243,163.5)" ><path d="M 3.56 27.58 L 36.9 24.72 L 39.4 34.43 L 5.31 37.37 M 3.56 27.58"/></g><g style="fill: rgb(217,151,108);fill-opacity: 1.0; stroke: none" transform="matrix(1,0,0,1,243,163.5)" ><path d="M 3.56 27.58 L 36.9 24.72 L 39.4 34.43 L 5.31 37.37 M 3.56 27.58"/></g><g style="fill: rgb(169,145,109);fill-opacity: 1.0; stroke: none" transform="matrix(1,0,0,1,243,163.5)" ><path d="M 44.83 16.26 L 78.18 13.41 L 81.61 22.88 L 47.52 25.81 M 44.83 16.26"/></g><g style="fill: rgb(217,151,108);fill-opacity: 1.0; stroke: none" transform="matrix(1,0,0,1,243,163.5)" ><path d="M 44.83 16.26 L 78.18 13.41 L 81.61 22.88 L 47.52 25.81 M 44.83 16.26"/></g><g style="fill: rgb(155,108,77);fill-opacity: 1.0; stroke: none" transform="matrix(1,0,0,1,243,163.5)" ><path d="M 78.18 13.41 L 44.83 16.26 L 42.02 -39.33 L 76.12 -42.17 M 78.18 13.41"/></g><g style="fill: rgb(147,126,94);fill-opacity: 1.0; stroke: none" transform="matrix(1,0,0,1,243,163.5)" ><path d="M -1.57 61.45 L -3.15 51.22 L -7.02 -2.97 L -5.5 6.25 M -1.57 61.45"/></g><g style="fill: rgb(42,36,27);fill-opacity: 1.0; stroke: none" transform="matrix(1,0,0,1,243,163.5)" ><path d="M -35.45 64.4 L -40.16 9.2 L -40.91 -0.1 L -36.28 54.1 M -35.45 64.4"/></g><g style="fill: rgb(42,36,27);fill-opacity: 1.0; stroke: none" transform="matrix(1,0,0,1,243,163.5)" ><path d="M -49.57 1.84 L -50.11 -7.33 L -44.58 54.82 L -43.93 65.14 M -49.57 1.84"/></g><g style="fill: rgb(121,104,78);fill-opacity: 1.0; stroke: none" transform="matrix(1,0,0,1,243,163.5)" ><path d="M 47.52 25.81 L 81.61 22.88 L 82.72 54.1 L 49.07 57.04 M 47.52 25.81"/></g><g style="fill: rgb(121,104,78);fill-opacity: 1.0; stroke: none" transform="matrix(1,0,0,1,243,163.5)" ><path d="M 5.31 37.37 L 39.4 34.43 L 40.65 57.77 L 6.88 60.71 M 5.31 37.37"/></g><g style="fill: rgb(169,145,109);fill-opacity: 1.0; stroke: none" transform="matrix(1,0,0,1,243,163.5)" ><path d="M 85.97 -2.93 L 119.42 -5.77 L 123.81 3.31 L 89.61 6.23 M 85.97 -2.93"/></g><g style="fill: rgb(217,151,108);fill-opacity: 1.0; stroke: none" transform="matrix(1,0,0,1,243,163.5)" ><path d="M 85.97 -2.93 L 119.42 -5.77 L 123.81 3.31 L 89.61 6.23 M 85.97 -2.93"/></g><g style="fill: rgb(42,36,27);fill-opacity: 1.0; stroke: none" transform="matrix(1,0,0,1,243,163.5)" ><path d="M -77.92 68.1 L -84.47 4.79 L -84.22 -4.45 L -77.82 57.7 M -77.92 68.1"/></g><g style="fill: rgb(121,104,78);fill-opacity: 1.0; stroke: none" transform="matrix(1,0,0,1,243,163.5)" ><path d="M 89.61 6.23 L 123.81 3.31 L 124.66 50.45 L 91.12 53.37 M 89.61 6.23"/></g><g style="fill: rgb(188,131,93);fill-opacity: 1.0; stroke: none" transform="matrix(1,0,0,1,243,163.5)" ><path d="M 39.4 34.43 L 36.9 24.72 L 34.35 -22.48 L 36.84 -13.66 M 39.4 34.43"/></g><g style="fill: rgb(42,36,27);fill-opacity: 1.0; stroke: none" transform="matrix(1,0,0,1,243,163.5)" ><path d="M -94.08 -2.62 L -93.61 -11.73 L -86.14 58.42 L -86.43 68.85 M -94.08 -2.62"/></g><g style="fill: rgb(155,108,77);fill-opacity: 1.0; stroke: none" transform="matrix(1,0,0,1,243,163.5)" ><path d="M 119.42 -5.77 L 85.97 -2.93 L 83.54 -75.8 L 117.98 -78.63 M 119.42 -5.77"/></g><g style="fill: rgb(188,131,93);fill-opacity: 1.0; stroke: none" transform="matrix(1,0,0,1,243,163.5)" ><path d="M 3.56 27.58 L 0.35 -19.62 L 2.06 -10.73 L 5.31 37.37 M 3.56 27.58"/></g><g style="fill: rgb(42,36,27);fill-opacity: 1.0; stroke: none" transform="matrix(1,0,0,1,243,163.5)" ><path d="M -120.53 71.82 L -129.22 0.34 L -127.96 -8.85 L -119.49 61.31 M -120.53 71.82"/></g><g style="fill: rgb(188,131,93);fill-opacity: 1.0; stroke: none" transform="matrix(1,0,0,1,243,163.5)" ><path d="M 81.61 22.88 L 78.18 13.41 L 76.12 -42.17 L 79.6 -33.77 M 81.61 22.88"/></g><g style="fill: rgb(188,131,93);fill-opacity: 1.0; stroke: none" transform="matrix(1,0,0,1,243,163.5)" ><path d="M 44.83 16.26 L 42.02 -39.33 L 44.7 -30.85 L 47.52 25.81 M 44.83 16.26"/></g><g style="fill: rgb(121,104,78);fill-opacity: 1.0; stroke: none" transform="matrix(1,0,0,1,243,163.5)" ><path d="M -40.16 9.2 L -5.5 6.25 L -1.57 61.45 L -35.45 64.4 M -40.16 9.2"/></g><g style="fill: rgb(169,145,109);fill-opacity: 1.0; stroke: none" transform="matrix(1,0,0,1,243,163.5)" ><path d="M -40.91 -0.1 L -7.02 -2.97 L -5.5 6.25 L -40.16 9.2 M -40.91 -0.1"/></g><g style="fill: rgb(217,151,108);fill-opacity: 1.0; stroke: none" transform="matrix(1,0,0,1,243,163.5)" ><path d="M -40.91 -0.1 L -7.02 -2.97 L -5.5 6.25 L -40.16 9.2 M -40.91 -0.1"/></g><g style="fill: rgb(155,108,77);fill-opacity: 1.0; stroke: none" transform="matrix(1,0,0,1,243,163.5)" ><path d="M -7.02 -2.97 L -40.91 -0.1 L -45.76 -56.82 L -11.08 -59.67 M -7.02 -2.97"/></g><g style="fill: rgb(121,104,78);fill-opacity: 1.0; stroke: none" transform="matrix(1,0,0,1,243,163.5)" ><path d="M -84.47 4.79 L -49.57 1.84 L -43.93 65.14 L -77.92 68.1 M -84.47 4.79"/></g><g style="fill: rgb(217,151,108);fill-opacity: 1.0; stroke: none" transform="matrix(1,0,0,1,243,163.5)" ><path d="M 0.35 -19.62 L 34.35 -22.48 L 36.84 -13.66 L 2.06 -10.73 M 0.35 -19.62"/></g><g style="fill: rgb(169,145,109);fill-opacity: 1.0; stroke: none" transform="matrix(1,0,0,1,243,163.5)" ><path d="M -84.22 -4.45 L -50.11 -7.33 L -49.57 1.84 L -84.47 4.79 M -84.22 -4.45"/></g><g style="fill: rgb(217,151,108);fill-opacity: 1.0; stroke: none" transform="matrix(1,0,0,1,243,163.5)" ><path d="M -84.22 -4.45 L -50.11 -7.33 L -49.57 1.84 L -84.47 4.79 M -84.22 -4.45"/></g><g style="fill: rgb(188,131,93);fill-opacity: 1.0; stroke: none" transform="matrix(1,0,0,1,243,163.5)" ><path d="M 123.81 3.31 L 119.42 -5.77 L 117.98 -78.63 L 122.48 -70.98 M 123.81 3.31"/></g><g style="fill: rgb(155,108,77);fill-opacity: 1.0; stroke: none" transform="matrix(1,0,0,1,243,163.5)" ><path d="M 2.06 -10.73 L 36.84 -13.66 L 39.4 34.43 L 5.31 37.37 M 2.06 -10.73"/></g><g style="fill: rgb(121,104,78);fill-opacity: 1.0; stroke: none" transform="matrix(1,0,0,1,243,163.5)" ><path d="M -129.22 0.34 L -94.08 -2.62 L -86.43 68.85 L -120.53 71.82 M -129.22 0.34"/></g><g style="fill: rgb(155,108,77);fill-opacity: 1.0; stroke: none" transform="matrix(1,0,0,1,243,163.5)" ><path d="M -50.11 -7.33 L -84.22 -4.45 L -90.96 -69.93 L -55.93 -72.79 M -50.11 -7.33"/></g><g style="fill: rgb(188,131,93);fill-opacity: 1.0; stroke: none" transform="matrix(1,0,0,1,243,163.5)" ><path d="M 85.97 -2.93 L 83.54 -75.8 L 87.23 -68.08 L 89.61 6.23 M 85.97 -2.93"/></g><g style="fill: rgb(108,130,91);fill-opacity: 1.0; stroke: none" transform="matrix(1,0,0,1,243,163.5)" ><path d="M 129.19 60.84 L 94.89 63.84 L 94.65 55.97 L 129.06 52.97 M 129.19 60.84"/></g><g style="fill: rgb(155,108,77);fill-opacity: 1.0; stroke: none" transform="matrix(1,0,0,1,243,163.5)" ><path d="M 44.7 -30.85 L 79.6 -33.77 L 81.61 22.88 L 47.52 25.81 M 44.7 -30.85"/></g><g style="fill: rgb(217,151,108);fill-opacity: 1.0; stroke: none" transform="matrix(1,0,0,1,243,163.5)" ><path d="M 42.02 -39.33 L 76.12 -42.17 L 79.6 -33.77 L 44.7 -30.85 M 42.02 -39.33"/></g><g style="fill: rgb(169,145,109);fill-opacity: 1.0; stroke: none" transform="matrix(1,0,0,1,243,163.5)" ><path d="M -127.96 -8.85 L -93.61 -11.73 L -94.08 -2.62 L -129.22 0.34 M -127.96 -8.85"/></g><g style="fill: rgb(217,151,108);fill-opacity: 1.0; stroke: none" transform="matrix(1,0,0,1,243,163.5)" ><path d="M -127.96 -8.85 L -93.61 -11.73 L -94.08 -2.62 L -129.22 0.34 M -127.96 -8.85"/></g><g style="fill: rgb(188,131,93);fill-opacity: 1.0; stroke: none" transform="matrix(1,0,0,1,243,163.5)" ><path d="M -5.5 6.25 L -7.02 -2.97 L -11.08 -59.67 L -9.61 -51.57 M -5.5 6.25"/></g><g style="fill: rgb(54,38,27);fill-opacity: 1.0; stroke: none" transform="matrix(1,0,0,1,243,163.5)" ><path d="M -40.16 9.2 L -45.11 -48.63 L -45.76 -56.82 L -40.91 -0.1 M -40.16 9.2"/></g><g style="fill: rgb(108,130,91);fill-opacity: 1.0; stroke: none" transform="matrix(1,0,0,1,243,163.5)" ><path d="M 86.3 64.6 L 51.88 67.61 L 50.72 43.83 L 85.48 40.82 M 86.3 64.6"/></g><g style="fill: rgb(108,130,91);fill-opacity: 1.0; stroke: none" transform="matrix(1,0,0,1,243,163.5)" ><path d="M 43.26 68.37 L 8.73 71.39 L 7.67 55.59 L 42.43 52.57 M 43.26 68.37"/></g><g style="fill: rgb(155,108,77);fill-opacity: 1.0; stroke: none" transform="matrix(1,0,0,1,243,163.5)" ><path d="M -93.61 -11.73 L -127.96 -8.85 L -136.93 -83.27 L -101.54 -86.13 M -93.61 -11.73"/></g><g style="fill: rgb(113,127,138);fill-opacity: 1.0; stroke: none" transform="matrix(1,0,0,1,243,163.5)" ><path d="M 129.06 52.97 L 94.65 55.97 L 93.67 23.95 L 128.54 20.95 M 129.06 52.97"/></g><g style="fill: rgb(108,130,91);fill-opacity: 1.0; stroke: none" transform="matrix(1,0,0,1,243,163.5)" ><path d="M 0.08 72.15 L -34.57 75.18 L -36.6 51.4 L -1.6 48.37 M 0.08 72.15"/></g><g style="fill: rgb(108,130,91);fill-opacity: 1.0; stroke: none" transform="matrix(1,0,0,1,243,163.5)" ><path d="M -43.25 75.94 L -78.02 78.99 L -79.66 63.18 L -44.66 60.14 M -43.25 75.94"/></g><g style="fill: rgb(108,130,91);fill-opacity: 1.0; stroke: none" transform="matrix(1,0,0,1,243,163.5)" ><path d="M -86.72 79.75 L -121.61 82.81 L -122.58 74.93 L -87.57 71.87 M -86.72 79.75"/></g><g style="fill: rgb(54,38,27);fill-opacity: 1.0; stroke: none" transform="matrix(1,0,0,1,243,163.5)" ><path d="M -55.51 -64.93 L -55.93 -72.79 L -50.11 -7.33 L -49.57 1.84 M -55.51 -64.93"/></g><g style="fill: rgb(151,182,127);fill-opacity: 1.0; stroke: none" transform="matrix(1,0,0,1,243,163.5)" ><path d="M 94.89 63.84 L 129.19 60.84 L 133.93 71.72 L 98.83 74.81 M 94.89 63.84"/></g><g style="fill: rgb(155,108,77);fill-opacity: 1.0; stroke: none" transform="matrix(1,0,0,1,243,163.5)" ><path d="M 87.23 -68.08 L 122.48 -70.98 L 123.81 3.31 L 89.61 6.23 M 87.23 -68.08"/></g><g style="fill: rgb(130,157,110);fill-opacity: 1.0; stroke: none" transform="matrix(1,0,0,1,243,163.5)" ><path d="M 133.93 71.72 L 129.19 60.84 L 129.06 52.97 L 133.81 63.7 M 133.93 71.72"/></g><g style="fill: rgb(54,38,27);fill-opacity: 1.0; stroke: none" transform="matrix(1,0,0,1,243,163.5)" ><path d="M -84.47 4.79 L -91.38 -61.99 L -90.96 -69.93 L -84.22 -4.45 M -84.47 4.79"/></g><g style="fill: rgb(151,182,127);fill-opacity: 1.0; stroke: none" transform="matrix(1,0,0,1,243,163.5)" ><path d="M 51.88 67.61 L 86.3 64.6 L 90.04 75.58 L 54.82 78.68 M 51.88 67.61"/></g><g style="fill: rgb(130,157,110);fill-opacity: 1.0; stroke: none" transform="matrix(1,0,0,1,243,163.5)" ><path d="M 94.89 63.84 L 94.65 55.97 L 98.6 66.79 L 98.83 74.81 M 94.89 63.84"/></g><g style="fill: rgb(151,182,127);fill-opacity: 1.0; stroke: none" transform="matrix(1,0,0,1,243,163.5)" ><path d="M 94.65 55.97 L 129.06 52.97 L 133.81 63.7 L 98.6 66.79 M 94.65 55.97"/></g><g style="fill: rgb(159,178,194);fill-opacity: 1.0; stroke: none" transform="matrix(1,0,0,1,243,163.5)" ><path d="M 94.65 55.97 L 129.06 52.97 L 133.81 63.7 L 98.6 66.79 M 94.65 55.97"/></g><g style="fill: rgb(151,182,127);fill-opacity: 1.0; stroke: none" transform="matrix(1,0,0,1,243,163.5)" ><path d="M 8.73 71.39 L 43.26 68.37 L 46 79.46 L 10.66 82.57 M 8.73 71.39"/></g><g style="fill: rgb(217,151,108);fill-opacity: 1.0; stroke: none" transform="matrix(1,0,0,1,243,163.5)" ><path d="M 83.54 -75.8 L 117.98 -78.63 L 122.48 -70.98 L 87.23 -68.08 M 83.54 -75.8"/></g><g style="fill: rgb(151,182,127);fill-opacity: 1.0; stroke: none" transform="matrix(1,0,0,1,243,163.5)" ><path d="M -34.57 75.18 L 0.08 72.15 L 1.81 83.35 L -33.65 86.47 M -34.57 75.18"/></g><g style="fill: rgb(113,127,138);fill-opacity: 1.0; stroke: none" transform="matrix(1,0,0,1,243,163.5)" ><path d="M 42.43 52.57 L 7.67 55.59 L 5.51 23.35 L 40.74 20.33 M 42.43 52.57"/></g><g style="fill: rgb(155,108,77);fill-opacity: 1.0; stroke: none" transform="matrix(1,0,0,1,243,163.5)" ><path d="M -45.11 -48.63 L -9.61 -51.57 L -5.5 6.25 L -40.16 9.2 M -45.11 -48.63"/></g><g style="fill: rgb(217,151,108);fill-opacity: 1.0; stroke: none" transform="matrix(1,0,0,1,243,163.5)" ><path d="M -45.76 -56.82 L -11.08 -59.67 L -9.61 -51.57 L -45.11 -48.63 M -45.76 -56.82"/></g><g style="fill: rgb(130,157,110);fill-opacity: 1.0; stroke: none" transform="matrix(1,0,0,1,243,163.5)" ><path d="M 90.04 75.58 L 86.3 64.6 L 85.48 40.82 L 89.25 51.36 M 90.04 75.58"/></g><g style="fill: rgb(130,157,110);fill-opacity: 1.0; stroke: none" transform="matrix(1,0,0,1,243,163.5)" ><path d="M 46 79.46 L 43.26 68.37 L 42.43 52.57 L 45.17 63.36 M 46 79.46"/></g><g style="fill: rgb(54,38,27);fill-opacity: 1.0; stroke: none" transform="matrix(1,0,0,1,243,163.5)" ><path d="M -102.21 -78.52 L -101.54 -86.13 L -93.61 -11.73 L -94.08 -2.62 M -102.21 -78.52"/></g><g style="fill: rgb(113,127,138);fill-opacity: 1.0; stroke: none" transform="matrix(1,0,0,1,243,163.5)" ><path d="M 85.48 40.82 L 50.72 43.83 L 49.14 11.38 L 84.37 8.37 M 85.48 40.82"/></g><g style="fill: rgb(151,182,127);fill-opacity: 1.0; stroke: none" transform="matrix(1,0,0,1,243,163.5)" ><path d="M -78.02 78.99 L -43.25 75.94 L -42.54 87.25 L -78.12 90.38 M -78.02 78.99"/></g><g style="fill: rgb(130,157,110);fill-opacity: 1.0; stroke: none" transform="matrix(1,0,0,1,243,163.5)" ><path d="M 51.88 67.61 L 50.72 43.83 L 53.66 54.45 L 54.82 78.68 M 51.88 67.61"/></g><g style="fill: rgb(130,157,110);fill-opacity: 1.0; stroke: none" transform="matrix(1,0,0,1,243,163.5)" ><path d="M 8.73 71.39 L 7.67 55.59 L 9.59 66.47 L 10.66 82.57 M 8.73 71.39"/></g><g style="fill: rgb(54,38,27);fill-opacity: 1.0; stroke: none" transform="matrix(1,0,0,1,243,163.5)" ><path d="M -129.22 0.34 L -138.45 -75.57 L -136.93 -83.27 L -127.96 -8.85 M -129.22 0.34"/></g><g style="fill: rgb(151,182,127);fill-opacity: 1.0; stroke: none" transform="matrix(1,0,0,1,243,163.5)" ><path d="M -121.61 82.81 L -86.72 79.75 L -87.04 91.17 L -122.75 94.31 M -121.61 82.81"/></g><g style="fill: rgb(137,154,168);fill-opacity: 1.0; stroke: none" transform="matrix(1,0,0,1,243,163.5)" ><path d="M 133.81 63.7 L 129.06 52.97 L 128.54 20.95 L 133.35 31.07 M 133.81 63.7"/></g><g style="fill: rgb(130,157,110);fill-opacity: 1.0; stroke: none" transform="matrix(1,0,0,1,243,163.5)" ><path d="M 1.81 83.35 L 0.08 72.15 L -1.6 48.37 L 0.1 59.12 M 1.81 83.35"/></g><g style="fill: rgb(38,46,32);fill-opacity: 1.0; stroke: none" transform="matrix(1,0,0,1,243,163.5)" ><path d="M -43.97 71.15 L -44.66 60.14 L -43.25 75.94 L -42.54 87.25 M -43.97 71.15"/></g><g style="fill: rgb(38,46,32);fill-opacity: 1.0; stroke: none" transform="matrix(1,0,0,1,243,163.5)" ><path d="M -87.91 83.15 L -87.57 71.87 L -86.72 79.75 L -87.04 91.17 M -87.91 83.15"/></g><g style="fill: rgb(151,182,127);fill-opacity: 1.0; stroke: none" transform="matrix(1,0,0,1,243,163.5)" ><path d="M 7.67 55.59 L 42.43 52.57 L 45.17 63.36 L 9.59 66.47 M 7.67 55.59"/></g><g style="fill: rgb(159,178,194);fill-opacity: 1.0; stroke: none" transform="matrix(1,0,0,1,243,163.5)" ><path d="M 7.67 55.59 L 42.43 52.57 L 45.17 63.36 L 9.59 66.47 M 7.67 55.59"/></g><g style="fill: rgb(113,127,138);fill-opacity: 1.0; stroke: none" transform="matrix(1,0,0,1,243,163.5)" ><path d="M -87.57 71.87 L -122.58 74.93 L -128.51 26.54 L -92.79 23.49 M -87.57 71.87"/></g><g style="fill: rgb(137,154,168);fill-opacity: 1.0; stroke: none" transform="matrix(1,0,0,1,243,163.5)" ><path d="M 94.65 55.97 L 93.67 23.95 L 97.65 34.15 L 98.6 66.79 M 94.65 55.97"/></g><g style="fill: rgb(38,46,32);fill-opacity: 1.0; stroke: none" transform="matrix(1,0,0,1,243,163.5)" ><path d="M -33.65 86.47 L -35.73 62.24 L -36.6 51.4 L -34.57 75.18 M -33.65 86.47"/></g><g style="fill: rgb(38,46,32);fill-opacity: 1.0; stroke: none" transform="matrix(1,0,0,1,243,163.5)" ><path d="M -78.12 90.38 L -79.81 74.28 L -79.66 63.18 L -78.02 78.99 M -78.12 90.38"/></g><g style="fill: rgb(38,46,32);fill-opacity: 1.0; stroke: none" transform="matrix(1,0,0,1,243,163.5)" ><path d="M -122.75 94.31 L -123.74 86.29 L -122.58 74.93 L -121.61 82.81 M -122.75 94.31"/></g><g style="fill: rgb(151,182,127);fill-opacity: 1.0; stroke: none" transform="matrix(1,0,0,1,243,163.5)" ><path d="M 50.72 43.83 L 85.48 40.82 L 89.25 51.36 L 53.66 54.45 M 50.72 43.83"/></g><g style="fill: rgb(159,178,194);fill-opacity: 1.0; stroke: none" transform="matrix(1,0,0,1,243,163.5)" ><path d="M 50.72 43.83 L 85.48 40.82 L 89.25 51.36 L 53.66 54.45 M 50.72 43.83"/></g><g style="fill: rgb(151,182,127);fill-opacity: 1.0; stroke: none" transform="matrix(1,0,0,1,243,163.5)" ><path d="M -122.58 74.93 L -87.57 71.87 L -87.91 83.15 L -123.74 86.29 M -122.58 74.93"/></g><g style="fill: rgb(159,178,194);fill-opacity: 1.0; stroke: none" transform="matrix(1,0,0,1,243,163.5)" ><path d="M -122.58 74.93 L -87.57 71.87 L -87.91 83.15 L -123.74 86.29 M -122.58 74.93"/></g><g style="fill: rgb(113,127,138);fill-opacity: 1.0; stroke: none" transform="matrix(1,0,0,1,243,163.5)" ><path d="M -44.66 60.14 L -79.66 63.18 L -84.73 14.48 L -49 11.44 M -44.66 60.14"/></g><g style="fill: rgb(155,108,77);fill-opacity: 1.0; stroke: none" transform="matrix(1,0,0,1,243,163.5)" ><path d="M -91.38 -61.99 L -55.51 -64.93 L -49.57 1.84 L -84.47 4.79 M -91.38 -61.99"/></g><g style="fill: rgb(108,130,91);fill-opacity: 1.0; stroke: none" transform="matrix(1,0,0,1,243,163.5)" ><path d="M 98.6 66.79 L 133.81 63.7 L 133.93 71.72 L 98.83 74.81 M 98.6 66.79"/></g><g style="fill: rgb(151,182,127);fill-opacity: 1.0; stroke: none" transform="matrix(1,0,0,1,243,163.5)" ><path d="M -79.66 63.18 L -44.66 60.14 L -43.97 71.15 L -79.81 74.28 M -79.66 63.18"/></g><g style="fill: rgb(159,178,194);fill-opacity: 1.0; stroke: none" transform="matrix(1,0,0,1,243,163.5)" ><path d="M -79.66 63.18 L -44.66 60.14 L -43.97 71.15 L -79.81 74.28 M -79.66 63.18"/></g><g style="fill: rgb(113,127,138);fill-opacity: 1.0; stroke: none" transform="matrix(1,0,0,1,243,163.5)" ><path d="M -1.6 48.37 L -36.6 51.4 L -40.8 2.37 L -5.07 -0.66 M -1.6 48.37"/></g><g style="fill: rgb(217,151,108);fill-opacity: 1.0; stroke: none" transform="matrix(1,0,0,1,243,163.5)" ><path d="M -90.96 -69.93 L -55.93 -72.79 L -55.51 -64.93 L -91.38 -61.99 M -90.96 -69.93"/></g><g style="fill: rgb(151,182,127);fill-opacity: 1.0; stroke: none" transform="matrix(1,0,0,1,243,163.5)" ><path d="M -36.6 51.4 L -1.6 48.37 L 0.1 59.12 L -35.73 62.24 M -36.6 51.4"/></g><g style="fill: rgb(159,178,194);fill-opacity: 1.0; stroke: none" transform="matrix(1,0,0,1,243,163.5)" ><path d="M -36.6 51.4 L -1.6 48.37 L 0.1 59.12 L -35.73 62.24 M -36.6 51.4"/></g><g style="fill: rgb(137,154,168);fill-opacity: 1.0; stroke: none" transform="matrix(1,0,0,1,243,163.5)" ><path d="M 45.17 63.36 L 42.43 52.57 L 40.74 20.33 L 43.48 30.5 M 45.17 63.36"/></g><g style="fill: rgb(159,178,194);fill-opacity: 1.0; stroke: none" transform="matrix(1,0,0,1,243,163.5)" ><path d="M 93.67 23.95 L 128.54 20.95 L 133.35 31.07 L 97.65 34.15 M 93.67 23.95"/></g><g style="fill: rgb(137,154,168);fill-opacity: 1.0; stroke: none" transform="matrix(1,0,0,1,243,163.5)" ><path d="M 7.67 55.59 L 5.51 23.35 L 7.4 33.61 L 9.59 66.47 M 7.67 55.59"/></g><g style="fill: rgb(137,154,168);fill-opacity: 1.0; stroke: none" transform="matrix(1,0,0,1,243,163.5)" ><path d="M 89.25 51.36 L 85.48 40.82 L 84.37 8.37 L 88.16 18.27 M 89.25 51.36"/></g><g style="fill: rgb(108,130,91);fill-opacity: 1.0; stroke: none" transform="matrix(1,0,0,1,243,163.5)" ><path d="M 53.66 54.45 L 89.25 51.36 L 90.04 75.58 L 54.82 78.68 M 53.66 54.45"/></g><g style="fill: rgb(108,130,91);fill-opacity: 1.0; stroke: none" transform="matrix(1,0,0,1,243,163.5)" ><path d="M 9.59 66.47 L 45.17 63.36 L 46 79.46 L 10.66 82.57 M 9.59 66.47"/></g><g style="fill: rgb(155,108,77);fill-opacity: 1.0; stroke: none" transform="matrix(1,0,0,1,243,163.5)" ><path d="M -138.45 -75.57 L -102.21 -78.52 L -94.08 -2.62 L -129.22 0.34 M -138.45 -75.57"/></g><g style="fill: rgb(137,154,168);fill-opacity: 1.0; stroke: none" transform="matrix(1,0,0,1,243,163.5)" ><path d="M 50.72 43.83 L 49.14 11.38 L 52.08 21.37 L 53.66 54.45 M 50.72 43.83"/></g><g style="fill: rgb(40,45,48);fill-opacity: 1.0; stroke: none" transform="matrix(1,0,0,1,243,163.5)" ><path d="M -93.25 33.83 L -92.79 23.49 L -87.57 71.87 L -87.91 83.15 M -93.25 33.83"/></g><g style="fill: rgb(113,127,138);fill-opacity: 1.0; stroke: none" transform="matrix(1,0,0,1,243,163.5)" ><path d="M 97.65 34.15 L 133.35 31.07 L 133.81 63.7 L 98.6 66.79 M 97.65 34.15"/></g><g style="fill: rgb(108,130,91);fill-opacity: 1.0; stroke: none" transform="matrix(1,0,0,1,243,163.5)" ><path d="M -35.73 62.24 L 0.1 59.12 L 1.81 83.35 L -33.65 86.47 M -35.73 62.24"/></g><g style="fill: rgb(108,130,91);fill-opacity: 1.0; stroke: none" transform="matrix(1,0,0,1,243,163.5)" ><path d="M -79.81 74.28 L -43.97 71.15 L -42.54 87.25 L -78.12 90.38 M -79.81 74.28"/></g><g style="fill: rgb(108,130,91);fill-opacity: 1.0; stroke: none" transform="matrix(1,0,0,1,243,163.5)" ><path d="M -123.74 86.29 L -87.91 83.15 L -87.04 91.17 L -122.75 94.31 M -123.74 86.29"/></g><g style="fill: rgb(217,151,108);fill-opacity: 1.0; stroke: none" transform="matrix(1,0,0,1,243,163.5)" ><path d="M -136.93 -83.27 L -101.54 -86.13 L -102.21 -78.52 L -138.45 -75.57 M -136.93 -83.27"/></g><g style="fill: rgb(40,45,48);fill-opacity: 1.0; stroke: none" transform="matrix(1,0,0,1,243,163.5)" ><path d="M -123.74 86.29 L -129.84 36.97 L -128.51 26.54 L -122.58 74.93 M -123.74 86.29"/></g><g style="fill: rgb(40,45,48);fill-opacity: 1.0; stroke: none" transform="matrix(1,0,0,1,243,163.5)" ><path d="M -48.41 21.5 L -49 11.44 L -44.66 60.14 L -43.97 71.15 M -48.41 21.5"/></g><g style="fill: rgb(159,178,194);fill-opacity: 1.0; stroke: none" transform="matrix(1,0,0,1,243,163.5)" ><path d="M 5.51 23.35 L 40.74 20.33 L 43.48 30.5 L 7.4 33.61 M 5.51 23.35"/></g><g style="fill: rgb(40,45,48);fill-opacity: 1.0; stroke: none" transform="matrix(1,0,0,1,243,163.5)" ><path d="M -79.81 74.28 L -85 24.63 L -84.73 14.48 L -79.66 63.18 M -79.81 74.28"/></g><g style="fill: rgb(137,154,168);fill-opacity: 1.0; stroke: none" transform="matrix(1,0,0,1,243,163.5)" ><path d="M 0.1 59.12 L -1.6 48.37 L -5.07 -0.66 L -3.41 9.13 M 0.1 59.12"/></g><g style="fill: rgb(159,178,194);fill-opacity: 1.0; stroke: none" transform="matrix(1,0,0,1,243,163.5)" ><path d="M 49.14 11.38 L 84.37 8.37 L 88.16 18.27 L 52.08 21.37 M 49.14 11.38"/></g><g style="fill: rgb(40,45,48);fill-opacity: 1.0; stroke: none" transform="matrix(1,0,0,1,243,163.5)" ><path d="M -35.73 62.24 L -40 12.24 L -40.8 2.37 L -36.6 51.4 M -35.73 62.24"/></g><g style="fill: rgb(113,127,138);fill-opacity: 1.0; stroke: none" transform="matrix(1,0,0,1,243,163.5)" ><path d="M 7.4 33.61 L 43.48 30.5 L 45.17 63.36 L 9.59 66.47 M 7.4 33.61"/></g><g style="fill: rgb(113,127,138);fill-opacity: 1.0; stroke: none" transform="matrix(1,0,0,1,243,163.5)" ><path d="M 52.08 21.37 L 88.16 18.27 L 89.25 51.36 L 53.66 54.45 M 52.08 21.37"/></g><g style="fill: rgb(159,178,194);fill-opacity: 1.0; stroke: none" transform="matrix(1,0,0,1,243,163.5)" ><path d="M -128.51 26.54 L -92.79 23.49 L -93.25 33.83 L -129.84 36.97 M -128.51 26.54"/></g><g style="fill: rgb(113,127,138);fill-opacity: 1.0; stroke: none" transform="matrix(1,0,0,1,243,163.5)" ><path d="M -129.84 36.97 L -93.25 33.83 L -87.91 83.15 L -123.74 86.29 M -129.84 36.97"/></g><g style="fill: rgb(159,178,194);fill-opacity: 1.0; stroke: none" transform="matrix(1,0,0,1,243,163.5)" ><path d="M -84.73 14.48 L -49 11.44 L -48.41 21.5 L -85 24.63 M -84.73 14.48"/></g><g style="fill: rgb(113,127,138);fill-opacity: 1.0; stroke: none" transform="matrix(1,0,0,1,243,163.5)" ><path d="M -85 24.63 L -48.41 21.5 L -43.97 71.15 L -79.81 74.28 M -85 24.63"/></g><g style="fill: rgb(159,178,194);fill-opacity: 1.0; stroke: none" transform="matrix(1,0,0,1,243,163.5)" ><path d="M -40.8 2.37 L -5.07 -0.66 L -3.41 9.13 L -40 12.24 M -40.8 2.37"/></g><g style="fill: rgb(163,158,104);fill-opacity: 1.0; stroke: none" transform="matrix(1,0,0,1,243,163.5)" ><path d="M 138.89 83.12 L 102.96 86.3 L 102.74 78.12 L 138.79 74.94 M 138.89 83.12"/></g><g style="fill: rgb(113,127,138);fill-opacity: 1.0; stroke: none" transform="matrix(1,0,0,1,243,163.5)" ><path d="M -40 12.24 L -3.41 9.13 L 0.1 59.12 L -35.73 62.24 M -40 12.24"/></g><g style="fill: rgb(163,158,104);fill-opacity: 1.0; stroke: none" transform="matrix(1,0,0,1,243,163.5)" ><path d="M 93.96 87.09 L 57.9 90.28 L 57.14 73.88 L 93.45 70.69 M 93.96 87.09"/></g><g style="fill: rgb(163,158,104);fill-opacity: 1.0; stroke: none" transform="matrix(1,0,0,1,243,163.5)" ><path d="M 3.62 95.09 L -32.69 98.3 L -34.81 73.6 L 1.89 70.39 M 3.62 95.09"/></g><g style="fill: rgb(163,158,104);fill-opacity: 1.0; stroke: none" transform="matrix(1,0,0,1,243,163.5)" ><path d="M -41.79 99.11 L -78.24 102.33 L -79.96 85.92 L -43.26 82.7 M -41.79 99.11"/></g><g style="fill: rgb(227,221,145);fill-opacity: 1.0; stroke: none" transform="matrix(1,0,0,1,243,163.5)" ><path d="M 102.96 86.3 L 138.89 83.12 L 144.1 95.07 L 107.3 98.35 M 102.96 86.3"/></g><g style="fill: rgb(163,158,104);fill-opacity: 1.0; stroke: none" transform="matrix(1,0,0,1,243,163.5)" ><path d="M 48.87 91.08 L 12.68 94.28 L 9.95 52.83 L 46.78 49.64 M 48.87 91.08"/></g><g style="fill: rgb(197,192,126);fill-opacity: 1.0; stroke: none" transform="matrix(1,0,0,1,243,163.5)" ><path d="M 144.1 95.07 L 138.89 83.12 L 138.79 74.94 L 144.02 86.74 M 144.1 95.07"/></g><g style="fill: rgb(227,221,145);fill-opacity: 1.0; stroke: none" transform="matrix(1,0,0,1,243,163.5)" ><path d="M 57.9 90.28 L 93.96 87.09 L 98.08 99.17 L 61.14 102.46 M 57.9 90.28"/></g><g style="fill: rgb(197,192,126);fill-opacity: 1.0; stroke: none" transform="matrix(1,0,0,1,243,163.5)" ><path d="M 102.96 86.3 L 102.74 78.12 L 107.08 90.02 L 107.3 98.35 M 102.96 86.3"/></g><g style="fill: rgb(227,221,145);fill-opacity: 1.0; stroke: none" transform="matrix(1,0,0,1,243,163.5)" ><path d="M 102.74 78.12 L 138.79 74.94 L 144.02 86.74 L 107.08 90.02 M 102.74 78.12"/></g><g style="fill: rgb(227,221,145);fill-opacity: 1.0; stroke: none" transform="matrix(1,0,0,1,243,163.5)" ><path d="M 12.68 94.28 L 48.87 91.08 L 51.88 103.28 L 14.81 106.58 M 12.68 94.28"/></g><g style="fill: rgb(163,158,104);fill-opacity: 1.0; stroke: none" transform="matrix(1,0,0,1,243,163.5)" ><path d="M -87.36 103.14 L -123.94 106.38 L -128.07 73.32 L -90.97 70.09 M -87.36 103.14"/></g><g style="fill: rgb(197,192,126);fill-opacity: 1.0; stroke: none" transform="matrix(1,0,0,1,243,163.5)" ><path d="M 98.08 99.17 L 93.96 87.09 L 93.45 70.69 L 97.58 82.45 M 98.08 99.17"/></g><g style="fill: rgb(227,221,145);fill-opacity: 1.0; stroke: none" transform="matrix(1,0,0,1,243,163.5)" ><path d="M -32.69 98.3 L 3.62 95.09 L 5.52 107.41 L -31.69 110.72 M -32.69 98.3"/></g><g style="fill: rgb(197,192,126);fill-opacity: 1.0; stroke: none" transform="matrix(1,0,0,1,243,163.5)" ><path d="M 57.9 90.28 L 57.14 73.88 L 60.37 85.73 L 61.14 102.46 M 57.9 90.28"/></g><g style="fill: rgb(227,221,145);fill-opacity: 1.0; stroke: none" transform="matrix(1,0,0,1,243,163.5)" ><path d="M -78.24 102.33 L -41.79 99.11 L -41.01 111.55 L -78.35 114.87 M -78.24 102.33"/></g><g style="fill: rgb(227,221,145);fill-opacity: 1.0; stroke: none" transform="matrix(1,0,0,1,243,163.5)" ><path d="M 57.14 73.88 L 93.45 70.69 L 97.58 82.45 L 60.37 85.73 M 57.14 73.88"/></g><g style="fill: rgb(227,221,145);fill-opacity: 1.0; stroke: none" transform="matrix(1,0,0,1,243,163.5)" ><path d="M -123.94 106.38 L -87.36 103.14 L -87.71 115.7 L -125.19 119.04 M -123.94 106.38"/></g><g style="fill: rgb(197,192,126);fill-opacity: 1.0; stroke: none" transform="matrix(1,0,0,1,243,163.5)" ><path d="M 5.52 107.41 L 3.62 95.09 L 1.89 70.39 L 3.77 82.23 M 5.52 107.41"/></g><g style="fill: rgb(57,55,36);fill-opacity: 1.0; stroke: none" transform="matrix(1,0,0,1,243,163.5)" ><path d="M -42.51 94.82 L -43.26 82.7 L -41.79 99.11 L -41.01 111.55 M -42.51 94.82"/></g><g style="fill: rgb(57,55,36);fill-opacity: 1.0; stroke: none" transform="matrix(1,0,0,1,243,163.5)" ><path d="M -31.69 110.72 L -33.84 85.54 L -34.81 73.6 L -32.69 98.3 M -31.69 110.72"/></g><g style="fill: rgb(57,55,36);fill-opacity: 1.0; stroke: none" transform="matrix(1,0,0,1,243,163.5)" ><path d="M -78.35 114.87 L -80.12 98.14 L -79.96 85.92 L -78.24 102.33 M -78.35 114.87"/></g><g style="fill: rgb(197,192,126);fill-opacity: 1.0; stroke: none" transform="matrix(1,0,0,1,243,163.5)" ><path d="M 51.88 103.28 L 48.87 91.08 L 46.78 49.64 L 49.79 61.01 M 51.88 103.28"/></g><g style="fill: rgb(197,192,126);fill-opacity: 1.0; stroke: none" transform="matrix(1,0,0,1,243,163.5)" ><path d="M 12.68 94.28 L 9.95 52.83 L 12.04 64.31 L 14.81 106.58 M 12.68 94.28"/></g><g style="fill: rgb(163,158,104);fill-opacity: 1.0; stroke: none" transform="matrix(1,0,0,1,243,163.5)" ><path d="M 107.08 90.02 L 144.02 86.74 L 144.1 95.07 L 107.3 98.35 M 107.08 90.02"/></g><g style="fill: rgb(227,221,145);fill-opacity: 1.0; stroke: none" transform="matrix(1,0,0,1,243,163.5)" ><path d="M -79.96 85.92 L -43.26 82.7 L -42.51 94.82 L -80.12 98.14 M -79.96 85.92"/></g><g style="fill: rgb(57,55,36);fill-opacity: 1.0; stroke: none" transform="matrix(1,0,0,1,243,163.5)" ><path d="M -91.41 82 L -90.97 70.09 L -87.36 103.14 L -87.71 115.7 M -91.41 82"/></g><g style="fill: rgb(227,221,145);fill-opacity: 1.0; stroke: none" transform="matrix(1,0,0,1,243,163.5)" ><path d="M -34.81 73.6 L 1.89 70.39 L 3.77 82.23 L -33.84 85.54 M -34.81 73.6"/></g><g style="fill: rgb(57,55,36);fill-opacity: 1.0; stroke: none" transform="matrix(1,0,0,1,243,163.5)" ><path d="M -125.19 119.04 L -129.44 85.34 L -128.07 73.32 L -123.94 106.38 M -125.19 119.04"/></g><g style="fill: rgb(163,158,104);fill-opacity: 1.0; stroke: none" transform="matrix(1,0,0,1,243,163.5)" ><path d="M 60.37 85.73 L 97.58 82.45 L 98.08 99.17 L 61.14 102.46 M 60.37 85.73"/></g><g style="fill: rgb(227,221,145);fill-opacity: 1.0; stroke: none" transform="matrix(1,0,0,1,243,163.5)" ><path d="M 9.95 52.83 L 46.78 49.64 L 49.79 61.01 L 12.04 64.31 M 9.95 52.83"/></g><g style="fill: rgb(163,158,104);fill-opacity: 1.0; stroke: none" transform="matrix(1,0,0,1,243,163.5)" ><path d="M -33.84 85.54 L 3.77 82.23 L 5.52 107.41 L -31.69 110.72 M -33.84 85.54"/></g><g style="fill: rgb(163,158,104);fill-opacity: 1.0; stroke: none" transform="matrix(1,0,0,1,243,163.5)" ><path d="M -80.12 98.14 L -42.51 94.82 L -41.01 111.55 L -78.35 114.87 M -80.12 98.14"/></g><g style="fill: rgb(227,221,145);fill-opacity: 1.0; stroke: none" transform="matrix(1,0,0,1,243,163.5)" ><path d="M -128.07 73.32 L -90.97 70.09 L -91.41 82 L -129.44 85.34 M -128.07 73.32"/></g><g style="fill: rgb(163,158,104);fill-opacity: 1.0; stroke: none" transform="matrix(1,0,0,1,243,163.5)" ><path d="M 12.04 64.31 L 49.79 61.01 L 51.88 103.28 L 14.81 106.58 M 12.04 64.31"/></g><g style="fill: rgb(163,158,104);fill-opacity: 1.0; stroke: none" transform="matrix(1,0,0,1,243,163.5)" ><path d="M -129.44 85.34 L -91.41 82 L -87.71 115.7 L -125.19 119.04 M -129.44 85.34"/></g><line x1="-147.06" y1="131.94" x2="168.95" y2="103.68" style="stroke-width: 1.0;stroke: rgb(128,128,128);stroke-opacity: 1.0;" transform="matrix(1,0,0,1,243,163.5)" /><line x1="-107.13" y1="128.36" x2="-106.86" y2="131.35" style="stroke-width: 0.5;stroke: rgb(128,128,128);stroke-opacity: 1.0;" transform="matrix(1,0,0,1,243,163.5)" /><g transform="matrix(0.089056,0.996027,-0.996027,0.089056,281.851475,393.685782)"><text x="-106.42" y="141.3" style="fill: rgb(0,0,0); font-family: SansSerif; font-size: 12px; " text-rendering="auto" >A</text></g><line x1="-59.38" y1="124.1" x2="-59.11" y2="127.08" style="stroke-width: 0.5;stroke: rgb(128,128,128);stroke-opacity: 1.0;" transform="matrix(1,0,0,1,243,163.5)" /><g transform="matrix(0.089056,0.996027,-0.996027,0.089056,321.099708,342.232242)"><text x="-58.66" y="137.03" style="fill: rgb(0,0,0); font-family: SansSerif; font-size: 12px; " text-rendering="auto" >B</text></g><line x1="-11.8" y1="119.84" x2="-11.53" y2="122.83" style="stroke-width: 0.5;stroke: rgb(128,128,128);stroke-opacity: 1.0;" transform="matrix(1,0,0,1,243,163.5)" /><g transform="matrix(0.089056,0.996027,-0.996027,0.089056,360.201846,290.970242)"><text x="-11.09" y="132.78" style="fill: rgb(0,0,0); font-family: SansSerif; font-size: 12px; " text-rendering="auto" >C</text></g><line x1="35.6" y1="115.6" x2="35.87" y2="118.59" style="stroke-width: 0.5;stroke: rgb(128,128,128);stroke-opacity: 1.0;" transform="matrix(1,0,0,1,243,163.5)" /><g transform="matrix(0.089056,0.996027,-0.996027,0.089056,399.158688,239.898725)"><text x="36.31" y="128.54" style="fill: rgb(0,0,0); font-family: SansSerif; font-size: 12px; " text-rendering="auto" >D</text></g><line x1="82.82" y1="111.38" x2="83.09" y2="114.37" style="stroke-width: 0.5;stroke: rgb(128,128,128);stroke-opacity: 1.0;" transform="matrix(1,0,0,1,243,163.5)" /><g transform="matrix(0.089056,0.996027,-0.996027,0.089056,437.971045,189.01662)"><text x="83.54" y="124.32" style="fill: rgb(0,0,0); font-family: SansSerif; font-size: 12px; " text-rendering="auto" >E</text></g><line x1="129.87" y1="107.17" x2="130.14" y2="110.16" style="stroke-width: 0.5;stroke: rgb(128,128,128);stroke-opacity: 1.0;" transform="matrix(1,0,0,1,243,163.5)" /><g transform="matrix(0.089056,0.996027,-0.996027,0.089056,476.639718,138.322885)"><text x="130.58" y="120.11" style="fill: rgb(0,0,0); font-family: SansSerif; font-size: 12px; " text-rendering="auto" >F</text></g><line x1="-147.06" y1="131.94" x2="-170.41" y2="-39.4" style="stroke-width: 1.0;stroke: rgb(128,128,128);stroke-opacity: 1.0;" transform="matrix(1,0,0,1,243,163.5)" /><line x1="-147.06" y1="131.94" x2="-150.03" y2="132.34" style="stroke-width: 0.5;stroke: rgb(128,128,128);stroke-opacity: 1.0;" transform="matrix(1,0,0,1,243,163.5)" /><g transform="matrix(0.990841,-0.135032,0.135032,0.990841,223.619219,143.79003)"><text x="-162.99" y="137.98" style="fill: rgb(0,0,0); font-family: SansSerif; font-size: 12px; " text-rendering="auto" >0</text></g><line x1="-152.92" y1="88.95" x2="-155.89" y2="89.36" style="stroke-width: 0.5;stroke: rgb(128,128,128);stroke-opacity: 1.0;" transform="matrix(1,0,0,1,243,163.5)" /><g transform="matrix(0.990841,-0.135032,0.135032,0.990841,229.369465,142.60542)"><text x="-168.84" y="95" style="fill: rgb(0,0,0); font-family: SansSerif; font-size: 12px; " text-rendering="auto" >5</text></g><line x1="-159" y1="44.34" x2="-161.97" y2="44.75" style="stroke-width: 0.5;stroke: rgb(128,128,128);stroke-opacity: 1.0;" transform="matrix(1,0,0,1,243,163.5)" /><g transform="matrix(0.990841,-0.135032,0.135032,0.990841,235.337748,141.375891)"><text x="-182.92" y="50.39" style="fill: rgb(0,0,0); font-family: SansSerif; font-size: 12px; " text-rendering="auto" >10</text></g><line x1="-165.31" y1="-1.99" x2="-168.29" y2="-1.59" style="stroke-width: 0.5;stroke: rgb(128,128,128);stroke-opacity: 1.0;" transform="matrix(1,0,0,1,243,163.5)" /><g transform="matrix(0.990841,-0.135032,0.135032,0.990841,241.536713,140.098838)"><text x="-189.24" y="4.06" style="fill: rgb(0,0,0); font-family: SansSerif; font-size: 12px; " text-rendering="auto" >15</text></g><g transform="matrix(0.135032,0.990841,-0.990841,0.135032,126.953194,398.153551)"><text x="-209.42" y="55.83" style="fill: rgb(0,0,0); font-family: SansSerif; font-size: 12px; font-weight: bold; " text-rendering="auto" >Value</text></g><line x1="169.03" y1="-67.46" x2="132.21" y2="-118.62" style="stroke-width: 1.0;stroke: rgb(128,128,128);stroke-opacity: 1.0;" transform="matrix(1,0,0,1,243,163.5)" /><line x1="160.65" y1="-79.1" x2="163.09" y2="-80.85" style="stroke-width: 0.5;stroke: rgb(128,128,128);stroke-opacity: 1.0;" transform="matrix(1,0,0,1,243,163.5)" /><g transform="matrix(0.811663,-0.584126,0.584126,0.811663,323.414552,245.355832)"><text x="167.15" y="-78.81" style="fill: rgb(0,0,0); font-family: SansSerif; font-size: 12px; " text-rendering="auto" >Row 1</text></g><line x1="149.11" y1="-95.14" x2="151.55" y2="-96.89" style="stroke-width: 0.5;stroke: rgb(128,128,128);stroke-opacity: 1.0;" transform="matrix(1,0,0,1,243,163.5)" /><g transform="matrix(0.811663,-0.584126,0.584126,0.811663,330.607644,235.595143)"><text x="155.61" y="-94.84" style="fill: rgb(0,0,0); font-family: SansSerif; font-size: 12px; " text-rendering="auto" >Row 2</text></g><line x1="138.66" y1="-109.67" x2="141.09" y2="-111.42" style="stroke-width: 0.5;stroke: rgb(128,128,128);stroke-opacity: 1.0;" transform="matrix(1,0,0,1,243,163.5)" /><g transform="matrix(0.811663,-0.584126,0.584126,0.811663,337.125011,226.751362)"><text x="145.15" y="-109.37" style="fill: rgb(0,0,0); font-family: SansSerif; font-size: 12px; " text-rendering="auto" >Row 3</text></g><rect x="136" y="313" width="16" height="19" style="fill: rgb(255,255,255);fill-opacity: 1.0" transform="matrix(1,0,0,1,0,0)" /><rect x="-6" y="-4" width="12" height="8" style="fill: rgb(255,248,163);fill-opacity: 1.0" transform="matrix(1,0,0,1,144,322.5)" /><rect x="152" y="313" width="50" height="19" style="fill: rgb(255,255,255);fill-opacity: 1.0" transform="matrix(1,0,0,1,0,0)" /><g transform="matrix(1,0,0,1,0,0)"><text x="154" y="327.47" style="fill: rgb(0,0,0); font-family: Dialog; font-size: 12px; " text-rendering="auto" >Series 1</text></g><rect x="206" y="313" width="16" height="19" style="fill: rgb(255,255,255);fill-opacity: 1.0" transform="matrix(1,0,0,1,0,0)" /><rect x="-6" y="-4" width="12" height="8" style="fill: rgb(169,204,143);fill-opacity: 1.0" transform="matrix(1,0,0,1,214,322.5)" /><rect x="222" y="313" width="50" height="19" style="fill: rgb(255,255,255);fill-opacity: 1.0" transform="matrix(1,0,0,1,0,0)" /><g transform="matrix(1,0,0,1,0,0)"><text x="224" y="327.47" style="fill: rgb(0,0,0); font-family: Dialog; font-size: 12px; " text-rendering="auto" >Series 2</text></g><rect x="278" y="313" width="16" height="19" style="fill: rgb(255,255,255);fill-opacity: 1.0" transform="matrix(1,0,0,1,0,0)" /><rect x="-6" y="-4" width="12" height="8" style="fill: rgb(178,200,217);fill-opacity: 1.0" transform="matrix(1,0,0,1,286,322.5)" /><rect x="294" y="313" width="50" height="19" style="fill: rgb(255,255,255);fill-opacity: 1.0" transform="matrix(1,0,0,1,0,0)" /><g transform="matrix(1,0,0,1,0,0)"><text x="296" y="327.47" style="fill: rgb(0,0,0); font-family: Dialog; font-size: 12px; " text-rendering="auto" >Series 3</text></g><rect x="350" y="313" width="16" height="19" style="fill: rgb(255,255,255);fill-opacity: 1.0" transform="matrix(1,0,0,1,0,0)" /><rect x="-6" y="-4" width="12" height="8" style="fill: rgb(190,163,122);fill-opacity: 1.0" transform="matrix(1,0,0,1,358,322.5)" /><rect x="366" y="313" width="50" height="19" style="fill: rgb(255,255,255);fill-opacity: 1.0" transform="matrix(1,0,0,1,0,0)" /><g transform="matrix(1,0,0,1,0,0)"><text x="368" y="327.47" style="fill: rgb(0,0,0); font-family: Dialog; font-size: 12px; " text-rendering="auto" >Series 4</text></g><rect x="422" y="313" width="16" height="19" style="fill: rgb(255,255,255);fill-opacity: 1.0" transform="matrix(1,0,0,1,0,0)" /><rect x="-6" y="-4" width="12" height="8" style="fill: rgb(243,170,121);fill-opacity: 1.0" transform="matrix(1,0,0,1,430,322.5)" /><rect x="438" y="313" width="50" height="19" style="fill: rgb(255,255,255);fill-opacity: 1.0" transform="matrix(1,0,0,1,0,0)" /><g transform="matrix(1,0,0,1,0,0)"><text x="440" y="327.47" style="fill: rgb(0,0,0); font-family: Dialog; font-size: 12px; " text-rendering="auto" >Series 5</text></g><rect x="251" y="336" width="243" height="17" style="fill: rgb(255,255,255);fill-opacity: 1.0" transform="matrix(1,0,0,1,0,0)" /><g transform="matrix(1,0,0,1,0,0)"><text x="253" y="348.89" style="fill: rgb(0,0,0); font-family: Dialog; font-size: 10px; " text-rendering="auto" >Orson Charts (c) 2013, by Object Refinery Limited</text></g><rect x="6" y="6" width="188" height="29" style="fill: rgb(255,255,255);fill-opacity: 1.0" transform="matrix(1,0,0,1,0,0)" /><g transform="matrix(1,0,0,1,0,0)"><text x="8" y="28.78" style="fill: rgb(0,0,0); font-family: Dialog; font-size: 20px; font-weight: bold; " text-rendering="auto" >Stacked Bar Chart</text></g><rect x="6" y="35" width="146" height="19" style="fill: rgb(255,255,255);fill-opacity: 1.0" transform="matrix(1,0,0,1,0,0)" /><g transform="matrix(1,0,0,1,0,0)"><text x="8" y="49.47" style="fill: rgb(0,0,0); font-family: Dialog; font-size: 12px; " text-rendering="auto" >Put the data source here</text></g></svg>
