<!DOCTYPE svg PUBLIC "-//W3C//DTD SVG 1.1//EN" "http://www.w3.org/Graphics/SVG/1.1/DTD/svg11.dtd">
<svg xmlns="http://www.w3.org/2000/svg" xmlns:xlink="http://www.w3.org/1999/xlink" width="500" height="359">
<defs></defs>
<rect x="0" y="0" width="500" height="359" style="fill: rgb(255,255,255);fill-opacity: 1.0" transform="matrix(1,0,0,1,0,0)" /><g style="fill: rgb(227,227,227);fill-opacity: 1.0; stroke: none" transform="matrix(1,0,0,1,234,177.5)" ><path d="M -107.41 109.65 L -5.78 52.04 L 132.16 58.46 L 39.71 123.81 M -107.41 109.65"/></g><line x1="-73.95" y1="112.87" x2="25.93" y2="53.52" style="stroke-width: 0.5;stroke: rgb(255,255,255);stroke-opacity: 1.0;stroke-dasharray: 3.0, 3.0;" transform="matrix(1,0,0,1,234,177.5)" /><line x1="-37.92" y1="116.34" x2="59.85" y2="55.09" style="stroke-width: 0.5;stroke: rgb(255,255,255);stroke-opacity: 1.0;stroke-dasharray: 3.0, 3.0;" transform="matrix(1,0,0,1,234,177.5)" /><line x1="0.18" y1="120" x2="95.48" y2="56.75" style="stroke-width: 0.5;stroke: rgb(255,255,255);stroke-opacity: 1.0;stroke-dasharray: 3.0, 3.0;" transform="matrix(1,0,0,1,234,177.5)" /><line x1="-79.75" y1="93.97" x2="65.13" y2="105.84" style="stroke-width: 0.5;stroke: rgb(255,255,255);stroke-opacity: 1.0;stroke-dasharray: 3.0, 3.0;" transform="matrix(1,0,0,1,234,177.5)" /><line x1="-53.34" y1="79" x2="89.22" y2="88.81" style="stroke-width: 0.5;stroke: rgb(255,255,255);stroke-opacity: 1.0;stroke-dasharray: 3.0, 3.0;" transform="matrix(1,0,0,1,234,177.5)" /><line x1="-28.58" y1="64.97" x2="111.64" y2="72.96" style="stroke-width: 0.5;stroke: rgb(255,255,255);stroke-opacity: 1.0;stroke-dasharray: 3.0, 3.0;" transform="matrix(1,0,0,1,234,177.5)" /><g style="fill: rgb(205,205,205);fill-opacity: 1.0; stroke: none" transform="matrix(1,0,0,1,234,177.5)" ><path d="M -5.78 52.04 L -32.45 -101.16 L 108.43 -110.7 L 132.16 58.46 M -5.78 52.04"/></g><line x1="-0.16" y1="-103.34" x2="25.93" y2="53.52" style="stroke-width: 0.5;stroke: rgb(255,255,255);stroke-opacity: 1.0;stroke-dasharray: 3.0, 3.0;" transform="matrix(1,0,0,1,234,177.5)" /><line x1="34.45" y1="-105.69" x2="59.85" y2="55.09" style="stroke-width: 0.5;stroke: rgb(255,255,255);stroke-opacity: 1.0;stroke-dasharray: 3.0, 3.0;" transform="matrix(1,0,0,1,234,177.5)" /><line x1="70.86" y1="-108.15" x2="95.48" y2="56.75" style="stroke-width: 0.5;stroke: rgb(255,255,255);stroke-opacity: 1.0;stroke-dasharray: 3.0, 3.0;" transform="matrix(1,0,0,1,234,177.5)" /><line x1="132.16" y1="58.46" x2="-5.78" y2="52.04" style="stroke-width: 0.5;stroke: rgb(255,255,255);stroke-opacity: 1.0;stroke-dasharray: 3.0, 3.0;" transform="matrix(1,0,0,1,234,177.5)" /><line x1="127.79" y1="27.29" x2="-10.71" y2="23.72" style="stroke-width: 0.5;stroke: rgb(255,255,255);stroke-opacity: 1.0;stroke-dasharray: 3.0, 3.0;" transform="matrix(1,0,0,1,234,177.5)" /><line x1="123.35" y1="-4.36" x2="-15.71" y2="-4.99" style="stroke-width: 0.5;stroke: rgb(255,255,255);stroke-opacity: 1.0;stroke-dasharray: 3.0, 3.0;" transform="matrix(1,0,0,1,234,177.5)" /><line x1="118.84" y1="-36.5" x2="-20.78" y2="-34.11" style="stroke-width: 0.5;stroke: rgb(255,255,255);stroke-opacity: 1.0;stroke-dasharray: 3.0, 3.0;" transform="matrix(1,0,0,1,234,177.5)" /><line x1="114.26" y1="-69.15" x2="-25.92" y2="-63.64" style="stroke-width: 0.5;stroke: rgb(255,255,255);stroke-opacity: 1.0;stroke-dasharray: 3.0, 3.0;" transform="matrix(1,0,0,1,234,177.5)" /><line x1="109.61" y1="-102.32" x2="-31.13" y2="-93.6" style="stroke-width: 0.5;stroke: rgb(255,255,255);stroke-opacity: 1.0;stroke-dasharray: 3.0, 3.0;" transform="matrix(1,0,0,1,234,177.5)" /><g style="fill: rgb(111,111,111);fill-opacity: 1.0; stroke: none" transform="matrix(1,0,0,1,234,177.5)" ><path d="M -107.41 109.65 L -142.27 -62.93 L -32.45 -101.16 L -5.78 52.04 M -107.41 109.65"/></g><line x1="-107.41" y1="109.65" x2="-5.78" y2="52.04" style="stroke-width: 0.5;stroke: rgb(255,255,255);stroke-opacity: 1.0;stroke-dasharray: 3.0, 3.0;" transform="matrix(1,0,0,1,234,177.5)" /><line x1="-113.82" y1="77.89" x2="-10.71" y2="23.72" style="stroke-width: 0.5;stroke: rgb(255,255,255);stroke-opacity: 1.0;stroke-dasharray: 3.0, 3.0;" transform="matrix(1,0,0,1,234,177.5)" /><line x1="-120.34" y1="45.62" x2="-15.71" y2="-4.99" style="stroke-width: 0.5;stroke: rgb(255,255,255);stroke-opacity: 1.0;stroke-dasharray: 3.0, 3.0;" transform="matrix(1,0,0,1,234,177.5)" /><line x1="-126.97" y1="12.83" x2="-20.78" y2="-34.11" style="stroke-width: 0.5;stroke: rgb(255,255,255);stroke-opacity: 1.0;stroke-dasharray: 3.0, 3.0;" transform="matrix(1,0,0,1,234,177.5)" /><line x1="-133.7" y1="-20.5" x2="-25.92" y2="-63.64" style="stroke-width: 0.5;stroke: rgb(255,255,255);stroke-opacity: 1.0;stroke-dasharray: 3.0, 3.0;" transform="matrix(1,0,0,1,234,177.5)" /><line x1="-140.54" y1="-54.37" x2="-31.13" y2="-93.6" style="stroke-width: 0.5;stroke: rgb(255,255,255);stroke-opacity: 1.0;stroke-dasharray: 3.0, 3.0;" transform="matrix(1,0,0,1,234,177.5)" /><line x1="-79.75" y1="93.97" x2="-112.27" y2="-73.37" style="stroke-width: 0.5;stroke: rgb(255,255,255);stroke-opacity: 1.0;stroke-dasharray: 3.0, 3.0;" transform="matrix(1,0,0,1,234,177.5)" /><line x1="-53.34" y1="79" x2="-83.7" y2="-83.32" style="stroke-width: 0.5;stroke: rgb(255,255,255);stroke-opacity: 1.0;stroke-dasharray: 3.0, 3.0;" transform="matrix(1,0,0,1,234,177.5)" /><line x1="-28.58" y1="64.97" x2="-56.99" y2="-92.62" style="stroke-width: 0.5;stroke: rgb(255,255,255);stroke-opacity: 1.0;stroke-dasharray: 3.0, 3.0;" transform="matrix(1,0,0,1,234,177.5)" /><g style="fill: rgb(205,205,0);fill-opacity: 1.0; stroke: none" transform="matrix(1,0,0,1,234,177.5)" ><path d="M 49.01 57.2 L -4.14 54.63 L -29.69 -92.39 L 24.43 -95.69 M 49.01 57.2"/></g><g style="fill: rgb(111,111,0);fill-opacity: 1.0; stroke: none" transform="matrix(1,0,0,1,234,177.5)" ><path d="M -42.41 76.51 L -70.79 -77.56 L -29.69 -92.39 L -4.14 54.63 M -42.41 76.51"/></g><g style="fill: rgb(227,227,0);fill-opacity: 1.0; stroke: none" transform="matrix(1,0,0,1,234,177.5)" ><path d="M -4.14 54.63 L 49.01 57.2 L 12.02 80.12 L -42.41 76.51 M -4.14 54.63"/></g><g style="fill: rgb(227,227,0);fill-opacity: 1.0; stroke: none" transform="matrix(1,0,0,1,234,177.5)" ><path d="M -29.69 -92.39 L 24.43 -95.69 L -15.41 -80.41 L -70.79 -77.56 M -29.69 -92.39"/></g><g style="fill: rgb(111,111,0);fill-opacity: 1.0; stroke: none" transform="matrix(1,0,0,1,234,177.5)" ><path d="M -15.41 -80.41 L 24.43 -95.69 L 49.01 57.2 L 12.02 80.12 M -15.41 -80.41"/></g><g style="fill: rgb(0,0,205);fill-opacity: 1.0; stroke: none" transform="matrix(1,0,0,1,234,177.5)" ><path d="M 121.59 60.72 L 62.95 57.88 L 43.66 -64.73 L 103.33 -67.01 M 121.59 60.72"/></g><g style="fill: rgb(205,205,0);fill-opacity: 1.0; stroke: none" transform="matrix(1,0,0,1,234,177.5)" ><path d="M -70.79 -77.56 L -15.41 -80.41 L 12.02 80.12 L -42.41 76.51 M -70.79 -77.56"/></g><g style="fill: rgb(0,0,111);fill-opacity: 1.0; stroke: none" transform="matrix(1,0,0,1,234,177.5)" ><path d="M 26.34 81.07 L 4.79 -47.67 L 43.66 -64.73 L 62.95 57.88 M 26.34 81.07"/></g><g style="fill: rgb(205,0,0);fill-opacity: 1.0; stroke: none" transform="matrix(1,0,0,1,234,177.5)" ><path d="M 2.14 86.24 L -52.6 82.34 L -66.9 5.85 L -11.69 6.57 M 2.14 86.24"/></g><g style="fill: rgb(0,0,227);fill-opacity: 1.0; stroke: none" transform="matrix(1,0,0,1,234,177.5)" ><path d="M 62.95 57.88 L 121.59 60.72 L 86.71 85.08 L 26.34 81.07 M 62.95 57.88"/></g><g style="fill: rgb(111,0,0);fill-opacity: 1.0; stroke: none" transform="matrix(1,0,0,1,234,177.5)" ><path d="M -96.19 107.25 L -112.17 26.96 L -66.9 5.85 L -52.6 82.34 M -96.19 107.25"/></g><g style="fill: rgb(227,0,0);fill-opacity: 1.0; stroke: none" transform="matrix(1,0,0,1,234,177.5)" ><path d="M -52.6 82.34 L 2.14 86.24 L -40.21 112.49 L -96.19 107.25 M -52.6 82.34"/></g><g style="fill: rgb(0,0,227);fill-opacity: 1.0; stroke: none" transform="matrix(1,0,0,1,234,177.5)" ><path d="M 43.66 -64.73 L 103.33 -67.01 L 66.21 -49.32 L 4.79 -47.67 M 43.66 -64.73"/></g><g style="fill: rgb(227,0,0);fill-opacity: 1.0; stroke: none" transform="matrix(1,0,0,1,234,177.5)" ><path d="M -66.9 5.85 L -11.69 6.57 L -55.74 28.68 L -112.17 26.96 M -66.9 5.85"/></g><g style="fill: rgb(0,0,111);fill-opacity: 1.0; stroke: none" transform="matrix(1,0,0,1,234,177.5)" ><path d="M 66.21 -49.32 L 103.33 -67.01 L 121.59 60.72 L 86.71 85.08 M 66.21 -49.32"/></g><g style="fill: rgb(0,0,205);fill-opacity: 1.0; stroke: none" transform="matrix(1,0,0,1,234,177.5)" ><path d="M 4.79 -47.67 L 66.21 -49.32 L 86.71 85.08 L 26.34 81.07 M 4.79 -47.67"/></g><g style="fill: rgb(111,0,0);fill-opacity: 1.0; stroke: none" transform="matrix(1,0,0,1,234,177.5)" ><path d="M -55.74 28.68 L -11.69 6.57 L 2.14 86.24 L -40.21 112.49 M -55.74 28.68"/></g><g style="fill: rgb(205,0,0);fill-opacity: 1.0; stroke: none" transform="matrix(1,0,0,1,234,177.5)" ><path d="M -112.17 26.96 L -55.74 28.68 L -40.21 112.49 L -96.19 107.25 M -112.17 26.96"/></g><line x1="-107.41" y1="109.65" x2="39.71" y2="123.81" style="stroke-width: 1.0;stroke: rgb(128,128,128);stroke-opacity: 1.0;" transform="matrix(1,0,0,1,234,177.5)" /><line x1="-73.95" y1="112.87" x2="-74.24" y2="115.86" style="stroke-width: 0.5;stroke: rgb(128,128,128);stroke-opacity: 1.0;" transform="matrix(1,0,0,1,234,177.5)" /><g transform="matrix(0.095753,-0.995405,0.995405,0.095753,46.158983,212.391263)"><text x="-94.72" y="125.8" style="fill: rgb(0,0,0); font-family: SansSerif; font-size: 12px; " text-rendering="auto" >1.0</text></g><line x1="-37.92" y1="116.34" x2="-38.21" y2="119.32" style="stroke-width: 0.5;stroke: rgb(128,128,128);stroke-opacity: 1.0;" transform="matrix(1,0,0,1,234,177.5)" /><g transform="matrix(0.095753,-0.995405,0.995405,0.095753,75.289419,251.390329)"><text x="-58.69" y="129.27" style="fill: rgb(0,0,0); font-family: SansSerif; font-size: 12px; " text-rendering="auto" >1.5</text></g><line x1="0.18" y1="120" x2="-0.1" y2="122.99" style="stroke-width: 0.5;stroke: rgb(128,128,128);stroke-opacity: 1.0;" transform="matrix(1,0,0,1,234,177.5)" /><g transform="matrix(0.095753,-0.995405,0.995405,0.095753,106.095616,292.632836)"><text x="-20.58" y="132.93" style="fill: rgb(0,0,0); font-family: SansSerif; font-size: 12px; " text-rendering="auto" >2.0</text></g><g transform="matrix(0.995405,0.095753,-0.095753,0.995405,248.626852,181.799582)"><text x="-41.49" y="159.52" style="fill: rgb(0,0,0); font-family: SansSerif; font-size: 12px; font-weight: bold; " text-rendering="auto" >X</text></g><line x1="-107.41" y1="109.65" x2="-142.27" y2="-62.93" style="stroke-width: 1.0;stroke: rgb(128,128,128);stroke-opacity: 1.0;" transform="matrix(1,0,0,1,234,177.5)" /><line x1="-107.41" y1="109.65" x2="-110.35" y2="110.25" style="stroke-width: 0.5;stroke: rgb(128,128,128);stroke-opacity: 1.0;" transform="matrix(1,0,0,1,234,177.5)" /><g transform="matrix(0.980204,-0.197989,0.197989,0.980204,209.694988,156.883917)"><text x="-123.25" y="116.21" style="fill: rgb(0,0,0); font-family: SansSerif; font-size: 12px; " text-rendering="auto" >0</text></g><line x1="-113.82" y1="77.89" x2="-116.76" y2="78.48" style="stroke-width: 0.5;stroke: rgb(128,128,128);stroke-opacity: 1.0;" transform="matrix(1,0,0,1,234,177.5)" /><g transform="matrix(0.980204,-0.197989,0.197989,0.980204,215.856692,154.984911)"><text x="-129.67" y="84.44" style="fill: rgb(0,0,0); font-family: SansSerif; font-size: 12px; " text-rendering="auto" >2</text></g><line x1="-120.34" y1="45.62" x2="-123.28" y2="46.21" style="stroke-width: 0.5;stroke: rgb(128,128,128);stroke-opacity: 1.0;" transform="matrix(1,0,0,1,234,177.5)" /><g transform="matrix(0.980204,-0.197989,0.197989,0.980204,222.117053,153.055499)"><text x="-136.18" y="52.17" style="fill: rgb(0,0,0); font-family: SansSerif; font-size: 12px; " text-rendering="auto" >4</text></g><line x1="-126.97" y1="12.83" x2="-129.91" y2="13.42" style="stroke-width: 0.5;stroke: rgb(128,128,128);stroke-opacity: 1.0;" transform="matrix(1,0,0,1,234,177.5)" /><g transform="matrix(0.980204,-0.197989,0.197989,0.980204,228.478461,151.094942)"><text x="-142.81" y="19.38" style="fill: rgb(0,0,0); font-family: SansSerif; font-size: 12px; " text-rendering="auto" >6</text></g><line x1="-133.7" y1="-20.5" x2="-136.64" y2="-19.91" style="stroke-width: 0.5;stroke: rgb(128,128,128);stroke-opacity: 1.0;" transform="matrix(1,0,0,1,234,177.5)" /><g transform="matrix(0.980204,-0.197989,0.197989,0.980204,234.943381,149.102485)"><text x="-149.54" y="-13.95" style="fill: rgb(0,0,0); font-family: SansSerif; font-size: 12px; " text-rendering="auto" >8</text></g><line x1="-140.54" y1="-54.37" x2="-143.48" y2="-53.78" style="stroke-width: 0.5;stroke: rgb(128,128,128);stroke-opacity: 1.0;" transform="matrix(1,0,0,1,234,177.5)" /><g transform="matrix(0.980204,-0.197989,0.197989,0.980204,241.514361,147.077342)"><text x="-164.38" y="-47.82" style="fill: rgb(0,0,0); font-family: SansSerif; font-size: 12px; " text-rendering="auto" >10</text></g><g transform="matrix(0.197989,0.980204,-0.980204,0.197989,136.648416,356.669004)"><text x="-175.16" y="35.06" style="fill: rgb(0,0,0); font-family: SansSerif; font-size: 12px; font-weight: bold; " text-rendering="auto" >Value</text></g><line x1="-142.27" y1="-62.93" x2="-32.45" y2="-101.16" style="stroke-width: 1.0;stroke: rgb(128,128,128);stroke-opacity: 1.0;" transform="matrix(1,0,0,1,234,177.5)" /><line x1="-112.27" y1="-73.37" x2="-113.26" y2="-76.2" style="stroke-width: 0.5;stroke: rgb(128,128,128);stroke-opacity: 1.0;" transform="matrix(1,0,0,1,234,177.5)" /><g transform="matrix(0.328771,0.94441,-0.94441,0.328771,80.448209,231.69274)"><text x="-134.9" y="-75.96" style="fill: rgb(0,0,0); font-family: SansSerif; font-size: 12px; " text-rendering="auto" >1.0</text></g><line x1="-83.7" y1="-83.32" x2="-84.69" y2="-86.15" style="stroke-width: 0.5;stroke: rgb(128,128,128);stroke-opacity: 1.0;" transform="matrix(1,0,0,1,234,177.5)" /><g transform="matrix(0.328771,0.94441,-0.94441,0.328771,90.23225,198.034883)"><text x="-106.33" y="-85.9" style="fill: rgb(0,0,0); font-family: SansSerif; font-size: 12px; " text-rendering="auto" >1.5</text></g><line x1="-56.99" y1="-92.62" x2="-57.98" y2="-95.45" style="stroke-width: 0.5;stroke: rgb(128,128,128);stroke-opacity: 1.0;" transform="matrix(1,0,0,1,234,177.5)" /><g transform="matrix(0.328771,0.94441,-0.94441,0.328771,99.379329,166.56822)"><text x="-79.62" y="-95.2" style="fill: rgb(0,0,0); font-family: SansSerif; font-size: 12px; " text-rendering="auto" >2.0</text></g><g transform="matrix(0.94441,-0.328771,0.328771,0.94441,267.221568,138.11596)"><text x="-103.85" y="-112.96" style="fill: rgb(0,0,0); font-family: SansSerif; font-size: 12px; font-weight: bold; " text-rendering="auto" >Z</text></g><rect x="255" y="313" width="16" height="19" style="fill: rgb(255,255,255);fill-opacity: 1.0" transform="matrix(1,0,0,1,0,0)" /><rect x="-6" y="-4" width="12" height="8" style="fill: rgb(255,0,0);fill-opacity: 1.0" transform="matrix(1,0,0,1,263,322.5)" /><rect x="271" y="313" width="50" height="19" style="fill: rgb(255,255,255);fill-opacity: 1.0" transform="matrix(1,0,0,1,0,0)" /><g transform="matrix(1,0,0,1,0,0)"><text x="273" y="327.47" style="fill: rgb(0,0,0); font-family: Dialog; font-size: 12px; " text-rendering="auto" >Series 1</text></g><rect x="325" y="313" width="16" height="19" style="fill: rgb(255,255,255);fill-opacity: 1.0" transform="matrix(1,0,0,1,0,0)" /><rect x="-6" y="-4" width="12" height="8" style="fill: rgb(0,0,255);fill-opacity: 1.0" transform="matrix(1,0,0,1,333,322.5)" /><rect x="341" y="313" width="50" height="19" style="fill: rgb(255,255,255);fill-opacity: 1.0" transform="matrix(1,0,0,1,0,0)" /><g transform="matrix(1,0,0,1,0,0)"><text x="343" y="327.47" style="fill: rgb(0,0,0); font-family: Dialog; font-size: 12px; " text-rendering="auto" >Series 2</text></g><rect x="397" y="313" width="16" height="19" style="fill: rgb(255,255,255);fill-opacity: 1.0" transform="matrix(1,0,0,1,0,0)" /><rect x="-6" y="-4" width="12" height="8" style="fill: rgb(255,255,0);fill-opacity: 1.0" transform="matrix(1,0,0,1,405,322.5)" /><rect x="413" y="313" width="50" height="19" style="fill: rgb(255,255,255);fill-opacity: 1.0" transform="matrix(1,0,0,1,0,0)" /><g transform="matrix(1,0,0,1,0,0)"><text x="415" y="327.47" style="fill: rgb(0,0,0); font-family: Dialog; font-size: 12px; " text-rendering="auto" >Series 3</text></g><rect x="251" y="336" width="243" height="17" style="fill: rgb(255,255,255);fill-opacity: 1.0" transform="matrix(1,0,0,1,0,0)" /><g transform="matrix(1,0,0,1,0,0)"><text x="253" y="348.89" style="fill: rgb(0,0,0); font-family: Dialog; font-size: 10px; " text-rendering="auto" >Orson Charts (c) 2013, by Object Refinery Limited</text></g><rect x="6" y="6" width="236" height="29" style="fill: rgb(255,255,255);fill-opacity: 1.0" transform="matrix(1,0,0,1,0,0)" /><g transform="matrix(1,0,0,1,0,0)"><text x="8" y="28.78" style="fill: rgb(0,0,0); font-family: Dialog; font-size: 20px; font-weight: bold; " text-rendering="auto" >XYZBarChart3DDemo1</text></g><rect x="6" y="35" width="189" height="19" style="fill: rgb(255,255,255);fill-opacity: 1.0" transform="matrix(1,0,0,1,0,0)" /><g transform="matrix(1,0,0,1,0,0)"><text x="8" y="49.47" style="fill: rgb(0,0,0); font-family: Dialog; font-size: 12px; " text-rendering="auto" >Chart created with Orson Charts</text></g></svg>
