<!DOCTYPE svg PUBLIC "-//W3C//DTD SVG 1.1//EN" "http://www.w3.org/Graphics/SVG/1.1/DTD/svg11.dtd">
<svg xmlns="http://www.w3.org/2000/svg" xmlns:xlink="http://www.w3.org/1999/xlink" width="500" height="359">
<defs></defs>
<rect x="0" y="0" width="500" height="359" style="fill: rgb(255,255,255);fill-opacity: 1.0" transform="matrix(1,0,0,1,0,0)" /><g style="fill: rgb(211,211,211);fill-opacity: 1.0; stroke: none" transform="matrix(1,0,0,1,261,153.5)" ><path d="M -176.6 94.56 L -197.64 42.95 L 127.43 37.03 L 184.1 81.74 M -176.6 94.56"/></g><g style="fill: rgb(147,147,147);fill-opacity: 1.0; stroke: none" transform="matrix(1,0,0,1,261,153.5)" ><path d="M -197.64 42.95 L -191.97 -85.23 L 143.98 -77.09 L 127.43 37.03 M -197.64 42.95"/></g><line x1="127.43" y1="37.03" x2="-197.64" y2="42.95" style="stroke-width: 0.5;stroke: rgb(255,255,255);stroke-opacity: 1.0;stroke-dasharray: 3.0, 3.0;" transform="matrix(1,0,0,1,261,153.5)" /><line x1="130.24" y1="17.65" x2="-196.68" y2="21.27" style="stroke-width: 0.5;stroke: rgb(255,255,255);stroke-opacity: 1.0;stroke-dasharray: 3.0, 3.0;" transform="matrix(1,0,0,1,261,153.5)" /><line x1="133.09" y1="-1.96" x2="-195.71" y2="-0.71" style="stroke-width: 0.5;stroke: rgb(255,255,255);stroke-opacity: 1.0;stroke-dasharray: 3.0, 3.0;" transform="matrix(1,0,0,1,261,153.5)" /><line x1="135.96" y1="-21.81" x2="-194.72" y2="-23" style="stroke-width: 0.5;stroke: rgb(255,255,255);stroke-opacity: 1.0;stroke-dasharray: 3.0, 3.0;" transform="matrix(1,0,0,1,261,153.5)" /><line x1="138.88" y1="-41.9" x2="-193.72" y2="-45.58" style="stroke-width: 0.5;stroke: rgb(255,255,255);stroke-opacity: 1.0;stroke-dasharray: 3.0, 3.0;" transform="matrix(1,0,0,1,261,153.5)" /><line x1="141.83" y1="-62.24" x2="-192.71" y2="-68.49" style="stroke-width: 0.5;stroke: rgb(255,255,255);stroke-opacity: 1.0;stroke-dasharray: 3.0, 3.0;" transform="matrix(1,0,0,1,261,153.5)" /><g style="fill: rgb(221,221,221);fill-opacity: 1.0; stroke: none" transform="matrix(1,0,0,1,261,153.5)" ><path d="M 127.43 37.03 L 143.98 -77.09 L 204.93 -44.54 L 184.1 81.74 M 127.43 37.03"/></g><line x1="184.1" y1="81.74" x2="127.43" y2="37.03" style="stroke-width: 0.5;stroke: rgb(255,255,255);stroke-opacity: 1.0;stroke-dasharray: 3.0, 3.0;" transform="matrix(1,0,0,1,261,153.5)" /><line x1="187.63" y1="60.37" x2="130.24" y2="17.65" style="stroke-width: 0.5;stroke: rgb(255,255,255);stroke-opacity: 1.0;stroke-dasharray: 3.0, 3.0;" transform="matrix(1,0,0,1,261,153.5)" /><line x1="191.2" y1="38.72" x2="133.09" y2="-1.96" style="stroke-width: 0.5;stroke: rgb(255,255,255);stroke-opacity: 1.0;stroke-dasharray: 3.0, 3.0;" transform="matrix(1,0,0,1,261,153.5)" /><line x1="194.82" y1="16.77" x2="135.96" y2="-21.81" style="stroke-width: 0.5;stroke: rgb(255,255,255);stroke-opacity: 1.0;stroke-dasharray: 3.0, 3.0;" transform="matrix(1,0,0,1,261,153.5)" /><line x1="198.49" y1="-5.48" x2="138.88" y2="-41.9" style="stroke-width: 0.5;stroke: rgb(255,255,255);stroke-opacity: 1.0;stroke-dasharray: 3.0, 3.0;" transform="matrix(1,0,0,1,261,153.5)" /><line x1="202.21" y1="-28.04" x2="141.83" y2="-62.24" style="stroke-width: 0.5;stroke: rgb(255,255,255);stroke-opacity: 1.0;stroke-dasharray: 3.0, 3.0;" transform="matrix(1,0,0,1,261,153.5)" /><g style="fill: rgb(102,115,125);fill-opacity: 1.0; stroke: none" transform="matrix(1,0,0,1,261,153.5)" ><path d="M 96.47 49.38 L 108.71 -40.67 L 137.29 -23.07 L 126.85 48.7 M 96.47 49.38"/></g><g style="stroke-width: 1.2;stroke: rgb(102,115,125);stroke-opacity: 1.0;; fill: none" transform="matrix(1,0,0,1,261,153.5)" ><path d="M 96.47 49.38 L 108.71 -40.67 L 137.29 -23.07 L 126.85 48.7 M 96.47 49.38"/></g><g style="fill: rgb(110,124,134);fill-opacity: 1.0; stroke: none" transform="matrix(1,0,0,1,261,153.5)" ><path d="M 108.71 -40.67 L 100.97 -45.73 L 129.2 -28.33 L 137.29 -23.07 M 108.71 -40.67"/></g><g style="stroke-width: 1.2;stroke: rgb(110,124,134);stroke-opacity: 1.0;; fill: none" transform="matrix(1,0,0,1,261,153.5)" ><path d="M 108.71 -40.67 L 100.97 -45.73 L 129.2 -28.33 L 137.29 -23.07 M 108.71 -40.67"/></g><g style="fill: rgb(102,115,125);fill-opacity: 1.0; stroke: none" transform="matrix(1,0,0,1,261,153.5)" ><path d="M 65.39 50.08 L 79.87 -64.6 L 108.71 -40.67 L 96.47 49.38 M 65.39 50.08"/></g><g style="stroke-width: 1.2;stroke: rgb(102,115,125);stroke-opacity: 1.0;; fill: none" transform="matrix(1,0,0,1,261,153.5)" ><path d="M 65.39 50.08 L 79.87 -64.6 L 108.71 -40.67 L 96.47 49.38 M 65.39 50.08"/></g><g style="fill: rgb(102,115,125);fill-opacity: 1.0; stroke: none" transform="matrix(1,0,0,1,261,153.5)" ><path d="M 33.6 50.8 L 42.41 -24.91 L 79.87 -64.6 L 65.39 50.08 M 33.6 50.8"/></g><g style="stroke-width: 1.2;stroke: rgb(102,115,125);stroke-opacity: 1.0;; fill: none" transform="matrix(1,0,0,1,261,153.5)" ><path d="M 33.6 50.8 L 42.41 -24.91 L 79.87 -64.6 L 65.39 50.08 M 33.6 50.8"/></g><g style="fill: rgb(137,166,116);fill-opacity: 1.0; stroke: none" transform="matrix(1,0,0,1,261,153.5)" ><path d="M 117.96 19.84 L 109.91 13.66 L 140.87 14.59 L 149.35 20.71 M 117.96 19.84"/></g><g style="stroke-width: 1.2;stroke: rgb(137,166,116);stroke-opacity: 1.0;; fill: none" transform="matrix(1,0,0,1,261,153.5)" ><path d="M 117.96 19.84 L 109.91 13.66 L 140.87 14.59 L 149.35 20.71 M 117.96 19.84"/></g><g style="fill: rgb(97,117,82);fill-opacity: 1.0; stroke: none" transform="matrix(1,0,0,1,261,153.5)" ><path d="M 111.89 62.8 L 117.96 19.84 L 149.35 20.71 L 143.12 61.94 M 111.89 62.8"/></g><g style="stroke-width: 1.2;stroke: rgb(97,117,82);stroke-opacity: 1.0;; fill: none" transform="matrix(1,0,0,1,261,153.5)" ><path d="M 111.89 62.8 L 117.96 19.84 L 149.35 20.71 L 143.12 61.94 M 111.89 62.8"/></g><g style="fill: rgb(176,198,215);fill-opacity: 1.0; stroke: none" transform="matrix(1,0,0,1,261,153.5)" ><path d="M 42.41 -24.91 L 35.65 -30.33 L 72.48 -69.34 L 79.87 -64.6 M 42.41 -24.91"/></g><g style="stroke-width: 1.2;stroke: rgb(176,198,215);stroke-opacity: 1.0;; fill: none" transform="matrix(1,0,0,1,261,153.5)" ><path d="M 42.41 -24.91 L 35.65 -30.33 L 72.48 -69.34 L 79.87 -64.6 M 42.41 -24.91"/></g><g style="fill: rgb(102,115,125);fill-opacity: 1.0; stroke: none" transform="matrix(1,0,0,1,261,153.5)" ><path d="M 1.06 51.53 L 8.97 -22.88 L 42.41 -24.91 L 33.6 50.8 M 1.06 51.53"/></g><g style="stroke-width: 1.2;stroke: rgb(102,115,125);stroke-opacity: 1.0;; fill: none" transform="matrix(1,0,0,1,261,153.5)" ><path d="M 1.06 51.53 L 8.97 -22.88 L 42.41 -24.91 L 33.6 50.8 M 1.06 51.53"/></g><g style="fill: rgb(151,170,185);fill-opacity: 1.0; stroke: none" transform="matrix(1,0,0,1,261,153.5)" ><path d="M 8.97 -22.88 L 2.71 -28.4 L 35.65 -30.33 L 42.41 -24.91 M 8.97 -22.88"/></g><g style="stroke-width: 1.2;stroke: rgb(151,170,185);stroke-opacity: 1.0;; fill: none" transform="matrix(1,0,0,1,261,153.5)" ><path d="M 8.97 -22.88 L 2.71 -28.4 L 35.65 -30.33 L 42.41 -24.91 M 8.97 -22.88"/></g><g style="fill: rgb(136,164,115);fill-opacity: 1.0; stroke: none" transform="matrix(1,0,0,1,261,153.5)" ><path d="M 85.9 18.14 L 78.31 11.91 L 109.91 13.66 L 117.96 19.84 M 85.9 18.14"/></g><g style="stroke-width: 1.2;stroke: rgb(136,164,115);stroke-opacity: 1.0;; fill: none" transform="matrix(1,0,0,1,261,153.5)" ><path d="M 85.9 18.14 L 78.31 11.91 L 109.91 13.66 L 117.96 19.84 M 85.9 18.14"/></g><g style="fill: rgb(97,117,82);fill-opacity: 1.0; stroke: none" transform="matrix(1,0,0,1,261,153.5)" ><path d="M 79.92 63.69 L 85.9 18.14 L 117.96 19.84 L 111.89 62.8 M 79.92 63.69"/></g><g style="stroke-width: 1.2;stroke: rgb(97,117,82);stroke-opacity: 1.0;; fill: none" transform="matrix(1,0,0,1,261,153.5)" ><path d="M 79.92 63.69 L 85.9 18.14 L 117.96 19.84 L 111.89 62.8 M 79.92 63.69"/></g><g style="fill: rgb(102,115,125);fill-opacity: 1.0; stroke: none" transform="matrix(1,0,0,1,261,153.5)" ><path d="M -32.24 52.28 L -24.13 -32.29 L 8.97 -22.88 L 1.06 51.53 M -32.24 52.28"/></g><g style="stroke-width: 1.2;stroke: rgb(102,115,125);stroke-opacity: 1.0;; fill: none" transform="matrix(1,0,0,1,261,153.5)" ><path d="M -32.24 52.28 L -24.13 -32.29 L 8.97 -22.88 L 1.06 51.53 M -32.24 52.28"/></g><g style="fill: rgb(157,190,133);fill-opacity: 1.0; stroke: none" transform="matrix(1,0,0,1,261,153.5)" ><path d="M 51.34 30.33 L 44.28 23.84 L 78.31 11.91 L 85.9 18.14 M 51.34 30.33"/></g><g style="stroke-width: 1.2;stroke: rgb(157,190,133);stroke-opacity: 1.0;; fill: none" transform="matrix(1,0,0,1,261,153.5)" ><path d="M 51.34 30.33 L 44.28 23.84 L 78.31 11.91 L 85.9 18.14 M 51.34 30.33"/></g><g style="fill: rgb(128,144,157);fill-opacity: 1.0; stroke: none" transform="matrix(1,0,0,1,261,153.5)" ><path d="M -24.13 -32.29 L -29.9 -37.72 L 2.71 -28.4 L 8.97 -22.88 M -24.13 -32.29"/></g><g style="stroke-width: 1.2;stroke: rgb(128,144,157);stroke-opacity: 1.0;; fill: none" transform="matrix(1,0,0,1,261,153.5)" ><path d="M -24.13 -32.29 L -29.9 -37.72 L 2.71 -28.4 L 8.97 -22.88 M -24.13 -32.29"/></g><g style="fill: rgb(97,117,82);fill-opacity: 1.0; stroke: none" transform="matrix(1,0,0,1,261,153.5)" ><path d="M 47.19 64.59 L 51.34 30.33 L 85.9 18.14 L 79.92 63.69 M 47.19 64.59"/></g><g style="stroke-width: 1.2;stroke: rgb(97,117,82);stroke-opacity: 1.0;; fill: none" transform="matrix(1,0,0,1,261,153.5)" ><path d="M 47.19 64.59 L 51.34 30.33 L 85.9 18.14 L 79.92 63.69 M 47.19 64.59"/></g><g style="fill: rgb(212,206,135);fill-opacity: 1.0; stroke: none" transform="matrix(1,0,0,1,261,153.5)" ><path d="M 132.82 47.1 L 124.27 40.25 L 156.23 39.34 L 165.24 46.1 M 132.82 47.1"/></g><g style="stroke-width: 1.2;stroke: rgb(212,206,135);stroke-opacity: 1.0;; fill: none" transform="matrix(1,0,0,1,261,153.5)" ><path d="M 132.82 47.1 L 124.27 40.25 L 156.23 39.34 L 165.24 46.1 M 132.82 47.1"/></g><g style="fill: rgb(131,159,111);fill-opacity: 1.0; stroke: none" transform="matrix(1,0,0,1,261,153.5)" ><path d="M 18 26.35 L 11.43 19.84 L 44.28 23.84 L 51.34 30.33 M 18 26.35"/></g><g style="stroke-width: 1.2;stroke: rgb(131,159,111);stroke-opacity: 1.0;; fill: none" transform="matrix(1,0,0,1,261,153.5)" ><path d="M 18 26.35 L 11.43 19.84 L 44.28 23.84 L 51.34 30.33 M 18 26.35"/></g><g style="fill: rgb(102,115,125);fill-opacity: 1.0; stroke: none" transform="matrix(1,0,0,1,261,153.5)" ><path d="M -66.34 53.05 L -57.67 -48.6 L -24.13 -32.29 L -32.24 52.28 M -66.34 53.05"/></g><g style="stroke-width: 1.2;stroke: rgb(102,115,125);stroke-opacity: 1.0;; fill: none" transform="matrix(1,0,0,1,261,153.5)" ><path d="M -66.34 53.05 L -57.67 -48.6 L -24.13 -32.29 L -32.24 52.28 M -66.34 53.05"/></g><g style="fill: rgb(147,143,94);fill-opacity: 1.0; stroke: none" transform="matrix(1,0,0,1,261,153.5)" ><path d="M 128.4 77.17 L 132.82 47.1 L 165.24 46.1 L 160.52 76.11 M 128.4 77.17"/></g><g style="stroke-width: 1.2;stroke: rgb(147,143,94);stroke-opacity: 1.0;; fill: none" transform="matrix(1,0,0,1,261,153.5)" ><path d="M 128.4 77.17 L 132.82 47.1 L 165.24 46.1 L 160.52 76.11 M 128.4 77.17"/></g><g style="fill: rgb(97,117,82);fill-opacity: 1.0; stroke: none" transform="matrix(1,0,0,1,261,153.5)" ><path d="M 13.67 65.52 L 18 26.35 L 51.34 30.33 L 47.19 64.59 M 13.67 65.52"/></g><g style="stroke-width: 1.2;stroke: rgb(97,117,82);stroke-opacity: 1.0;; fill: none" transform="matrix(1,0,0,1,261,153.5)" ><path d="M 13.67 65.52 L 18 26.35 L 51.34 30.33 L 47.19 64.59 M 13.67 65.52"/></g><g style="fill: rgb(115,129,140);fill-opacity: 1.0; stroke: none" transform="matrix(1,0,0,1,261,153.5)" ><path d="M -57.67 -48.6 L -62.94 -53.83 L -29.9 -37.72 L -24.13 -32.29 M -57.67 -48.6"/></g><g style="stroke-width: 1.2;stroke: rgb(115,129,140);stroke-opacity: 1.0;; fill: none" transform="matrix(1,0,0,1,261,153.5)" ><path d="M -57.67 -48.6 L -62.94 -53.83 L -29.9 -37.72 L -24.13 -32.29 M -57.67 -48.6"/></g><g style="fill: rgb(208,203,133);fill-opacity: 1.0; stroke: none" transform="matrix(1,0,0,1,261,153.5)" ><path d="M 99.79 46.84 L 91.71 39.91 L 124.27 40.25 L 132.82 47.1 M 99.79 46.84"/></g><g style="stroke-width: 1.2;stroke: rgb(208,203,133);stroke-opacity: 1.0;; fill: none" transform="matrix(1,0,0,1,261,153.5)" ><path d="M 99.79 46.84 L 91.71 39.91 L 124.27 40.25 L 132.82 47.1 M 99.79 46.84"/></g><g style="fill: rgb(102,115,125);fill-opacity: 1.0; stroke: none" transform="matrix(1,0,0,1,261,153.5)" ><path d="M -101.26 53.84 L -96.64 -8.17 L -57.67 -48.6 L -66.34 53.05 M -101.26 53.84"/></g><g style="stroke-width: 1.2;stroke: rgb(102,115,125);stroke-opacity: 1.0;; fill: none" transform="matrix(1,0,0,1,261,153.5)" ><path d="M -101.26 53.84 L -96.64 -8.17 L -57.67 -48.6 L -66.34 53.05 M -101.26 53.84"/></g><g style="fill: rgb(142,172,120);fill-opacity: 1.0; stroke: none" transform="matrix(1,0,0,1,261,153.5)" ><path d="M -16.86 28.27 L -22.88 21.65 L 11.43 19.84 L 18 26.35 M -16.86 28.27"/></g><g style="stroke-width: 1.2;stroke: rgb(142,172,120);stroke-opacity: 1.0;; fill: none" transform="matrix(1,0,0,1,261,153.5)" ><path d="M -16.86 28.27 L -22.88 21.65 L 11.43 19.84 L 18 26.35 M -16.86 28.27"/></g><g style="fill: rgb(147,143,94);fill-opacity: 1.0; stroke: none" transform="matrix(1,0,0,1,261,153.5)" ><path d="M 95.49 78.26 L 99.79 46.84 L 132.82 47.1 L 128.4 77.17 M 95.49 78.26"/></g><g style="stroke-width: 1.2;stroke: rgb(147,143,94);stroke-opacity: 1.0;; fill: none" transform="matrix(1,0,0,1,261,153.5)" ><path d="M 95.49 78.26 L 99.79 46.84 L 132.82 47.1 L 128.4 77.17 M 95.49 78.26"/></g><g style="fill: rgb(176,198,215);fill-opacity: 1.0; stroke: none" transform="matrix(1,0,0,1,261,153.5)" ><path d="M -96.64 -8.17 L -101.23 -14.11 L -62.94 -53.83 L -57.67 -48.6 M -96.64 -8.17"/></g><g style="stroke-width: 1.2;stroke: rgb(176,198,215);stroke-opacity: 1.0;; fill: none" transform="matrix(1,0,0,1,261,153.5)" ><path d="M -96.64 -8.17 L -101.23 -14.11 L -62.94 -53.83 L -57.67 -48.6 M -96.64 -8.17"/></g><g style="fill: rgb(97,117,82);fill-opacity: 1.0; stroke: none" transform="matrix(1,0,0,1,261,153.5)" ><path d="M -20.68 66.46 L -16.86 28.27 L 18 26.35 L 13.67 65.52 M -20.68 66.46"/></g><g style="stroke-width: 1.2;stroke: rgb(97,117,82);stroke-opacity: 1.0;; fill: none" transform="matrix(1,0,0,1,261,153.5)" ><path d="M -20.68 66.46 L -16.86 28.27 L 18 26.35 L 13.67 65.52 M -20.68 66.46"/></g><g style="fill: rgb(102,115,125);fill-opacity: 1.0; stroke: none" transform="matrix(1,0,0,1,261,153.5)" ><path d="M -137.03 54.65 L -133.02 -8.8 L -96.64 -8.17 L -101.26 53.84 M -137.03 54.65"/></g><g style="stroke-width: 1.2;stroke: rgb(102,115,125);stroke-opacity: 1.0;; fill: none" transform="matrix(1,0,0,1,261,153.5)" ><path d="M -137.03 54.65 L -133.02 -8.8 L -96.64 -8.17 L -101.26 53.84 M -137.03 54.65"/></g><g style="fill: rgb(146,164,178);fill-opacity: 1.0; stroke: none" transform="matrix(1,0,0,1,261,153.5)" ><path d="M -133.02 -8.8 L -137 -14.81 L -101.23 -14.11 L -96.64 -8.17 M -133.02 -8.8"/></g><g style="stroke-width: 1.2;stroke: rgb(146,164,178);stroke-opacity: 1.0;; fill: none" transform="matrix(1,0,0,1,261,153.5)" ><path d="M -133.02 -8.8 L -137 -14.81 L -101.23 -14.11 L -96.64 -8.17 M -133.02 -8.8"/></g><g style="fill: rgb(213,207,136);fill-opacity: 1.0; stroke: none" transform="matrix(1,0,0,1,261,153.5)" ><path d="M 65.69 48.28 L 58.13 41.24 L 91.71 39.91 L 99.79 46.84 M 65.69 48.28"/></g><g style="stroke-width: 1.2;stroke: rgb(213,207,136);stroke-opacity: 1.0;; fill: none" transform="matrix(1,0,0,1,261,153.5)" ><path d="M 65.69 48.28 L 58.13 41.24 L 91.71 39.91 L 99.79 46.84 M 65.69 48.28"/></g><g style="fill: rgb(147,143,94);fill-opacity: 1.0; stroke: none" transform="matrix(1,0,0,1,261,153.5)" ><path d="M 61.76 79.38 L 65.69 48.28 L 99.79 46.84 L 95.49 78.26 M 61.76 79.38"/></g><g style="stroke-width: 1.2;stroke: rgb(147,143,94);stroke-opacity: 1.0;; fill: none" transform="matrix(1,0,0,1,261,153.5)" ><path d="M 61.76 79.38 L 65.69 48.28 L 99.79 46.84 L 95.49 78.26 M 61.76 79.38"/></g><g style="fill: rgb(125,151,106);fill-opacity: 1.0; stroke: none" transform="matrix(1,0,0,1,261,153.5)" ><path d="M -51.73 20.94 L -57.21 14.36 L -22.88 21.65 L -16.86 28.27 M -51.73 20.94"/></g><g style="stroke-width: 1.2;stroke: rgb(125,151,106);stroke-opacity: 1.0;; fill: none" transform="matrix(1,0,0,1,261,153.5)" ><path d="M -51.73 20.94 L -57.21 14.36 L -22.88 21.65 L -16.86 28.27 M -51.73 20.94"/></g><g style="fill: rgb(154,173,188);fill-opacity: 1.0; stroke: none" transform="matrix(1,0,0,1,261,153.5)" ><path d="M -173.69 55.47 L -176.93 48.36 L -174.16 -6.07 L -170.82 0.16 M -173.69 55.47"/></g><g style="stroke-width: 1.2;stroke: rgb(154,173,188);stroke-opacity: 1.0;; fill: none" transform="matrix(1,0,0,1,261,153.5)" ><path d="M -173.69 55.47 L -176.93 48.36 L -174.16 -6.07 L -170.82 0.16 M -173.69 55.47"/></g><g style="fill: rgb(97,117,82);fill-opacity: 1.0; stroke: none" transform="matrix(1,0,0,1,261,153.5)" ><path d="M -55.86 67.44 L -51.73 20.94 L -16.86 28.27 L -20.68 66.46 M -55.86 67.44"/></g><g style="stroke-width: 1.2;stroke: rgb(97,117,82);stroke-opacity: 1.0;; fill: none" transform="matrix(1,0,0,1,261,153.5)" ><path d="M -55.86 67.44 L -51.73 20.94 L -16.86 28.27 L -20.68 66.46 M -55.86 67.44"/></g><g style="fill: rgb(102,115,125);fill-opacity: 1.0; stroke: none" transform="matrix(1,0,0,1,261,153.5)" ><path d="M -173.69 55.47 L -170.82 0.16 L -133.02 -8.8 L -137.03 54.65 M -173.69 55.47"/></g><g style="stroke-width: 1.2;stroke: rgb(102,115,125);stroke-opacity: 1.0;; fill: none" transform="matrix(1,0,0,1,261,153.5)" ><path d="M -173.69 55.47 L -170.82 0.16 L -133.02 -8.8 L -137.03 54.65 M -173.69 55.47"/></g><g style="fill: rgb(161,181,197);fill-opacity: 1.0; stroke: none" transform="matrix(1,0,0,1,261,153.5)" ><path d="M -170.82 0.16 L -174.16 -6.07 L -137 -14.81 L -133.02 -8.8 M -170.82 0.16"/></g><g style="stroke-width: 1.2;stroke: rgb(161,181,197);stroke-opacity: 1.0;; fill: none" transform="matrix(1,0,0,1,261,153.5)" ><path d="M -170.82 0.16 L -174.16 -6.07 L -137 -14.81 L -133.02 -8.8 M -170.82 0.16"/></g><g style="fill: rgb(222,216,142);fill-opacity: 1.0; stroke: none" transform="matrix(1,0,0,1,261,153.5)" ><path d="M 30.34 53.3 L 23.34 46.09 L 58.13 41.24 L 65.69 48.28 M 30.34 53.3"/></g><g style="stroke-width: 1.2;stroke: rgb(222,216,142);stroke-opacity: 1.0;; fill: none" transform="matrix(1,0,0,1,261,153.5)" ><path d="M 30.34 53.3 L 23.34 46.09 L 58.13 41.24 L 65.69 48.28 M 30.34 53.3"/></g><g style="fill: rgb(147,143,94);fill-opacity: 1.0; stroke: none" transform="matrix(1,0,0,1,261,153.5)" ><path d="M 27.19 80.52 L 30.34 53.3 L 65.69 48.28 L 61.76 79.38 M 27.19 80.52"/></g><g style="stroke-width: 1.2;stroke: rgb(147,143,94);stroke-opacity: 1.0;; fill: none" transform="matrix(1,0,0,1,261,153.5)" ><path d="M 27.19 80.52 L 30.34 53.3 L 65.69 48.28 L 61.76 79.38 M 27.19 80.52"/></g><g style="fill: rgb(152,184,129);fill-opacity: 1.0; stroke: none" transform="matrix(1,0,0,1,261,153.5)" ><path d="M -88.9 29.39 L -93.76 22.58 L -57.21 14.36 L -51.73 20.94 M -88.9 29.39"/></g><g style="stroke-width: 1.2;stroke: rgb(152,184,129);stroke-opacity: 1.0;; fill: none" transform="matrix(1,0,0,1,261,153.5)" ><path d="M -88.9 29.39 L -93.76 22.58 L -57.21 14.36 L -51.73 20.94 M -88.9 29.39"/></g><g style="fill: rgb(97,117,82);fill-opacity: 1.0; stroke: none" transform="matrix(1,0,0,1,261,153.5)" ><path d="M -91.93 68.43 L -88.9 29.39 L -51.73 20.94 L -55.86 67.44 M -91.93 68.43"/></g><g style="stroke-width: 1.2;stroke: rgb(97,117,82);stroke-opacity: 1.0;; fill: none" transform="matrix(1,0,0,1,261,153.5)" ><path d="M -91.93 68.43 L -88.9 29.39 L -51.73 20.94 L -55.86 67.44 M -91.93 68.43"/></g><g style="fill: rgb(220,214,140);fill-opacity: 1.0; stroke: none" transform="matrix(1,0,0,1,261,153.5)" ><path d="M -5.75 57.69 L -12.16 50.32 L 23.34 46.09 L 30.34 53.3 M -5.75 57.69"/></g><g style="stroke-width: 1.2;stroke: rgb(220,214,140);stroke-opacity: 1.0;; fill: none" transform="matrix(1,0,0,1,261,153.5)" ><path d="M -5.75 57.69 L -12.16 50.32 L 23.34 46.09 L 30.34 53.3 M -5.75 57.69"/></g><g style="fill: rgb(140,169,118);fill-opacity: 1.0; stroke: none" transform="matrix(1,0,0,1,261,153.5)" ><path d="M -126.3 29.92 L -130.53 23.02 L -93.76 22.58 L -88.9 29.39 M -126.3 29.92"/></g><g style="stroke-width: 1.2;stroke: rgb(140,169,118);stroke-opacity: 1.0;; fill: none" transform="matrix(1,0,0,1,261,153.5)" ><path d="M -126.3 29.92 L -130.53 23.02 L -93.76 22.58 L -88.9 29.39 M -126.3 29.92"/></g><g style="fill: rgb(147,143,94);fill-opacity: 1.0; stroke: none" transform="matrix(1,0,0,1,261,153.5)" ><path d="M -8.25 81.7 L -5.75 57.69 L 30.34 53.3 L 27.19 80.52 M -8.25 81.7"/></g><g style="stroke-width: 1.2;stroke: rgb(147,143,94);stroke-opacity: 1.0;; fill: none" transform="matrix(1,0,0,1,261,153.5)" ><path d="M -8.25 81.7 L -5.75 57.69 L 30.34 53.3 L 27.19 80.52 M -8.25 81.7"/></g><g style="fill: rgb(97,117,82);fill-opacity: 1.0; stroke: none" transform="matrix(1,0,0,1,261,153.5)" ><path d="M -128.92 69.45 L -126.3 29.92 L -88.9 29.39 L -91.93 68.43 M -128.92 69.45"/></g><g style="stroke-width: 1.2;stroke: rgb(97,117,82);stroke-opacity: 1.0;; fill: none" transform="matrix(1,0,0,1,261,153.5)" ><path d="M -128.92 69.45 L -126.3 29.92 L -88.9 29.39 L -91.93 68.43 M -128.92 69.45"/></g><g style="fill: rgb(212,206,135);fill-opacity: 1.0; stroke: none" transform="matrix(1,0,0,1,261,153.5)" ><path d="M -42.36 58.75 L -48.18 51.27 L -12.16 50.32 L -5.75 57.69 M -42.36 58.75"/></g><g style="stroke-width: 1.2;stroke: rgb(212,206,135);stroke-opacity: 1.0;; fill: none" transform="matrix(1,0,0,1,261,153.5)" ><path d="M -42.36 58.75 L -48.18 51.27 L -12.16 50.32 L -5.75 57.69 M -42.36 58.75"/></g><g style="fill: rgb(143,173,121);fill-opacity: 1.0; stroke: none" transform="matrix(1,0,0,1,261,153.5)" ><path d="M -164.8 32.66 L -168.36 25.63 L -130.53 23.02 L -126.3 29.92 M -164.8 32.66"/></g><g style="stroke-width: 1.2;stroke: rgb(143,173,121);stroke-opacity: 1.0;; fill: none" transform="matrix(1,0,0,1,261,153.5)" ><path d="M -164.8 32.66 L -168.36 25.63 L -130.53 23.02 L -126.3 29.92 M -164.8 32.66"/></g><g style="fill: rgb(146,176,124);fill-opacity: 1.0; stroke: none" transform="matrix(1,0,0,1,261,153.5)" ><path d="M -166.85 70.5 L -170.33 62.85 L -168.36 25.63 L -164.8 32.66 M -166.85 70.5"/></g><g style="stroke-width: 1.2;stroke: rgb(146,176,124);stroke-opacity: 1.0;; fill: none" transform="matrix(1,0,0,1,261,153.5)" ><path d="M -166.85 70.5 L -170.33 62.85 L -168.36 25.63 L -164.8 32.66 M -166.85 70.5"/></g><g style="fill: rgb(147,143,94);fill-opacity: 1.0; stroke: none" transform="matrix(1,0,0,1,261,153.5)" ><path d="M -44.6 82.9 L -42.36 58.75 L -5.75 57.69 L -8.25 81.7 M -44.6 82.9"/></g><g style="stroke-width: 1.2;stroke: rgb(147,143,94);stroke-opacity: 1.0;; fill: none" transform="matrix(1,0,0,1,261,153.5)" ><path d="M -44.6 82.9 L -42.36 58.75 L -5.75 57.69 L -8.25 81.7 M -44.6 82.9"/></g><g style="fill: rgb(97,117,82);fill-opacity: 1.0; stroke: none" transform="matrix(1,0,0,1,261,153.5)" ><path d="M -166.85 70.5 L -164.8 32.66 L -126.3 29.92 L -128.92 69.45 M -166.85 70.5"/></g><g style="stroke-width: 1.2;stroke: rgb(97,117,82);stroke-opacity: 1.0;; fill: none" transform="matrix(1,0,0,1,261,153.5)" ><path d="M -166.85 70.5 L -164.8 32.66 L -126.3 29.92 L -128.92 69.45 M -166.85 70.5"/></g><g style="fill: rgb(216,210,138);fill-opacity: 1.0; stroke: none" transform="matrix(1,0,0,1,261,153.5)" ><path d="M -80.08 61.68 L -85.26 54.05 L -48.18 51.27 L -42.36 58.75 M -80.08 61.68"/></g><g style="stroke-width: 1.2;stroke: rgb(216,210,138);stroke-opacity: 1.0;; fill: none" transform="matrix(1,0,0,1,261,153.5)" ><path d="M -80.08 61.68 L -85.26 54.05 L -48.18 51.27 L -42.36 58.75 M -80.08 61.68"/></g><g style="fill: rgb(147,143,94);fill-opacity: 1.0; stroke: none" transform="matrix(1,0,0,1,261,153.5)" ><path d="M -81.9 84.13 L -80.08 61.68 L -42.36 58.75 L -44.6 82.9 M -81.9 84.13"/></g><g style="stroke-width: 1.2;stroke: rgb(147,143,94);stroke-opacity: 1.0;; fill: none" transform="matrix(1,0,0,1,261,153.5)" ><path d="M -81.9 84.13 L -80.08 61.68 L -42.36 58.75 L -44.6 82.9 M -81.9 84.13"/></g><g style="fill: rgb(215,209,137);fill-opacity: 1.0; stroke: none" transform="matrix(1,0,0,1,261,153.5)" ><path d="M -118.72 64.28 L -123.23 56.51 L -85.26 54.05 L -80.08 61.68 M -118.72 64.28"/></g><g style="stroke-width: 1.2;stroke: rgb(215,209,137);stroke-opacity: 1.0;; fill: none" transform="matrix(1,0,0,1,261,153.5)" ><path d="M -118.72 64.28 L -123.23 56.51 L -85.26 54.05 L -80.08 61.68 M -118.72 64.28"/></g><g style="fill: rgb(147,143,94);fill-opacity: 1.0; stroke: none" transform="matrix(1,0,0,1,261,153.5)" ><path d="M -120.18 85.4 L -118.72 64.28 L -80.08 61.68 L -81.9 84.13 M -120.18 85.4"/></g><g style="stroke-width: 1.2;stroke: rgb(147,143,94);stroke-opacity: 1.0;; fill: none" transform="matrix(1,0,0,1,261,153.5)" ><path d="M -120.18 85.4 L -118.72 64.28 L -80.08 61.68 L -81.9 84.13 M -120.18 85.4"/></g><g style="fill: rgb(214,208,137);fill-opacity: 1.0; stroke: none" transform="matrix(1,0,0,1,261,153.5)" ><path d="M -158.33 66.38 L -162.13 58.47 L -123.23 56.51 L -118.72 64.28 M -158.33 66.38"/></g><g style="stroke-width: 1.2;stroke: rgb(214,208,137);stroke-opacity: 1.0;; fill: none" transform="matrix(1,0,0,1,261,153.5)" ><path d="M -158.33 66.38 L -162.13 58.47 L -123.23 56.51 L -118.72 64.28 M -158.33 66.38"/></g><g style="fill: rgb(221,215,141);fill-opacity: 1.0; stroke: none" transform="matrix(1,0,0,1,261,153.5)" ><path d="M -159.48 86.7 L -163.24 78.45 L -162.13 58.47 L -158.33 66.38 M -159.48 86.7"/></g><g style="stroke-width: 1.2;stroke: rgb(221,215,141);stroke-opacity: 1.0;; fill: none" transform="matrix(1,0,0,1,261,153.5)" ><path d="M -159.48 86.7 L -163.24 78.45 L -162.13 58.47 L -158.33 66.38 M -159.48 86.7"/></g><g style="fill: rgb(147,143,94);fill-opacity: 1.0; stroke: none" transform="matrix(1,0,0,1,261,153.5)" ><path d="M -159.48 86.7 L -158.33 66.38 L -118.72 64.28 L -120.18 85.4 M -159.48 86.7"/></g><g style="stroke-width: 1.2;stroke: rgb(147,143,94);stroke-opacity: 1.0;; fill: none" transform="matrix(1,0,0,1,261,153.5)" ><path d="M -159.48 86.7 L -158.33 66.38 L -118.72 64.28 L -120.18 85.4 M -159.48 86.7"/></g><line x1="-176.6" y1="94.56" x2="184.1" y2="81.74" style="stroke-width: 1.0;stroke: rgb(128,128,128);stroke-opacity: 1.0;" transform="matrix(1,0,0,1,261,153.5)" /><line x1="-156.24" y1="93.83" x2="-156.13" y2="96.83" style="stroke-width: 0.5;stroke: rgb(128,128,128);stroke-opacity: 1.0;" transform="matrix(1,0,0,1,261,153.5)" /><g transform="matrix(0.035513,0.999369,-0.999369,0.035513,212.34942,407.567664)"><text x="-155.95" y="106.8" style="fill: rgb(0,0,0); font-family: SansSerif; font-size: 12px; " text-rendering="auto" >Q1/11</text></g><line x1="-116.34" y1="92.42" x2="-116.23" y2="95.41" style="stroke-width: 0.5;stroke: rgb(128,128,128);stroke-opacity: 1.0;" transform="matrix(1,0,0,1,261,153.5)" /><g transform="matrix(0.035513,0.999369,-0.999369,0.035513,249.415386,366.325442)"><text x="-116.05" y="105.38" style="fill: rgb(0,0,0); font-family: SansSerif; font-size: 12px; " text-rendering="auto" >Q2/11</text></g><line x1="-77.49" y1="91.04" x2="-77.38" y2="94.03" style="stroke-width: 0.5;stroke: rgb(128,128,128);stroke-opacity: 1.0;" transform="matrix(1,0,0,1,261,153.5)" /><g transform="matrix(0.035513,0.999369,-0.999369,0.035513,285.502564,326.172284)"><text x="-77.21" y="104" style="fill: rgb(0,0,0); font-family: SansSerif; font-size: 12px; " text-rendering="auto" >Q3/11</text></g><line x1="-39.66" y1="89.69" x2="-39.55" y2="92.69" style="stroke-width: 0.5;stroke: rgb(128,128,128);stroke-opacity: 1.0;" transform="matrix(1,0,0,1,261,153.5)" /><g transform="matrix(0.035513,0.999369,-0.999369,0.035513,320.649229,287.065614)"><text x="-39.37" y="102.65" style="fill: rgb(0,0,0); font-family: SansSerif; font-size: 12px; " text-rendering="auto" >Q4/11</text></g><line x1="-2.8" y1="88.38" x2="-2.69" y2="91.38" style="stroke-width: 0.5;stroke: rgb(128,128,128);stroke-opacity: 1.0;" transform="matrix(1,0,0,1,261,153.5)" /><g transform="matrix(0.035513,0.999369,-0.999369,0.035513,354.891665,248.965044)"><text x="-2.51" y="101.34" style="fill: rgb(0,0,0); font-family: SansSerif; font-size: 12px; " text-rendering="auto" >Q1/12</text></g><line x1="33.13" y1="87.1" x2="33.23" y2="90.1" style="stroke-width: 0.5;stroke: rgb(128,128,128);stroke-opacity: 1.0;" transform="matrix(1,0,0,1,261,153.5)" /><g transform="matrix(0.035513,0.999369,-0.999369,0.035513,388.264337,211.832252)"><text x="33.41" y="100.07" style="fill: rgb(0,0,0); font-family: SansSerif; font-size: 12px; " text-rendering="auto" >Q2/12</text></g><line x1="68.15" y1="85.86" x2="68.26" y2="88.86" style="stroke-width: 0.5;stroke: rgb(128,128,128);stroke-opacity: 1.0;" transform="matrix(1,0,0,1,261,153.5)" /><g transform="matrix(0.035513,0.999369,-0.999369,0.035513,420.799954,175.630816)"><text x="68.43" y="98.82" style="fill: rgb(0,0,0); font-family: SansSerif; font-size: 12px; " text-rendering="auto" >Q3/12</text></g><line x1="102.31" y1="84.65" x2="102.41" y2="87.64" style="stroke-width: 0.5;stroke: rgb(128,128,128);stroke-opacity: 1.0;" transform="matrix(1,0,0,1,261,153.5)" /><g transform="matrix(0.035513,0.999369,-0.999369,0.035513,452.529626,140.326132)"><text x="102.59" y="97.61" style="fill: rgb(0,0,0); font-family: SansSerif; font-size: 12px; " text-rendering="auto" >Q4/12</text></g><line x1="135.63" y1="83.46" x2="135.73" y2="86.46" style="stroke-width: 0.5;stroke: rgb(128,128,128);stroke-opacity: 1.0;" transform="matrix(1,0,0,1,261,153.5)" /><g transform="matrix(0.035513,0.999369,-0.999369,0.035513,483.482929,105.885284)"><text x="135.91" y="96.43" style="fill: rgb(0,0,0); font-family: SansSerif; font-size: 12px; " text-rendering="auto" >Q1/13</text></g><line x1="168.14" y1="82.31" x2="168.25" y2="85.31" style="stroke-width: 0.5;stroke: rgb(128,128,128);stroke-opacity: 1.0;" transform="matrix(1,0,0,1,261,153.5)" /><g transform="matrix(0.035513,0.999369,-0.999369,0.035513,513.688014,72.276965)"><text x="168.42" y="95.27" style="fill: rgb(0,0,0); font-family: SansSerif; font-size: 12px; " text-rendering="auto" >Q2/13</text></g><g transform="matrix(0.999369,-0.035513,0.035513,0.999369,255.850278,153.796742)"><text x="-17.72" y="150.08" style="fill: rgb(0,0,0); font-family: SansSerif; font-size: 12px; font-weight: bold; " text-rendering="auto" >Quarter</text></g><line x1="-197.64" y1="42.95" x2="-191.97" y2="-85.23" style="stroke-width: 1.0;stroke: rgb(128,128,128);stroke-opacity: 1.0;" transform="matrix(1,0,0,1,261,153.5)" /><line x1="-197.64" y1="42.95" x2="-200.63" y2="42.82" style="stroke-width: 0.5;stroke: rgb(128,128,128);stroke-opacity: 1.0;" transform="matrix(1,0,0,1,261,153.5)" /><g transform="matrix(0.999024,0.044177,-0.044177,0.999024,262.681227,162.625761)"><text x="-213.63" y="47.57" style="fill: rgb(0,0,0); font-family: SansSerif; font-size: 12px; " text-rendering="auto" >0</text></g><line x1="-196.68" y1="21.27" x2="-199.68" y2="21.13" style="stroke-width: 0.5;stroke: rgb(128,128,128);stroke-opacity: 1.0;" transform="matrix(1,0,0,1,261,153.5)" /><g transform="matrix(0.999024,0.044177,-0.044177,0.999024,261.724088,162.562222)"><text x="-220.67" y="25.88" style="fill: rgb(0,0,0); font-family: SansSerif; font-size: 12px; " text-rendering="auto" >10</text></g><line x1="-195.71" y1="-0.71" x2="-198.7" y2="-0.85" style="stroke-width: 0.5;stroke: rgb(128,128,128);stroke-opacity: 1.0;" transform="matrix(1,0,0,1,261,153.5)" /><g transform="matrix(0.999024,0.044177,-0.044177,0.999024,260.753955,162.497819)"><text x="-219.7" y="3.9" style="fill: rgb(0,0,0); font-family: SansSerif; font-size: 12px; " text-rendering="auto" >20</text></g><line x1="-194.72" y1="-23" x2="-197.72" y2="-23.13" style="stroke-width: 0.5;stroke: rgb(128,128,128);stroke-opacity: 1.0;" transform="matrix(1,0,0,1,261,153.5)" /><g transform="matrix(0.999024,0.044177,-0.044177,0.999024,259.770561,162.432537)"><text x="-218.71" y="-18.38" style="fill: rgb(0,0,0); font-family: SansSerif; font-size: 12px; " text-rendering="auto" >30</text></g><line x1="-193.72" y1="-45.58" x2="-196.72" y2="-45.72" style="stroke-width: 0.5;stroke: rgb(128,128,128);stroke-opacity: 1.0;" transform="matrix(1,0,0,1,261,153.5)" /><g transform="matrix(0.999024,0.044177,-0.044177,0.999024,258.773634,162.366356)"><text x="-217.71" y="-40.97" style="fill: rgb(0,0,0); font-family: SansSerif; font-size: 12px; " text-rendering="auto" >40</text></g><line x1="-192.71" y1="-68.49" x2="-195.71" y2="-68.62" style="stroke-width: 0.5;stroke: rgb(128,128,128);stroke-opacity: 1.0;" transform="matrix(1,0,0,1,261,153.5)" /><g transform="matrix(0.999024,0.044177,-0.044177,0.999024,257.762891,162.299258)"><text x="-216.7" y="-63.87" style="fill: rgb(0,0,0); font-family: SansSerif; font-size: 12px; " text-rendering="auto" >50</text></g><g transform="matrix(0.044177,-0.999024,0.999024,0.044177,64.954855,-96.687391)"><text x="-245.77" y="-17.67" style="fill: rgb(0,0,0); font-family: SansSerif; font-size: 12px; font-weight: bold; " text-rendering="auto" >Value</text></g><rect x="255" y="313" width="16" height="19" style="fill: rgb(255,255,255);fill-opacity: 1.0" transform="matrix(1,0,0,1,0,0)" /><rect x="-6" y="-4" width="12" height="8" style="fill: rgb(255,248,163);fill-opacity: 1.0" transform="matrix(1,0,0,1,263,322.5)" /><rect x="271" y="313" width="44" height="19" style="fill: rgb(255,255,255);fill-opacity: 1.0" transform="matrix(1,0,0,1,0,0)" /><g transform="matrix(1,0,0,1,0,0)"><text x="273" y="327.47" style="fill: rgb(0,0,0); font-family: Dialog; font-size: 12px; font-style: italic; " text-rendering="auto" >Google</text></g><rect x="319" y="313" width="16" height="19" style="fill: rgb(255,255,255);fill-opacity: 1.0" transform="matrix(1,0,0,1,0,0)" /><rect x="-6" y="-4" width="12" height="8" style="fill: rgb(169,204,143);fill-opacity: 1.0" transform="matrix(1,0,0,1,327,322.5)" /><rect x="335" y="313" width="56" height="19" style="fill: rgb(255,255,255);fill-opacity: 1.0" transform="matrix(1,0,0,1,0,0)" /><g transform="matrix(1,0,0,1,0,0)"><text x="337" y="327.47" style="fill: rgb(0,0,0); font-family: Dialog; font-size: 12px; font-style: italic; " text-rendering="auto" >Microsoft</text></g><rect x="397" y="313" width="16" height="19" style="fill: rgb(255,255,255);fill-opacity: 1.0" transform="matrix(1,0,0,1,0,0)" /><rect x="-6" y="-4" width="12" height="8" style="fill: rgb(178,200,217);fill-opacity: 1.0" transform="matrix(1,0,0,1,405,322.5)" /><rect x="413" y="313" width="38" height="19" style="fill: rgb(255,255,255);fill-opacity: 1.0" transform="matrix(1,0,0,1,0,0)" /><g transform="matrix(1,0,0,1,0,0)"><text x="415" y="327.47" style="fill: rgb(0,0,0); font-family: Dialog; font-size: 12px; font-style: italic; " text-rendering="auto" >Apple</text></g><rect x="251" y="336" width="243" height="17" style="fill: rgb(255,255,255);fill-opacity: 1.0" transform="matrix(1,0,0,1,0,0)" /><g transform="matrix(1,0,0,1,0,0)"><text x="253" y="348.89" style="fill: rgb(0,0,0); font-family: Dialog; font-size: 10px; " text-rendering="auto" >Orson Charts (c) 2013, by Object Refinery Limited</text></g><rect x="6" y="6" width="322" height="29" style="fill: rgb(255,255,255);fill-opacity: 1.0" transform="matrix(1,0,0,1,0,0)" /><g transform="matrix(1,0,0,1,0,0)"><text x="8" y="28.78" style="fill: rgb(0,0,0); font-family: Dialog; font-size: 20px; font-weight: bold; " text-rendering="auto" >Reported Revenues By Quarter</text></g><rect x="6" y="35" width="203" height="19" style="fill: rgb(255,255,255);fill-opacity: 1.0" transform="matrix(1,0,0,1,0,0)" /><g transform="matrix(1,0,0,1,0,0)"><text x="8" y="49.47" style="fill: rgb(0,0,0); font-family: Dialog; font-size: 12px; " text-rendering="auto" >Large companies in the IT industry</text></g></svg>
