<!DOCTYPE svg PUBLIC "-//W3C//DTD SVG 1.1//EN" "http://www.w3.org/Graphics/SVG/1.1/DTD/svg11.dtd">
<svg xmlns="http://www.w3.org/2000/svg" xmlns:xlink="http://www.w3.org/1999/xlink" width="500" height="359">
<defs></defs>
<rect x="0" y="0" width="500" height="359" style="fill: rgb(255,255,255);fill-opacity: 1.0" transform="matrix(1,0,0,1,0,0)" /><g style="fill: rgb(218,218,218);fill-opacity: 1.0; stroke: none" transform="matrix(1,0,0,1,257,150.5)" ><path d="M -166.54 107.02 L -175.75 81.7 L 145.15 46.27 L 176.27 66.83 M -166.54 107.02"/></g><g style="fill: rgb(159,159,159);fill-opacity: 1.0; stroke: none" transform="matrix(1,0,0,1,257,150.5)" ><path d="M -175.75 81.7 L -186.56 -70.73 L 146.75 -94.3 L 145.15 46.27 M -175.75 81.7"/></g><line x1="145.35" y1="28.46" x2="-177.12" y2="62.44" style="stroke-width: 0.5;stroke: rgb(255,255,255);stroke-opacity: 1.0;stroke-dasharray: 3.0, 3.0;" transform="matrix(1,0,0,1,257,150.5)" /><line x1="145.75" y1="-6.37" x2="-179.79" y2="24.73" style="stroke-width: 0.5;stroke: rgb(255,255,255);stroke-opacity: 1.0;stroke-dasharray: 3.0, 3.0;" transform="matrix(1,0,0,1,257,150.5)" /><line x1="146.15" y1="-41.82" x2="-182.52" y2="-13.71" style="stroke-width: 0.5;stroke: rgb(255,255,255);stroke-opacity: 1.0;stroke-dasharray: 3.0, 3.0;" transform="matrix(1,0,0,1,257,150.5)" /><line x1="146.56" y1="-77.91" x2="-185.3" y2="-52.91" style="stroke-width: 0.5;stroke: rgb(255,255,255);stroke-opacity: 1.0;stroke-dasharray: 3.0, 3.0;" transform="matrix(1,0,0,1,257,150.5)" /><g style="fill: rgb(210,210,210);fill-opacity: 1.0; stroke: none" transform="matrix(1,0,0,1,257,150.5)" ><path d="M 145.15 46.27 L 146.75 -94.3 L 179.18 -83.29 L 176.27 66.83 M 145.15 46.27"/></g><line x1="176.64" y1="47.84" x2="145.35" y2="28.46" style="stroke-width: 0.5;stroke: rgb(255,255,255);stroke-opacity: 1.0;stroke-dasharray: 3.0, 3.0;" transform="matrix(1,0,0,1,257,150.5)" /><line x1="177.36" y1="10.7" x2="145.75" y2="-6.37" style="stroke-width: 0.5;stroke: rgb(255,255,255);stroke-opacity: 1.0;stroke-dasharray: 3.0, 3.0;" transform="matrix(1,0,0,1,257,150.5)" /><line x1="178.09" y1="-27.16" x2="146.15" y2="-41.82" style="stroke-width: 0.5;stroke: rgb(255,255,255);stroke-opacity: 1.0;stroke-dasharray: 3.0, 3.0;" transform="matrix(1,0,0,1,257,150.5)" /><line x1="178.84" y1="-65.75" x2="146.56" y2="-77.91" style="stroke-width: 0.5;stroke: rgb(255,255,255);stroke-opacity: 1.0;stroke-dasharray: 3.0, 3.0;" transform="matrix(1,0,0,1,257,150.5)" /><g style="fill: rgb(237,237,0);fill-opacity: 1.0; stroke: none" transform="matrix(1,0,0,1,257,150.5)" ><path d="M 121.16 -80.03 L 118.27 -81.17 L 134.73 -87.19 L 137.72 -86.1 M 121.16 -80.03"/></g><g style="stroke-width: 1.2;stroke: rgb(237,237,0);stroke-opacity: 1.0;; fill: none" transform="matrix(1,0,0,1,257,150.5)" ><path d="M 121.16 -80.03 L 118.27 -81.17 L 134.73 -87.19 L 137.72 -86.1 M 121.16 -80.03"/></g><g style="fill: rgb(173,0,0);fill-opacity: 1.0; stroke: none" transform="matrix(1,0,0,1,257,150.5)" ><path d="M 127.46 -26.24 L 124.52 -27.76 L 140.88 -20.9 L 143.91 -19.34 M 127.46 -26.24"/></g><g style="stroke-width: 1.2;stroke: rgb(173,0,0);stroke-opacity: 1.0;; fill: none" transform="matrix(1,0,0,1,257,150.5)" ><path d="M 127.46 -26.24 L 124.52 -27.76 L 140.88 -20.9 L 143.91 -19.34 M 127.46 -26.24"/></g><g style="fill: rgb(245,245,0);fill-opacity: 1.0; stroke: none" transform="matrix(1,0,0,1,257,150.5)" ><path d="M 104.48 -70.44 L 101.7 -71.65 L 118.27 -81.17 L 121.16 -80.03 M 104.48 -70.44"/></g><g style="stroke-width: 1.2;stroke: rgb(245,245,0);stroke-opacity: 1.0;; fill: none" transform="matrix(1,0,0,1,257,150.5)" ><path d="M 104.48 -70.44 L 101.7 -71.65 L 118.27 -81.17 L 121.16 -80.03 M 104.48 -70.44"/></g><g style="fill: rgb(159,159,0);fill-opacity: 1.0; stroke: none" transform="matrix(1,0,0,1,257,150.5)" ><path d="M 121.14 -76.33 L 121.16 -80.03 L 137.72 -86.1 L 137.69 -82.41 M 121.14 -76.33"/></g><g style="stroke-width: 1.2;stroke: rgb(159,159,0);stroke-opacity: 1.0;; fill: none" transform="matrix(1,0,0,1,257,150.5)" ><path d="M 121.14 -76.33 L 121.16 -80.03 L 137.72 -86.1 L 137.69 -82.41 M 121.14 -76.33"/></g><g style="fill: rgb(159,0,0);fill-opacity: 1.0; stroke: none" transform="matrix(1,0,0,1,257,150.5)" ><path d="M 127.44 -22.58 L 127.46 -26.24 L 143.91 -19.34 L 143.87 -15.71 M 127.44 -22.58"/></g><g style="stroke-width: 1.2;stroke: rgb(159,0,0);stroke-opacity: 1.0;; fill: none" transform="matrix(1,0,0,1,257,150.5)" ><path d="M 127.44 -22.58 L 127.46 -26.24 L 143.91 -19.34 L 143.87 -15.71 M 127.44 -22.58"/></g><g style="fill: rgb(159,159,0);fill-opacity: 1.0; stroke: none" transform="matrix(1,0,0,1,257,150.5)" ><path d="M 104.48 -66.74 L 104.48 -70.44 L 121.16 -80.03 L 121.14 -76.33 M 104.48 -66.74"/></g><g style="stroke-width: 1.2;stroke: rgb(159,159,0);stroke-opacity: 1.0;; fill: none" transform="matrix(1,0,0,1,257,150.5)" ><path d="M 104.48 -66.74 L 104.48 -70.44 L 121.16 -80.03 L 121.14 -76.33 M 104.48 -66.74"/></g><g style="fill: rgb(234,234,0);fill-opacity: 1.0; stroke: none" transform="matrix(1,0,0,1,257,150.5)" ><path d="M 87.7 -65.11 L 85.03 -66.36 L 101.7 -71.65 L 104.48 -70.44 M 87.7 -65.11"/></g><g style="stroke-width: 1.2;stroke: rgb(234,234,0);stroke-opacity: 1.0;; fill: none" transform="matrix(1,0,0,1,257,150.5)" ><path d="M 87.7 -65.11 L 85.03 -66.36 L 101.7 -71.65 L 104.48 -70.44 M 87.7 -65.11"/></g><g style="fill: rgb(179,0,0);fill-opacity: 1.0; stroke: none" transform="matrix(1,0,0,1,257,150.5)" ><path d="M 110.79 -32.15 L 107.95 -33.64 L 124.52 -27.76 L 127.46 -26.24 M 110.79 -32.15"/></g><g style="stroke-width: 1.2;stroke: rgb(179,0,0);stroke-opacity: 1.0;; fill: none" transform="matrix(1,0,0,1,257,150.5)" ><path d="M 110.79 -32.15 L 107.95 -33.64 L 124.52 -27.76 L 127.46 -26.24 M 110.79 -32.15"/></g><g style="fill: rgb(159,159,0);fill-opacity: 1.0; stroke: none" transform="matrix(1,0,0,1,257,150.5)" ><path d="M 87.72 -61.4 L 87.7 -65.11 L 104.48 -70.44 L 104.48 -66.74 M 87.72 -61.4"/></g><g style="stroke-width: 1.2;stroke: rgb(159,159,0);stroke-opacity: 1.0;; fill: none" transform="matrix(1,0,0,1,257,150.5)" ><path d="M 87.72 -61.4 L 87.7 -65.11 L 104.48 -70.44 L 104.48 -66.74 M 87.72 -61.4"/></g><g style="fill: rgb(233,233,0);fill-opacity: 1.0; stroke: none" transform="matrix(1,0,0,1,257,150.5)" ><path d="M 70.8 -60.11 L 68.24 -61.4 L 85.03 -66.36 L 87.7 -65.11 M 70.8 -60.11"/></g><g style="stroke-width: 1.2;stroke: rgb(233,233,0);stroke-opacity: 1.0;; fill: none" transform="matrix(1,0,0,1,257,150.5)" ><path d="M 70.8 -60.11 L 68.24 -61.4 L 85.03 -66.36 L 87.7 -65.11 M 70.8 -60.11"/></g><g style="fill: rgb(20,107,50);fill-opacity: 1.0; stroke: none" transform="matrix(1,0,0,1,257,150.5)" ><path d="M 133.98 6.92 L 130.97 5.15 L 147.53 2.61 L 150.64 4.35 M 133.98 6.92"/></g><g style="stroke-width: 1.2;stroke: rgb(20,107,50);stroke-opacity: 1.0;; fill: none" transform="matrix(1,0,0,1,257,150.5)" ><path d="M 133.98 6.92 L 130.97 5.15 L 147.53 2.61 L 150.64 4.35 M 133.98 6.92"/></g><g style="fill: rgb(159,0,0);fill-opacity: 1.0; stroke: none" transform="matrix(1,0,0,1,257,150.5)" ><path d="M 110.78 -28.46 L 110.79 -32.15 L 127.46 -26.24 L 127.44 -22.58 M 110.78 -28.46"/></g><g style="stroke-width: 1.2;stroke: rgb(159,0,0);stroke-opacity: 1.0;; fill: none" transform="matrix(1,0,0,1,257,150.5)" ><path d="M 110.78 -28.46 L 110.79 -32.15 L 127.46 -26.24 L 127.44 -22.58 M 110.78 -28.46"/></g><g style="fill: rgb(159,159,0);fill-opacity: 1.0; stroke: none" transform="matrix(1,0,0,1,257,150.5)" ><path d="M 70.82 -56.39 L 70.8 -60.11 L 87.7 -65.11 L 87.72 -61.4 M 70.82 -56.39"/></g><g style="stroke-width: 1.2;stroke: rgb(159,159,0);stroke-opacity: 1.0;; fill: none" transform="matrix(1,0,0,1,257,150.5)" ><path d="M 70.82 -56.39 L 70.8 -60.11 L 87.7 -65.11 L 87.72 -61.4 M 70.82 -56.39"/></g><g style="fill: rgb(225,0,0);fill-opacity: 1.0; stroke: none" transform="matrix(1,0,0,1,257,150.5)" ><path d="M 93.91 -29.14 L 91.17 -30.66 L 107.95 -33.64 L 110.79 -32.15 M 93.91 -29.14"/></g><g style="stroke-width: 1.2;stroke: rgb(225,0,0);stroke-opacity: 1.0;; fill: none" transform="matrix(1,0,0,1,257,150.5)" ><path d="M 93.91 -29.14 L 91.17 -30.66 L 107.95 -33.64 L 110.79 -32.15 M 93.91 -29.14"/></g><g style="fill: rgb(227,227,0);fill-opacity: 1.0; stroke: none" transform="matrix(1,0,0,1,257,150.5)" ><path d="M 53.74 -56.62 L 51.29 -57.94 L 68.24 -61.4 L 70.8 -60.11 M 53.74 -56.62"/></g><g style="stroke-width: 1.2;stroke: rgb(227,227,0);stroke-opacity: 1.0;; fill: none" transform="matrix(1,0,0,1,257,150.5)" ><path d="M 53.74 -56.62 L 51.29 -57.94 L 68.24 -61.4 L 70.8 -60.11 M 53.74 -56.62"/></g><g style="fill: rgb(14,76,36);fill-opacity: 1.0; stroke: none" transform="matrix(1,0,0,1,257,150.5)" ><path d="M 133.95 10.58 L 133.98 6.92 L 150.64 4.35 L 150.6 8 M 133.95 10.58"/></g><g style="stroke-width: 1.2;stroke: rgb(14,76,36);stroke-opacity: 1.0;; fill: none" transform="matrix(1,0,0,1,257,150.5)" ><path d="M 133.95 10.58 L 133.98 6.92 L 150.64 4.35 L 150.6 8 M 133.95 10.58"/></g><g style="fill: rgb(20,102,48);fill-opacity: 1.0; stroke: none" transform="matrix(1,0,0,1,257,150.5)" ><path d="M 117.18 7.47 L 114.27 5.69 L 130.97 5.15 L 133.98 6.92 M 117.18 7.47"/></g><g style="stroke-width: 1.2;stroke: rgb(20,102,48);stroke-opacity: 1.0;; fill: none" transform="matrix(1,0,0,1,257,150.5)" ><path d="M 117.18 7.47 L 114.27 5.69 L 130.97 5.15 L 133.98 6.92 M 117.18 7.47"/></g><g style="fill: rgb(0,48,108);fill-opacity: 1.0; stroke: none" transform="matrix(1,0,0,1,257,150.5)" ><path d="M 140.47 54.8 L 137.4 52.69 L 154.02 49.27 L 157.19 51.35 M 140.47 54.8"/></g><g style="stroke-width: 1.2;stroke: rgb(0,48,108);stroke-opacity: 1.0;; fill: none" transform="matrix(1,0,0,1,257,150.5)" ><path d="M 140.47 54.8 L 137.4 52.69 L 154.02 49.27 L 157.19 51.35 M 140.47 54.8"/></g><g style="fill: rgb(159,0,0);fill-opacity: 1.0; stroke: none" transform="matrix(1,0,0,1,257,150.5)" ><path d="M 93.91 -25.44 L 93.91 -29.14 L 110.79 -32.15 L 110.78 -28.46 M 93.91 -25.44"/></g><g style="stroke-width: 1.2;stroke: rgb(159,0,0);stroke-opacity: 1.0;; fill: none" transform="matrix(1,0,0,1,257,150.5)" ><path d="M 93.91 -25.44 L 93.91 -29.14 L 110.79 -32.15 L 110.78 -28.46 M 93.91 -25.44"/></g><g style="fill: rgb(159,159,0);fill-opacity: 1.0; stroke: none" transform="matrix(1,0,0,1,257,150.5)" ><path d="M 53.79 -52.88 L 53.74 -56.62 L 70.8 -60.11 L 70.82 -56.39 M 53.79 -52.88"/></g><g style="stroke-width: 1.2;stroke: rgb(159,159,0);stroke-opacity: 1.0;; fill: none" transform="matrix(1,0,0,1,257,150.5)" ><path d="M 53.79 -52.88 L 53.74 -56.62 L 70.8 -60.11 L 70.82 -56.39 M 53.79 -52.88"/></g><g style="fill: rgb(220,220,0);fill-opacity: 1.0; stroke: none" transform="matrix(1,0,0,1,257,150.5)" ><path d="M 36.52 -54.87 L 34.18 -56.21 L 51.29 -57.94 L 53.74 -56.62 M 36.52 -54.87"/></g><g style="stroke-width: 1.2;stroke: rgb(220,220,0);stroke-opacity: 1.0;; fill: none" transform="matrix(1,0,0,1,257,150.5)" ><path d="M 36.52 -54.87 L 34.18 -56.21 L 51.29 -57.94 L 53.74 -56.62 M 36.52 -54.87"/></g><g style="fill: rgb(208,0,0);fill-opacity: 1.0; stroke: none" transform="matrix(1,0,0,1,257,150.5)" ><path d="M 76.86 -29.6 L 74.23 -31.12 L 91.17 -30.66 L 93.91 -29.14 M 76.86 -29.6"/></g><g style="stroke-width: 1.2;stroke: rgb(208,0,0);stroke-opacity: 1.0;; fill: none" transform="matrix(1,0,0,1,257,150.5)" ><path d="M 76.86 -29.6 L 74.23 -31.12 L 91.17 -30.66 L 93.91 -29.14 M 76.86 -29.6"/></g><g style="fill: rgb(14,76,36);fill-opacity: 1.0; stroke: none" transform="matrix(1,0,0,1,257,150.5)" ><path d="M 117.17 11.15 L 117.18 7.47 L 133.98 6.92 L 133.95 10.58 M 117.17 11.15"/></g><g style="stroke-width: 1.2;stroke: rgb(14,76,36);stroke-opacity: 1.0;; fill: none" transform="matrix(1,0,0,1,257,150.5)" ><path d="M 117.17 11.15 L 117.18 7.47 L 133.98 6.92 L 133.95 10.58 M 117.17 11.15"/></g><g style="fill: rgb(0,34,76);fill-opacity: 1.0; stroke: none" transform="matrix(1,0,0,1,257,150.5)" ><path d="M 140.43 58.44 L 140.47 54.8 L 157.19 51.35 L 157.14 54.97 M 140.43 58.44"/></g><g style="stroke-width: 1.2;stroke: rgb(0,34,76);stroke-opacity: 1.0;; fill: none" transform="matrix(1,0,0,1,257,150.5)" ><path d="M 140.43 58.44 L 140.47 54.8 L 157.19 51.35 L 157.14 54.97 M 140.43 58.44"/></g><g style="fill: rgb(0,46,104);fill-opacity: 1.0; stroke: none" transform="matrix(1,0,0,1,257,150.5)" ><path d="M 123.61 56.55 L 120.64 54.42 L 137.4 52.69 L 140.47 54.8 M 123.61 56.55"/></g><g style="stroke-width: 1.2;stroke: rgb(0,46,104);stroke-opacity: 1.0;; fill: none" transform="matrix(1,0,0,1,257,150.5)" ><path d="M 123.61 56.55 L 120.64 54.42 L 137.4 52.69 L 140.47 54.8 M 123.61 56.55"/></g><g style="fill: rgb(19,98,46);fill-opacity: 1.0; stroke: none" transform="matrix(1,0,0,1,257,150.5)" ><path d="M 100.21 6.11 L 97.41 4.34 L 114.27 5.69 L 117.18 7.47 M 100.21 6.11"/></g><g style="stroke-width: 1.2;stroke: rgb(19,98,46);stroke-opacity: 1.0;; fill: none" transform="matrix(1,0,0,1,257,150.5)" ><path d="M 100.21 6.11 L 97.41 4.34 L 114.27 5.69 L 117.18 7.47 M 100.21 6.11"/></g><g style="fill: rgb(159,159,0);fill-opacity: 1.0; stroke: none" transform="matrix(1,0,0,1,257,150.5)" ><path d="M 36.58 -51.12 L 36.52 -54.87 L 53.74 -56.62 L 53.79 -52.88 M 36.58 -51.12"/></g><g style="stroke-width: 1.2;stroke: rgb(159,159,0);stroke-opacity: 1.0;; fill: none" transform="matrix(1,0,0,1,257,150.5)" ><path d="M 36.58 -51.12 L 36.52 -54.87 L 53.74 -56.62 L 53.79 -52.88 M 36.58 -51.12"/></g><g style="fill: rgb(159,0,0);fill-opacity: 1.0; stroke: none" transform="matrix(1,0,0,1,257,150.5)" ><path d="M 76.88 -25.88 L 76.86 -29.6 L 93.91 -29.14 L 93.91 -25.44 M 76.88 -25.88"/></g><g style="stroke-width: 1.2;stroke: rgb(159,0,0);stroke-opacity: 1.0;; fill: none" transform="matrix(1,0,0,1,257,150.5)" ><path d="M 76.88 -25.88 L 76.86 -29.6 L 93.91 -29.14 L 93.91 -25.44 M 76.88 -25.88"/></g><g style="fill: rgb(229,229,0);fill-opacity: 1.0; stroke: none" transform="matrix(1,0,0,1,257,150.5)" ><path d="M 19.18 -50.83 L 16.95 -52.21 L 34.18 -56.21 L 36.52 -54.87 M 19.18 -50.83"/></g><g style="stroke-width: 1.2;stroke: rgb(229,229,0);stroke-opacity: 1.0;; fill: none" transform="matrix(1,0,0,1,257,150.5)" ><path d="M 19.18 -50.83 L 16.95 -52.21 L 34.18 -56.21 L 36.52 -54.87 M 19.18 -50.83"/></g><g style="fill: rgb(202,0,0);fill-opacity: 1.0; stroke: none" transform="matrix(1,0,0,1,257,150.5)" ><path d="M 59.62 -31.39 L 57.1 -32.9 L 74.23 -31.12 L 76.86 -29.6 M 59.62 -31.39"/></g><g style="stroke-width: 1.2;stroke: rgb(202,0,0);stroke-opacity: 1.0;; fill: none" transform="matrix(1,0,0,1,257,150.5)" ><path d="M 59.62 -31.39 L 57.1 -32.9 L 74.23 -31.12 L 76.86 -29.6 M 59.62 -31.39"/></g><g style="fill: rgb(0,34,76);fill-opacity: 1.0; stroke: none" transform="matrix(1,0,0,1,257,150.5)" ><path d="M 123.59 60.21 L 123.61 56.55 L 140.47 54.8 L 140.43 58.44 M 123.59 60.21"/></g><g style="stroke-width: 1.2;stroke: rgb(0,34,76);stroke-opacity: 1.0;; fill: none" transform="matrix(1,0,0,1,257,150.5)" ><path d="M 123.59 60.21 L 123.61 56.55 L 140.47 54.8 L 140.43 58.44 M 123.59 60.21"/></g><g style="fill: rgb(14,76,36);fill-opacity: 1.0; stroke: none" transform="matrix(1,0,0,1,257,150.5)" ><path d="M 100.21 9.82 L 100.21 6.11 L 117.18 7.47 L 117.17 11.15 M 100.21 9.82"/></g><g style="stroke-width: 1.2;stroke: rgb(14,76,36);stroke-opacity: 1.0;; fill: none" transform="matrix(1,0,0,1,257,150.5)" ><path d="M 100.21 9.82 L 100.21 6.11 L 117.18 7.47 L 117.17 11.15 M 100.21 9.82"/></g><g style="fill: rgb(0,45,100);fill-opacity: 1.0; stroke: none" transform="matrix(1,0,0,1,257,150.5)" ><path d="M 106.59 56.62 L 103.73 54.47 L 120.64 54.42 L 123.61 56.55 M 106.59 56.62"/></g><g style="stroke-width: 1.2;stroke: rgb(0,45,100);stroke-opacity: 1.0;; fill: none" transform="matrix(1,0,0,1,257,150.5)" ><path d="M 106.59 56.62 L 103.73 54.47 L 120.64 54.42 L 123.61 56.55 M 106.59 56.62"/></g><g style="fill: rgb(159,159,0);fill-opacity: 1.0; stroke: none" transform="matrix(1,0,0,1,257,150.5)" ><path d="M 19.26 -47.07 L 19.18 -50.83 L 36.52 -54.87 L 36.58 -51.12 M 19.26 -47.07"/></g><g style="stroke-width: 1.2;stroke: rgb(159,159,0);stroke-opacity: 1.0;; fill: none" transform="matrix(1,0,0,1,257,150.5)" ><path d="M 19.26 -47.07 L 19.18 -50.83 L 36.52 -54.87 L 36.58 -51.12 M 19.26 -47.07"/></g><g style="fill: rgb(19,101,47);fill-opacity: 1.0; stroke: none" transform="matrix(1,0,0,1,257,150.5)" ><path d="M 83.06 6.03 L 80.36 4.24 L 97.41 4.34 L 100.21 6.11 M 83.06 6.03"/></g><g style="stroke-width: 1.2;stroke: rgb(19,101,47);stroke-opacity: 1.0;; fill: none" transform="matrix(1,0,0,1,257,150.5)" ><path d="M 83.06 6.03 L 80.36 4.24 L 97.41 4.34 L 100.21 6.11 M 83.06 6.03"/></g><g style="fill: rgb(233,233,0);fill-opacity: 1.0; stroke: none" transform="matrix(1,0,0,1,257,150.5)" ><path d="M 1.72 -45.81 L -0.39 -47.22 L 16.95 -52.21 L 19.18 -50.83 M 1.72 -45.81"/></g><g style="stroke-width: 1.2;stroke: rgb(233,233,0);stroke-opacity: 1.0;; fill: none" transform="matrix(1,0,0,1,257,150.5)" ><path d="M 1.72 -45.81 L -0.39 -47.22 L 16.95 -52.21 L 19.18 -50.83 M 1.72 -45.81"/></g><g style="fill: rgb(159,0,0);fill-opacity: 1.0; stroke: none" transform="matrix(1,0,0,1,257,150.5)" ><path d="M 59.66 -27.64 L 59.62 -31.39 L 76.86 -29.6 L 76.88 -25.88 M 59.66 -27.64"/></g><g style="stroke-width: 1.2;stroke: rgb(159,0,0);stroke-opacity: 1.0;; fill: none" transform="matrix(1,0,0,1,257,150.5)" ><path d="M 59.66 -27.64 L 59.62 -31.39 L 76.86 -29.6 L 76.88 -25.88 M 59.66 -27.64"/></g><g style="fill: rgb(0,34,76);fill-opacity: 1.0; stroke: none" transform="matrix(1,0,0,1,257,150.5)" ><path d="M 106.59 60.29 L 106.59 56.62 L 123.61 56.55 L 123.59 60.21 M 106.59 60.29"/></g><g style="stroke-width: 1.2;stroke: rgb(0,34,76);stroke-opacity: 1.0;; fill: none" transform="matrix(1,0,0,1,257,150.5)" ><path d="M 106.59 60.29 L 106.59 56.62 L 123.61 56.55 L 123.59 60.21 M 106.59 60.29"/></g><g style="fill: rgb(217,0,0);fill-opacity: 1.0; stroke: none" transform="matrix(1,0,0,1,257,150.5)" ><path d="M 42.23 -30.23 L 39.82 -31.76 L 57.1 -32.9 L 59.62 -31.39 M 42.23 -30.23"/></g><g style="stroke-width: 1.2;stroke: rgb(217,0,0);stroke-opacity: 1.0;; fill: none" transform="matrix(1,0,0,1,257,150.5)" ><path d="M 42.23 -30.23 L 39.82 -31.76 L 57.1 -32.9 L 59.62 -31.39 M 42.23 -30.23"/></g><g style="fill: rgb(14,76,36);fill-opacity: 1.0; stroke: none" transform="matrix(1,0,0,1,257,150.5)" ><path d="M 83.07 9.75 L 83.06 6.03 L 100.21 6.11 L 100.21 9.82 M 83.07 9.75"/></g><g style="stroke-width: 1.2;stroke: rgb(14,76,36);stroke-opacity: 1.0;; fill: none" transform="matrix(1,0,0,1,257,150.5)" ><path d="M 83.07 9.75 L 83.06 6.03 L 100.21 6.11 L 100.21 9.82 M 83.07 9.75"/></g><g style="fill: rgb(159,159,0);fill-opacity: 1.0; stroke: none" transform="matrix(1,0,0,1,257,150.5)" ><path d="M 1.81 -42.04 L 1.72 -45.81 L 19.18 -50.83 L 19.26 -47.07 M 1.81 -42.04"/></g><g style="stroke-width: 1.2;stroke: rgb(159,159,0);stroke-opacity: 1.0;; fill: none" transform="matrix(1,0,0,1,257,150.5)" ><path d="M 1.81 -42.04 L 1.72 -45.81 L 19.18 -50.83 L 19.26 -47.07 M 1.81 -42.04"/></g><g style="fill: rgb(227,227,0);fill-opacity: 1.0; stroke: none" transform="matrix(1,0,0,1,257,150.5)" ><path d="M -15.92 -42.23 L -17.91 -43.68 L -0.39 -47.22 L 1.72 -45.81 M -15.92 -42.23"/></g><g style="stroke-width: 1.2;stroke: rgb(227,227,0);stroke-opacity: 1.0;; fill: none" transform="matrix(1,0,0,1,257,150.5)" ><path d="M -15.92 -42.23 L -17.91 -43.68 L -0.39 -47.22 L 1.72 -45.81 M -15.92 -42.23"/></g><g style="fill: rgb(0,46,103);fill-opacity: 1.0; stroke: none" transform="matrix(1,0,0,1,257,150.5)" ><path d="M 89.4 58.17 L 86.65 56.01 L 103.73 54.47 L 106.59 56.62 M 89.4 58.17"/></g><g style="stroke-width: 1.2;stroke: rgb(0,46,103);stroke-opacity: 1.0;; fill: none" transform="matrix(1,0,0,1,257,150.5)" ><path d="M 89.4 58.17 L 86.65 56.01 L 103.73 54.47 L 106.59 56.62 M 89.4 58.17"/></g><g style="fill: rgb(20,104,49);fill-opacity: 1.0; stroke: none" transform="matrix(1,0,0,1,257,150.5)" ><path d="M 65.73 7.41 L 63.15 5.61 L 80.36 4.24 L 83.06 6.03 M 65.73 7.41"/></g><g style="stroke-width: 1.2;stroke: rgb(20,104,49);stroke-opacity: 1.0;; fill: none" transform="matrix(1,0,0,1,257,150.5)" ><path d="M 65.73 7.41 L 63.15 5.61 L 80.36 4.24 L 83.06 6.03 M 65.73 7.41"/></g><g style="fill: rgb(159,0,0);fill-opacity: 1.0; stroke: none" transform="matrix(1,0,0,1,257,150.5)" ><path d="M 42.28 -26.46 L 42.23 -30.23 L 59.62 -31.39 L 59.66 -27.64 M 42.28 -26.46"/></g><g style="stroke-width: 1.2;stroke: rgb(159,0,0);stroke-opacity: 1.0;; fill: none" transform="matrix(1,0,0,1,257,150.5)" ><path d="M 42.28 -26.46 L 42.23 -30.23 L 59.62 -31.39 L 59.66 -27.64 M 42.28 -26.46"/></g><g style="fill: rgb(159,159,0);fill-opacity: 1.0; stroke: none" transform="matrix(1,0,0,1,257,150.5)" ><path d="M -15.81 -38.45 L -15.92 -42.23 L 1.72 -45.81 L 1.81 -42.04 M -15.81 -38.45"/></g><g style="stroke-width: 1.2;stroke: rgb(159,159,0);stroke-opacity: 1.0;; fill: none" transform="matrix(1,0,0,1,257,150.5)" ><path d="M -15.81 -38.45 L -15.92 -42.23 L 1.72 -45.81 L 1.81 -42.04 M -15.81 -38.45"/></g><g style="fill: rgb(0,34,76);fill-opacity: 1.0; stroke: none" transform="matrix(1,0,0,1,257,150.5)" ><path d="M 89.41 61.86 L 89.4 58.17 L 106.59 56.62 L 106.59 60.29 M 89.41 61.86"/></g><g style="stroke-width: 1.2;stroke: rgb(0,34,76);stroke-opacity: 1.0;; fill: none" transform="matrix(1,0,0,1,257,150.5)" ><path d="M 89.41 61.86 L 89.4 58.17 L 106.59 56.62 L 106.59 60.29 M 89.41 61.86"/></g><g style="fill: rgb(210,0,0);fill-opacity: 1.0; stroke: none" transform="matrix(1,0,0,1,257,150.5)" ><path d="M 24.64 -30.44 L 22.35 -31.97 L 39.82 -31.76 L 42.23 -30.23 M 24.64 -30.44"/></g><g style="stroke-width: 1.2;stroke: rgb(210,0,0);stroke-opacity: 1.0;; fill: none" transform="matrix(1,0,0,1,257,150.5)" ><path d="M 24.64 -30.44 L 22.35 -31.97 L 39.82 -31.76 L 42.23 -30.23 M 24.64 -30.44"/></g><g style="fill: rgb(14,76,36);fill-opacity: 1.0; stroke: none" transform="matrix(1,0,0,1,257,150.5)" ><path d="M 65.77 11.15 L 65.73 7.41 L 83.06 6.03 L 83.07 9.75 M 65.77 11.15"/></g><g style="stroke-width: 1.2;stroke: rgb(14,76,36);stroke-opacity: 1.0;; fill: none" transform="matrix(1,0,0,1,257,150.5)" ><path d="M 65.77 11.15 L 65.73 7.41 L 83.06 6.03 L 83.07 9.75 M 65.77 11.15"/></g><g style="fill: rgb(228,228,0);fill-opacity: 1.0; stroke: none" transform="matrix(1,0,0,1,257,150.5)" ><path d="M -33.7 -38.4 L -35.58 -39.88 L -17.91 -43.68 L -15.92 -42.23 M -33.7 -38.4"/></g><g style="stroke-width: 1.2;stroke: rgb(228,228,0);stroke-opacity: 1.0;; fill: none" transform="matrix(1,0,0,1,257,150.5)" ><path d="M -33.7 -38.4 L -35.58 -39.88 L -17.91 -43.68 L -15.92 -42.23 M -33.7 -38.4"/></g><g style="fill: rgb(0,48,107);fill-opacity: 1.0; stroke: none" transform="matrix(1,0,0,1,257,150.5)" ><path d="M 72.05 61.24 L 69.41 59.04 L 86.65 56.01 L 89.4 58.17 M 72.05 61.24"/></g><g style="stroke-width: 1.2;stroke: rgb(0,48,107);stroke-opacity: 1.0;; fill: none" transform="matrix(1,0,0,1,257,150.5)" ><path d="M 72.05 61.24 L 69.41 59.04 L 86.65 56.01 L 89.4 58.17 M 72.05 61.24"/></g><g style="fill: rgb(19,101,47);fill-opacity: 1.0; stroke: none" transform="matrix(1,0,0,1,257,150.5)" ><path d="M 48.22 7.33 L 45.75 5.51 L 63.15 5.61 L 65.73 7.41 M 48.22 7.33"/></g><g style="stroke-width: 1.2;stroke: rgb(19,101,47);stroke-opacity: 1.0;; fill: none" transform="matrix(1,0,0,1,257,150.5)" ><path d="M 48.22 7.33 L 45.75 5.51 L 63.15 5.61 L 65.73 7.41 M 48.22 7.33"/></g><g style="fill: rgb(159,0,0);fill-opacity: 1.0; stroke: none" transform="matrix(1,0,0,1,257,150.5)" ><path d="M 24.71 -26.65 L 24.64 -30.44 L 42.23 -30.23 L 42.28 -26.46 M 24.71 -26.65"/></g><g style="stroke-width: 1.2;stroke: rgb(159,0,0);stroke-opacity: 1.0;; fill: none" transform="matrix(1,0,0,1,257,150.5)" ><path d="M 24.71 -26.65 L 24.64 -30.44 L 42.23 -30.23 L 42.28 -26.46 M 24.71 -26.65"/></g><g style="fill: rgb(159,159,0);fill-opacity: 1.0; stroke: none" transform="matrix(1,0,0,1,257,150.5)" ><path d="M -33.57 -34.6 L -33.7 -38.4 L -15.92 -42.23 L -15.81 -38.45 M -33.57 -34.6"/></g><g style="stroke-width: 1.2;stroke: rgb(159,159,0);stroke-opacity: 1.0;; fill: none" transform="matrix(1,0,0,1,257,150.5)" ><path d="M -33.57 -34.6 L -33.7 -38.4 L -15.92 -42.23 L -15.81 -38.45 M -33.57 -34.6"/></g><g style="fill: rgb(0,34,76);fill-opacity: 1.0; stroke: none" transform="matrix(1,0,0,1,257,150.5)" ><path d="M 72.07 64.94 L 72.05 61.24 L 89.4 58.17 L 89.41 61.86 M 72.07 64.94"/></g><g style="stroke-width: 1.2;stroke: rgb(0,34,76);stroke-opacity: 1.0;; fill: none" transform="matrix(1,0,0,1,257,150.5)" ><path d="M 72.07 64.94 L 72.05 61.24 L 89.4 58.17 L 89.41 61.86 M 72.07 64.94"/></g><g style="fill: rgb(202,0,0);fill-opacity: 1.0; stroke: none" transform="matrix(1,0,0,1,257,150.5)" ><path d="M 6.83 -32.18 L 4.65 -33.71 L 22.35 -31.97 L 24.64 -30.44 M 6.83 -32.18"/></g><g style="stroke-width: 1.2;stroke: rgb(202,0,0);stroke-opacity: 1.0;; fill: none" transform="matrix(1,0,0,1,257,150.5)" ><path d="M 6.83 -32.18 L 4.65 -33.71 L 22.35 -31.97 L 24.64 -30.44 M 6.83 -32.18"/></g><g style="fill: rgb(214,214,0);fill-opacity: 1.0; stroke: none" transform="matrix(1,0,0,1,257,150.5)" ><path d="M -51.76 -37.76 L -53.51 -39.25 L -35.58 -39.88 L -33.7 -38.4 M -51.76 -37.76"/></g><g style="stroke-width: 1.2;stroke: rgb(214,214,0);stroke-opacity: 1.0;; fill: none" transform="matrix(1,0,0,1,257,150.5)" ><path d="M -51.76 -37.76 L -53.51 -39.25 L -35.58 -39.88 L -33.7 -38.4 M -51.76 -37.76"/></g><g style="fill: rgb(14,76,36);fill-opacity: 1.0; stroke: none" transform="matrix(1,0,0,1,257,150.5)" ><path d="M 48.27 11.09 L 48.22 7.33 L 65.73 7.41 L 65.77 11.15 M 48.27 11.09"/></g><g style="stroke-width: 1.2;stroke: rgb(14,76,36);stroke-opacity: 1.0;; fill: none" transform="matrix(1,0,0,1,257,150.5)" ><path d="M 48.27 11.09 L 48.22 7.33 L 65.73 7.41 L 65.77 11.15 M 48.27 11.09"/></g><g style="fill: rgb(0,48,107);fill-opacity: 1.0; stroke: none" transform="matrix(1,0,0,1,257,150.5)" ><path d="M 54.54 64.63 L 52.02 62.4 L 69.41 59.04 L 72.05 61.24 M 54.54 64.63"/></g><g style="stroke-width: 1.2;stroke: rgb(0,48,107);stroke-opacity: 1.0;; fill: none" transform="matrix(1,0,0,1,257,150.5)" ><path d="M 54.54 64.63 L 52.02 62.4 L 69.41 59.04 L 72.05 61.24 M 54.54 64.63"/></g><g style="fill: rgb(19,101,47);fill-opacity: 1.0; stroke: none" transform="matrix(1,0,0,1,257,150.5)" ><path d="M 30.53 7.21 L 28.17 5.38 L 45.75 5.51 L 48.22 7.33 M 30.53 7.21"/></g><g style="stroke-width: 1.2;stroke: rgb(19,101,47);stroke-opacity: 1.0;; fill: none" transform="matrix(1,0,0,1,257,150.5)" ><path d="M 30.53 7.21 L 28.17 5.38 L 45.75 5.51 L 48.22 7.33 M 30.53 7.21"/></g><g style="fill: rgb(159,0,0);fill-opacity: 1.0; stroke: none" transform="matrix(1,0,0,1,257,150.5)" ><path d="M 6.92 -28.37 L 6.83 -32.18 L 24.64 -30.44 L 24.71 -26.65 M 6.92 -28.37"/></g><g style="stroke-width: 1.2;stroke: rgb(159,0,0);stroke-opacity: 1.0;; fill: none" transform="matrix(1,0,0,1,257,150.5)" ><path d="M 6.92 -28.37 L 6.83 -32.18 L 24.64 -30.44 L 24.71 -26.65 M 6.92 -28.37"/></g><g style="fill: rgb(159,159,0);fill-opacity: 1.0; stroke: none" transform="matrix(1,0,0,1,257,150.5)" ><path d="M -51.61 -33.95 L -51.76 -37.76 L -33.7 -38.4 L -33.57 -34.6 M -51.61 -33.95"/></g><g style="stroke-width: 1.2;stroke: rgb(159,159,0);stroke-opacity: 1.0;; fill: none" transform="matrix(1,0,0,1,257,150.5)" ><path d="M -51.61 -33.95 L -51.76 -37.76 L -33.7 -38.4 L -33.57 -34.6 M -51.61 -33.95"/></g><g style="fill: rgb(0,34,76);fill-opacity: 1.0; stroke: none" transform="matrix(1,0,0,1,257,150.5)" ><path d="M 54.58 68.35 L 54.54 64.63 L 72.05 61.24 L 72.07 64.94 M 54.58 68.35"/></g><g style="stroke-width: 1.2;stroke: rgb(0,34,76);stroke-opacity: 1.0;; fill: none" transform="matrix(1,0,0,1,257,150.5)" ><path d="M 54.58 68.35 L 54.54 64.63 L 72.05 61.24 L 72.07 64.94 M 54.58 68.35"/></g><g style="fill: rgb(234,234,0);fill-opacity: 1.0; stroke: none" transform="matrix(1,0,0,1,257,150.5)" ><path d="M -69.79 -32.21 L -71.42 -33.75 L -53.51 -39.25 L -51.76 -37.76 M -69.79 -32.21"/></g><g style="stroke-width: 1.2;stroke: rgb(234,234,0);stroke-opacity: 1.0;; fill: none" transform="matrix(1,0,0,1,257,150.5)" ><path d="M -69.79 -32.21 L -71.42 -33.75 L -53.51 -39.25 L -51.76 -37.76 M -69.79 -32.21"/></g><g style="fill: rgb(0,47,105);fill-opacity: 1.0; stroke: none" transform="matrix(1,0,0,1,257,150.5)" ><path d="M 36.86 66.97 L 34.45 64.71 L 52.02 62.4 L 54.54 64.63 M 36.86 66.97"/></g><g style="stroke-width: 1.2;stroke: rgb(0,47,105);stroke-opacity: 1.0;; fill: none" transform="matrix(1,0,0,1,257,150.5)" ><path d="M 36.86 66.97 L 34.45 64.71 L 52.02 62.4 L 54.54 64.63 M 36.86 66.97"/></g><g style="fill: rgb(206,0,0);fill-opacity: 1.0; stroke: none" transform="matrix(1,0,0,1,257,150.5)" ><path d="M -11.16 -33.05 L -13.22 -34.59 L 4.65 -33.71 L 6.83 -32.18 M -11.16 -33.05"/></g><g style="stroke-width: 1.2;stroke: rgb(206,0,0);stroke-opacity: 1.0;; fill: none" transform="matrix(1,0,0,1,257,150.5)" ><path d="M -11.16 -33.05 L -13.22 -34.59 L 4.65 -33.71 L 6.83 -32.18 M -11.16 -33.05"/></g><g style="fill: rgb(14,76,36);fill-opacity: 1.0; stroke: none" transform="matrix(1,0,0,1,257,150.5)" ><path d="M 30.59 10.99 L 30.53 7.21 L 48.22 7.33 L 48.27 11.09 M 30.59 10.99"/></g><g style="stroke-width: 1.2;stroke: rgb(14,76,36);stroke-opacity: 1.0;; fill: none" transform="matrix(1,0,0,1,257,150.5)" ><path d="M 30.59 10.99 L 30.53 7.21 L 48.22 7.33 L 48.27 11.09 M 30.59 10.99"/></g><g style="fill: rgb(20,105,49);fill-opacity: 1.0; stroke: none" transform="matrix(1,0,0,1,257,150.5)" ><path d="M 12.68 9.11 L 10.45 7.27 L 28.17 5.38 L 30.53 7.21 M 12.68 9.11"/></g><g style="stroke-width: 1.2;stroke: rgb(20,105,49);stroke-opacity: 1.0;; fill: none" transform="matrix(1,0,0,1,257,150.5)" ><path d="M 12.68 9.11 L 10.45 7.27 L 28.17 5.38 L 30.53 7.21 M 12.68 9.11"/></g><g style="fill: rgb(159,159,0);fill-opacity: 1.0; stroke: none" transform="matrix(1,0,0,1,257,150.5)" ><path d="M -69.62 -28.39 L -69.79 -32.21 L -51.76 -37.76 L -51.61 -33.95 M -69.62 -28.39"/></g><g style="stroke-width: 1.2;stroke: rgb(159,159,0);stroke-opacity: 1.0;; fill: none" transform="matrix(1,0,0,1,257,150.5)" ><path d="M -69.62 -28.39 L -69.79 -32.21 L -51.76 -37.76 L -51.61 -33.95 M -69.62 -28.39"/></g><g style="fill: rgb(0,34,76);fill-opacity: 1.0; stroke: none" transform="matrix(1,0,0,1,257,150.5)" ><path d="M 36.92 70.7 L 36.86 66.97 L 54.54 64.63 L 54.58 68.35 M 36.92 70.7"/></g><g style="stroke-width: 1.2;stroke: rgb(0,34,76);stroke-opacity: 1.0;; fill: none" transform="matrix(1,0,0,1,257,150.5)" ><path d="M 36.92 70.7 L 36.86 66.97 L 54.54 64.63 L 54.58 68.35 M 36.92 70.7"/></g><g style="fill: rgb(159,0,0);fill-opacity: 1.0; stroke: none" transform="matrix(1,0,0,1,257,150.5)" ><path d="M -11.05 -29.22 L -11.16 -33.05 L 6.83 -32.18 L 6.92 -28.37 M -11.05 -29.22"/></g><g style="stroke-width: 1.2;stroke: rgb(159,0,0);stroke-opacity: 1.0;; fill: none" transform="matrix(1,0,0,1,257,150.5)" ><path d="M -11.05 -29.22 L -11.16 -33.05 L 6.83 -32.18 L 6.92 -28.37 M -11.05 -29.22"/></g><g style="fill: rgb(224,224,0);fill-opacity: 1.0; stroke: none" transform="matrix(1,0,0,1,257,150.5)" ><path d="M -88.09 -29.4 L -89.59 -30.97 L -71.42 -33.75 L -69.79 -32.21 M -88.09 -29.4"/></g><g style="stroke-width: 1.2;stroke: rgb(224,224,0);stroke-opacity: 1.0;; fill: none" transform="matrix(1,0,0,1,257,150.5)" ><path d="M -88.09 -29.4 L -89.59 -30.97 L -71.42 -33.75 L -69.79 -32.21 M -88.09 -29.4"/></g><g style="fill: rgb(0,47,104);fill-opacity: 1.0; stroke: none" transform="matrix(1,0,0,1,257,150.5)" ><path d="M 19 69.06 L 16.71 66.77 L 34.45 64.71 L 36.86 66.97 M 19 69.06"/></g><g style="stroke-width: 1.2;stroke: rgb(0,47,104);stroke-opacity: 1.0;; fill: none" transform="matrix(1,0,0,1,257,150.5)" ><path d="M 19 69.06 L 16.71 66.77 L 34.45 64.71 L 36.86 66.97 M 19 69.06"/></g><g style="fill: rgb(14,76,36);fill-opacity: 1.0; stroke: none" transform="matrix(1,0,0,1,257,150.5)" ><path d="M 12.77 12.91 L 12.68 9.11 L 30.53 7.21 L 30.59 10.99 M 12.77 12.91"/></g><g style="stroke-width: 1.2;stroke: rgb(14,76,36);stroke-opacity: 1.0;; fill: none" transform="matrix(1,0,0,1,257,150.5)" ><path d="M 12.77 12.91 L 12.68 9.11 L 30.53 7.21 L 30.59 10.99 M 12.77 12.91"/></g><g style="fill: rgb(215,0,0);fill-opacity: 1.0; stroke: none" transform="matrix(1,0,0,1,257,150.5)" ><path d="M -29.29 -32.11 L -31.22 -33.66 L -13.22 -34.59 L -11.16 -33.05 M -29.29 -32.11"/></g><g style="stroke-width: 1.2;stroke: rgb(215,0,0);stroke-opacity: 1.0;; fill: none" transform="matrix(1,0,0,1,257,150.5)" ><path d="M -29.29 -32.11 L -31.22 -33.66 L -13.22 -34.59 L -11.16 -33.05 M -29.29 -32.11"/></g><g style="fill: rgb(159,159,0);fill-opacity: 1.0; stroke: none" transform="matrix(1,0,0,1,257,150.5)" ><path d="M -87.91 -25.56 L -88.09 -29.4 L -69.79 -32.21 L -69.62 -28.39 M -87.91 -25.56"/></g><g style="stroke-width: 1.2;stroke: rgb(159,159,0);stroke-opacity: 1.0;; fill: none" transform="matrix(1,0,0,1,257,150.5)" ><path d="M -87.91 -25.56 L -88.09 -29.4 L -69.79 -32.21 L -69.62 -28.39 M -87.91 -25.56"/></g><g style="fill: rgb(20,104,49);fill-opacity: 1.0; stroke: none" transform="matrix(1,0,0,1,257,150.5)" ><path d="M -5.34 10.54 L -7.46 8.68 L 10.45 7.27 L 12.68 9.11 M -5.34 10.54"/></g><g style="stroke-width: 1.2;stroke: rgb(20,104,49);stroke-opacity: 1.0;; fill: none" transform="matrix(1,0,0,1,257,150.5)" ><path d="M -5.34 10.54 L -7.46 8.68 L 10.45 7.27 L 12.68 9.11 M -5.34 10.54"/></g><g style="fill: rgb(236,236,0);fill-opacity: 1.0; stroke: none" transform="matrix(1,0,0,1,257,150.5)" ><path d="M -106.38 -23.19 L -107.76 -24.81 L -89.59 -30.97 L -88.09 -29.4 M -106.38 -23.19"/></g><g style="stroke-width: 1.2;stroke: rgb(236,236,0);stroke-opacity: 1.0;; fill: none" transform="matrix(1,0,0,1,257,150.5)" ><path d="M -106.38 -23.19 L -107.76 -24.81 L -89.59 -30.97 L -88.09 -29.4 M -106.38 -23.19"/></g><g style="fill: rgb(0,34,76);fill-opacity: 1.0; stroke: none" transform="matrix(1,0,0,1,257,150.5)" ><path d="M 19.08 72.81 L 19 69.06 L 36.86 66.97 L 36.92 70.7 M 19.08 72.81"/></g><g style="stroke-width: 1.2;stroke: rgb(0,34,76);stroke-opacity: 1.0;; fill: none" transform="matrix(1,0,0,1,257,150.5)" ><path d="M 19.08 72.81 L 19 69.06 L 36.86 66.97 L 36.92 70.7 M 19.08 72.81"/></g><g style="fill: rgb(159,0,0);fill-opacity: 1.0; stroke: none" transform="matrix(1,0,0,1,257,150.5)" ><path d="M -29.16 -28.26 L -29.29 -32.11 L -11.16 -33.05 L -11.05 -29.22 M -29.16 -28.26"/></g><g style="stroke-width: 1.2;stroke: rgb(159,0,0);stroke-opacity: 1.0;; fill: none" transform="matrix(1,0,0,1,257,150.5)" ><path d="M -29.16 -28.26 L -29.29 -32.11 L -11.16 -33.05 L -11.05 -29.22 M -29.16 -28.26"/></g><g style="fill: rgb(0,47,105);fill-opacity: 1.0; stroke: none" transform="matrix(1,0,0,1,257,150.5)" ><path d="M 0.98 71.51 L -1.19 69.19 L 16.71 66.77 L 19 69.06 M 0.98 71.51"/></g><g style="stroke-width: 1.2;stroke: rgb(0,47,105);stroke-opacity: 1.0;; fill: none" transform="matrix(1,0,0,1,257,150.5)" ><path d="M 0.98 71.51 L -1.19 69.19 L 16.71 66.77 L 19 69.06 M 0.98 71.51"/></g><g style="fill: rgb(231,0,0);fill-opacity: 1.0; stroke: none" transform="matrix(1,0,0,1,257,150.5)" ><path d="M -47.46 -27.41 L -49.27 -29 L -31.22 -33.66 L -29.29 -32.11 M -47.46 -27.41"/></g><g style="stroke-width: 1.2;stroke: rgb(231,0,0);stroke-opacity: 1.0;; fill: none" transform="matrix(1,0,0,1,257,150.5)" ><path d="M -47.46 -27.41 L -49.27 -29 L -31.22 -33.66 L -29.29 -32.11 M -47.46 -27.41"/></g><g style="fill: rgb(14,76,36);fill-opacity: 1.0; stroke: none" transform="matrix(1,0,0,1,257,150.5)" ><path d="M -5.24 14.36 L -5.34 10.54 L 12.68 9.11 L 12.77 12.91 M -5.24 14.36"/></g><g style="stroke-width: 1.2;stroke: rgb(14,76,36);stroke-opacity: 1.0;; fill: none" transform="matrix(1,0,0,1,257,150.5)" ><path d="M -5.24 14.36 L -5.34 10.54 L 12.68 9.11 L 12.77 12.91 M -5.24 14.36"/></g><g style="fill: rgb(159,159,0);fill-opacity: 1.0; stroke: none" transform="matrix(1,0,0,1,257,150.5)" ><path d="M -106.18 -19.34 L -106.38 -23.19 L -88.09 -29.4 L -87.91 -25.56 M -106.18 -19.34"/></g><g style="stroke-width: 1.2;stroke: rgb(159,159,0);stroke-opacity: 1.0;; fill: none" transform="matrix(1,0,0,1,257,150.5)" ><path d="M -106.18 -19.34 L -106.38 -23.19 L -88.09 -29.4 L -87.91 -25.56 M -106.18 -19.34"/></g><g style="fill: rgb(224,224,0);fill-opacity: 1.0; stroke: none" transform="matrix(1,0,0,1,257,150.5)" ><path d="M -125 -20.2 L -126.25 -21.85 L -107.76 -24.81 L -106.38 -23.19 M -125 -20.2"/></g><g style="stroke-width: 1.2;stroke: rgb(224,224,0);stroke-opacity: 1.0;; fill: none" transform="matrix(1,0,0,1,257,150.5)" ><path d="M -125 -20.2 L -126.25 -21.85 L -107.76 -24.81 L -106.38 -23.19 M -125 -20.2"/></g><g style="fill: rgb(19,101,47);fill-opacity: 1.0; stroke: none" transform="matrix(1,0,0,1,257,150.5)" ><path d="M -23.6 10.55 L -25.59 8.68 L -7.46 8.68 L -5.34 10.54 M -23.6 10.55"/></g><g style="stroke-width: 1.2;stroke: rgb(19,101,47);stroke-opacity: 1.0;; fill: none" transform="matrix(1,0,0,1,257,150.5)" ><path d="M -23.6 10.55 L -25.59 8.68 L -7.46 8.68 L -5.34 10.54 M -23.6 10.55"/></g><g style="fill: rgb(0,34,76);fill-opacity: 1.0; stroke: none" transform="matrix(1,0,0,1,257,150.5)" ><path d="M 1.07 75.27 L 0.98 71.51 L 19 69.06 L 19.08 72.81 M 1.07 75.27"/></g><g style="stroke-width: 1.2;stroke: rgb(0,34,76);stroke-opacity: 1.0;; fill: none" transform="matrix(1,0,0,1,257,150.5)" ><path d="M 1.07 75.27 L 0.98 71.51 L 19 69.06 L 19.08 72.81 M 1.07 75.27"/></g><g style="fill: rgb(159,0,0);fill-opacity: 1.0; stroke: none" transform="matrix(1,0,0,1,257,150.5)" ><path d="M -47.32 -23.55 L -47.46 -27.41 L -29.29 -32.11 L -29.16 -28.26 M -47.32 -23.55"/></g><g style="stroke-width: 1.2;stroke: rgb(159,0,0);stroke-opacity: 1.0;; fill: none" transform="matrix(1,0,0,1,257,150.5)" ><path d="M -47.32 -23.55 L -47.46 -27.41 L -29.29 -32.11 L -29.16 -28.26 M -47.32 -23.55"/></g><g style="fill: rgb(0,48,107);fill-opacity: 1.0; stroke: none" transform="matrix(1,0,0,1,257,150.5)" ><path d="M -17.2 74.75 L -19.24 72.4 L -1.19 69.19 L 0.98 71.51 M -17.2 74.75"/></g><g style="stroke-width: 1.2;stroke: rgb(0,48,107);stroke-opacity: 1.0;; fill: none" transform="matrix(1,0,0,1,257,150.5)" ><path d="M -17.2 74.75 L -19.24 72.4 L -1.19 69.19 L 0.98 71.51 M -17.2 74.75"/></g><g style="fill: rgb(213,0,0);fill-opacity: 1.0; stroke: none" transform="matrix(1,0,0,1,257,150.5)" ><path d="M -65.96 -26.9 L -67.64 -28.5 L -49.27 -29 L -47.46 -27.41 M -65.96 -26.9"/></g><g style="stroke-width: 1.2;stroke: rgb(213,0,0);stroke-opacity: 1.0;; fill: none" transform="matrix(1,0,0,1,257,150.5)" ><path d="M -65.96 -26.9 L -67.64 -28.5 L -49.27 -29 L -47.46 -27.41 M -65.96 -26.9"/></g><g style="fill: rgb(159,159,0);fill-opacity: 1.0; stroke: none" transform="matrix(1,0,0,1,257,150.5)" ><path d="M -124.78 -16.34 L -125 -20.2 L -106.38 -23.19 L -106.18 -19.34 M -124.78 -16.34"/></g><g style="stroke-width: 1.2;stroke: rgb(159,159,0);stroke-opacity: 1.0;; fill: none" transform="matrix(1,0,0,1,257,150.5)" ><path d="M -124.78 -16.34 L -125 -20.2 L -106.38 -23.19 L -106.18 -19.34 M -124.78 -16.34"/></g><g style="fill: rgb(14,76,36);fill-opacity: 1.0; stroke: none" transform="matrix(1,0,0,1,257,150.5)" ><path d="M -23.48 14.39 L -23.6 10.55 L -5.34 10.54 L -5.24 14.36 M -23.48 14.39"/></g><g style="stroke-width: 1.2;stroke: rgb(14,76,36);stroke-opacity: 1.0;; fill: none" transform="matrix(1,0,0,1,257,150.5)" ><path d="M -23.48 14.39 L -23.6 10.55 L -5.34 10.54 L -5.24 14.36 M -23.48 14.39"/></g><g style="fill: rgb(234,234,0);fill-opacity: 1.0; stroke: none" transform="matrix(1,0,0,1,257,150.5)" ><path d="M -143.63 -14.57 L -144.74 -16.26 L -126.25 -21.85 L -125 -20.2 M -143.63 -14.57"/></g><g style="stroke-width: 1.2;stroke: rgb(234,234,0);stroke-opacity: 1.0;; fill: none" transform="matrix(1,0,0,1,257,150.5)" ><path d="M -143.63 -14.57 L -144.74 -16.26 L -126.25 -21.85 L -125 -20.2 M -143.63 -14.57"/></g><g style="fill: rgb(0,34,76);fill-opacity: 1.0; stroke: none" transform="matrix(1,0,0,1,257,150.5)" ><path d="M -17.09 78.53 L -17.2 74.75 L 0.98 71.51 L 1.07 75.27 M -17.09 78.53"/></g><g style="stroke-width: 1.2;stroke: rgb(0,34,76);stroke-opacity: 1.0;; fill: none" transform="matrix(1,0,0,1,257,150.5)" ><path d="M -17.09 78.53 L -17.2 74.75 L 0.98 71.51 L 1.07 75.27 M -17.09 78.53"/></g><g style="fill: rgb(18,97,45);fill-opacity: 1.0; stroke: none" transform="matrix(1,0,0,1,257,150.5)" ><path d="M -42.11 8.89 L -43.98 7.02 L -25.59 8.68 L -23.6 10.55 M -42.11 8.89"/></g><g style="stroke-width: 1.2;stroke: rgb(18,97,45);stroke-opacity: 1.0;; fill: none" transform="matrix(1,0,0,1,257,150.5)" ><path d="M -42.11 8.89 L -43.98 7.02 L -25.59 8.68 L -23.6 10.55 M -42.11 8.89"/></g><g style="fill: rgb(159,0,0);fill-opacity: 1.0; stroke: none" transform="matrix(1,0,0,1,257,150.5)" ><path d="M -65.8 -23.02 L -65.96 -26.9 L -47.46 -27.41 L -47.32 -23.55 M -65.8 -23.02"/></g><g style="stroke-width: 1.2;stroke: rgb(159,0,0);stroke-opacity: 1.0;; fill: none" transform="matrix(1,0,0,1,257,150.5)" ><path d="M -65.8 -23.02 L -65.96 -26.9 L -47.46 -27.41 L -47.32 -23.55 M -65.8 -23.02"/></g><g style="fill: rgb(0,48,106);fill-opacity: 1.0; stroke: none" transform="matrix(1,0,0,1,257,150.5)" ><path d="M -35.55 77.87 L -37.47 75.48 L -19.24 72.4 L -17.2 74.75 M -35.55 77.87"/></g><g style="stroke-width: 1.2;stroke: rgb(0,48,106);stroke-opacity: 1.0;; fill: none" transform="matrix(1,0,0,1,257,150.5)" ><path d="M -35.55 77.87 L -37.47 75.48 L -19.24 72.4 L -17.2 74.75 M -35.55 77.87"/></g><g style="fill: rgb(159,159,0);fill-opacity: 1.0; stroke: none" transform="matrix(1,0,0,1,257,150.5)" ><path d="M -143.39 -10.69 L -143.63 -14.57 L -125 -20.2 L -124.78 -16.34 M -143.39 -10.69"/></g><g style="stroke-width: 1.2;stroke: rgb(159,159,0);stroke-opacity: 1.0;; fill: none" transform="matrix(1,0,0,1,257,150.5)" ><path d="M -143.39 -10.69 L -143.63 -14.57 L -125 -20.2 L -124.78 -16.34 M -143.39 -10.69"/></g><g style="fill: rgb(221,0,0);fill-opacity: 1.0; stroke: none" transform="matrix(1,0,0,1,257,150.5)" ><path d="M -84.57 -24.58 L -86.12 -26.2 L -67.64 -28.5 L -65.96 -26.9 M -84.57 -24.58"/></g><g style="stroke-width: 1.2;stroke: rgb(221,0,0);stroke-opacity: 1.0;; fill: none" transform="matrix(1,0,0,1,257,150.5)" ><path d="M -84.57 -24.58 L -86.12 -26.2 L -67.64 -28.5 L -65.96 -26.9 M -84.57 -24.58"/></g><g style="fill: rgb(238,238,0);fill-opacity: 1.0; stroke: none" transform="matrix(1,0,0,1,257,150.5)" ><path d="M -162.3 -7.28 L -163.28 -9.03 L -144.74 -16.26 L -143.63 -14.57 M -162.3 -7.28"/></g><g style="stroke-width: 1.2;stroke: rgb(238,238,0);stroke-opacity: 1.0;; fill: none" transform="matrix(1,0,0,1,257,150.5)" ><path d="M -162.3 -7.28 L -163.28 -9.03 L -144.74 -16.26 L -143.63 -14.57 M -162.3 -7.28"/></g><g style="fill: rgb(210,210,0);fill-opacity: 1.0; stroke: none" transform="matrix(1,0,0,1,257,150.5)" ><path d="M -162.04 -3.4 L -163.02 -5.18 L -163.28 -9.03 L -162.3 -7.28 M -162.04 -3.4"/></g><g style="stroke-width: 1.2;stroke: rgb(210,210,0);stroke-opacity: 1.0;; fill: none" transform="matrix(1,0,0,1,257,150.5)" ><path d="M -162.04 -3.4 L -163.02 -5.18 L -163.28 -9.03 L -162.3 -7.28 M -162.04 -3.4"/></g><g style="fill: rgb(14,76,36);fill-opacity: 1.0; stroke: none" transform="matrix(1,0,0,1,257,150.5)" ><path d="M -41.97 12.75 L -42.11 8.89 L -23.6 10.55 L -23.48 14.39 M -41.97 12.75"/></g><g style="stroke-width: 1.2;stroke: rgb(14,76,36);stroke-opacity: 1.0;; fill: none" transform="matrix(1,0,0,1,257,150.5)" ><path d="M -41.97 12.75 L -42.11 8.89 L -23.6 10.55 L -23.48 14.39 M -41.97 12.75"/></g><g style="fill: rgb(0,34,76);fill-opacity: 1.0; stroke: none" transform="matrix(1,0,0,1,257,150.5)" ><path d="M -35.42 81.66 L -35.55 77.87 L -17.2 74.75 L -17.09 78.53 M -35.42 81.66"/></g><g style="stroke-width: 1.2;stroke: rgb(0,34,76);stroke-opacity: 1.0;; fill: none" transform="matrix(1,0,0,1,257,150.5)" ><path d="M -35.42 81.66 L -35.55 77.87 L -17.2 74.75 L -17.09 78.53 M -35.42 81.66"/></g><g style="fill: rgb(159,0,0);fill-opacity: 1.0; stroke: none" transform="matrix(1,0,0,1,257,150.5)" ><path d="M -84.39 -20.68 L -84.57 -24.58 L -65.96 -26.9 L -65.8 -23.02 M -84.39 -20.68"/></g><g style="stroke-width: 1.2;stroke: rgb(159,0,0);stroke-opacity: 1.0;; fill: none" transform="matrix(1,0,0,1,257,150.5)" ><path d="M -84.39 -20.68 L -84.57 -24.58 L -65.96 -26.9 L -65.8 -23.02 M -84.39 -20.68"/></g><g style="fill: rgb(159,159,0);fill-opacity: 1.0; stroke: none" transform="matrix(1,0,0,1,257,150.5)" ><path d="M -162.04 -3.4 L -162.3 -7.28 L -143.63 -14.57 L -143.39 -10.69 M -162.04 -3.4"/></g><g style="stroke-width: 1.2;stroke: rgb(159,159,0);stroke-opacity: 1.0;; fill: none" transform="matrix(1,0,0,1,257,150.5)" ><path d="M -162.04 -3.4 L -162.3 -7.28 L -143.63 -14.57 L -143.39 -10.69 M -162.04 -3.4"/></g><g style="fill: rgb(19,97,46);fill-opacity: 1.0; stroke: none" transform="matrix(1,0,0,1,257,150.5)" ><path d="M -60.83 7.4 L -62.57 5.53 L -43.98 7.02 L -42.11 8.89 M -60.83 7.4"/></g><g style="stroke-width: 1.2;stroke: rgb(19,97,46);stroke-opacity: 1.0;; fill: none" transform="matrix(1,0,0,1,257,150.5)" ><path d="M -60.83 7.4 L -62.57 5.53 L -43.98 7.02 L -42.11 8.89 M -60.83 7.4"/></g><g style="fill: rgb(0,47,105);fill-opacity: 1.0; stroke: none" transform="matrix(1,0,0,1,257,150.5)" ><path d="M -54.1 80.44 L -55.88 78.02 L -37.47 75.48 L -35.55 77.87 M -54.1 80.44"/></g><g style="stroke-width: 1.2;stroke: rgb(0,47,105);stroke-opacity: 1.0;; fill: none" transform="matrix(1,0,0,1,257,150.5)" ><path d="M -54.1 80.44 L -55.88 78.02 L -37.47 75.48 L -35.55 77.87 M -54.1 80.44"/></g><g style="fill: rgb(179,0,0);fill-opacity: 1.0; stroke: none" transform="matrix(1,0,0,1,257,150.5)" ><path d="M -103.79 -30.7 L -105.21 -32.29 L -86.12 -26.2 L -84.57 -24.58 M -103.79 -30.7"/></g><g style="stroke-width: 1.2;stroke: rgb(179,0,0);stroke-opacity: 1.0;; fill: none" transform="matrix(1,0,0,1,257,150.5)" ><path d="M -103.79 -30.7 L -105.21 -32.29 L -86.12 -26.2 L -84.57 -24.58 M -103.79 -30.7"/></g><g style="fill: rgb(14,76,36);fill-opacity: 1.0; stroke: none" transform="matrix(1,0,0,1,257,150.5)" ><path d="M -60.67 11.28 L -60.83 7.4 L -42.11 8.89 L -41.97 12.75 M -60.67 11.28"/></g><g style="stroke-width: 1.2;stroke: rgb(14,76,36);stroke-opacity: 1.0;; fill: none" transform="matrix(1,0,0,1,257,150.5)" ><path d="M -60.67 11.28 L -60.83 7.4 L -42.11 8.89 L -41.97 12.75 M -60.67 11.28"/></g><g style="fill: rgb(0,34,76);fill-opacity: 1.0; stroke: none" transform="matrix(1,0,0,1,257,150.5)" ><path d="M -53.94 84.24 L -54.1 80.44 L -35.55 77.87 L -35.42 81.66 M -53.94 84.24"/></g><g style="stroke-width: 1.2;stroke: rgb(0,34,76);stroke-opacity: 1.0;; fill: none" transform="matrix(1,0,0,1,257,150.5)" ><path d="M -53.94 84.24 L -54.1 80.44 L -35.55 77.87 L -35.42 81.66 M -53.94 84.24"/></g><g style="fill: rgb(0,46,103);fill-opacity: 1.0; stroke: none" transform="matrix(1,0,0,1,257,150.5)" ><path d="M -72.86 82.22 L -74.52 79.78 L -55.88 78.02 L -54.1 80.44 M -72.86 82.22"/></g><g style="stroke-width: 1.2;stroke: rgb(0,46,103);stroke-opacity: 1.0;; fill: none" transform="matrix(1,0,0,1,257,150.5)" ><path d="M -72.86 82.22 L -74.52 79.78 L -55.88 78.02 L -54.1 80.44 M -72.86 82.22"/></g><g style="fill: rgb(159,0,0);fill-opacity: 1.0; stroke: none" transform="matrix(1,0,0,1,257,150.5)" ><path d="M -103.59 -26.77 L -103.79 -30.7 L -84.57 -24.58 L -84.39 -20.68 M -103.59 -26.77"/></g><g style="stroke-width: 1.2;stroke: rgb(159,0,0);stroke-opacity: 1.0;; fill: none" transform="matrix(1,0,0,1,257,150.5)" ><path d="M -103.59 -26.77 L -103.79 -30.7 L -84.57 -24.58 L -84.39 -20.68 M -103.59 -26.77"/></g><g style="fill: rgb(18,96,45);fill-opacity: 1.0; stroke: none" transform="matrix(1,0,0,1,257,150.5)" ><path d="M -79.8 5.26 L -81.4 3.4 L -62.57 5.53 L -60.83 7.4 M -79.8 5.26"/></g><g style="stroke-width: 1.2;stroke: rgb(18,96,45);stroke-opacity: 1.0;; fill: none" transform="matrix(1,0,0,1,257,150.5)" ><path d="M -79.8 5.26 L -81.4 3.4 L -62.57 5.53 L -60.83 7.4 M -79.8 5.26"/></g><g style="fill: rgb(204,0,0);fill-opacity: 1.0; stroke: none" transform="matrix(1,0,0,1,257,150.5)" ><path d="M -123 -32.07 L -124.29 -33.66 L -105.21 -32.29 L -103.79 -30.7 M -123 -32.07"/></g><g style="stroke-width: 1.2;stroke: rgb(204,0,0);stroke-opacity: 1.0;; fill: none" transform="matrix(1,0,0,1,257,150.5)" ><path d="M -123 -32.07 L -124.29 -33.66 L -105.21 -32.29 L -103.79 -30.7 M -123 -32.07"/></g><g style="fill: rgb(0,34,76);fill-opacity: 1.0; stroke: none" transform="matrix(1,0,0,1,257,150.5)" ><path d="M -72.69 86.05 L -72.86 82.22 L -54.1 80.44 L -53.94 84.24 M -72.69 86.05"/></g><g style="stroke-width: 1.2;stroke: rgb(0,34,76);stroke-opacity: 1.0;; fill: none" transform="matrix(1,0,0,1,257,150.5)" ><path d="M -72.69 86.05 L -72.86 82.22 L -54.1 80.44 L -53.94 84.24 M -72.69 86.05"/></g><g style="fill: rgb(14,76,36);fill-opacity: 1.0; stroke: none" transform="matrix(1,0,0,1,257,150.5)" ><path d="M -79.62 9.17 L -79.8 5.26 L -60.83 7.4 L -60.67 11.28 M -79.62 9.17"/></g><g style="stroke-width: 1.2;stroke: rgb(14,76,36);stroke-opacity: 1.0;; fill: none" transform="matrix(1,0,0,1,257,150.5)" ><path d="M -79.62 9.17 L -79.8 5.26 L -60.83 7.4 L -60.67 11.28 M -79.62 9.17"/></g><g style="fill: rgb(0,46,104);fill-opacity: 1.0; stroke: none" transform="matrix(1,0,0,1,257,150.5)" ><path d="M -91.81 84.21 L -93.33 81.75 L -74.52 79.78 L -72.86 82.22 M -91.81 84.21"/></g><g style="stroke-width: 1.2;stroke: rgb(0,46,104);stroke-opacity: 1.0;; fill: none" transform="matrix(1,0,0,1,257,150.5)" ><path d="M -91.81 84.21 L -93.33 81.75 L -74.52 79.78 L -72.86 82.22 M -91.81 84.21"/></g><g style="fill: rgb(21,110,52);fill-opacity: 1.0; stroke: none" transform="matrix(1,0,0,1,257,150.5)" ><path d="M -98.66 9.72 L -100.13 7.81 L -81.4 3.4 L -79.8 5.26 M -98.66 9.72"/></g><g style="stroke-width: 1.2;stroke: rgb(21,110,52);stroke-opacity: 1.0;; fill: none" transform="matrix(1,0,0,1,257,150.5)" ><path d="M -98.66 9.72 L -100.13 7.81 L -81.4 3.4 L -79.8 5.26 M -98.66 9.72"/></g><g style="fill: rgb(159,0,0);fill-opacity: 1.0; stroke: none" transform="matrix(1,0,0,1,257,150.5)" ><path d="M -122.78 -28.12 L -123 -32.07 L -103.79 -30.7 L -103.59 -26.77 M -122.78 -28.12"/></g><g style="stroke-width: 1.2;stroke: rgb(159,0,0);stroke-opacity: 1.0;; fill: none" transform="matrix(1,0,0,1,257,150.5)" ><path d="M -122.78 -28.12 L -123 -32.07 L -103.79 -30.7 L -103.59 -26.77 M -122.78 -28.12"/></g><g style="fill: rgb(0,34,76);fill-opacity: 1.0; stroke: none" transform="matrix(1,0,0,1,257,150.5)" ><path d="M -91.62 88.06 L -91.81 84.21 L -72.86 82.22 L -72.69 86.05 M -91.62 88.06"/></g><g style="stroke-width: 1.2;stroke: rgb(0,34,76);stroke-opacity: 1.0;; fill: none" transform="matrix(1,0,0,1,257,150.5)" ><path d="M -91.62 88.06 L -91.81 84.21 L -72.86 82.22 L -72.69 86.05 M -91.62 88.06"/></g><g style="fill: rgb(200,0,0);fill-opacity: 1.0; stroke: none" transform="matrix(1,0,0,1,257,150.5)" ><path d="M -142.5 -34.26 L -143.64 -35.85 L -124.29 -33.66 L -123 -32.07 M -142.5 -34.26"/></g><g style="stroke-width: 1.2;stroke: rgb(200,0,0);stroke-opacity: 1.0;; fill: none" transform="matrix(1,0,0,1,257,150.5)" ><path d="M -142.5 -34.26 L -143.64 -35.85 L -124.29 -33.66 L -123 -32.07 M -142.5 -34.26"/></g><g style="fill: rgb(14,76,36);fill-opacity: 1.0; stroke: none" transform="matrix(1,0,0,1,257,150.5)" ><path d="M -98.47 13.64 L -98.66 9.72 L -79.8 5.26 L -79.62 9.17 M -98.47 13.64"/></g><g style="stroke-width: 1.2;stroke: rgb(14,76,36);stroke-opacity: 1.0;; fill: none" transform="matrix(1,0,0,1,257,150.5)" ><path d="M -98.47 13.64 L -98.66 9.72 L -79.8 5.26 L -79.62 9.17 M -98.47 13.64"/></g><g style="fill: rgb(0,48,107);fill-opacity: 1.0; stroke: none" transform="matrix(1,0,0,1,257,150.5)" ><path d="M -110.85 87.98 L -112.24 85.48 L -93.33 81.75 L -91.81 84.21 M -110.85 87.98"/></g><g style="stroke-width: 1.2;stroke: rgb(0,48,107);stroke-opacity: 1.0;; fill: none" transform="matrix(1,0,0,1,257,150.5)" ><path d="M -110.85 87.98 L -112.24 85.48 L -93.33 81.75 L -91.81 84.21 M -110.85 87.98"/></g><g style="fill: rgb(20,104,49);fill-opacity: 1.0; stroke: none" transform="matrix(1,0,0,1,257,150.5)" ><path d="M -117.87 11.08 L -119.2 9.15 L -100.13 7.81 L -98.66 9.72 M -117.87 11.08"/></g><g style="stroke-width: 1.2;stroke: rgb(20,104,49);stroke-opacity: 1.0;; fill: none" transform="matrix(1,0,0,1,257,150.5)" ><path d="M -117.87 11.08 L -119.2 9.15 L -100.13 7.81 L -98.66 9.72 M -117.87 11.08"/></g><g style="fill: rgb(159,0,0);fill-opacity: 1.0; stroke: none" transform="matrix(1,0,0,1,257,150.5)" ><path d="M -142.25 -30.28 L -142.5 -34.26 L -123 -32.07 L -122.78 -28.12 M -142.25 -30.28"/></g><g style="stroke-width: 1.2;stroke: rgb(159,0,0);stroke-opacity: 1.0;; fill: none" transform="matrix(1,0,0,1,257,150.5)" ><path d="M -142.25 -30.28 L -142.5 -34.26 L -123 -32.07 L -122.78 -28.12 M -142.25 -30.28"/></g><g style="fill: rgb(0,34,76);fill-opacity: 1.0; stroke: none" transform="matrix(1,0,0,1,257,150.5)" ><path d="M -110.64 91.84 L -110.85 87.98 L -91.81 84.21 L -91.62 88.06 M -110.64 91.84"/></g><g style="stroke-width: 1.2;stroke: rgb(0,34,76);stroke-opacity: 1.0;; fill: none" transform="matrix(1,0,0,1,257,150.5)" ><path d="M -110.64 91.84 L -110.85 87.98 L -91.81 84.21 L -91.62 88.06 M -110.64 91.84"/></g><g style="fill: rgb(14,76,36);fill-opacity: 1.0; stroke: none" transform="matrix(1,0,0,1,257,150.5)" ><path d="M -117.65 15.02 L -117.87 11.08 L -98.66 9.72 L -98.47 13.64 M -117.65 15.02"/></g><g style="stroke-width: 1.2;stroke: rgb(14,76,36);stroke-opacity: 1.0;; fill: none" transform="matrix(1,0,0,1,257,150.5)" ><path d="M -117.65 15.02 L -117.87 11.08 L -98.66 9.72 L -98.47 13.64 M -117.65 15.02"/></g><g style="fill: rgb(0,46,104);fill-opacity: 1.0; stroke: none" transform="matrix(1,0,0,1,257,150.5)" ><path d="M -130.18 89.99 L -131.43 87.45 L -112.24 85.48 L -110.85 87.98 M -130.18 89.99"/></g><g style="stroke-width: 1.2;stroke: rgb(0,46,104);stroke-opacity: 1.0;; fill: none" transform="matrix(1,0,0,1,257,150.5)" ><path d="M -130.18 89.99 L -131.43 87.45 L -112.24 85.48 L -110.85 87.98 M -130.18 89.99"/></g><g style="fill: rgb(185,0,0);fill-opacity: 1.0; stroke: none" transform="matrix(1,0,0,1,257,150.5)" ><path d="M -162.42 -39.56 L -163.42 -41.11 L -143.64 -35.85 L -142.5 -34.26 M -162.42 -39.56"/></g><g style="stroke-width: 1.2;stroke: rgb(185,0,0);stroke-opacity: 1.0;; fill: none" transform="matrix(1,0,0,1,257,150.5)" ><path d="M -162.42 -39.56 L -163.42 -41.11 L -143.64 -35.85 L -142.5 -34.26 M -162.42 -39.56"/></g><g style="fill: rgb(20,106,50);fill-opacity: 1.0; stroke: none" transform="matrix(1,0,0,1,257,150.5)" ><path d="M -137.22 13.29 L -138.41 11.34 L -119.2 9.15 L -117.87 11.08 M -137.22 13.29"/></g><g style="stroke-width: 1.2;stroke: rgb(20,106,50);stroke-opacity: 1.0;; fill: none" transform="matrix(1,0,0,1,257,150.5)" ><path d="M -137.22 13.29 L -138.41 11.34 L -119.2 9.15 L -117.87 11.08 M -137.22 13.29"/></g><g style="fill: rgb(0,34,76);fill-opacity: 1.0; stroke: none" transform="matrix(1,0,0,1,257,150.5)" ><path d="M -129.95 93.87 L -130.18 89.99 L -110.85 87.98 L -110.64 91.84 M -129.95 93.87"/></g><g style="stroke-width: 1.2;stroke: rgb(0,34,76);stroke-opacity: 1.0;; fill: none" transform="matrix(1,0,0,1,257,150.5)" ><path d="M -129.95 93.87 L -130.18 89.99 L -110.85 87.98 L -110.64 91.84 M -129.95 93.87"/></g><g style="fill: rgb(210,0,0);fill-opacity: 1.0; stroke: none" transform="matrix(1,0,0,1,257,150.5)" ><path d="M -162.16 -35.55 L -163.16 -37.13 L -163.42 -41.11 L -162.42 -39.56 M -162.16 -35.55"/></g><g style="stroke-width: 1.2;stroke: rgb(210,0,0);stroke-opacity: 1.0;; fill: none" transform="matrix(1,0,0,1,257,150.5)" ><path d="M -162.16 -35.55 L -163.16 -37.13 L -163.42 -41.11 L -162.42 -39.56 M -162.16 -35.55"/></g><g style="fill: rgb(159,0,0);fill-opacity: 1.0; stroke: none" transform="matrix(1,0,0,1,257,150.5)" ><path d="M -162.16 -35.55 L -162.42 -39.56 L -142.5 -34.26 L -142.25 -30.28 M -162.16 -35.55"/></g><g style="stroke-width: 1.2;stroke: rgb(159,0,0);stroke-opacity: 1.0;; fill: none" transform="matrix(1,0,0,1,257,150.5)" ><path d="M -162.16 -35.55 L -162.42 -39.56 L -142.5 -34.26 L -142.25 -30.28 M -162.16 -35.55"/></g><g style="fill: rgb(14,76,36);fill-opacity: 1.0; stroke: none" transform="matrix(1,0,0,1,257,150.5)" ><path d="M -136.98 17.25 L -137.22 13.29 L -117.87 11.08 L -117.65 15.02 M -136.98 17.25"/></g><g style="stroke-width: 1.2;stroke: rgb(14,76,36);stroke-opacity: 1.0;; fill: none" transform="matrix(1,0,0,1,257,150.5)" ><path d="M -136.98 17.25 L -137.22 13.29 L -117.87 11.08 L -117.65 15.02 M -136.98 17.25"/></g><g style="fill: rgb(0,47,105);fill-opacity: 1.0; stroke: none" transform="matrix(1,0,0,1,257,150.5)" ><path d="M -149.66 92.8 L -150.77 90.23 L -131.43 87.45 L -130.18 89.99 M -149.66 92.8"/></g><g style="stroke-width: 1.2;stroke: rgb(0,47,105);stroke-opacity: 1.0;; fill: none" transform="matrix(1,0,0,1,257,150.5)" ><path d="M -149.66 92.8 L -150.77 90.23 L -131.43 87.45 L -130.18 89.99 M -149.66 92.8"/></g><g style="fill: rgb(20,106,50);fill-opacity: 1.0; stroke: none" transform="matrix(1,0,0,1,257,150.5)" ><path d="M -156.77 15.53 L -157.82 13.54 L -138.41 11.34 L -137.22 13.29 M -156.77 15.53"/></g><g style="stroke-width: 1.2;stroke: rgb(20,106,50);stroke-opacity: 1.0;; fill: none" transform="matrix(1,0,0,1,257,150.5)" ><path d="M -156.77 15.53 L -157.82 13.54 L -138.41 11.34 L -137.22 13.29 M -156.77 15.53"/></g><g style="fill: rgb(0,45,100);fill-opacity: 1.0; stroke: none" transform="matrix(1,0,0,1,257,150.5)" ><path d="M -149.41 96.7 L -150.52 94.1 L -150.77 90.23 L -149.66 92.8 M -149.41 96.7"/></g><g style="stroke-width: 1.2;stroke: rgb(0,45,100);stroke-opacity: 1.0;; fill: none" transform="matrix(1,0,0,1,257,150.5)" ><path d="M -149.41 96.7 L -150.52 94.1 L -150.77 90.23 L -149.66 92.8 M -149.41 96.7"/></g><g style="fill: rgb(19,101,47);fill-opacity: 1.0; stroke: none" transform="matrix(1,0,0,1,257,150.5)" ><path d="M -156.51 19.5 L -157.56 17.49 L -157.82 13.54 L -156.77 15.53 M -156.51 19.5"/></g><g style="stroke-width: 1.2;stroke: rgb(19,101,47);stroke-opacity: 1.0;; fill: none" transform="matrix(1,0,0,1,257,150.5)" ><path d="M -156.51 19.5 L -157.56 17.49 L -157.82 13.54 L -156.77 15.53 M -156.51 19.5"/></g><g style="fill: rgb(0,34,76);fill-opacity: 1.0; stroke: none" transform="matrix(1,0,0,1,257,150.5)" ><path d="M -149.41 96.7 L -149.66 92.8 L -130.18 89.99 L -129.95 93.87 M -149.41 96.7"/></g><g style="stroke-width: 1.2;stroke: rgb(0,34,76);stroke-opacity: 1.0;; fill: none" transform="matrix(1,0,0,1,257,150.5)" ><path d="M -149.41 96.7 L -149.66 92.8 L -130.18 89.99 L -129.95 93.87 M -149.41 96.7"/></g><g style="fill: rgb(14,76,36);fill-opacity: 1.0; stroke: none" transform="matrix(1,0,0,1,257,150.5)" ><path d="M -156.51 19.5 L -156.77 15.53 L -137.22 13.29 L -136.98 17.25 M -156.51 19.5"/></g><g style="stroke-width: 1.2;stroke: rgb(14,76,36);stroke-opacity: 1.0;; fill: none" transform="matrix(1,0,0,1,257,150.5)" ><path d="M -156.51 19.5 L -156.77 15.53 L -137.22 13.29 L -136.98 17.25 M -156.51 19.5"/></g><line x1="-166.54" y1="107.02" x2="176.27" y2="66.83" style="stroke-width: 1.0;stroke: rgb(128,128,128);stroke-opacity: 1.0;" transform="matrix(1,0,0,1,257,150.5)" /><line x1="-147.82" y1="104.83" x2="-147.47" y2="107.8" style="stroke-width: 0.5;stroke: rgb(128,128,128);stroke-opacity: 1.0;" transform="matrix(1,0,0,1,257,150.5)" /><g transform="matrix(0.116449,0.993197,-0.993197,0.116449,239.221823,396.02604)"><text x="-146.89" y="117.74" style="fill: rgb(0,0,0); font-family: SansSerif; font-size: 12px; " text-rendering="auto" >Jan-12</text></g><line x1="-128.19" y1="102.52" x2="-127.84" y2="105.5" style="stroke-width: 0.5;stroke: rgb(128,128,128);stroke-opacity: 1.0;" transform="matrix(1,0,0,1,257,150.5)" /><g transform="matrix(0.116449,0.993197,-0.993197,0.116449,254.278765,374.49788)"><text x="-127.26" y="115.44" style="fill: rgb(0,0,0); font-family: SansSerif; font-size: 12px; " text-rendering="auto" >Feb-12</text></g><line x1="-108.76" y1="100.25" x2="-108.41" y2="103.23" style="stroke-width: 0.5;stroke: rgb(128,128,128);stroke-opacity: 1.0;" transform="matrix(1,0,0,1,257,150.5)" /><g transform="matrix(0.116449,0.993197,-0.993197,0.116449,269.182245,353.189131)"><text x="-107.83" y="113.16" style="fill: rgb(0,0,0); font-family: SansSerif; font-size: 12px; " text-rendering="auto" >Mar-12</text></g><line x1="-89.53" y1="97.99" x2="-89.18" y2="100.97" style="stroke-width: 0.5;stroke: rgb(128,128,128);stroke-opacity: 1.0;" transform="matrix(1,0,0,1,257,150.5)" /><g transform="matrix(0.116449,0.993197,-0.993197,0.116449,283.934598,332.096467)"><text x="-88.6" y="110.91" style="fill: rgb(0,0,0); font-family: SansSerif; font-size: 12px; " text-rendering="auto" >Apr-12</text></g><line x1="-70.49" y1="95.76" x2="-70.14" y2="98.74" style="stroke-width: 0.5;stroke: rgb(128,128,128);stroke-opacity: 1.0;" transform="matrix(1,0,0,1,257,150.5)" /><g transform="matrix(0.116449,0.993197,-0.993197,0.116449,298.538118,311.216608)"><text x="-69.56" y="108.67" style="fill: rgb(0,0,0); font-family: SansSerif; font-size: 12px; " text-rendering="auto" >May-12</text></g><line x1="-51.65" y1="93.55" x2="-51.3" y2="96.53" style="stroke-width: 0.5;stroke: rgb(128,128,128);stroke-opacity: 1.0;" transform="matrix(1,0,0,1,257,150.5)" /><g transform="matrix(0.116449,0.993197,-0.993197,0.116449,312.995039,290.546355)"><text x="-50.72" y="106.46" style="fill: rgb(0,0,0); font-family: SansSerif; font-size: 12px; " text-rendering="auto" >Jun-12</text></g><line x1="-32.99" y1="91.36" x2="-32.64" y2="94.34" style="stroke-width: 0.5;stroke: rgb(128,128,128);stroke-opacity: 1.0;" transform="matrix(1,0,0,1,257,150.5)" /><g transform="matrix(0.116449,0.993197,-0.993197,0.116449,327.307561,270.082563)"><text x="-32.06" y="104.28" style="fill: rgb(0,0,0); font-family: SansSerif; font-size: 12px; " text-rendering="auto" >Jul-12</text></g><line x1="-14.52" y1="89.2" x2="-14.17" y2="92.18" style="stroke-width: 0.5;stroke: rgb(128,128,128);stroke-opacity: 1.0;" transform="matrix(1,0,0,1,257,150.5)" /><g transform="matrix(0.116449,0.993197,-0.993197,0.116449,341.477825,249.822156)"><text x="-13.58" y="102.11" style="fill: rgb(0,0,0); font-family: SansSerif; font-size: 12px; " text-rendering="auto" >Aug-12</text></g><line x1="3.77" y1="87.05" x2="4.12" y2="90.03" style="stroke-width: 0.5;stroke: rgb(128,128,128);stroke-opacity: 1.0;" transform="matrix(1,0,0,1,257,150.5)" /><g transform="matrix(0.116449,0.993197,-0.993197,0.116449,355.507958,229.762117)"><text x="4.7" y="99.97" style="fill: rgb(0,0,0); font-family: SansSerif; font-size: 12px; " text-rendering="auto" >Sep-12</text></g><line x1="21.88" y1="84.93" x2="22.23" y2="87.91" style="stroke-width: 0.5;stroke: rgb(128,128,128);stroke-opacity: 1.0;" transform="matrix(1,0,0,1,257,150.5)" /><g transform="matrix(0.116449,0.993197,-0.993197,0.116449,369.400014,209.89948)"><text x="22.81" y="97.84" style="fill: rgb(0,0,0); font-family: SansSerif; font-size: 12px; " text-rendering="auto" >Oct-12</text></g><line x1="39.82" y1="82.83" x2="40.16" y2="85.81" style="stroke-width: 0.5;stroke: rgb(128,128,128);stroke-opacity: 1.0;" transform="matrix(1,0,0,1,257,150.5)" /><g transform="matrix(0.116449,0.993197,-0.993197,0.116449,383.156039,190.231366)"><text x="40.75" y="95.74" style="fill: rgb(0,0,0); font-family: SansSerif; font-size: 12px; " text-rendering="auto" >Nov-12</text></g><line x1="57.57" y1="80.74" x2="57.92" y2="83.72" style="stroke-width: 0.5;stroke: rgb(128,128,128);stroke-opacity: 1.0;" transform="matrix(1,0,0,1,257,150.5)" /><g transform="matrix(0.116449,0.993197,-0.993197,0.116449,396.778001,170.754905)"><text x="58.5" y="93.66" style="fill: rgb(0,0,0); font-family: SansSerif; font-size: 12px; " text-rendering="auto" >Dec-12</text></g><line x1="75.16" y1="78.68" x2="75.51" y2="81.66" style="stroke-width: 0.5;stroke: rgb(128,128,128);stroke-opacity: 1.0;" transform="matrix(1,0,0,1,257,150.5)" /><g transform="matrix(0.116449,0.993197,-0.993197,0.116449,410.267864,151.467326)"><text x="76.09" y="91.6" style="fill: rgb(0,0,0); font-family: SansSerif; font-size: 12px; " text-rendering="auto" >Jan-13</text></g><line x1="92.57" y1="76.64" x2="92.92" y2="79.62" style="stroke-width: 0.5;stroke: rgb(128,128,128);stroke-opacity: 1.0;" transform="matrix(1,0,0,1,257,150.5)" /><g transform="matrix(0.116449,0.993197,-0.993197,0.116449,423.627538,132.365904)"><text x="93.51" y="89.55" style="fill: rgb(0,0,0); font-family: SansSerif; font-size: 12px; " text-rendering="auto" >Feb-13</text></g><line x1="109.82" y1="74.62" x2="110.17" y2="77.6" style="stroke-width: 0.5;stroke: rgb(128,128,128);stroke-opacity: 1.0;" transform="matrix(1,0,0,1,257,150.5)" /><g transform="matrix(0.116449,0.993197,-0.993197,0.116449,436.858903,113.447927)"><text x="110.75" y="87.53" style="fill: rgb(0,0,0); font-family: SansSerif; font-size: 12px; " text-rendering="auto" >Mar-13</text></g><line x1="126.91" y1="72.61" x2="127.26" y2="75.59" style="stroke-width: 0.5;stroke: rgb(128,128,128);stroke-opacity: 1.0;" transform="matrix(1,0,0,1,257,150.5)" /><g transform="matrix(0.116449,0.993197,-0.993197,0.116449,449.963777,94.71079)"><text x="127.84" y="85.53" style="fill: rgb(0,0,0); font-family: SansSerif; font-size: 12px; " text-rendering="auto" >Apr-13</text></g><line x1="143.83" y1="70.63" x2="144.18" y2="73.61" style="stroke-width: 0.5;stroke: rgb(128,128,128);stroke-opacity: 1.0;" transform="matrix(1,0,0,1,257,150.5)" /><g transform="matrix(0.116449,0.993197,-0.993197,0.116449,462.944004,76.151899)"><text x="144.76" y="83.55" style="fill: rgb(0,0,0); font-family: SansSerif; font-size: 12px; " text-rendering="auto" >May-13</text></g><line x1="160.59" y1="68.67" x2="160.94" y2="71.65" style="stroke-width: 0.5;stroke: rgb(128,128,128);stroke-opacity: 1.0;" transform="matrix(1,0,0,1,257,150.5)" /><g transform="matrix(0.116449,0.993197,-0.993197,0.116449,475.801313,57.768732)"><text x="161.52" y="81.58" style="fill: rgb(0,0,0); font-family: SansSerif; font-size: 12px; " text-rendering="auto" >Jun-13</text></g><line x1="-175.75" y1="81.7" x2="-186.56" y2="-70.73" style="stroke-width: 1.0;stroke: rgb(128,128,128);stroke-opacity: 1.0;" transform="matrix(1,0,0,1,257,150.5)" /><line x1="-177.12" y1="62.44" x2="-180.11" y2="62.65" style="stroke-width: 0.5;stroke: rgb(128,128,128);stroke-opacity: 1.0;" transform="matrix(1,0,0,1,257,150.5)" /><g transform="matrix(0.997496,-0.070728,0.070728,0.997496,252.080268,137.565952)"><text x="-209.1" y="67.97" style="fill: rgb(0,0,0); font-family: SansSerif; font-size: 12px; " text-rendering="auto" >10%</text></g><line x1="-179.79" y1="24.73" x2="-182.79" y2="24.94" style="stroke-width: 0.5;stroke: rgb(128,128,128);stroke-opacity: 1.0;" transform="matrix(1,0,0,1,257,150.5)" /><g transform="matrix(0.997496,-0.070728,0.070728,0.997496,254.740547,137.282414)"><text x="-211.77" y="30.27" style="fill: rgb(0,0,0); font-family: SansSerif; font-size: 12px; " text-rendering="auto" >20%</text></g><line x1="-182.52" y1="-13.71" x2="-185.51" y2="-13.5" style="stroke-width: 0.5;stroke: rgb(128,128,128);stroke-opacity: 1.0;" transform="matrix(1,0,0,1,257,150.5)" /><g transform="matrix(0.997496,-0.070728,0.070728,0.997496,257.45256,136.993363)"><text x="-214.5" y="-8.18" style="fill: rgb(0,0,0); font-family: SansSerif; font-size: 12px; " text-rendering="auto" >30%</text></g><line x1="-185.3" y1="-52.91" x2="-188.29" y2="-52.69" style="stroke-width: 0.5;stroke: rgb(128,128,128);stroke-opacity: 1.0;" transform="matrix(1,0,0,1,257,150.5)" /><g transform="matrix(0.997496,-0.070728,0.070728,0.997496,260.217831,136.698635)"><text x="-217.28" y="-47.37" style="fill: rgb(0,0,0); font-family: SansSerif; font-size: 12px; " text-rendering="auto" >40%</text></g><g transform="matrix(0.070728,0.997496,-0.997496,0.070728,58.158456,380.853746)"><text x="-274.05" y="13.43" style="fill: rgb(0,0,0); font-family: SansSerif; font-size: 12px; font-weight: bold; " text-rendering="auto" >Market Share (%)</text></g><rect x="179" y="313" width="16" height="19" style="fill: rgb(255,255,255);fill-opacity: 1.0" transform="matrix(1,0,0,1,0,0)" /><rect x="-6" y="-4" width="12" height="8" style="fill: rgb(0,55,122);fill-opacity: 1.0" transform="matrix(1,0,0,1,187,322.5)" /><rect x="195" y="313" width="36" height="19" style="fill: rgb(255,255,255);fill-opacity: 1.0" transform="matrix(1,0,0,1,0,0)" /><g transform="matrix(1,0,0,1,0,0)"><text x="197" y="327.47" style="fill: rgb(0,0,0); font-family: Dialog; font-size: 12px; " text-rendering="auto" >Safari</text></g><rect x="235" y="313" width="16" height="19" style="fill: rgb(255,255,255);fill-opacity: 1.0" transform="matrix(1,0,0,1,0,0)" /><rect x="-6" y="-4" width="12" height="8" style="fill: rgb(24,123,58);fill-opacity: 1.0" transform="matrix(1,0,0,1,243,322.5)" /><rect x="251" y="313" width="43" height="19" style="fill: rgb(255,255,255);fill-opacity: 1.0" transform="matrix(1,0,0,1,0,0)" /><g transform="matrix(1,0,0,1,0,0)"><text x="253" y="327.47" style="fill: rgb(0,0,0); font-family: Dialog; font-size: 12px; " text-rendering="auto" >Firefox</text></g><rect x="300" y="313" width="16" height="19" style="fill: rgb(255,255,255);fill-opacity: 1.0" transform="matrix(1,0,0,1,0,0)" /><rect x="-6" y="-4" width="12" height="8" style="fill: rgb(255,0,0);fill-opacity: 1.0" transform="matrix(1,0,0,1,308,322.5)" /><rect x="316" y="313" width="101" height="19" style="fill: rgb(255,255,255);fill-opacity: 1.0" transform="matrix(1,0,0,1,0,0)" /><g transform="matrix(1,0,0,1,0,0)"><text x="318" y="327.47" style="fill: rgb(0,0,0); font-family: Dialog; font-size: 12px; " text-rendering="auto" >Internet Explorer</text></g><rect x="423" y="313" width="16" height="19" style="fill: rgb(255,255,255);fill-opacity: 1.0" transform="matrix(1,0,0,1,0,0)" /><rect x="-6" y="-4" width="12" height="8" style="fill: rgb(255,255,0);fill-opacity: 1.0" transform="matrix(1,0,0,1,431,322.5)" /><rect x="439" y="313" width="49" height="19" style="fill: rgb(255,255,255);fill-opacity: 1.0" transform="matrix(1,0,0,1,0,0)" /><g transform="matrix(1,0,0,1,0,0)"><text x="441" y="327.47" style="fill: rgb(0,0,0); font-family: Dialog; font-size: 12px; " text-rendering="auto" >Chrome</text></g><rect x="251" y="336" width="243" height="17" style="fill: rgb(255,255,255);fill-opacity: 1.0" transform="matrix(1,0,0,1,0,0)" /><g transform="matrix(1,0,0,1,0,0)"><text x="253" y="348.89" style="fill: rgb(0,0,0); font-family: Dialog; font-size: 10px; " text-rendering="auto" >Orson Charts (c) 2013, by Object Refinery Limited</text></g><rect x="6" y="6" width="281" height="29" style="fill: rgb(255,255,255);fill-opacity: 1.0" transform="matrix(1,0,0,1,0,0)" /><g transform="matrix(1,0,0,1,0,0)"><text x="8" y="28.78" style="fill: rgb(0,0,0); font-family: Dialog; font-size: 20px; font-weight: bold; " text-rendering="auto" >Web Browser Market Share</text></g><rect x="6" y="35" width="198" height="19" style="fill: rgb(255,255,255);fill-opacity: 1.0" transform="matrix(1,0,0,1,0,0)" /><g transform="matrix(1,0,0,1,0,0)"><text x="8" y="49.47" style="fill: rgb(0,0,0); font-family: Dialog; font-size: 12px; " text-rendering="auto" >Source: http://gs.statcounter.com</text></g></svg>
